<svg xmlns="http://www.w3.org/2000/svg" width="29.359" height="24.326" viewBox="0 0 29.359 24.326">
  <g id="noun-subtask-21227190" transform="translate(-70.081 -52.336)">
    <path id="Path_1060" data-name="Path 1060" d="M145.6,139.61h-4.973a.622.622,0,1,0,0,1.243H145.6a.622.622,0,1,0,0-1.243Z" transform="translate(-64.951 -82.762)" fill="#80b3cc"/>
    <path id="Path_1061" data-name="Path 1061" d="M169.98,174.7h-3.108a.622.622,0,0,0,0,1.243h3.108a.622.622,0,0,0,0-1.243Z" transform="translate(-91.346 -116.037)" fill="#80b3cc"/>
    <path id="Path_1062" data-name="Path 1062" d="M478.717,140.232a.622.622,0,0,0-.622-.622h-4.973a.622.622,0,0,0,0,1.243H478.1a.622.622,0,0,0,.622-.622Z" transform="translate(-384.249 -82.762)" fill="#80b3cc"/>
    <path id="Path_1063" data-name="Path 1063" d="M473.122,174.7a.622.622,0,0,0,0,1.243h3.108a.622.622,0,1,0,0-1.243Z" transform="translate(-382.238 -116.037)" fill="#80b3cc"/>
    <path id="Path_1064" data-name="Path 1064" d="M98.64,70.263,96.576,69.1a1.377,1.377,0,0,0-.342-.131V66.338a.459.459,0,0,0-.459-.459H85.217v-1.7a1.374,1.374,0,0,0,.342-.138l3.9-2.2a1.745,1.745,0,0,0,.8-1.376V56.1a1.744,1.744,0,0,0-.8-1.376l-3.9-2.2a1.812,1.812,0,0,0-1.606,0l-3.9,2.2a1.743,1.743,0,0,0-.8,1.376v4.372a1.743,1.743,0,0,0,.8,1.376l3.9,2.2a1.371,1.371,0,0,0,.346.124v1.7H73.747a.459.459,0,0,0-.459.459v2.523a.453.453,0,0,0,.011.1,1.381,1.381,0,0,0-.353.133l-2.065,1.168a1.744,1.744,0,0,0-.8,1.376v2.294a1.744,1.744,0,0,0,.8,1.376l2.065,1.168a1.828,1.828,0,0,0,1.6,0l2.065-1.168a1.744,1.744,0,0,0,.8-1.376V71.638a1.744,1.744,0,0,0-.8-1.376l-2.065-1.168a1.374,1.374,0,0,0-.353-.133.459.459,0,0,0,.011-.1V66.8H84.3v2.161a1.384,1.384,0,0,0-.342.131l-2.065,1.168a1.744,1.744,0,0,0-.8,1.376v2.294a1.744,1.744,0,0,0,.8,1.376l2.065,1.168h0a1.81,1.81,0,0,0,1.606,0L87.628,75.3h0a1.743,1.743,0,0,0,.8-1.376V71.633a1.743,1.743,0,0,0-.8-1.376l-2.065-1.168a1.371,1.371,0,0,0-.346-.124V66.8H95.311v2.161a1.384,1.384,0,0,0-.342.131L92.9,70.257a1.744,1.744,0,0,0-.8,1.376v2.294a1.744,1.744,0,0,0,.8,1.376l2.065,1.168h0a1.81,1.81,0,0,0,1.606,0L98.64,75.3h0a1.743,1.743,0,0,0,.8-1.376V71.633a1.744,1.744,0,0,0-.8-1.37ZM75.124,71.695a.461.461,0,0,1-.459.8l-.984-.558-.851.516a.459.459,0,0,1-.459-.784l1.076-.658h0a.459.459,0,0,1,.459,0Zm11.012,0a.461.461,0,0,1-.459.8l-.984-.558-.851.516a.459.459,0,0,1-.459-.784l1.076-.658h0a.459.459,0,0,1,.459,0ZM84.653,56.07l-1.484.945h0a.459.459,0,0,1-.491-.771l1.721-1.1a.459.459,0,0,1,.479,0l1.95,1.147a.457.457,0,1,1-.459.791ZM97.317,72.321a.459.459,0,0,1-.624.174l-.984-.558-.856.516a.459.459,0,0,1-.459-.784l1.076-.658h0a.459.459,0,0,1,.459,0l1.218.688a.459.459,0,0,1,.17.622Z" fill="#80b3cc"/>
  </g>
</svg>
