<svg id="Component_2471_30" data-name="Component 2471 – 30" xmlns="http://www.w3.org/2000/svg" width="37.483" height="32.954" viewBox="0 0 37.483 32.954">
  <g id="Rectangle_10104" data-name="Rectangle 10104" fill="#e2f5ff" stroke="#069" stroke-width="1">
    <rect width="37.483" height="32.954" rx="5" stroke="none"/>
    <rect x="0.5" y="0.5" width="36.483" height="31.954" rx="4.5" fill="none"/>
  </g>
  <g id="Group_16160" data-name="Group 16160" transform="translate(12 7.449)">
    <circle id="Ellipse_854" data-name="Ellipse 854" cx="3.576" cy="3.576" r="3.576" transform="translate(3.403 3.265)" fill="#e2f5ff"/>
    <path id="Path_17125" data-name="Path 17125" d="M22.981,5A6.785,6.785,0,0,0,16.2,11.781c0,5.557,6.781,11.274,6.781,11.274s6.781-5.717,6.781-11.274A6.785,6.785,0,0,0,22.981,5Zm0,9.99a3.21,3.21,0,1,1,3.21-3.21A3.219,3.219,0,0,1,22.981,14.99Z" transform="translate(-16.2 -5)" fill="#069"/>
  </g>
</svg>
