<svg xmlns="http://www.w3.org/2000/svg" width="27.161" height="27.319" viewBox="0 0 27.161 27.319">
  <g id="noun-crane-6877524" transform="translate(-13.938 -11.575)">
    <g id="Group_16115" data-name="Group 16115" transform="translate(13.938 11.575)">
      <path id="Path_14508" data-name="Path 14508" d="M35.7,28.706V25.443a1.111,1.111,0,0,0-1.111-1.111H27.923a1.111,1.111,0,0,0-1.111,1.111v3.263a1.111,1.111,0,0,0,1.111,1.111h6.665A1.111,1.111,0,0,0,35.7,28.706Z" transform="translate(-21.524 -19.797)" fill="#79adc9"/>
      <path id="Path_14509" data-name="Path 14509" d="M44.674,82.546a.37.37,0,0,0-.369-.371H33.566V80.615a.74.74,0,0,0-.74-.74h-5.9a.741.741,0,0,0-.74.74v1.559H25.016a.37.37,0,1,0,0,.74H44.3a.37.37,0,0,0,.369-.369Z" transform="translate(-20.128 -55.596)" fill="#79adc9"/>
      <path id="Path_14510" data-name="Path 14510" d="M31.387,41.844V54.623h3.651l-2.911-2.911v-1.7L36.1,46.043,32.127,42.07v-.226Z" transform="translate(-24.473 -31.083)" fill="#79adc9"/>
      <path id="Path_14511" data-name="Path 14511" d="M38.745,54.623V41.844H34.653L38,45.195v1.7l-3.973,3.973,3.759,3.759Z" transform="translate(-26.177 -31.084)" fill="#79adc9"/>
      <path id="Path_14512" data-name="Path 14512" d="M39.1,19.729V17.976a1.111,1.111,0,0,0-1.111-1.111H30.152L22.987,12.6a1.11,1.11,0,0,0-1.111-1.029h-.4A1.11,1.11,0,0,0,20.362,12.6L13.2,16.865h-.156a1.111,1.111,0,0,0-1.111,1.111v1.752a1.111,1.111,0,0,0,1.111,1.111h3.488a1.851,1.851,0,0,1-.033-.371V17.221a1.837,1.837,0,0,1,.033-.369H14.652l5.71-3.4v1.9h2.633V13.47l5.71,3.4H26.819c.022.115.033.74.033.74h.133L29.274,19.9l2.293-2.293h1.559l2.262,2.259,2.259-2.259h.34a.37.37,0,0,1,.371.34L36.206,20.1H34.573l-2.222-2.222L30.129,20.1h-1.7l-1.573-1.573v1.959a1.837,1.837,0,0,1-.033.369H37.987A1.112,1.112,0,0,0,39.1,19.729Z" transform="translate(-11.938 -11.575)" fill="#79adc9"/>
      <path id="Path_14513" data-name="Path 14513" d="M72,41.437a1.111,1.111,0,0,0,1.111-1.111v-.607H66.981v.607a1.111,1.111,0,0,0,1.111,1.111h1.582v2.055h-.742a.74.74,0,0,0-.74.742v3.213a.742.742,0,0,0,.74.742h.74v.689a1.6,1.6,0,0,0,.119,3.2H70a1.254,1.254,0,0,0,1.251-1.251.37.37,0,1,0-.74,0,.511.511,0,0,1-.511.511h-.211a.86.86,0,1,1,0-1.719h.251a.37.37,0,0,0,.371-.369V48.188h.74a.742.742,0,0,0,.74-.742V44.233a.742.742,0,0,0-.74-.742h-.74V41.437Z" transform="translate(-47.414 -29.714)" fill="#79adc9"/>
    </g>
  </g>
</svg>
