<svg xmlns="http://www.w3.org/2000/svg" width="24.257" height="25.066" viewBox="0 0 24.257 25.066">
  <g id="noun-population-2654167" transform="translate(-144.629 -54.93)">
    <path id="Path_14271" data-name="Path 14271" d="M154.48,61.594h4.556a1.9,1.9,0,0,1,1.952,1.84v4.748a1.856,1.856,0,0,1-1.293,1.732l-1,9.121a1.327,1.327,0,0,1-1.447.961h-.973a1.33,1.33,0,0,1-1.448-.961l-1-9.123a1.854,1.854,0,0,1-1.29-1.73V63.434a1.9,1.9,0,0,1,1.951-1.84Zm-7.9,0h4.556a2,2,0,0,1,1.165.366,2.417,2.417,0,0,0-.5,1.474v4.748a2.42,2.42,0,0,0,.5,1.475,2,2,0,0,1-.506.26l-1,9.119c-.057.527-.65.961-1.447.961h-.973a1.33,1.33,0,0,1-1.447-.961l-1-9.123a1.854,1.854,0,0,1-1.29-1.73V63.434a1.9,1.9,0,0,1,1.951-1.84Zm2.278-6.664a2.982,2.982,0,1,1-3.157,2.977A3.071,3.071,0,0,1,148.858,54.93Zm13.52,6.664h4.556a1.9,1.9,0,0,1,1.952,1.84v4.748a1.856,1.856,0,0,1-1.293,1.732l-1,9.121a1.327,1.327,0,0,1-1.447.961h-.973a1.33,1.33,0,0,1-1.448-.961l-1-9.121a1.974,1.974,0,0,1-.5-.258,2.421,2.421,0,0,0,.506-1.475V63.434a2.421,2.421,0,0,0-.506-1.474,2.017,2.017,0,0,1,1.165-.366Zm-5.62-6.664a2.982,2.982,0,1,1-3.157,2.977A3.071,3.071,0,0,1,156.758,54.93Zm7.9,0a2.982,2.982,0,1,1-3.157,2.977A3.071,3.071,0,0,1,164.656,54.93Z" transform="translate(0 0)" fill="#79adc9" fill-rule="evenodd"/>
  </g>
</svg>
