<svg xmlns="http://www.w3.org/2000/svg" width="19.05" height="25" viewBox="0 0 19.05 25">
  <path id="noun-bell-4815450" d="M182.321,53.26a2.47,2.47,0,0,1-2.476,1.981H165.814a2.47,2.47,0,0,1-2.476-1.981,2.383,2.383,0,0,1,1.267-2.521,2.488,2.488,0,0,0,1.256-2l.424-4.242h0a6.576,6.576,0,0,1,5.354-5.811V36.193a1.19,1.19,0,1,1,2.381,0v2.515a6.8,6.8,0,0,1,5.381,6.06l.4,3.971a2.488,2.488,0,0,0,1.256,2,2.384,2.384,0,0,1,1.267,2.521ZM172.83,60a2.381,2.381,0,0,0,2.381-2.381h-4.762A2.381,2.381,0,0,0,172.83,60Z" transform="translate(-163.305 -35.003)" fill="#79adc9"/>
</svg>
