<svg id="Component_2471_44" data-name="Component 2471 – 44" xmlns="http://www.w3.org/2000/svg" width="37.483" height="32.954" viewBox="0 0 37.483 32.954">
  <g id="Rectangle_10104" data-name="Rectangle 10104" fill="#e2f5ff" stroke="#069" stroke-width="1">
    <rect width="37.483" height="32.954" rx="5" stroke="none"/>
    <rect x="0.5" y="0.5" width="36.483" height="31.954" rx="4.5" fill="none"/>
  </g>
  <g id="noun-track-5903766" transform="translate(8.362 4.857)">
    <g id="Group_19880" data-name="Group 19880">
      <path id="Path_18477" data-name="Path 18477" d="M5.372.794a3.775,3.775,0,0,0-3.759,3.78,8.037,8.037,0,0,0,1.2,3.648A7.111,7.111,0,0,0,3.964,9.759a2.086,2.086,0,0,0,1.408.707h5.582a2.992,2.992,0,1,1,0,5.984H7.671a3.792,3.792,0,1,0,0,7.584H18.612a2.086,2.086,0,0,0,1.408-.707,7.117,7.117,0,0,0,1.156-1.539,8.034,8.034,0,0,0,1.2-3.647,3.759,3.759,0,1,0-7.519,0,8.034,8.034,0,0,0,1.2,3.647,7.366,7.366,0,0,0,1.062,1.444H7.671a2.991,2.991,0,1,1,0-5.982h3.283a3.793,3.793,0,1,0,0-7.587H6.875A7.358,7.358,0,0,0,7.937,8.222a8.037,8.037,0,0,0,1.2-3.648A3.776,3.776,0,0,0,5.372.794Zm0,1.982A1.518,1.518,0,1,1,3.861,4.293,1.52,1.52,0,0,1,5.372,2.775Zm0,.8a.716.716,0,1,0,.711.715A.713.713,0,0,0,5.372,3.578Zm13.24,12.766A1.517,1.517,0,1,1,17.1,17.861,1.522,1.522,0,0,1,18.612,16.344Zm0,.8a.716.716,0,1,0,.71.716A.714.714,0,0,0,18.612,17.145Z" transform="translate(-1.613 -0.794)" fill="#069"/>
    </g>
  </g>
</svg>
