<svg xmlns="http://www.w3.org/2000/svg" width="84" height="100" viewBox="0 0 84 100">
  <g id="Group_15511" data-name="Group 15511" transform="translate(7.695 -20.945)">
    <rect id="Rectangle_10420" data-name="Rectangle 10420" width="84" height="100" rx="5" transform="translate(-7.695 20.945)" fill="#297fa9"/>
    <g id="noun-empty-battery-6424292" transform="translate(-0.097 38.513)">
      <g id="Group_15395" data-name="Group 15395" transform="translate(18.872 4.17)">
        <rect id="Rectangle_11551" data-name="Rectangle 11551" width="19.902" height="3.99" transform="translate(5.567 46.971)" fill="#fff"/>
        <path id="Path_16949" data-name="Path 16949" d="M36.975,7.348H31.791V5.365A1.183,1.183,0,0,0,30.6,4.17H19.439a1.183,1.183,0,0,0-1.195,1.195V7.348H13.084A3.579,3.579,0,0,0,9.5,10.931V57.114A3.579,3.579,0,0,0,13.084,60.7H36.975a3.579,3.579,0,0,0,3.584-3.584V10.931A3.579,3.579,0,0,0,36.975,7.348ZM19.128,22.638a1.2,1.2,0,0,1,1.7-1.7l4.2,4.229,4.229-4.229a1.2,1.2,0,1,1,1.7,1.7l-4.229,4.229L30.955,31.1a1.183,1.183,0,0,1,0,1.7,1.2,1.2,0,0,1-.836.358,1.159,1.159,0,0,1-.836-.358L25.03,28.539,20.8,32.768a1.2,1.2,0,0,1-.836.358,1.159,1.159,0,0,1-.836-.358,1.183,1.183,0,0,1,0-1.7l4.229-4.229ZM37.381,56.325a1.183,1.183,0,0,1-1.195,1.195H13.9A1.183,1.183,0,0,1,12.7,56.325V49.946A1.183,1.183,0,0,1,13.9,48.752H36.187a1.183,1.183,0,0,1,1.195,1.195Z" transform="translate(-9.5 -4.17)" fill="#fff"/>
      </g>
    </g>
  </g>
</svg>
