<svg xmlns="http://www.w3.org/2000/svg" width="84" height="100" viewBox="0 0 84 100">
  <g id="Group_15510" data-name="Group 15510" transform="translate(7.695 -20.945)">
    <rect id="Rectangle_10420" data-name="Rectangle 10420" width="84" height="100" rx="5" transform="translate(-7.695 20.945)" fill="#297fa9"/>
    <g id="noun-offline-2490624" transform="translate(6.922 39.077)">
      <g id="Group_15397" data-name="Group 15397" transform="translate(2.45 11.9)">
        <path id="Path_16954" data-name="Path 16954" d="M19.741,18.493a7.762,7.762,0,0,1,.63-4.093A34.145,34.145,0,0,0,3.158,23.688a2.222,2.222,0,0,0,0,3.253,2.1,2.1,0,0,0,1.627.682,2.1,2.1,0,0,0,1.627-.682A29.2,29.2,0,0,1,19.846,19.28Z" transform="translate(-2.45 -13.088)" fill="#fff"/>
        <path id="Path_16955" data-name="Path 16955" d="M80.612,23.788A34.145,34.145,0,0,0,63.4,14.5a7.762,7.762,0,0,1,.63,4.093l-.1.787a30.154,30.154,0,0,1,13.434,7.661,2.3,2.3,0,0,0,3.253-3.253Z" transform="translate(-31.416 -13.136)" fill="#fff"/>
        <path id="Path_16956" data-name="Path 16956" d="M27.039,34.3a23.736,23.736,0,0,0-10.18,6.087,2.222,2.222,0,0,0,0,3.253,2.1,2.1,0,0,0,1.627.682,2.182,2.182,0,0,0,1.627-.682,19.387,19.387,0,0,1,7.556-4.67Z" transform="translate(-8.961 -22.545)" fill="#fff"/>
        <path id="Path_16957" data-name="Path 16957" d="M62.577,34.3,62,38.97a18.835,18.835,0,0,1,7.5,4.67,2.312,2.312,0,0,0,3.253,0,2.222,2.222,0,0,0,0-3.253A23.736,23.736,0,0,0,62.577,34.3Z" transform="translate(-30.751 -22.545)" fill="#fff"/>
        <path id="Path_16958" data-name="Path 16958" d="M30.594,56.939a2.312,2.312,0,0,0,0,3.253,2.265,2.265,0,0,0,1.627.682,2.182,2.182,0,0,0,1.627-.682,9.706,9.706,0,0,1,1.679-1.312L34.9,54A13.363,13.363,0,0,0,30.594,56.939Z" transform="translate(-15.507 -31.908)" fill="#fff"/>
        <path id="Path_16959" data-name="Path 16959" d="M60.03,54l-.63,4.88a9.892,9.892,0,0,1,1.627,1.312,2.312,2.312,0,0,0,3.253,0,2.222,2.222,0,0,0,0-3.253A12.608,12.608,0,0,0,60.03,54Z" transform="translate(-29.515 -31.908)" fill="#fff"/>
        <path id="Path_16960" data-name="Path 16960" d="M44.466,39.87a4.679,4.679,0,0,1,1.469-.157,8.009,8.009,0,0,1,1.574.157l2.834-22.984a2.153,2.153,0,0,0,.052-.577A4.434,4.434,0,0,0,45.987,11.9a4.5,4.5,0,0,0-4.408,4.933Z" transform="translate(-21.035 -11.9)" fill="#fff"/>
        <path id="Path_16961" data-name="Path 16961" d="M46.008,71.1a4.434,4.434,0,1,0,4.46,4.408A4.435,4.435,0,0,0,46.008,71.1Z" transform="translate(-21.056 -40.034)" fill="#fff"/>
      </g>
    </g>
  </g>
</svg>
