<svg xmlns="http://www.w3.org/2000/svg" width="84" height="100" viewBox="0 0 84 100">
  <g id="Group_15155" data-name="Group 15155" transform="translate(7.695 -20.945)">
    <rect id="Rectangle_10420" data-name="Rectangle 10420" width="84" height="100" rx="5" transform="translate(-7.695 20.945)" fill="#297fa9"/>
    <g id="noun-live-streaming-5010665" transform="translate(6.939 44.983)">
      <g id="Layer_2" data-name="Layer 2" transform="translate(2.4 11.831)">
        <path id="Path_17008" data-name="Path 17008" d="M20.9,36.912a3.63,3.63,0,0,0,2.01-.61l11.575-7.71a3.625,3.625,0,0,0,0-6.031L22.913,14.844a3.625,3.625,0,0,0-5.635,3.019V33.287A3.627,3.627,0,0,0,20.9,36.912Z" transform="translate(-0.002 -11.443)" fill="#fff"/>
        <path id="Path_17009" data-name="Path 17009" d="M13.636,15.8a1.734,1.734,0,0,0-.876-.238,1.753,1.753,0,0,0-1.509.865,17.637,17.637,0,0,0,0,17.864,1.742,1.742,0,0,0,3.01-1.756,14.147,14.147,0,0,1,0-14.355A1.742,1.742,0,0,0,13.636,15.8Z" transform="translate(-1.365 -11.23)" fill="#fff"/>
        <path id="Path_17010" data-name="Path 17010" d="M8.4,12.073a1.729,1.729,0,0,0-.884-.242,1.75,1.75,0,0,0-1.5.853,26.174,26.174,0,0,0,0,26.553,1.743,1.743,0,1,0,3-1.774,22.69,22.69,0,0,1,0-23A1.742,1.742,0,0,0,8.4,12.073Z" transform="translate(-2.4 -11.831)" fill="#fff"/>
        <path id="Path_17011" data-name="Path 17011" d="M35.081,34.678a1.742,1.742,0,0,0,2.371-.662,17.6,17.6,0,0,0,0-17.375,1.742,1.742,0,1,0-3.034,1.71,14.123,14.123,0,0,1,0,13.954A1.742,1.742,0,0,0,35.081,34.678Z" transform="translate(2.723 -11.199)" fill="#fff"/>
        <path id="Path_17012" data-name="Path 17012" d="M39.659,38.58a1.742,1.742,0,0,0,3.192.415,26.226,26.226,0,0,0,0-26.126,1.743,1.743,0,1,0-3.019,1.742,22.737,22.737,0,0,1,0,22.642,1.742,1.742,0,0,0-.173,1.327Z" transform="translate(3.594 -11.804)" fill="#fff"/>
      </g>
    </g>
  </g>
</svg>
