<svg xmlns="http://www.w3.org/2000/svg" width="84" height="100" viewBox="0 0 84 100">
  <g id="Group_15513" data-name="Group 15513" transform="translate(7.695 -17.945)">
    <g id="Group_15154" data-name="Group 15154" transform="translate(0 -3)">
      <rect id="Rectangle_10420" data-name="Rectangle 10420" width="84" height="100" rx="5" transform="translate(-7.695 20.945)" fill="#297fa9"/>
    </g>
    <g id="noun-live-streaming-5010665" transform="translate(7.17 42.113)">
      <g id="Layer_2" data-name="Layer 2" transform="translate(2.4 11.831)">
        <path id="Path_17009" data-name="Path 17009" d="M13.592,15.8a1.718,1.718,0,0,0-.867-.236,1.737,1.737,0,0,0-1.5.857,17.474,17.474,0,0,0,0,17.7,1.726,1.726,0,0,0,2.982-1.74,14.017,14.017,0,0,1,0-14.223A1.726,1.726,0,0,0,13.592,15.8Z" transform="translate(-1.434 -11.269)" fill="#fff"/>
        <path id="Path_17010" data-name="Path 17010" d="M8.347,12.07a1.713,1.713,0,0,0-.876-.239,1.734,1.734,0,0,0-1.488.846,25.934,25.934,0,0,0,0,26.309,1.727,1.727,0,1,0,2.974-1.758,22.481,22.481,0,0,1,0-22.793,1.726,1.726,0,0,0-.611-2.364Z" transform="translate(-2.4 -11.831)" fill="#fff"/>
        <path id="Path_17011" data-name="Path 17011" d="M35.073,34.5a1.726,1.726,0,0,0,2.349-.656,17.441,17.441,0,0,0,0-17.216,1.726,1.726,0,1,0-3.006,1.695,13.993,13.993,0,0,1,0,13.826A1.726,1.726,0,0,0,35.073,34.5Z" transform="translate(2.384 -11.241)" fill="#fff"/>
        <path id="Path_17012" data-name="Path 17012" d="M39.659,38.336a1.726,1.726,0,0,0,3.163.411,25.984,25.984,0,0,0,0-25.885,1.727,1.727,0,1,0-2.991,1.726,22.528,22.528,0,0,1,0,22.434,1.726,1.726,0,0,0-.171,1.315Z" transform="translate(3.197 -11.806)" fill="#fff"/>
        <rect id="Rectangle_11672" data-name="Rectangle 11672" width="18" height="18" rx="4" transform="translate(15.734 5)" fill="#fff"/>
      </g>
    </g>
  </g>
</svg>
