<svg xmlns="http://www.w3.org/2000/svg" width="39.781" height="32.961" viewBox="0 0 39.781 32.961">
  <g id="noun-subtask-21227190" transform="translate(-70.081 -52.336)">
    <path id="Path_1060" data-name="Path 1060" d="M145.6,139.61h-4.973a.622.622,0,1,0,0,1.243H145.6a.622.622,0,1,0,0-1.243Z" transform="translate(-64.951 -81.074)" fill="#fff"/>
    <path id="Path_1061" data-name="Path 1061" d="M169.98,174.7h-3.108a.622.622,0,0,0,0,1.243h3.108a.622.622,0,0,0,0-1.243Z" transform="translate(-89.336 -113.67)" fill="#fff"/>
    <path id="Path_1062" data-name="Path 1062" d="M478.717,140.232a.622.622,0,0,0-.622-.622h-4.973a.622.622,0,0,0,0,1.243H478.1a.622.622,0,0,0,.622-.622Z" transform="translate(-373.828 -81.074)" fill="#fff"/>
    <path id="Path_1063" data-name="Path 1063" d="M473.122,174.7a.622.622,0,0,0,0,1.243h3.108a.622.622,0,1,0,0-1.243Z" transform="translate(-373.828 -113.67)" fill="#fff"/>
    <path id="Path_1064" data-name="Path 1064" d="M108.778,76.627l-2.8-1.582a1.866,1.866,0,0,0-.463-.177V71.308a.622.622,0,0,0-.622-.622H90.59v-2.3a1.862,1.862,0,0,0,.463-.187l5.284-2.987a2.364,2.364,0,0,0,1.085-1.865V57.442a2.363,2.363,0,0,0-1.085-1.865L91.053,52.59a2.456,2.456,0,0,0-2.176,0l-5.284,2.987a2.362,2.362,0,0,0-1.085,1.865v5.925a2.362,2.362,0,0,0,1.085,1.865l5.284,2.987a1.858,1.858,0,0,0,.469.168v2.3h-14.3a.622.622,0,0,0-.622.622v3.419a.614.614,0,0,0,.016.137,1.872,1.872,0,0,0-.479.18l-2.8,1.582a2.364,2.364,0,0,0-1.085,1.865V81.6a2.363,2.363,0,0,0,1.085,1.865l2.8,1.582a2.477,2.477,0,0,0,2.17,0l2.8-1.582A2.363,2.363,0,0,0,80.016,81.6V78.489a2.363,2.363,0,0,0-1.085-1.865l-2.8-1.582a1.862,1.862,0,0,0-.479-.18.621.621,0,0,0,.016-.134v-2.8H89.347v2.928a1.875,1.875,0,0,0-.463.177l-2.8,1.582A2.363,2.363,0,0,0,85,78.483v3.108a2.364,2.364,0,0,0,1.085,1.865l2.8,1.582h0a2.452,2.452,0,0,0,2.176,0l2.8-1.582h0a2.362,2.362,0,0,0,1.085-1.865V78.483a2.362,2.362,0,0,0-1.085-1.865l-2.8-1.582a1.858,1.858,0,0,0-.469-.168V71.93h13.677v2.928a1.876,1.876,0,0,0-.463.177l-2.8,1.582a2.363,2.363,0,0,0-1.085,1.865v3.108a2.364,2.364,0,0,0,1.085,1.865l2.8,1.582h0a2.452,2.452,0,0,0,2.176,0l2.8-1.582h0a2.362,2.362,0,0,0,1.085-1.865V78.483a2.363,2.363,0,0,0-1.085-1.856Zm-31.864,1.94a.625.625,0,0,1-.622,1.085L74.958,78.9l-1.153.7a.622.622,0,0,1-.622-1.063l1.458-.892h0a.622.622,0,0,1,.622,0Zm14.92,0a.625.625,0,0,1-.622,1.085L89.879,78.9l-1.153.7a.622.622,0,0,1-.622-1.063l1.458-.892h0a.622.622,0,0,1,.622,0ZM89.826,57.4l-2.011,1.281h0a.622.622,0,0,1-.665-1.044l2.331-1.486a.621.621,0,0,1,.649,0L92.772,57.7a.62.62,0,1,1-.622,1.072Zm17.158,22.02a.622.622,0,0,1-.846.236L104.8,78.9l-1.159.7a.622.622,0,0,1-.622-1.063l1.458-.892h0a.622.622,0,0,1,.622,0l1.65.933a.622.622,0,0,1,.23.843Z" fill="#fff"/>
  </g>
</svg>
