<svg xmlns="http://www.w3.org/2000/svg" width="19.963" height="25.999" viewBox="0 0 19.963 25.999">
  <path id="Union_114" data-name="Union 114" d="M-979.038,141H-999V122.953h7.679V115h12.285v26h0Zm-10.817-11.043,1.457,1.452a2.123,2.123,0,0,0-.467,1.333,2.148,2.148,0,0,0,2.15,2.141,2.148,2.148,0,0,0,2.149-2.141,2.119,2.119,0,0,0-.36-1.188l1.384-1.577a2.158,2.158,0,0,0,1.126.317,2.148,2.148,0,0,0,2.149-2.141,2.148,2.148,0,0,0-2.149-2.141,2.148,2.148,0,0,0-2.151,2.141,2.145,2.145,0,0,0,.36,1.188l-1.384,1.576a2.153,2.153,0,0,0-1.125-.316,2.145,2.145,0,0,0-.963.226l-1.526-1.519a2.119,2.119,0,0,0,.339-1.154,2.148,2.148,0,0,0-2.15-2.141,2.148,2.148,0,0,0-2.15,2.141,2.117,2.117,0,0,0,.228.959l-1.721,1.714a2.136,2.136,0,0,0-.963-.226,2.148,2.148,0,0,0-2.15,2.141,2.148,2.148,0,0,0,2.15,2.141,2.148,2.148,0,0,0,2.15-2.141,2.1,2.1,0,0,0-.467-1.333l1.586-1.579a2.129,2.129,0,0,0,1.338.465,2.155,2.155,0,0,0,1.158-.337Zm2.065-8.686h5.528v-.611h-5.528Zm0-1.835h5.528v-.612h-5.528Zm0-1.836h5.528v-.611h-5.528Zm-10.868,4.284,6.512-6.456v6.456Zm-.191,0h0Z" transform="translate(999 -115)" fill="#fff"/>
</svg>
