<svg xmlns="http://www.w3.org/2000/svg" width="27.701" height="28.3" viewBox="0 0 27.701 28.3">
  <path id="Audit_white" data-name="Audit white" d="M30.395,12.377l-2.806,0a1.136,1.136,0,0,0-1.143.582c-.09.216-.156.66.393,1.209l.576.576-2.764,2.767-2.07-2.07a1.242,1.242,0,0,0-1.755,0l-.939.942a6.669,6.669,0,0,0-.483-.528,6.453,6.453,0,0,0-8.948,0,6.071,6.071,0,0,0-1.065,7.369L7.933,24.647c-.309-.207-.6-.18-1.038.249L4.335,27.389a1.682,1.682,0,0,0-.5,1.218,2.42,2.42,0,0,0,.762,1.7,2.521,2.521,0,0,0,1.728.738,1.747,1.747,0,0,0,1.236-.474l2.559-2.5a.989.989,0,0,0,.387-.678.62.62,0,0,0-.114-.351l1.452-1.416A6.469,6.469,0,0,0,19,24.962v5.779a.4.4,0,0,0,.4.4h2.836a.4.4,0,0,0,.4-.4v-9a.672.672,0,0,0-.669-.672H21.2a5.987,5.987,0,0,0,.06-.84,6.085,6.085,0,0,0-.192-1.518l.636-.636,2.031,2.031a1.325,1.325,0,0,0,.87.4.443.443,0,0,0,.063,0,1.2,1.2,0,0,0,.858-.366l3.643-3.64.576.576c.549.549.993.483,1.209.393a1.138,1.138,0,0,0,.585-1.143v-2.8a1.137,1.137,0,0,0-1.146-1.149ZM9.838,26.471,8.527,25.19l1.314-1.281a6.686,6.686,0,0,0,.615.693,6.394,6.394,0,0,0,.7.588L9.838,26.471Zm9-2.442a5.647,5.647,0,0,1-7.825,0,5.5,5.5,0,0,1-.774-.945s-.006-.009-.012-.015a5.267,5.267,0,0,1,.786-6.637,5.6,5.6,0,0,1,8.492.783,0,0,0,0,0,0,0,5.347,5.347,0,0,1,.717,1.47.221.221,0,0,0,.012.042,5.228,5.228,0,0,1,.216,1.5,5.352,5.352,0,0,1-.123,1.14l-.009.036A5.313,5.313,0,0,1,18.843,24.029Zm11.894-7.7a.638.638,0,0,1-.087.4c-.033,0-.153-.036-.336-.219l-.861-.861a.4.4,0,0,0-.567,0l-3.925,3.925a.392.392,0,0,1-.312.129.533.533,0,0,1-.345-.165l-2.316-2.316a.4.4,0,0,0-.567,0l-.639.639a6.189,6.189,0,0,0-.423-.816l1.035-1.035a.44.44,0,0,1,.621,0l2.352,2.352a.4.4,0,0,0,.567,0l3.334-3.331a.4.4,0,0,0,0-.567l-.861-.861a.66.66,0,0,1-.219-.336.662.662,0,0,1,.4-.087h2.806a.328.328,0,0,1,.342.345v2.8ZM18.186,28.076v2.664a.4.4,0,0,1-.4.4H14.948a.4.4,0,0,1-.4-.4V28.076a.672.672,0,0,1,.669-.672h2.3A.675.675,0,0,1,18.186,28.076Zm3.031-14.2a5.517,5.517,0,1,0-3.9-1.614A5.5,5.5,0,0,0,21.216,13.875ZM18.609,7.958h2.208v-2.9a.4.4,0,1,1,.8,0v3.3a.4.4,0,0,1-.4.4H18.609a.4.4,0,1,1,0-.8Zm-6.862,9.158a4.327,4.327,0,0,0,0,6.229,4.592,4.592,0,0,0,6.364,0,4.327,4.327,0,0,0,0-6.229,4.588,4.588,0,0,0-6.364,0Zm6.088,3.514a3.549,3.549,0,0,1-1.272,1.017,3.822,3.822,0,0,1-1.632.36,3.653,3.653,0,0,1-2.9-1.377.668.668,0,0,1,.009-.81s0,0,.006-.006a3.751,3.751,0,0,1,5.779,0s0,.006.006.006a.668.668,0,0,1,.009.81Zm13.706.141v9.971a.4.4,0,0,1-.4.4H28.3a.4.4,0,0,1-.4-.4V20.77a.67.67,0,0,1,.669-.672h2.3A.673.673,0,0,1,31.541,20.77Zm-4.453,3.652v6.319a.4.4,0,0,1-.4.4H23.854a.4.4,0,0,1-.4-.4V24.422a.673.673,0,0,1,.672-.672h2.292A.673.673,0,0,1,27.088,24.422ZM15.89,20.23a.96.96,0,1,1-.96-.945A.954.954,0,0,1,15.89,20.23Z" transform="translate(-3.84 -2.843)" fill="#fff"/>
</svg>
