<svg xmlns="http://www.w3.org/2000/svg" width="21.4" height="32.232" viewBox="0 0 21.4 32.232">
  <g id="noun-anger-1219398" transform="translate(-16.803)">
    <g id="Group_14084" data-name="Group 14084" transform="translate(16.803)">
      <path id="Path_16403" data-name="Path 16403" d="M27.621,13a4.313,4.313,0,1,1-4.313,4.313A4.313,4.313,0,0,1,27.621,13Zm4.152,12.5,5.735-3.86a1.573,1.573,0,0,0,.695-1.3l-.83-9.229a1.574,1.574,0,0,0-1.565-1.584H35.8A1.574,1.574,0,0,0,34.225,11.1l.835,8.4-4.3,2.66-1.8.151-1.3,1.822,1.159,8.1h2.957Zm-4.424-1.375-1.3-1.822-1.8-.151-4.3-2.66.835-8.4a1.574,1.574,0,0,0-1.574-1.565H19.2a1.574,1.574,0,0,0-1.564,1.584l-.83,9.229a1.573,1.573,0,0,0,.7,1.3l5.735,3.86v6.73H26.19ZM30.813,8.27l-1.593,2.894,5-4.147h-2.25L33.5,4.57H31.458l-2.141,3.7h1.5Zm-3.84-.52,2.958-5.78-2.068.886L28.313,0,26.432.806l-.511,4.245,1.376-.59Zm-.781,4.712L24.6,9.567h1.5l-2.142-3.7H21.905l1.539,2.448h-2.25Z" transform="translate(-16.803)" fill="#069"/>
    </g>
  </g>
</svg>
