<svg xmlns="http://www.w3.org/2000/svg" width="31.516" height="31.516" viewBox="0 0 31.516 31.516">
  <g id="noun-binaculars-3792883" transform="translate(-159.582 -95.027)">
    <path id="Path_894" data-name="Path 894" d="M167.805,95.027a2.057,2.057,0,0,0-1.582.538v.015a2.988,2.988,0,0,0-1,2.269,2.28,2.28,0,0,0,.657,1.433l2.208,2.209.268.806a.959.959,0,0,0,.239.373l.015.015c-.236.224-.473.444-.7.672s-.44.459-.657.687l-.015-.015a.957.957,0,0,0-.373-.224l-.806-.269-2.208-2.209-.015-.015a2.274,2.274,0,0,0-1.433-.642,2.982,2.982,0,0,0-2.268.985s0,.012,0,.015a2.077,2.077,0,0,0-.552,1.583,7.092,7.092,0,0,0,.224,1.538c.2.841.429,1.55.567,2.075a.968.968,0,0,0-.179.731c.115.61.263,1.281.433,1.986a.959.959,0,1,0,1.865-.448c-.122-.507-.221-.967-.313-1.418a.852.852,0,0,0,.179-.761c0-.01-.013-.02-.015-.03a4.187,4.187,0,0,1,3.044-1.6l.567.179a10.245,10.245,0,0,0-1,1.478.973.973,0,0,0-.015.9l1.209,2.314a9.362,9.362,0,0,0-1.626,1.3,10.649,10.649,0,0,0-1.06,1.224c-.076-.252-.152-.514-.224-.761a.987.987,0,0,0-1.015-.7,1,1,0,0,0-.821,1.224,76.5,76.5,0,0,0,3.178,8.928,7.17,7.17,0,0,0,6.939,5.136,7.076,7.076,0,0,0,7.193-6.912,6.864,6.864,0,0,0-3.178-5.733l-1.821-2.448,1.209-.836a.963.963,0,0,0,.254-.239l.791-1.149,1.9,1.642a7.218,7.218,0,0,0,6.073,3.27,7.062,7.062,0,0,0,7.163-6.927,6.923,6.923,0,0,0-4.4-6.375c-.019-.016-.039-.031-.06-.045-4.245-2.578-10.685-4.82-14.579-5.166a.963.963,0,0,0-.642.179c-.526-.139-1.234-.354-2.074-.552a7.062,7.062,0,0,0-1.537-.224Zm-.239,1.881h.015c-.1.1-.059.027.209.03a5.643,5.643,0,0,1,1.119.164c.147.035.3.079.448.12A6.159,6.159,0,0,0,168.8,98a6.087,6.087,0,0,0-.463,1.045l-1.1-1.1a.5.5,0,0,1-.1-.239c-.009-.113-.027-.334.433-.791Zm4.745.7a29.894,29.894,0,0,1,5.074,1.224,10.38,10.38,0,0,0-1.343,1.135,9.493,9.493,0,0,0-1.3,1.627l-2.3-1.209a.962.962,0,0,0-.552-.1.948.948,0,0,0-.343.1,10.338,10.338,0,0,0-1.462,1l-.194-.523a4.167,4.167,0,0,1,1.581-3.06c.009,0,.021,0,.03,0a.909.909,0,0,0,.806-.194Zm7.491,2.06c.736.278,1.467.569,2.179.881a7.027,7.027,0,0,0-5.133,5.748l.134-2.657v-.015a.978.978,0,0,0-.3-.97,2.829,2.829,0,0,0-.239-.179,7.362,7.362,0,0,1,.94-1.164A6.764,6.764,0,0,1,179.8,99.67Zm4.133,2.523a5.022,5.022,0,1,1-5.253,5.016A5.125,5.125,0,0,1,183.936,102.193Zm-11.863.149,2.1,1.1c-.122.1-.241.187-.373.3-.843.717-1.851,1.673-2.835,2.657s-1.94,2.009-2.656,2.852c-.108.127-.2.24-.3.358l-1.1-2.105a18.889,18.889,0,0,1,2.358-2.807,18.582,18.582,0,0,1,2.805-2.359Zm-9.819.224a.515.515,0,0,1,.239.1l.015.015,1.1,1.09a5.55,5.55,0,0,0-1.821,1.03c-.041-.153-.084-.313-.119-.463a5.858,5.858,0,0,1-.179-1.12,1.251,1.251,0,0,1,.015-.239c.432-.424.637-.427.746-.418Zm21.682.1a4.544,4.544,0,1,0,4.775,4.538A4.674,4.674,0,0,0,183.936,102.671Zm0,1.911a2.637,2.637,0,1,1-2.865,2.627A2.742,2.742,0,0,1,183.936,104.582Zm-8.938.672-.119,2.165-1.194,1.747L172,110.33l-2.194.1c.665-.779,1.574-1.739,2.507-2.672s1.906-1.842,2.686-2.508Zm-7.954,6.644a1.364,1.364,0,0,0,.552.508.764.764,0,0,0,.418.045h.015l3.895-.194.388.508a7.47,7.47,0,0,0-.791-.045,7.225,7.225,0,0,0-6.641,4.255c-.211-.582-.413-1.17-.612-1.762a6.793,6.793,0,0,1,1.611-2.374,7.375,7.375,0,0,1,1.164-.941Zm4.477,2.7a5.035,5.035,0,1,1-5.223,5.031A5.11,5.11,0,0,1,171.521,114.6Zm0,.523a4.518,4.518,0,1,0,4.8,4.509A4.678,4.678,0,0,0,171.521,115.122Zm0,1.851a2.663,2.663,0,1,1-2.835,2.657A2.736,2.736,0,0,1,171.521,116.973Z" fill="#fff"/>
  </g>
</svg>
