<svg xmlns="http://www.w3.org/2000/svg" width="18.003" height="15.178" viewBox="0 0 18.003 15.178">
  <path id="Union_107" data-name="Union 107" d="M7.694,14.923l-7.277-2.9A.706.706,0,0,1,0,11.364a.674.674,0,0,1,.417-.66l2.426-.96L7.22,11.484A4.954,4.954,0,0,0,9,11.824a4.628,4.628,0,0,0,1.781-.34L15.16,9.745l2.426.96h0a.706.706,0,0,1,.417.66.674.674,0,0,1-.417.66l-7.277,2.9a3.482,3.482,0,0,1-2.615,0Zm0-3.784L.417,8.24A.706.706,0,0,1,0,7.58a.674.674,0,0,1,.417-.66l2.426-.96L7.22,7.7A4.954,4.954,0,0,0,9,8.04a4.628,4.628,0,0,0,1.781-.34L15.16,5.961l2.426.96h0A.706.706,0,0,1,18,7.58a.674.674,0,0,1-.417.66l-7.277,2.9a3.481,3.481,0,0,1-2.615,0Zm0-3.768L.417,4.472A.723.723,0,0,1,0,3.813a.674.674,0,0,1,.417-.66L7.694.254a3.482,3.482,0,0,1,2.615,0l7.277,2.9a.706.706,0,0,1,.417.66.688.688,0,0,1-.417.66l-7.277,2.9a3.482,3.482,0,0,1-2.615,0Z" transform="translate(0 0.001)" fill="#069"/>
</svg>
