<svg xmlns="http://www.w3.org/2000/svg" width="17.998" height="18" viewBox="0 0 17.998 18">
  <g id="Group_20377" data-name="Group 20377" transform="translate(-1395.328 -548.514)">
    <path id="Icon_ionic-ios-checkbox" data-name="Icon ionic-ios-checkbox" d="M21,4.5H6A1.5,1.5,0,0,0,4.5,6V21A1.5,1.5,0,0,0,6,22.5H21A1.5,1.5,0,0,0,22.5,21V6A1.5,1.5,0,0,0,21,4.5Zm-2.461,6.3-6.266,6.3h0a.846.846,0,0,1-.544.258.821.821,0,0,1-.548-.267L8.55,14.466a.187.187,0,0,1,0-.267l.834-.834a.181.181,0,0,1,.262,0l2.081,2.081,5.718-5.761a.185.185,0,0,1,.131-.056h0a.17.17,0,0,1,.131.056l.82.848A.185.185,0,0,1,18.538,10.8Z" transform="translate(1390.828 544.014)" fill="#1e3044"/>
  </g>
</svg>
