<svg id="Component_837" data-name="Component 837" xmlns="http://www.w3.org/2000/svg" width="50" height="74.813" viewBox="0 0 50 74.813">
  <g id="Group_1296" data-name="Group 1296" transform="translate(-0.477)">
    <path id="Rectangle_937" data-name="Rectangle 937" d="M5,0H45a5,5,0,0,1,5,5V54a0,0,0,0,1,0,0H0a0,0,0,0,1,0,0V5A5,5,0,0,1,5,0Z" transform="translate(0.477)" fill="#969696" opacity="0.15"/>
    <path id="Path_210" data-name="Path 210" d="M0,0H50V18.9c0,3.263-2.239,5.908-5,5.908H5c-2.761,0-5-2.645-5-5.908Z" transform="translate(0.477 50)" fill="#969696"/>
    <text id="CSC" transform="translate(14.477 66)" fill="#d9dcdf" font-size="10" font-family="SegoeUI, Segoe UI"><tspan x="0" y="0">CSC</tspan></text>
  </g>
  <path id="Union_77" data-name="Union 77" d="M7.631,30.527C.274,29.455,0,26.24,0,26.24v-15.1l10.6.052v2.787H3.011s-7.066,16.553,12.4,16.553S28.477,13.974,28.477,13.974H17.928V11.187H33.94V26.24s-.31,2.619-8.031,4.287a38.844,38.844,0,0,1-8.425,1.039A68.291,68.291,0,0,1,7.631,30.527ZM16.16,29.6a.688.688,0,0,1-.21-.5V26.15h-.406V29.1a.712.712,0,0,1-1.424,0V23.3h-.406v2.237a.61.61,0,1,1-1.221,0V22.9a1.215,1.215,0,0,1,1.221-1.22h4.068A1.214,1.214,0,0,1,19,22.9v2.644a.61.61,0,1,1-1.22,0V23.3h-.407v5.8a.71.71,0,0,1-1.214.5Zm-1.42-8.546a1.427,1.427,0,1,1,1.008.416A1.373,1.373,0,0,1,14.74,21.055Zm7.929-10.078a.687.687,0,0,1-.21-.5V7.526h-.406v2.949a.712.712,0,0,1-1.424,0v-5.8h-.406V6.915a.61.61,0,1,1-1.221,0V4.271a1.215,1.215,0,0,1,1.221-1.22H24.29a1.214,1.214,0,0,1,1.22,1.22V6.915a.61.61,0,1,1-1.22,0V4.678h-.407v5.8a.71.71,0,0,1-1.214.5Zm-1.42-8.546a1.373,1.373,0,0,1-.416-1.008A1.373,1.373,0,0,1,21.248.416a1.427,1.427,0,0,1,2.015,0,1.373,1.373,0,0,1,.416,1.007,1.373,1.373,0,0,1-.416,1.008,1.427,1.427,0,0,1-2.015,0Z" transform="translate(8.83 9.102)" fill="#969696"/>
</svg>
