<svg xmlns="http://www.w3.org/2000/svg" width="24.4" height="24.428" viewBox="0 0 24.4 24.428">
  <g id="noun-tracking-2942002" transform="translate(-2.4 -2.4)">
    <g id="Group_14088" data-name="Group 14088" transform="translate(2.4 2.4)">
      <path id="Path_16409" data-name="Path 16409" d="M37.205,26.933,33.1,28.806l4.336,1.976,4.336-1.976-4.105-1.873A.491.491,0,0,0,37.205,26.933Z" transform="translate(-25.223 -20.595)" fill="#069"/>
      <path id="Path_16410" data-name="Path 16410" d="M57.89,45.622V39.9L53.4,41.953v6.081l4.182-1.924A.517.517,0,0,0,57.89,45.622Z" transform="translate(-40.314 -30.278)" fill="#069"/>
      <path id="Path_16411" data-name="Path 16411" d="M29.1,45.622a.544.544,0,0,0,.308.488l4.182,1.924V41.953L29.1,39.9Z" transform="translate(-22.249 -30.278)" fill="#069"/>
      <path id="Path_16412" data-name="Path 16412" d="M17.6,10.645V8.9a10.757,10.757,0,0,0-8.7,8.672h1.745A9.035,9.035,0,0,1,17.6,10.645Z" transform="translate(-7.232 -7.232)" fill="#069"/>
      <path id="Path_16413" data-name="Path 16413" d="M10.645,57.2H8.9a10.755,10.755,0,0,0,8.7,8.7V64.153A9.03,9.03,0,0,1,10.645,57.2Z" transform="translate(-7.232 -43.139)" fill="#069"/>
      <path id="Path_16414" data-name="Path 16414" d="M64.153,17.672H65.9A10.7,10.7,0,0,0,57.2,9v1.745A8.964,8.964,0,0,1,64.153,17.672Z" transform="translate(-43.139 -7.307)" fill="#069"/>
      <path id="Path_16415" data-name="Path 16415" d="M57.2,64.153V65.9a10.755,10.755,0,0,0,8.7-8.7H64.153A9.03,9.03,0,0,1,57.2,64.153Z" transform="translate(-43.139 -43.139)" fill="#069"/>
      <path id="Path_16416" data-name="Path 16416" d="M46.908,7.121h1.1a.312.312,0,0,0,.308-.308V2.708a.312.312,0,0,0-.308-.308h-1.1a.312.312,0,0,0-.308.308V6.813A.33.33,0,0,0,46.908,7.121Z" transform="translate(-35.259 -2.4)" fill="#069"/>
      <path id="Path_16417" data-name="Path 16417" d="M83.513,46.7H79.408a.312.312,0,0,0-.308.308v1.1a.312.312,0,0,0,.308.308h4.105a.312.312,0,0,0,.308-.308v-1.1A.3.3,0,0,0,83.513,46.7Z" transform="translate(-59.42 -35.333)" fill="#069"/>
      <path id="Path_16418" data-name="Path 16418" d="M48.111,79.2h-1.1a.312.312,0,0,0-.308.308v4.105a.312.312,0,0,0,.308.308h1.1a.312.312,0,0,0,.308-.308V79.508A.33.33,0,0,0,48.111,79.2Z" transform="translate(-35.333 -59.495)" fill="#069"/>
      <path id="Path_16419" data-name="Path 16419" d="M7.121,48.111v-1.1a.312.312,0,0,0-.308-.308H2.708a.312.312,0,0,0-.308.308v1.1a.312.312,0,0,0,.308.308H6.813A.33.33,0,0,0,7.121,48.111Z" transform="translate(-2.4 -35.333)" fill="#069"/>
    </g>
  </g>
</svg>
