<svg xmlns="http://www.w3.org/2000/svg" width="50.459" height="75" viewBox="0 0 50.459 75">
  <g id="Falling_Objects" data-name="Falling Objects" transform="translate(-0.018)">
    <g id="Group_13058" data-name="Group 13058">
      <g id="Group_13057" data-name="Group 13057">
        <path id="Rectangle_9094" data-name="Rectangle 9094" d="M5,0H45a5,5,0,0,1,5,5V54a0,0,0,0,1,0,0H0a0,0,0,0,1,0,0V5A5,5,0,0,1,5,0Z" transform="translate(0.477)" fill="#ff9100" opacity="0.15"/>
        <path id="Path_15928" data-name="Path 15928" d="M0,0H50V18.9c0,3.263-2.239,5.908-5,5.908H5c-2.761,0-5-2.645-5-5.908Z" transform="translate(0.017 50.187)" fill="#ff9100"/>
        <text id="FO" transform="translate(18.477 66)" fill="#ffefd9" font-size="10" font-family="Montserrat-SemiBold, Montserrat" font-weight="600"><tspan x="0" y="0">FO</tspan></text>
      </g>
      <path id="path2524" d="M5.468,1.058a.488.488,0,0,0-.48.492v.976a.489.489,0,0,0,.977,0V1.551A.488.488,0,0,0,5.468,1.058Zm7.793,0a.494.494,0,0,0-.407.223L10.9,4.207a.488.488,0,0,0,.407.759h1.463V9.642l-.343.343a.487.487,0,0,0-.133.439l.488,2.436a1.174,1.174,0,0,0,.28.58.967.967,0,0,0,.689.3h.487v.55a1.447,1.447,0,0,0-.624,2.309l-6.85,2.992H3.453a.488.488,0,0,0-.44.486v.974a.488.488,0,0,0,.487.49H25.953a.488.488,0,0,0,.487-.49v-.974a.488.488,0,0,0-.487-.486H22.7L15.852,16.6a1.451,1.451,0,0,0,.249-.421.489.489,0,0,0-.915-.342.488.488,0,1,1-.457-.658.487.487,0,0,0,.486-.5v-.932H15.7a.965.965,0,0,0,.688-.3,1.176,1.176,0,0,0,.281-.58l.487-2.436a.487.487,0,0,0-.133-.439l-.347-.347V4.966H28.365c0-.982,0-2.933,0-3.908Zm.7.983h1.377l.287.286.286-.286h2.7l.285.284.284-.284h1.38l-.974.973.978.976h-1.38L18.9,3.7l-.288.288h-2.7L15.624,3.7l-.289.288h-1.38l.979-.976Zm7.1,0h1.379l.286.286.286-.286h2.7l.283.283.283-.283h1.381l-.973.972.978.977h-1.38L25.993,3.7l-.289.289h-2.7L22.719,3.7l-.289.289H21.051l.978-.976Zm-3.8.028-.948.947.947.944.947-.945Zm7.1,0-.947.946.947.944.947-.945ZM8.234,2.2H8.227a.488.488,0,0,0-.334.148L7.2,3.041a.488.488,0,1,0,.692.687l.691-.687a.488.488,0,0,0-.35-.839Zm-5.522,0a.488.488,0,0,0-.342.838l.691.687a.487.487,0,1,0,.688-.687l-.688-.691a.49.49,0,0,0-.35-.148ZM5.476,3.5A1.951,1.951,0,1,0,7.428,5.452,1.957,1.957,0,0,0,5.476,3.5ZM1.523,4.966a.489.489,0,1,0,.05.976H2.55a.488.488,0,1,0,0-.976H1.523Zm6.835,0a.489.489,0,1,0,.047.976h.977a.488.488,0,1,0,0-.976H8.358Zm5.39,0H15.7V8.659l-.141-.14a.488.488,0,0,0-.346-.14H14.19a.486.486,0,0,0-.3.14l-.145.145ZM3.4,7.029a.486.486,0,0,0-.335.147l-.691.691a.488.488,0,1,0,.691.687l.688-.687A.487.487,0,0,0,3.4,7.029Zm4.147,0a.487.487,0,0,0-.343.838l.692.687a.488.488,0,1,0,.691-.687l-.691-.691a.487.487,0,0,0-.35-.147Zm-2.072.852-.05,0a.488.488,0,0,0-.433.493v.976a.489.489,0,1,0,.977,0V8.378a.488.488,0,0,0-.493-.5Zm9.24,2.93a.488.488,0,1,1-.488.488.488.488,0,0,1,.488-.488Zm.023,6.363,5.534,2.417H9.2ZM4.477,22.517v2.925h20.5V22.517Zm1.458.972a.488.488,0,1,1-.488.488.488.488,0,0,1,.488-.488Zm2.926,0a.488.488,0,1,1-.488.488A.488.488,0,0,1,8.86,23.49Zm2.926,0a.488.488,0,1,1-.488.488A.488.488,0,0,1,11.786,23.49Zm2.926,0a.488.488,0,1,1-.488.488A.488.488,0,0,1,14.712,23.49Zm2.926,0a.488.488,0,1,1-.488.488A.488.488,0,0,1,17.638,23.49Zm2.926,0a.488.488,0,1,1-.488.488A.488.488,0,0,1,20.564,23.49Zm2.926,0a.488.488,0,1,1-.488.488A.488.488,0,0,1,23.49,23.49ZM3.453,26.416a.488.488,0,0,0-.44.486v.979a.488.488,0,0,0,.487.486H25.953a.488.488,0,0,0,.487-.486V26.9a.488.488,0,0,0-.487-.486H3.453Z" transform="translate(9.958 11.942)" fill="#ff9100"/>
    </g>
  </g>
</svg>
