<svg xmlns="http://www.w3.org/2000/svg" width="34.322" height="46.636" viewBox="0 0 34.322 46.636">
  <path id="Union_73" data-name="Union 73" d="M-4166.007-2955.847l.34-3.23,33.151,3.485-.34,3.229Zm31.2-.757-24.4-2.566a3.22,3.22,0,0,1-2.18-1.182,3.219,3.219,0,0,1-.7-2.379l24.4,2.565a3.225,3.225,0,0,1,2.18,1.185,3.223,3.223,0,0,1,.7,2.376h0Zm-8.685-2.737a.6.6,0,0,0,.131.444.589.589,0,0,0,.4.216.6.6,0,0,0,.063,0,.6.6,0,0,0,.594-.539.6.6,0,0,0-.53-.661.623.623,0,0,0-.064,0A.6.6,0,0,0-4143.493-2959.341Zm-5.948-.632a.6.6,0,0,0,.529.662c.021,0,.042,0,.063,0a.6.6,0,0,0,.594-.541.6.6,0,0,0-.53-.662c-.021,0-.042,0-.062,0A.6.6,0,0,0-4149.441-2959.973Zm-6.488-.69a.6.6,0,0,0,.131.444.587.587,0,0,0,.4.216.627.627,0,0,0,.063,0,.6.6,0,0,0,.593-.541.6.6,0,0,0-.131-.444.587.587,0,0,0-.4-.216.414.414,0,0,0-.062,0A.6.6,0,0,0-4155.929-2960.663Zm-9.249-3.164.34-3.229,5.212.548,8.907-7.2q-.207-.141-.411-.308l-.029-.026a4.251,4.251,0,0,1-1.418-2.934l.794-.016a3.422,3.422,0,0,0,1.166,2.363,3.509,3.509,0,0,0,2.149.883h.108a3.263,3.263,0,0,0,2.038-.881,2.846,2.846,0,0,0,1.039-2.505,3.89,3.89,0,0,0-2.149-2.7c-1.828-.936-1.742-1.922-1.667-2.792a5.019,5.019,0,0,0,.029-.607l.793-.024a5.772,5.772,0,0,1-.032.7c-.068.792-.114,1.314,1.235,2a5.316,5.316,0,0,1,1.674,1.345,4.031,4.031,0,0,1,.9,1.961,3.611,3.611,0,0,1-1.287,3.21l-.014.012a5.082,5.082,0,0,1-.864.607c.085.241.342.6,1.1.884a3.361,3.361,0,0,1,1.686,1.554l.03.051.1.386.278.263.039.089-.363.161h0l-.031.014-.246.266-.389-.368-.125-.5a2.543,2.543,0,0,0-1.251-1.165,2.406,2.406,0,0,1-1.551-1.32,3.5,3.5,0,0,1-.658.14v7.673l5.538.582a3.911,3.911,0,0,1-.3-2.2l0-.026.133-.571-.1-.03.084-.377.389.088.112-.367.454.142-.291,1.248a2.892,2.892,0,0,0,.338,1.928q.089.137.161.267l9.846,1.035-.34,3.23Zm16.331-1.548v-7.593a3.854,3.854,0,0,1-1.124-.321l-8.53,6.9Zm2.037-18.661h-3.822l-2.527-2.252,2.03-7.295h2.059v-5.016a.4.4,0,0,1,.4-.4.4.4,0,0,1,.4.4v5.016h2.06l.212.921-3.3,3.334a.4.4,0,0,0,0,.567.39.39,0,0,0,.28.117.392.392,0,0,0,.28-.117l2.948-2.981.253,1.1-2.1,2.119a.4.4,0,0,0,0,.567.393.393,0,0,0,.28.118.4.4,0,0,0,.281-.118l1.747-1.766.223.965-2.611,2.64a.4.4,0,0,0,0,.568.388.388,0,0,0,.279.118.4.4,0,0,0,.281-.118l2.263-2.288.358,1.552-2.276,2.252Z" transform="translate(4166.007 2998.999)" fill="#f65150"/>
</svg>
