<svg xmlns="http://www.w3.org/2000/svg" width="24.635" height="28.096" viewBox="0 0 24.635 28.096">
  <g id="noun-fire-smoke-1696087" transform="translate(-16.66 -8.805)">
    <g id="Group_14060" data-name="Group 14060" transform="translate(16.66 8.804)">
      <g id="Group_14059" data-name="Group 14059" transform="translate(0 0)">
        <g id="Group_14058" data-name="Group 14058">
          <path id="Path_16360" data-name="Path 16360" d="M18.625-62.588c.132.754.311,1.468,1.032,1.728-.191-2.875.479-5.312,3.39-6.968a4.9,4.9,0,0,0,.962,2.995c-.412-2.925,3.253-4.377,4.492-7.025a6.745,6.745,0,0,1,1.376,5.7,6.706,6.706,0,0,1,2.96-2.246c-.517,2.457-.69,4.8.688,6.622.21-.985,1-1.693,2.478-2.073a7.88,7.88,0,0,0,.663,4.756H17.406A5.865,5.865,0,0,1,18.625-62.588ZM16.66-71.409A3.24,3.24,0,0,1,19.7-74.641a3.935,3.935,0,0,1,.732-1.888A3.958,3.958,0,0,1,18.4-79.991a3.959,3.959,0,0,1,3.958-3.958,3.953,3.953,0,0,1,1.133.165,3.958,3.958,0,0,1,2.842-1.656A6.047,6.047,0,0,1,30.6-87.2a6.07,6.07,0,0,1,5.651,3.858,2.593,2.593,0,0,0-.8.772,2.588,2.588,0,0,1,1.671-.609,2.6,2.6,0,0,1,2.6,2.6,2.581,2.581,0,0,1-.354,1.308c.053-.05.1-.1.152-.156a3.955,3.955,0,0,1,1.774,3.3,3.938,3.938,0,0,1-.8,2.381,2.17,2.17,0,0,0-.778-1.136,2.178,2.178,0,0,0-2.654.02,2.548,2.548,0,0,1,2.18.435,2.833,2.833,0,0,1,.967,1.655l.023.378-.019.446a3.959,3.959,0,0,1-3.937,3.55,2.646,2.646,0,0,0-2.224-2.61,2.188,2.188,0,0,0,.053-.477,2.177,2.177,0,0,0-2.176-2.176,2.171,2.171,0,0,0-1.635.741A3.48,3.48,0,0,0,27.6-74.2a3.487,3.487,0,0,0-3.486,3.485,3.533,3.533,0,0,0,.027.441c-.059.008-.119.014-.179.019a3.47,3.47,0,0,0-1.251-.232A3.489,3.489,0,0,0,19.434-68.2,3.24,3.24,0,0,1,16.66-71.409ZM24.726-75.2a1.659,1.659,0,0,1,1.733-.123,1.417,1.417,0,0,0-1.925-.259,1.418,1.418,0,0,0-.5,1.654A1.657,1.657,0,0,1,24.726-75.2Zm7.3-4.166a2.178,2.178,0,0,0-2.541.767,2.548,2.548,0,0,1,2.214-.2,2.552,2.552,0,0,1,1.633,2.112A2.177,2.177,0,0,0,32.023-79.364Zm-5.67-3.251a2.559,2.559,0,0,0-2.593,1.732,2.993,2.993,0,0,1,2.422-.98,3,3,0,0,1,2.558,1.815A2.558,2.558,0,0,0,26.353-82.615Z" transform="translate(-16.66 87.196)" fill="#069" fill-rule="evenodd"/>
        </g>
      </g>
    </g>
  </g>
</svg>
