<svg xmlns="http://www.w3.org/2000/svg" width="50" height="74.576" viewBox="0 0 50 74.576">
  <g id="Group_14549" data-name="Group 14549" transform="translate(-3881 18542)">
    <g id="Group_1292" data-name="Group 1292" transform="translate(3880.523 -18542.236)">
      <path id="Rectangle_937" data-name="Rectangle 937" d="M5,0H45a5,5,0,0,1,5,5V54a0,0,0,0,1,0,0H0a0,0,0,0,1,0,0V5A5,5,0,0,1,5,0Z" transform="translate(0.477 0.236)" fill="#d9e8f0"/>
      <path id="Path_210" data-name="Path 210" d="M0,0H50V18.9c0,3.263-2.239,5.908-5,5.908H5c-2.761,0-5-2.645-5-5.908Z" transform="translate(0.477 50)" fill="#069"/>
      <text id="GMC" transform="translate(14.477 66)" fill="#d9dcdf" font-size="10" font-family="Montserrat-SemiBold, Montserrat" font-weight="600"><tspan x="0" y="0">GMC</tspan></text>
    </g>
    <path id="Path_230" data-name="Path 230" d="M39.9,43.588v.763a.763.763,0,0,1-.763.763H17.763A.763.763,0,0,1,17,44.351v-.763a2.292,2.292,0,0,1,2.29-2.29H37.609a2.292,2.292,0,0,1,2.29,2.29ZM33.3,32.075l-4.864-4.091L23.6,32.075l4.848,3.317ZM31.782,17.1,31.034,13.9l-1.477,1.281Zm-3.388,1.4,1.3-1.169L28.387,16.2l-1.3,1.131Zm-1.152,1.032-2.236-1.988L23.825,22.6ZM21.7,31.681l5.549-4.694-3.725-3.129ZM25.134,17l2.087-1.811L25.837,14ZM37.093,39.771l-1.7-7.255-5.581,3.809,5.037,3.447ZM29.547,19.528l3.172,2.828.246-.208-1.1-4.683Zm4.15,5.745-1.005-.894-3.03,2.565L35.2,31.687Zm-8.342-2.017,3.132,2.682,3.053-2.584-3.147-2.8Zm12.067,19.3c.006-.007.015-.01.021-.017s0-.011.008-.015C37.442,42.532,37.431,42.541,37.422,42.552Zm-.577.272h0Zm-17.129-.08.021.008Zm10.32-33.1a3.7,3.7,0,0,1-3.178,0l-.628,2.684,2.159,1.857,2.253-1.955Zm7.527,32.642c.007-.022.022-.041.027-.064A.56.56,0,0,1,37.563,42.284Zm-.4.467.02-.008-.02.008Zm-5.015-2.98-3.688-2.523-3.7,2.523ZM21.5,32.49l-1.7,7.282h2.244L27.1,36.314Zm-2.2,9.731c0,.023.02.041.027.064C19.329,42.262,19.313,42.243,19.308,42.221Zm.745.6h0Zm-.606-.305s0,.011.008.016.016.011.023.018C19.468,42.542,19.457,42.531,19.447,42.519Z" transform="translate(3877.551 -18544.676)" fill="#069"/>
  </g>
</svg>
