<svg xmlns="http://www.w3.org/2000/svg" width="27.373" height="23.83" viewBox="0 0 27.373 23.83">
  <g id="Group_10827" data-name="Group 10827" transform="translate(-7107.392 5281)">
    <path id="Subtraction_122" data-name="Subtraction 122" d="M4.823,0H1.239A2.192,2.192,0,0,0,.847.372a3.456,3.456,0,0,0-.653,1.21A4.953,4.953,0,0,0,.063,3.77a10.254,10.254,0,0,0,1.176,3.3,7.247,7.247,0,0,0,3.4,3.094,16.038,16.038,0,0,0,3.077.96,16.038,16.038,0,0,0,3.2.324c.215,0,.434,0,.649-.013.21.008.423.013.633.013.381,0,.767-.014,1.147-.041a15.968,15.968,0,0,1-5.125-1.242,7.292,7.292,0,0,1-3.4-3.094C3.383,4.382,3.46,2.6,3.778,1.583A3.456,3.456,0,0,1,4.431.372,2.191,2.191,0,0,1,4.823,0Zm6.722,12.334a5.748,5.748,0,1,0,1.792,11.21,5.775,5.775,0,0,1-2.272-1.4,5.748,5.748,0,0,1,0-8.129,5.776,5.776,0,0,1,2.272-1.4A5.739,5.739,0,0,0,11.545,12.334Z" transform="translate(7134.765 -5257.17) rotate(180)" fill="#fff"/>
    <path id="Union_45" data-name="Union 45" d="M21.867,23.83h0Zm-20.628,0s-2.788-1.862,0-7.075a7.247,7.247,0,0,1,3.4-3.094,16,16,0,0,1,6.93-1.271,16,16,0,0,1,6.885,1.26,7.246,7.246,0,0,1,3.4,3.094c2.788,5.213.022,7.086.022,7.086ZM7.48,9.812A5.748,5.748,0,1,1,11.545,11.5,5.749,5.749,0,0,1,7.48,9.812Z" transform="translate(7107.392 -5281)" fill="#fff"/>
  </g>
</svg>
