<svg id="Component_834" data-name="Component 834" xmlns="http://www.w3.org/2000/svg" width="50.459" height="74.813" viewBox="0 0 50.459 74.813">
  <g id="Group_1293" data-name="Group 1293" transform="translate(-0.017)">
    <path id="Rectangle_937" data-name="Rectangle 937" d="M5,0H45a5,5,0,0,1,5,5V54a0,0,0,0,1,0,0H0a0,0,0,0,1,0,0V5A5,5,0,0,1,5,0Z" transform="translate(0.477)" fill="#80d8ff" opacity="0.15"/>
    <path id="Path_210" data-name="Path 210" d="M0,0H50V18.9c0,3.263-2.239,5.908-5,5.908H5c-2.761,0-5-2.645-5-5.908Z" transform="translate(0.017 50)" fill="#80d8ff"/>
    <text id="HC" transform="translate(18.477 66)" fill="#1e3044" font-size="10" font-family="SegoeUI, Segoe UI"><tspan x="0" y="0">HC</tspan></text>
  </g>
  <path id="Union_97" data-name="Union 97" d="M-2468.923-75h-.406c-.114,0-.228-.005-.341-.01l-.068,0h-.121l-.088,0a.2.2,0,0,1-.186-.214.2.2,0,0,1,.208-.192c.306.017.617.026.925.026.4,0,.8-.014,1.2-.044h.014a.2.2,0,0,1,.2.189.2.2,0,0,1-.183.217l-.057,0h-.132q-.39.024-.784.031h-.177Zm-.935-.022Zm-2.246-.268a16.66,16.66,0,0,1-2.107-.546.2.2,0,0,1-.128-.256.2.2,0,0,1,.189-.141.176.176,0,0,1,.06.01,16.1,16.1,0,0,0,2.057.533.2.2,0,0,1,.158.237.2.2,0,0,1-.2.167A.2.2,0,0,1-2472.1-75.291Zm6.251-.214a.2.2,0,0,1,.155-.239,16.193,16.193,0,0,0,2.049-.568.172.172,0,0,1,.064-.011.2.2,0,0,1,.186.138.2.2,0,0,1-.123.257l-.015.005h0l-.023.008h0l-.006,0h0l-.014.005h0l-.006,0h0l-.006,0h0l-.007,0h0l-.005,0h0l-.005,0h0l-.006,0h0l-.005,0h0l0,0h0l0,0h0l-.007,0h0l0,0h0l0,0h0l-.006,0h0l0,0h0l0,0h-.007l-.007,0h0l0,0h-.01l-.015.005h-.009l0,0h0l-.012,0-.005,0h0l-.005,0h0l-.017.006h0l-.005,0h0l-.018.006-.006,0h0l-.024.008-.006,0-.025.008-.024.007h0l-.025.007q-.331.107-.667.2l-.025.007-.006,0h0l-.024.007h0l-.024.006h0l-.005,0h0l-.017.005h-.008l-.005,0-.013,0-.005,0h0l-.005,0h0l-.016,0h-.009l-.016,0h0l-.005,0h0l0,0h0l-.01,0h0l0,0h-.016l-.009,0h-.018l-.007,0h-.021l-.007,0h-.018l-.006,0h-.019l-.005,0h0l-.007,0h0l-.005,0h0l0,0h0l-.007,0H-2465l0,0h0l-.007,0h-.01l-.005,0h0l-.006,0h0l-.008,0h-.009l-.007,0h0l-.015,0h-.01l-.015,0h0l-.006,0h0l-.007,0h0l-.016,0h0l-.008,0-.016,0h0l-.007,0h0l-.024.005h0c-.139.032-.277.064-.418.093a.191.191,0,0,1-.039,0A.2.2,0,0,1-2465.853-75.506Zm-10.379-1.152q-.516-.25-1.011-.533l-.045-.026-.005,0-.016-.01h0l-.005,0-.016-.009h0l-.005,0-.016-.01-.005,0h0l-.016-.009-.005,0h0l-.021-.013h0l-.021-.013-.022-.013h0l-.022-.013h0l-.006,0-.015-.01h0l0,0h0l-.015-.009h0l-.005,0h0l-.015-.009h0l0,0h0l-.016-.01-.005,0h0l-.015-.01h0l0,0h0l-.014-.009h0l-.005,0h0l-.015-.009h0l0,0h0l0,0-.01-.006h0l0,0h0l0,0h0l-.015-.01h0l-.005,0h0l-.015-.01h0l0,0h0l-.015-.01h0l0,0h0l-.015-.009h0l0,0h0l-.015-.009h0l0,0h0l-.015-.009h0l-.005,0h0l-.015-.009h0l0,0h0l-.014-.01h0l0,0h0l-.015-.01-.005,0h0l-.021-.013h0l-.021-.013h0l-.021-.013-.022-.014h0l-.021-.013-.022-.014h0l-.146-.1a.207.207,0,0,1-.06-.281.2.2,0,0,1,.167-.094.188.188,0,0,1,.106.032,16.532,16.532,0,0,0,1.858,1.054.207.207,0,0,1,.1.271.2.2,0,0,1-.179.116A.192.192,0,0,1-2476.232-76.658Zm14.453-.218a.206.206,0,0,1,.091-.272,16.528,16.528,0,0,0,1.841-1.086.193.193,0,0,1,.109-.033.2.2,0,0,1,.166.091.207.207,0,0,1-.056.281c-.024.017-.049.034-.074.05l-.015.011h0l0,0h0l-.015.011h0l0,0h0l-.014.009h0l0,0,0,0,0,0h0l-.007,0,0,0,0,0,0,0,0,0,0,0,0,0,0,0,0,0,0,0,0,0-.005,0h0a.008.008,0,0,1,0,0l0,0,0,0,0,0-.006,0-.006,0h0l0,0h0l-.005,0h0l-.006,0h0l-.005,0h0l-.006,0h0l-.007,0h0l-.006,0h0l-.013.009h0l-.006,0h0l-.021.013h0l-.021.014h0l-.021.013q-.409.263-.834.5l-.03.017h0l-.022.013h0l-.015.008-.006,0h0l-.014.008h0l-.006,0h0l-.006,0h0l-.007,0h0l-.006,0h0l-.006,0h0l-.007,0h0l-.005,0h0l-.006,0h0l-.007,0h0l-.006,0,0,0-.005,0h0l-.007,0h0l0,0,0,0,0,0,0,0-.006,0h0l0,0,0,0,0,0,0,0,0,0,0,0,0,0,0,0,0,0,0,0,0,0-.006,0,0,0,0,0,0,0,0,0,0,0-.007,0,0,0,0,0,0,0,0,0h0l-.009,0h0l0,0h0l0,0h0l-.015.008h0l-.006,0h0l-.016.008h0l0,0h0l-.016.009h0q-.161.086-.322.167a.193.193,0,0,1-.087.021A.2.2,0,0,1-2461.779-76.875Zm-10.187-1.378h-1.976v-.511l-3.071-1.212-3.251,1.283,0-.012v.248h-1.975v-3.863h-.279a.2.2,0,0,1-.04.04.194.194,0,0,1-.27-.04h-.2a.8.8,0,0,1-.79-.813v-.791q-.082-.15-.161-.3a.206.206,0,0,1,.08-.275.194.194,0,0,1,.081-.023v-.439a.8.8,0,0,1,.79-.814h.792v-1.219h-.494a.7.7,0,0,1-.693-.711.7.7,0,0,1,.693-.712h.1v-1.77a1.484,1.484,0,0,1,1.483-1.482,1.484,1.484,0,0,1,1.482,1.482v1.778a.709.709,0,0,1,.593.7.7.7,0,0,1-.692.711h-.5v1.219h6.326v-1.016h-.494a.7.7,0,0,1-.692-.711.7.7,0,0,1,.692-.712h.1v-1.77a1.484,1.484,0,0,1,1.483-1.482,1.484,1.484,0,0,1,1.482,1.482v1.778a.708.708,0,0,1,.593.7.7.7,0,0,1-.692.711h-.494v1.016h.4a.8.8,0,0,1,.791.814v1.83a.8.8,0,0,1-.791.813h-8.7v.636l0-.012,3.251,1.283,3.07-1.212v-.694h1.976v4.064h0Zm-8.3-.874.206-.081h0l0,0,0,0a.007.007,0,0,1,0,0h0a.031.031,0,0,1-.006-.006l0,0,0,0,0,0,0,0h0l-.006-.006,0,0,0,0a0,0,0,0,0,0,0l0,0,0,0-.006-.005,0,0,0,0,0,0,0,0,0,0-.005-.005,0,0,0,0,0,0,0,0,0,0-.006-.005,0,0,0,0,0,0,0,0,0,0-.006-.005,0,0,0,0,0,0,0,0,0,0-.005-.005,0,0,0,0,0,0s0,0,0,0,0,0,0,0l-.006,0,0,0,0,0,0,0,0,0,0,0-.006,0s0,0,0,0,0,0,0,0l0,0,0,0,0,0-.005-.005,0,0,0,0,0,0,0,0,0,0,0,0Zm6.326-.073v-1.988l-2.519.994Zm-5.7-.174,2.077-.82-2.7-1.067v1.321Q-2479.961-79.649-2479.641-79.374Zm8.071-3.352a.386.386,0,0,0,.15-.03l-1.5-2.612h-.459l1.517,2.642Zm-2.205,0-1.517-2.642h-.459l1.517,2.642Zm-2.57,0-1.517-2.642h-.459l1.517,2.642Zm-2.372,0-1.517-2.642h-.459l1.517,2.642Zm-2.372,0-1.517-2.642h-.459l1.516,2.641Zm6.356-4.776a.305.305,0,0,0,.3.3h2.948a.305.305,0,0,0,.305-.3.305.305,0,0,0-.305-.305h-2.948A.305.305,0,0,0-2474.733-87.5Zm-8.3-.2a.305.305,0,0,0,.3.3h2.949a.306.306,0,0,0,.3-.3.306.306,0,0,0-.3-.305h-2.949A.305.305,0,0,0-2483.034-87.706Zm24.718,9.362v-2.524l-2.059,2.19a.99.99,0,0,1-.73.319.994.994,0,0,1-.7-.293l-1.646-1.633v1.941h-1.977v-3.9l-2.88-2.856a1.062,1.062,0,0,1-.025-1.473l6.417-6.824a.994.994,0,0,1,.73-.319,1,1,0,0,1,.706.293l6.5,6.448a1.063,1.063,0,0,1,.024,1.473l-2.381,2.532v1.9a.208.208,0,0,1,0,.258v2.471Zm-3.954-4.371a1.3,1.3,0,0,0,1.285,1.321,1.305,1.305,0,0,0,1.285-1.321,1.306,1.306,0,0,0-1.285-1.321A1.306,1.306,0,0,0-2462.271-82.715Zm0-6.542v3.123a1.286,1.286,0,0,0,1.285,1.284,1.286,1.286,0,0,0,1.285-1.284v-3.123a1.286,1.286,0,0,0-1.285-1.284A1.286,1.286,0,0,0-2462.271-89.257Zm7,6.746a.207.207,0,0,1-.051-.283,17.208,17.208,0,0,0,1.092-1.872.2.2,0,0,1,.176-.11.194.194,0,0,1,.091.023.2.2,0,0,1,.084.274q-.324.647-.7,1.261a.074.074,0,0,1-.009.014h0a.05.05,0,0,0,0,.007l-.014.022h0l-.013.022a.117.117,0,0,0-.009.014l0,.007h0l-.014.022c-.005.007-.009.014-.013.022h0a.246.246,0,0,0-.012.022h0l0,.007-.009.014h0l0,.006h0l-.009.014v0a.039.039,0,0,0,0,.006h0l-.008.014h0l0,.006h0l-.009.013h0l0,.006h0a.116.116,0,0,0-.009.014h0a.073.073,0,0,0,0,.006h0l-.009.013h0l0,.006h0l-.009.013h0a.039.039,0,0,1,0,.006h0l-.013.022-.009.014h0a.019.019,0,0,1,0,.007h0l-.013.021h0c0,.007-.009.014-.013.022l-.013.022h0c-.05.077-.1.154-.152.23a.2.2,0,0,1-.163.088A.192.192,0,0,1-2455.275-82.511Zm-29.615-3.746a17.5,17.5,0,0,1-.643-2.136.2.2,0,0,1,.147-.245.2.2,0,0,1,.046-.005.2.2,0,0,1,.192.156,17.425,17.425,0,0,0,.627,2.085.205.205,0,0,1-.114.262.192.192,0,0,1-.071.014A.2.2,0,0,1-2484.889-86.257Zm31.624-.148a.2.2,0,0,1-.119-.26,17.39,17.39,0,0,0,.593-2.1.2.2,0,0,1,.193-.159.235.235,0,0,1,.043,0,.2.2,0,0,1,.15.243,17.578,17.578,0,0,1-.608,2.146.2.2,0,0,1-.185.134A.192.192,0,0,1-2453.265-86.405Zm-32.637-4.188c-.027-.257-.048-.515-.064-.775v-.006h0a.014.014,0,0,1,0-.006h0a.016.016,0,0,0,0-.006h0V-91.4h0V-91.4h0a.021.021,0,0,1,0-.006h0v-.006h0s0,0,0-.006c0-.021,0-.041,0-.062h0v-.006h0a.011.011,0,0,0,0-.005v-.007h0v-.006h0s0,0,0-.006h0v-.014a.011.011,0,0,1,0-.005v-.009s0,0,0-.005v-.007h0a.019.019,0,0,0,0-.006h0a.233.233,0,0,0,0-.026h0v-.048s0,0,0,0v-.012a0,0,0,0,0,0,0v-.022a.01.01,0,0,1,0,0V-91.7h0c0-.009,0-.017,0-.026h0v-.014a.008.008,0,0,0,0,0v-.04a.005.005,0,0,0,0,0v-.024a.008.008,0,0,1,0,0v-.014a.068.068,0,0,0,0-.013v-.023a.005.005,0,0,0,0,0v-.018a.005.005,0,0,0,0,0v-.061a.005.005,0,0,0,0,0v-.026a0,0,0,0,1,0,0v-.032a.024.024,0,0,0,0,0v-.036a.008.008,0,0,0,0,0v-.025a.028.028,0,0,0,0-.009v-.045a.006.006,0,0,0,0,0v-.055a0,0,0,0,0,0,0v-.051s0,0,0,0v-.1h0v-.008a.014.014,0,0,1,0-.005v-.154h0v-.067a.03.03,0,0,1,0-.008h0v-.011h0v-.014h0c0-.067,0-.132,0-.2a.2.2,0,0,1,.2-.2h0a.2.2,0,0,1,.195.208c0,.111,0,.223,0,.335a17.822,17.822,0,0,0,.1,1.847.2.2,0,0,1-.176.223h-.022A.2.2,0,0,1-2485.9-90.593Zm33.617-.1a.2.2,0,0,1-.179-.22c.046-.518.069-1.045.069-1.567,0-.205,0-.412-.011-.617a.2.2,0,0,1,.191-.211h.007a.2.2,0,0,1,.2.2c0,.042,0,.085,0,.128,0,0,0,.009,0,.013v.025a.021.021,0,0,0,0,.006h0v.005h0v.014h0c0,.11,0,.22.005.33h0v.034h0v.006h0v.027h0v.014h0v.006h0v.069h0v.007h0v.055h0a.019.019,0,0,0,0,.006v.064h0v.041h0v.043s0,0,0,.005v.007h0v.028h0v.014a.01.01,0,0,1,0,0v.043h0a.016.016,0,0,1,0,.006h0v.006h0v.006c0,.014,0,.028,0,.042v.006h0v.006q-.015.578-.066,1.146a.2.2,0,0,1-.2.184Zm-18.915-.177a.156.156,0,0,1,.042-.212l1.186-.814a.143.143,0,0,1,.083-.026.146.146,0,0,1,.123.068.156.156,0,0,1-.042.212l-1.186.814a.147.147,0,0,1-.082.025A.149.149,0,0,1-2471.2-90.874Zm-3.912.042-1.185-.814a.155.155,0,0,1-.042-.212.146.146,0,0,1,.123-.068.141.141,0,0,1,.082.026l1.186.814a.155.155,0,0,1,.042.212.146.146,0,0,1-.123.067A.149.149,0,0,1-2475.112-90.832Zm-4.389-.246a.155.155,0,0,1,.042-.212l1.186-.814a.143.143,0,0,1,.082-.026.148.148,0,0,1,.124.068.156.156,0,0,1-.042.212l-1.185.814a.148.148,0,0,1-.082.025A.147.147,0,0,1-2479.5-91.077Zm-3.912.042-1.185-.814a.154.154,0,0,1-.041-.212.144.144,0,0,1,.123-.068.142.142,0,0,1,.082.026l1.185.814a.155.155,0,0,1,.042.212.147.147,0,0,1-.123.067A.15.15,0,0,1-2483.413-91.035Zm10.212-1.346V-93.6a.15.15,0,0,1,.148-.152.15.15,0,0,1,.148.152v1.22a.15.15,0,0,1-.148.152A.151.151,0,0,1-2473.2-92.381Zm-8.3-.2v-1.22a.15.15,0,0,1,.148-.152.151.151,0,0,1,.148.152v1.22a.151.151,0,0,1-.148.152A.15.15,0,0,1-2481.5-92.585Zm-4.148-2.238a.2.2,0,0,1-.167-.23,17.706,17.706,0,0,1,.455-2.187.2.2,0,0,1,.19-.147.181.181,0,0,1,.053.007.2.2,0,0,1,.137.251,17.7,17.7,0,0,0-.444,2.134.2.2,0,0,1-.2.174Zm33.035-.45a17.376,17.376,0,0,0-.478-2.126.2.2,0,0,1,.132-.254.212.212,0,0,1,.057-.008.2.2,0,0,1,.19.145,17.687,17.687,0,0,1,.489,2.177.2.2,0,0,1-.163.233l-.033,0A.2.2,0,0,1-2452.615-95.273Zm-17.709-.26a5.005,5.005,0,0,1-5-5v-2.4a5.009,5.009,0,0,1,1.129-3.165,5.019,5.019,0,0,1,2.824-1.724v-1.33h-.079a.712.712,0,0,1-.712-.711.712.712,0,0,1,.712-.712h.164a2,2,0,0,1,1.915-1.423h.546a2,2,0,0,1,1.915,1.423h.164a.712.712,0,0,1,.712.712.712.712,0,0,1-.712.711h-.078v1.292a4.985,4.985,0,0,1,4.151,4.928v2.4a5.005,5.005,0,0,1-5,5Zm-2.826-6.469v.131a4.005,4.005,0,0,0,4,4h.1a4,4,0,0,0,4-4V-102a4,4,0,0,0-4-4h-.1A4.005,4.005,0,0,0-2473.151-102Zm1.753,3v-.511h-.48v-.305h.6l.8-.833-.042-.094a3.254,3.254,0,0,0-.255-.782,2.033,2.033,0,0,1,.124-1.724l-.719-.734-.65-.068.031-.3.537.057v-.518h.3v.623l.7.712a1.883,1.883,0,0,1,1.356-.447l.11,0a1.73,1.73,0,0,1,1.232.464l.7-.723.068-.668.3.032-.056.553h.5v.305h-.606l-.716.74a2.635,2.635,0,0,1,.23,1.7,2.481,2.481,0,0,0-.124.448l-.094.334-.085.133.767.783h.552v.3h-.5v.5h-.3v-.616l-.692-.707-.022.036h-.522a.036.036,0,0,1,0,0,.916.916,0,0,1-.073.7.572.572,0,0,1-.486.2,1.109,1.109,0,0,1-.12-.006l-.177,0c-.09,0-.127,0-.127,0s-.528-.065-.459-.9l-.321,0c-.152,0-.208,0-.21,0l-.017-.038-.757.785V-99Zm2.167-2.019a.2.2,0,0,0,.2.2.2.2,0,0,0,.2-.2.2.2,0,0,0-.2-.2A.2.2,0,0,0-2469.231-101.022Zm-15.3,1.942a.2.2,0,0,1-.1-.266c.088-.212.181-.423.276-.631l.008-.016,0-.007h0a.145.145,0,0,1,.007-.015.03.03,0,0,1,0-.008l.011-.023h0l.011-.022h0l0-.007h0c0-.005,0-.01.006-.015v0l0-.006h0l.007-.014v0a.014.014,0,0,0,0-.006h0c0-.005,0-.01.006-.014v0l0-.006h0a.107.107,0,0,1,.007-.015h0a.009.009,0,0,0,0-.006l0,0,.006-.014v0l0-.005v0a.021.021,0,0,1,0-.006h0a.025.025,0,0,1,0-.007v0s0,0,0-.005v0l0-.006h0l0-.007v0l0-.005v0l0-.006h0l0-.007v0l0-.005a0,0,0,0,1,0,0l0-.005v0a.021.021,0,0,1,0-.006v0l0-.005,0,0s0,0,0,0l0,0,0-.007h0l0-.005a0,0,0,0,0,0,0l0,0v0l0-.006v0l0-.006v0l0-.005v0l0-.005,0,0s0,0,0-.005v0l0,0,0,0,0,0v0l0-.007,0,0a.006.006,0,0,0,0,0l0,0a.006.006,0,0,0,0,0l0,0,0-.007,0,0s0,0,0,0l0,0s0,0,0,0l0,0,0-.007v0a.011.011,0,0,0,0-.005l0,0s0,0,0,0l0,0,0-.007v0l0,0,0,0a.006.006,0,0,1,0,0l0,0,0-.007,0,0a.006.006,0,0,1,0,0l0,0a.006.006,0,0,1,0,0s0,0,0,0l0,0a0,0,0,0,1,0,0,.006.006,0,0,1,0,0s0,0,0,0l0,0,0,0,0,0s0,0,0,0,0,0,0,0l0,0,0,0,0,0,0,0,0-.005s0,0,0,0l0,0a0,0,0,0,0,0,0l0,0,0,0,0,0s0,0,0,0,0,0,0,0a0,0,0,0,0,0,0l0,0,0,0,0,0s0,0,0-.005l0,0v0l0,0a.024.024,0,0,1,0,0s0,0,0,0a.04.04,0,0,0,0-.006l0,0a0,0,0,0,1,0,0l0,0v0l0,0s0,0,0,0l0,0s0,0,0,0,0,0,0,0l0,0,0,0,0,0,0-.006,0,0a.006.006,0,0,0,0,0l0,0s0,0,0,0a.009.009,0,0,0,0,0,.014.014,0,0,0,0-.005l0,0,0,0v0l0,0v0a.014.014,0,0,0,0-.006l0,0,0,0,0,0,0,0,0,0a.047.047,0,0,1,0-.007v0l0,0v0l0,0,0,0s0,0,0-.006,0,0,0,0,0,0,0,0l0,0,0,0,0,0a.014.014,0,0,1,0-.006v0l0,0v0l0,0a.024.024,0,0,0,0,0,0,0,0,0,0,0,0l0-.005s0,0,0,0,0,0,0,0l0,0,0,0,0,0,0,0a.015.015,0,0,1,0-.007v0l0,0v0l0,0v0a.033.033,0,0,1,0-.008v0a.006.006,0,0,0,0,0l0,0,0,0s0,0,0,0l.005-.008s0,0,0,0,0,0,0,0a0,0,0,0,0,0,0l0,0v0l.005-.008v0l0,0v0l0,0v0a.044.044,0,0,0,0-.01h0l0,0v0l0,0h0a.094.094,0,0,1,.008-.015v0l0,0v0l.009-.015v0a.009.009,0,0,0,0,0v0a.107.107,0,0,0,.008-.014v0a.015.015,0,0,0,0,0v0l.009-.016,0-.005h0a.145.145,0,0,1,.009-.017l0-.005h0l.012-.022h0c0-.008.008-.015.012-.022h0l.013-.023,0-.005.026-.046.087-.156a.2.2,0,0,1,.171-.1.194.194,0,0,1,.1.029.207.207,0,0,1,.07.278,17.179,17.179,0,0,0-.958,1.948.2.2,0,0,1-.182.124A.192.192,0,0,1-2484.536-99.08Zm30.7-.365a17.14,17.14,0,0,0-.988-1.931.207.207,0,0,1,.066-.28.2.2,0,0,1,.1-.03.2.2,0,0,1,.168.1,17.615,17.615,0,0,1,1.013,1.979.206.206,0,0,1-.1.268.189.189,0,0,1-.08.018A.2.2,0,0,1-2453.833-99.445Zm-28.572-3.461a.207.207,0,0,1-.035-.285l0,0,0-.005h0q.423-.56.887-1.083l.017-.019.017-.019h0l.016-.019h0l.017-.019h0l.017-.018h0l0,0,.012-.013h0l0,0h0l.012-.013h0l0,0h0l.008-.009,0,0h0l0,0,.013-.013h0l0,0h0l.012-.013v0a.006.006,0,0,0,0,0h0l.008-.009,0,0v0l0,0v0l.007-.007h0l0,0v0l0,0,0,0,.007-.007h0l0,0,0,0,0,0v0l.006-.007,0,0,0,0,0,0,0,0,0,0,.007-.007h0l0,0,0,0,0,0,0,0,.005-.005,0,0,0,0,0,0,0,0,0,0,.005-.005,0,0,0,0,0,0,0,0,0,0,.005-.005,0,0,0,0,0,0,0,0,0,0,.005-.005,0,0,0,0,0,0,0,0,0,0,0-.005,0,0,0,0,0,0,0,0,0,0,.005,0,0,0,0,0,0,0,0,0,0,0,0,0a.006.006,0,0,1,0,0l0,0,0,0,0,0,0,0,0,0,0,0s0,0,0,0l0,0,0,0,0,0,0,0s0,0,0,0l0,0,0,0,0,0,0,0,0,0,0-.005,0,0,0,0,0,0,0,0,0,0,0,0s0,0,0,0l0,0,0,0,0,0,0,0,0,0,0,0,0,0,0,0,0,0,0,0,0,0,0,0,0,0,0,0,0,0,0,0,0,0s0,0,0,0l0,0,0,0,0,0s0,0,0,0l.005,0,0,0,0,0,0,0s0,0,0,0l0-.005,0,0v0a.2.2,0,0,1,.139-.059.2.2,0,0,1,.14.059.208.208,0,0,1,0,.288,17.066,17.066,0,0,0-1.406,1.636.2.2,0,0,1-.156.078A.194.194,0,0,1-2482.405-102.905Zm26.364-.257a16.923,16.923,0,0,0-1.431-1.612.208.208,0,0,1,0-.288.193.193,0,0,1,.142-.062.19.19,0,0,1,.137.058c.059.059.118.117.176.176l.017.018h0l.012.013.006.005h0l.005.005h0l.005.006.005.005,0,0,0,0h0l.005.005v0l0,0,0,0,0,0h0l.005.005v0l0,0,0,0,0,0,0,0,.005.005,0,0,0,0,0,0,0,0,0,0,.006.005,0,0,0,0,0,0s0,0,0,0l0,0,0,.005,0,0,0,0,0,0,0,0,0,0,0,.005,0,0,0,0,0,0,0,0s0,0,0,0l0,0,0,0,0,0,0,0,0,0,0,0,0,0,.005.005a0,0,0,0,1,0,0l0,0,0,0,0,0h0l.007.008,0,0,0,0v0a.106.106,0,0,1,.012.012l0,0,0,0,0,0,.012.012v0a.006.006,0,0,1,0,0h0a.075.075,0,0,0,.012.013v0s0,0,0,0h0l.012.013,0,0,0,0h0l.012.013h0l0,0h0l.012.013,0,0,0,0h0l.012.013v0l0,0h0l.012.013h0l0,0h0l.012.014h0l0,0v0a.167.167,0,0,1,.013.013h0l0,0v0l.012.013h0l0,0h0l.011.013s0,0,0,0l0,0,0,0s0,0,0,0l.007.008,0,0,0,0v0l0,0h0l.007.007v0l0,0,0,0,0,0,0,0,.006.006,0,0,0,0,0,0s0,0,0,0h0l.006.007,0,0,0,0,0,0a.006.006,0,0,1,0,0l0,0,.005.006,0,0,0,0,0,0,0,0,0,0,0,.005,0,0,0,0s0,0,0,0l0,0,0,0,0,0,0,0,0,0,0,0s0,0,0,0,0,0,0,0l0,0,0,0,0,0,0,0,0,0,0,0s0,0,0,0l0,0,0,0,0,0,0,0,0,0,0,0,0,0,0,0,0,0,0,0,.005.005v0l0,0,0,0,0,0,0,0,.005.005v0l0,0v0l0,0,0,0,.005.006h0l0,0,0,0,0,0,0,0,.005.005h0l0,.005,0,0,0,0,0,0,.005.006h0l0,0,0,0,0,0,0,0,.005.006,0,.005,0,0s0,0,0,0v0l.01.012,0,0,0,0h0l.01.013h0l0,.005h0l.011.013h0l0,.005h0l.011.013h0l0,.005h0l.011.012h0l.005.006.012.014.005.006.011.014h0l.016.019h0l.016.019h0q.178.211.35.428h0l.016.02.011.013.005.007h0l.01.014h0l0,.006h0l.01.014h0l0,.006h0l.01.013h0l0,.005,0,0,0,.005h0a.206.206,0,0,1-.031.285.2.2,0,0,1-.124.045A.194.194,0,0,1-2456.042-103.163Zm-23.363-2.892a.208.208,0,0,1,.036-.285l.172-.134.02-.016h0l.014-.011h0l0,0h0l0,0h0l.008-.006,0,0,0,0,0,0,0,0h0l.007-.005a0,0,0,0,1,0,0l0,0,0,0,0,0,0,0,0,0,0,0,0,0,0,0,0,0,0,0,0,0,0,0,0,0,0,0s0,0,0,0,0,0,0,0l0,0,.006,0,0,0,0,0,0,0,.005,0h0l.006,0h0a.008.008,0,0,1,0,0l0,0,.013-.009h0l.005,0h0l.013-.009h0l.005,0h0l.014-.01.006,0h0l.02-.014h0l.02-.014h0l.02-.014q.648-.479,1.34-.895a.189.189,0,0,1,.1-.028.2.2,0,0,1,.171.1.207.207,0,0,1-.071.278,16.518,16.518,0,0,0-1.76,1.219.2.2,0,0,1-.122.042A.2.2,0,0,1-2479.4-106.054Zm20.314-.133a16.575,16.575,0,0,0-1.779-1.19.207.207,0,0,1-.075-.277.2.2,0,0,1,.173-.1.2.2,0,0,1,.1.026h0l0,0,0,0,.005,0h0l.006,0,0,0,0,0h0l0,0,0,0,.006,0h0l0,0,0,0,0,0,0,0,.006,0,0,0,0,0,0,0,0,0,0,0,0,0,.005,0,0,0,0,0,0,0,0,0h0l.008.005h0l0,0h0l0,0h0l.008,0,0,0,0,0,0,0,.015.008h0l0,0h0l.015.009h0l0,0h0l.021.013h0q.493.3.965.623l.005,0h0l.014.01h0l0,0h0l.015.011.005,0h0l.014.01h0l0,0h0l.014.01h0l0,0,0,0,.014.009,0,0,0,0h0l0,0,0,0,.007,0,0,0,0,0,0,0,0,0,0,0,.006,0,0,0,0,0,0,0,0,0,0,0,0,0,0,0,0,0,0,0,0,0,0,0,0,0,0,0,0,0,0,0,0,0,0,0,0,0,0,0,0,0,0,0a0,0,0,0,0,0,0l.013.009h0a.009.009,0,0,0,0,0h0l.012.01h0l.005,0h0l.012.01h0l.006,0h0l.02.014h0q.173.126.343.257a.208.208,0,0,1,.041.284.2.2,0,0,1-.159.082A.2.2,0,0,1-2459.091-106.187Zm-16.638-2.136a.205.205,0,0,1,.105-.266,16.6,16.6,0,0,1,2.051-.738.223.223,0,0,1,.053-.007.2.2,0,0,1,.191.148.205.205,0,0,1-.138.251,16.117,16.117,0,0,0-2,.72.192.192,0,0,1-.076.016A.2.2,0,0,1-2475.729-108.323Zm12.947,0a16.328,16.328,0,0,0-2.014-.686.2.2,0,0,1-.141-.247.2.2,0,0,1,.191-.152.186.186,0,0,1,.05.006h.01l.006,0h.018l.007,0h0l.007,0h0l.005,0h0l.005,0h0l.008,0h0l.005,0h0l.006,0h0l.008,0,.007,0h0l.006,0h0l.015,0h.009l.016,0h0l.006,0h0l.007,0,.008,0h0l.007,0h0l.007,0h0l.016,0h0l.007,0h0l.016,0h0l.007,0h0l.024.007h0l.007,0,.016,0h0l.008,0,.023.006h0l.082.023a16.459,16.459,0,0,1,1.651.586.206.206,0,0,1,.11.265.2.2,0,0,1-.184.127A.189.189,0,0,1-2462.782-108.323Z" transform="translate(2494.229 118.566)" fill="#36c1ff"/>
</svg>
