<svg xmlns="http://www.w3.org/2000/svg" width="40" height="42.998" viewBox="0 0 40 42.998">
  <path id="Union_70" data-name="Union 70" d="M-2465.821-69h-.566c-.134,0-.268-.006-.4-.012h0l-.079,0h-.141l-.1-.005a.235.235,0,0,1-.22-.248.234.234,0,0,1,.245-.223c.36.02.726.03,1.088.03.47,0,.944-.017,1.41-.05h.016a.235.235,0,0,1,.232.22.236.236,0,0,1-.216.253l-.067,0h-.155c-.306.019-.613.031-.922.035h-.12Zm-1.189-.025Zm-2.643-.312a19.613,19.613,0,0,1-2.479-.634.237.237,0,0,1-.15-.3.233.233,0,0,1,.221-.165.217.217,0,0,1,.071.012,19.292,19.292,0,0,0,2.421.62.235.235,0,0,1,.186.274.234.234,0,0,1-.229.194A.233.233,0,0,1-2469.652-69.339Zm7.355-.248a.235.235,0,0,1,.182-.278,19.431,19.431,0,0,0,2.41-.661.222.222,0,0,1,.075-.013.234.234,0,0,1,.221.16.237.237,0,0,1-.145.3l-.019.006h0l-.027.01h0l-.008,0h0l-.017.005h0l-.007,0h0l-.007,0h0l-.009,0h0l-.006,0h0l-.005,0h0l-.008,0h0l-.006,0h0l0,0,0,0-.005,0h0l-.007,0h0l0,0h0l0,0h0l-.006,0,0,0h-.005l0,0h0l0,0h0l-.008,0h0l-.006,0h0l-.005,0h0l-.017.005h0l-.005,0h0l-.006,0h0l-.014,0-.006,0h0l-.006,0h0l-.021.007h0l-.006,0h0l-.022.007-.006,0h0l-.028.01h0l-.007,0-.029.01-.029.009h0l-.029.009h0q-.389.123-.784.229l-.03.008h0l-.006,0h0l-.029.008h0l-.03.008h0l-.006,0h0l-.021.006h0l-.006,0h0l-.006,0-.014,0H-2461l-.006,0h0l-.019.005h-.011l-.019,0h0l-.006,0h-.01l-.012,0h-.011l-.006,0h-.01l-.011,0,0,0h-.013l0,0-.008,0h-.014l0,0h-.009l-.008,0h0l0,0h-.013l-.007,0h0l0,0h-.014l-.005,0h0l-.009,0h0l-.006,0h0l-.006,0h0l-.009,0h0l-.006,0h0l-.006,0h0l-.008,0h0l-.009,0h0l-.007,0h0l-.007,0h0l-.009,0h0l-.007,0h0l-.008,0h0l-.018,0h-.012l-.019,0h0l-.008,0h0l-.009,0-.019,0h0l-.009,0h0l-.019,0-.009,0h0l-.029.006h0q-.244.057-.491.107a.229.229,0,0,1-.047,0A.233.233,0,0,1-2462.3-69.587Zm-12.211-1.339q-.606-.289-1.19-.619l-.052-.03h0l-.006,0-.02-.012-.006,0h0l-.019-.011h0l-.006,0h0l-.02-.011-.006,0h0l-.02-.011-.006,0h0l-.026-.014h0l-.025-.014h0l-.025-.015h0l-.025-.015h0l-.006,0-.019-.012h0l-.006,0h0l-.018-.011h0l-.005,0h0l-.017-.011h0l-.005,0h0l-.018-.011h0l-.006,0h0l-.019-.011h0l-.005,0h0l-.018-.011h0l-.005,0h0l-.018-.011-.006,0h0l-.005,0-.012-.007h0l-.005,0h0l-.006,0-.018-.012h0l-.005,0h0l-.018-.011h0l-.005,0h0l-.018-.012h0l-.006,0h0l-.018-.011h0l-.005,0h0l-.017-.011h0l-.005,0h0l-.018-.011h0l-.006,0h0l-.017-.011h0l-.005,0,0,0-.017-.011h0l0,0h0l-.019-.012-.005,0h0l-.024-.015h0a.212.212,0,0,1-.024-.015h0l-.024-.016h0l-.024-.015h0l-.025-.016-.026-.016-.172-.11a.239.239,0,0,1-.07-.327.231.231,0,0,1,.2-.109.236.236,0,0,1,.125.037,19.5,19.5,0,0,0,2.187,1.226.237.237,0,0,1,.111.314.231.231,0,0,1-.21.136A.226.226,0,0,1-2474.509-70.926Zm17-.253a.237.237,0,0,1,.106-.316,19.543,19.543,0,0,0,2.166-1.263.231.231,0,0,1,.128-.039.232.232,0,0,1,.195.105.238.238,0,0,1-.065.328l-.087.058-.018.013h0l-.005,0h0l-.018.012h0l-.005,0h0l-.016.011,0,0-.005,0,0,0,0,0,0,0-.008.005,0,0s0,0,0,0l0,0,0,0,0,0-.005,0,0,0,0,0,0,0,0,0-.006,0,0,0-.005,0,0,0-.005,0,0,0-.007,0-.008.005h0l-.005,0h0l-.007,0h0l-.008,0h0l-.006,0h0l-.008.005-.008,0h0l-.007,0h0l-.015.011h0l-.007.005h0l-.024.016h0l-.025.016-.025.016q-.482.306-.982.586l-.034.019h0l-.026.014h0l-.017.01-.009,0h0l-.016.01h0l-.007,0h0l-.008,0h0l-.009,0h0l-.007,0h0l-.007,0h0l-.008,0h0l-.007,0h0l-.006,0h0l-.007,0h0l-.006,0h0l-.006,0h0l-.008,0h0l-.005,0,0,0-.006,0s0,0,0,0l-.007,0h0l-.005,0,0,0,0,0,0,0,0,0-.005,0,0,0,0,0,0,0,0,0,0,0-.006,0,0,0,0,0,0,0,0,0,0,0-.008,0,0,0,0,0h0l-.005,0,0,0-.01.005h0l0,0h0l-.005,0h0l-.018.01h0l-.006,0-.02.011h0l-.006,0-.02.011c-.126.066-.253.131-.381.194a.229.229,0,0,1-.1.024A.232.232,0,0,1-2457.5-71.179Zm-11.984-1.6h-2.324v-.594l-3.613-1.409-3.824,1.492-.005-.014v.289h-2.325v-4.489h-.328a.245.245,0,0,1-.047.046.23.23,0,0,1-.317-.046h-.238a.938.938,0,0,1-.931-.945v-.919q-.1-.174-.19-.35a.238.238,0,0,1,.1-.32.22.22,0,0,1,.094-.028v-.509a.939.939,0,0,1,.931-.946h.931v-1.417h-.582a.822.822,0,0,1-.814-.827.822.822,0,0,1,.814-.827h.117V-86.63a1.746,1.746,0,0,1,1.744-1.744,1.746,1.746,0,0,1,1.744,1.744v2.044a.827.827,0,0,1,.7.819.822.822,0,0,1-.814.827h-.581v1.417h7.443V-82.7h-.582a.821.821,0,0,1-.813-.827.821.821,0,0,1,.813-.827h.117v-2.036a1.746,1.746,0,0,1,1.744-1.744,1.747,1.747,0,0,1,1.744,1.744v2.044a.828.828,0,0,1,.7.819.822.822,0,0,1-.814.827h-.582v1.181h.465a.938.938,0,0,1,.93.946v2.126a.937.937,0,0,1-.93.945h-.465v4.724h0Zm-9.767-1.015.242-.094h0l0,0,0,0,0,0h0l-.008-.007,0,0,0,0s0,0,0,0l0,0,0,0a.03.03,0,0,1-.008-.007h0l0,0,0,0,0,0,0,0-.007-.006,0,0,0,0,0,0,0,0,0,0-.007-.006,0,0,0,0,0,0,0,0,0,0-.007-.006,0,0,0,0,0,0,0,0s0,0,0,0l-.007-.006,0,0,0,0,0,0,0,0,0,0-.006-.006,0,0,0,0,0,0s0,0,0,0l0,0-.006-.005,0,0,0,0,0,0a.006.006,0,0,0,0,0l0,0-.006-.005,0,0,0,0,0,0,0,0,0,0-.006-.006,0,0,0,0,0,0,0,0,0,0,0,0Zm7.443-.085v-2.312l-2.964,1.156Zm-6.705-.2,2.444-.953-3.181-1.241v1.535Q-2478.9-74.4-2478.519-74.084Zm3.092-1.206,3.613-1.409v-.806h-7.443v.738l.005-.014Zm6.4-2.689a.458.458,0,0,0,.176-.035l-1.765-3.036h-.54l1.785,3.071Zm-2.595,0-1.785-3.071h-.54l1.785,3.071Zm-3.022,0-1.785-3.071h-.541l1.784,3.071Zm-2.792,0-1.784-3.071h-.539l1.785,3.071Zm-2.79,0-1.784-3.071h-.54l1.783,3.069Zm7.479-5.552a.355.355,0,0,0,.354.355h3.477a.355.355,0,0,0,.354-.355.355.355,0,0,0-.354-.355h-3.477A.355.355,0,0,0-2472.744-83.531Zm-9.768-.236a.355.355,0,0,0,.354.355h3.477a.355.355,0,0,0,.355-.355.355.355,0,0,0-.355-.355h-3.477A.355.355,0,0,0-2482.511-83.767Zm29.08,10.88V-75.82l-2.422,2.544a1.18,1.18,0,0,1-.859.371,1.178,1.178,0,0,1-.829-.34l-1.936-1.9v2.254h-2.326V-77.42l-3.388-3.319a1.226,1.226,0,0,1-.03-1.713l7.549-7.931a1.175,1.175,0,0,1,.859-.37,1.183,1.183,0,0,1,.83.34l7.65,7.494a1.226,1.226,0,0,1,.03,1.713l-2.8,2.943v2.2a.239.239,0,0,1,0,.3v2.872Zm-4.651-5.08a1.526,1.526,0,0,0,1.512,1.535,1.525,1.525,0,0,0,1.511-1.535,1.526,1.526,0,0,0-1.511-1.536A1.526,1.526,0,0,0-2458.083-77.966Zm0-7.584v3.592a1.513,1.513,0,0,0,1.512,1.511,1.513,1.513,0,0,0,1.511-1.511V-85.55a1.513,1.513,0,0,0-1.511-1.512A1.514,1.514,0,0,0-2458.083-85.55Zm8.229,7.821a.239.239,0,0,1-.059-.328,19.961,19.961,0,0,0,1.285-2.175.231.231,0,0,1,.206-.128.229.229,0,0,1,.107.026.239.239,0,0,1,.1.319q-.382.752-.822,1.465l-.011.017-.005.009-.015.025h0a.266.266,0,0,0-.015.025h0l-.01.017-.005.008h0l-.015.025-.016.025h0l-.016.025-.005.008h0l-.011.016h0l-.006.007h0l-.011.016v0a.018.018,0,0,0,0,.007h0l-.011.016h0l-.005.007h0l-.011.016h0l-.005.007h0l-.011.016v0l0,.006v0l-.01.016h0l0,.007h0a.145.145,0,0,0-.01.016h0l0,.007h0l-.016.025-.011.017-.005.008h0c0,.008-.01.016-.015.024h0l-.016.024h0l-.016.024h0q-.088.135-.178.267a.232.232,0,0,1-.192.1A.23.23,0,0,1-2449.853-77.729Zm-34.841-4.352a20.465,20.465,0,0,1-.755-2.483.236.236,0,0,1,.172-.284.227.227,0,0,1,.055-.006.235.235,0,0,1,.226.181,19.858,19.858,0,0,0,.737,2.423.238.238,0,0,1-.134.305.23.23,0,0,1-.083.016A.232.232,0,0,1-2484.694-82.082Zm37.205-.173a.238.238,0,0,1-.14-.3,19.839,19.839,0,0,0,.7-2.435.235.235,0,0,1,.227-.185.2.2,0,0,1,.051.006.236.236,0,0,1,.177.282,20.327,20.327,0,0,1-.715,2.494.233.233,0,0,1-.218.156A.226.226,0,0,1-2447.489-82.255Zm-38.4-4.867c-.031-.3-.057-.6-.075-.9a.03.03,0,0,1,0-.008h0v-.007h0a.018.018,0,0,1,0-.007h0a.018.018,0,0,0,0-.007h0v-.007h0a.024.024,0,0,0,0-.007h0v-.007h0a.018.018,0,0,0,0-.007h0c0-.023,0-.048,0-.072h0a.024.024,0,0,1,0-.007h0v-.008s0,0,0-.006v-.01a.014.014,0,0,1,0-.006v-.011s0,0,0-.006v-.01a.014.014,0,0,0,0-.006v-.01s0,0,0-.006v-.01c0-.01,0-.02,0-.031h0V-88.3a0,0,0,0,1,0,0v-.008a.009.009,0,0,0,0-.005v-.017a0,0,0,0,0,0,0v-.016s0,0,0-.005v-.012a.011.011,0,0,0,0-.005v-.02a.012.012,0,0,1,0-.005v-.008h0c0-.01,0-.02,0-.031h0v-.017a.012.012,0,0,1,0-.005v-.02s0,0,0-.005V-88.5a.036.036,0,0,1,0,0v-.02a.016.016,0,0,0,0-.005v-.019a.014.014,0,0,0,0-.006h0v-.007a.071.071,0,0,0,0-.014v-.052s0,0,0,0v-.025a.005.005,0,0,0,0,0v-.022a0,0,0,0,0,0,0v-.025s0-.009,0-.012v-.032a.006.006,0,0,1,0,0v-.022a.008.008,0,0,0,0,0v-.076a.04.04,0,0,0,0-.011h0v-.03a.008.008,0,0,1,0,0v-.046a.008.008,0,0,0,0,0v-.055a.023.023,0,0,0,0-.008v-.055s0,0,0,0v-.108s0,0,0-.005v-.147h0v-.023h0v-.071a.01.01,0,0,1,0,0v-.043h0c0-.076,0-.153,0-.229a.235.235,0,0,1,.232-.232h.006a.235.235,0,0,1,.228.241c0,.129,0,.26,0,.39a20.51,20.51,0,0,0,.113,2.146.235.235,0,0,1-.206.26h-.025A.234.234,0,0,1-2485.885-87.122Zm39.55-.12a.235.235,0,0,1-.211-.257c.053-.6.081-1.213.081-1.82,0-.239,0-.48-.013-.717a.234.234,0,0,1,.224-.244h.008a.234.234,0,0,1,.232.229q0,.073.005.148v.035a0,0,0,0,1,0,0v.023a.081.081,0,0,1,0,.015c0,.129,0,.256.005.384h0v.016h0v.015h0v.007h0v.007h0v.007h0c0,.006,0,.01,0,.015v.008h0v.008h0v.106h0v.064h0v.008h0v.033s0,0,0,.005v.017h0v.016h0v.049c0,.008,0,.015,0,.024h0v.041c0,.011,0,.021,0,.032v.01a.014.014,0,0,1,0,.006v.018c0,.014,0,.026,0,.04h0v.007h0v.007h0v.008c0,.016,0,.032,0,.049s0,.005,0,.008h0v.007h0c-.012.446-.037.891-.076,1.331a.234.234,0,0,1-.231.214Zm-22.252-.207a.179.179,0,0,1,.049-.246l1.4-.945a.169.169,0,0,1,.1-.03.173.173,0,0,1,.146.078.18.18,0,0,1-.049.246l-1.4.945a.168.168,0,0,1-.1.03A.17.17,0,0,1-2468.587-87.449Zm-4.6.049-1.4-.945a.178.178,0,0,1-.048-.246.172.172,0,0,1,.144-.078.17.17,0,0,1,.1.03l1.4.945a.181.181,0,0,1,.049.246.174.174,0,0,1-.146.078A.163.163,0,0,1-2473.189-87.4Zm-5.165-.284a.179.179,0,0,1,.049-.246l1.4-.945a.17.17,0,0,1,.1-.031.173.173,0,0,1,.145.079.179.179,0,0,1-.049.246l-1.4.945a.172.172,0,0,1-.1.03A.173.173,0,0,1-2478.354-87.684Zm-4.6.049-1.4-.945a.179.179,0,0,1-.048-.246.173.173,0,0,1,.145-.079.169.169,0,0,1,.1.031l1.4.945a.179.179,0,0,1,.049.246.176.176,0,0,1-.146.078A.163.163,0,0,1-2482.957-87.636Zm12.016-1.565v-1.417a.176.176,0,0,1,.174-.177.177.177,0,0,1,.175.177V-89.2a.176.176,0,0,1-.175.177A.175.175,0,0,1-2470.941-89.2Zm-9.768-.236v-1.418a.176.176,0,0,1,.174-.177.176.176,0,0,1,.175.177v1.418a.177.177,0,0,1-.175.177A.176.176,0,0,1-2480.709-89.437Zm-4.88-2.6a.236.236,0,0,1-.2-.267,20.564,20.564,0,0,1,.535-2.542.234.234,0,0,1,.224-.172.255.255,0,0,1,.063.009.238.238,0,0,1,.161.292,19.855,19.855,0,0,0-.522,2.48.234.234,0,0,1-.23.2Zm38.865-.523a20.071,20.071,0,0,0-.562-2.471.237.237,0,0,1,.157-.294.208.208,0,0,1,.066-.01.232.232,0,0,1,.222.168,20.435,20.435,0,0,1,.576,2.53.236.236,0,0,1-.193.272.229.229,0,0,1-.037,0A.234.234,0,0,1-2446.724-92.561Zm-21.717-.3a5.005,5.005,0,0,1-5-5v-4.412a5.013,5.013,0,0,1,4.651-4.989v-1.429h-.1a.827.827,0,0,1-.827-.827.828.828,0,0,1,.827-.827h.133a2,2,0,0,1,1.97-1.653h1.349a2,2,0,0,1,1.969,1.653h.134a.828.828,0,0,1,.827.827.827.827,0,0,1-.827.827h-.1v1.418a4.969,4.969,0,0,1,3.457,1.5,4.97,4.97,0,0,1,1.427,3.5v4.412a5.005,5.005,0,0,1-5,5Zm-2.443-8.168v1.451a4,4,0,0,0,4,4h1.535a4,4,0,0,0,4-4v-1.451a4,4,0,0,0-4-4h-1.535A4,4,0,0,0-2470.884-101.03Zm2.064,4.134v-.593h-.566v-.355h.7l.946-.968-.051-.111a3.815,3.815,0,0,0-.3-.908,2.344,2.344,0,0,1,.146-2l-.847-.854-.763-.08.036-.352.632.067v-.6h.349v.724l.82.826a2.234,2.234,0,0,1,1.6-.518l.128,0a2.047,2.047,0,0,1,1.45.54l.822-.841.08-.776.346.037-.066.642h.593v.355h-.714l-.842.86a3.011,3.011,0,0,1,.271,1.974,2.727,2.727,0,0,0-.146.521l-.112.387-.1.154.9.91h.65v.355h-.584v.575h-.349v-.715l-.814-.821-.026.041h-.615s0,0,0,0a1.052,1.052,0,0,1-.084.815.673.673,0,0,1-.574.235,1.256,1.256,0,0,1-.14-.006c-.087,0-.156,0-.209,0-.1,0-.147,0-.149,0s-.62-.074-.539-1.049c-.13,0-.256,0-.377,0-.183,0-.247,0-.247,0l-.02-.044-.891.913v.66Zm2.548-2.344a.234.234,0,0,0,.232.236.235.235,0,0,0,.233-.236.236.236,0,0,0-.233-.237A.234.234,0,0,0-2466.272-99.241Zm.814-1.3a.118.118,0,0,0,.119.118h.229a.118.118,0,0,0,.118-.118.118.118,0,0,0-.118-.118h-.229A.118.118,0,0,0-2465.458-100.541Zm-1.627,0a.117.117,0,0,0,.118.118h.229a.118.118,0,0,0,.114-.085l-.149-.15h-.193A.118.118,0,0,0-2467.085-100.541Zm-17.192,3.556a.237.237,0,0,1-.122-.31c.1-.247.212-.491.325-.733l.009-.018s0-.006,0-.009h0l.008-.018s0-.006,0-.009h0a.22.22,0,0,0,.012-.026h0c0-.009.008-.018.013-.027h0a.029.029,0,0,0,0-.008h0l.008-.017v0a.025.025,0,0,1,0-.007h0c0-.006.006-.012.009-.017v0a.032.032,0,0,0,0-.007v0l.008-.017v0s0,0,0-.007h0l.008-.017s0,0,0,0a.025.025,0,0,1,0-.007s0,0,0,0l.008-.017v0l0-.006v0a.017.017,0,0,0,0-.007h0l0-.008v0l0-.007v0a.025.025,0,0,0,0-.007h0a.035.035,0,0,1,0-.009v0a.021.021,0,0,0,0-.006v0l0-.006v0l0-.008v0l0-.006,0,0,0-.006v0l0-.008a0,0,0,0,1,0,0l0-.005,0,0,0-.005,0,0a.029.029,0,0,1,0-.008v0l0-.006,0,0,0-.005v0l0-.008v0l0-.006s0,0,0,0l0-.006,0,0,0-.006,0,0,0-.006a.006.006,0,0,0,0,0l0,0a0,0,0,0,1,0,0l0-.005v0l0-.008v0l0-.005,0,0,0-.006v0l0-.008v0l0-.005s0,0,0,0l0,0a0,0,0,0,1,0,0,.055.055,0,0,1,0-.007s0,0,0,0a.018.018,0,0,1,0-.005s0,0,0,0l0-.005,0,0a.03.03,0,0,1,0-.008l0,0,0,0a0,0,0,0,1,0,0,.012.012,0,0,1,0-.005l0,0a.03.03,0,0,0,0-.008l0,0,0-.005,0,0a.008.008,0,0,0,0,0,0,0,0,0,0,0,0l0-.005,0,0,0-.005,0,0,0,0,0,0,0,0s0,0,0-.005a.011.011,0,0,1,0-.005s0,0,0,0l0,0,0,0,0,0,0-.006,0,0,0,0,0,0,0,0,0,0,0-.005,0-.005,0,0s0,0,0,0l0,0,0,0s0,0,0,0l0-.006,0,0,0,0,0,0s0,0,0,0,0,0,0,0l0-.007,0,0a.009.009,0,0,1,0,0,.006.006,0,0,0,0,0l0,0,0,0,0-.005,0-.006,0,0,0,0a0,0,0,0,0,0,0l0,0a.009.009,0,0,1,0,0l0-.007a0,0,0,0,0,0,0l0,0,0,0,0,0,0,0a.016.016,0,0,1,0-.006l0,0,0,0,0,0,0,0,0,0a.032.032,0,0,0,0-.007l0,0,0,0,0,0,0,0,0,0,0-.008,0,0s0,0,0,0l0,0,0,0,0,0,0-.007s0,0,0,0l0,0s0,0,0,0l0,0,0,0a.071.071,0,0,0,0-.008l0,0,0,0s0,0,0,0a.009.009,0,0,0,0,0l0,0,0,0,0-.006,0,0a.006.006,0,0,1,0,0,.009.009,0,0,0,0,0l0,0s0,0,0,0l0,0,0-.008s0,0,0,0a.006.006,0,0,0,0,0l0,0,0-.005h0l.006-.01,0,0,0-.005v0l0,0a0,0,0,0,0,0,0,.023.023,0,0,0,.006-.01l0,0,0-.005v0l0,0,0,0,.005-.01v0l0,0a0,0,0,0,0,0,0l0-.005v0a.069.069,0,0,1,.006-.012l0-.005,0,0,0-.005v0l.01-.017s0,0,0,0l0-.006h0l.01-.018v0l0-.005,0,0,.009-.018s0,0,0,0a.02.02,0,0,0,0-.005v0l.01-.018h0l0-.006h0l.011-.02,0-.006h0a.26.26,0,0,0,.014-.025h0c0-.009.01-.017.014-.026h0l.015-.026a.014.014,0,0,1,0-.006h0l.03-.052h0l.1-.18a.231.231,0,0,1,.2-.116.237.237,0,0,1,.118.032.238.238,0,0,1,.082.324,19.984,19.984,0,0,0-1.126,2.264.233.233,0,0,1-.214.143A.228.228,0,0,1-2484.277-96.985Zm36.121-.424a19.831,19.831,0,0,0-1.163-2.245.239.239,0,0,1,.078-.325.23.23,0,0,1,.121-.034.232.232,0,0,1,.2.112,20.57,20.57,0,0,1,1.192,2.3.239.239,0,0,1-.118.311.227.227,0,0,1-.094.02A.235.235,0,0,1-2448.157-97.409Zm-33.614-4.022a.238.238,0,0,1-.042-.33l0-.005h0l0-.005q.5-.651,1.044-1.258h0l.02-.022a.2.2,0,0,0,.02-.022h0l.02-.022h0l.019-.022h0l.02-.022h0l0-.005.015-.016h0l0,0h0l.014-.015v0l.005,0h0l.01-.011,0,0h0l0-.005h0l.014-.015h0l0,0h0a.129.129,0,0,1,.014-.015v0l0,0h0l.01-.011,0,0,0,0,0,0v0l.009-.009h0l0,0,0,0,0,0,0,0,.009-.009h0l0,0s0,0,0,0,0,0,0,0l0,0,.008-.007v0l0,0a0,0,0,0,1,0,0l0,0,0,0,.007-.009h0a.01.01,0,0,1,0,0l0,0,0,0,0,0,.006-.007,0,0,0,0,0,0,0,0,0,0,.006-.006,0,0,0,0,0,0,0,0,0,0,.006-.006,0,0,0,0,0,0s0,0,0,0l0,0,.006-.007,0,0,0,0,0,0,0,0,0,0,.005-.006,0,0a.006.006,0,0,0,0,0l0,0,0,0,0,0,.005-.006,0,0,0,0,0,0,0,0,0,0,0-.005,0,0,0,0,0,0,0,0a.007.007,0,0,1,0,0l0,0,0,0,0,0,0,0,0,0,0,0,0,0,0,0,0,0,0,0,0,0,0,0,0,0,.005-.005,0,0,0,0s0,0,0,0l0,0,.005-.005,0,0,0,0,0,0,0,0,0,0,0,0,.006-.005,0,0,0,0s0,0,0,0l0,0,0,0,0,0s0,0,0,0l0,0s0,0,0,0l0,0,0,0,.006-.005,0,0,0,0,0,0,0,0,0,0,.005-.005,0,0,0,0,0,0,0,0,.005-.006,0,0h0a.228.228,0,0,1,.164-.068.227.227,0,0,1,.165.069.238.238,0,0,1,0,.334,20.024,20.024,0,0,0-1.652,1.9.232.232,0,0,1-.184.091A.23.23,0,0,1-2481.771-101.431Zm31.016-.3a19.78,19.78,0,0,0-1.683-1.874.24.24,0,0,1-.006-.335.231.231,0,0,1,.167-.072.233.233,0,0,1,.162.067c.069.067.138.137.207.205h0l.021.021h0l.013.014.007.007h0l.006.006h0l.007.007.006.006v0l.006.005h0l.006.007h0l.005.005,0,0,.005.005h0l.006.007h0l0,.005,0,0,0,.005,0,0,.006.006,0,0,0,0,0,0,0,0,0,0,.006.005,0,0,0,0,0,0,0,0,0,0,.005.005,0,0a.007.007,0,0,1,0,0l0,0s0,0,0,0l0,0,.005.005,0,0,0,0,0,0,0,0,0,0,0,.005,0,0,0,0,0,0,0,0a.006.006,0,0,1,0,0l0,0a.039.039,0,0,1,.006.006l0,0,0,0,0,0a.007.007,0,0,1,0,0h0l.009.009,0,0s0,0,0,0l0,0,.013.013,0,0,0,0,0,0,.013.013,0,0,0,0,0,0,.013.014s0,0,0,0l0,0h0l.014.014v0l0,0v0l.014.014h0l0,.005h0l.014.014v0l0,0,0,0,.014.014h0l0,0v0l.014.015h0l0,0v0l.014.014h0l0,.005h0l.014.015h0l0,0v0l.013.014,0,0,0,0,0,0,.013.014h0l0,0,0,0,0,0h0l.009.009v0l0,0,0,0,0,0h0a.04.04,0,0,0,.007.009,0,0,0,0,1,0,0l0,0,0,0,0,0,0,0,.007.007,0,0,0,0,0,0s0,0,0,0v0l.007.008,0,0s0,0,0,0l0,0,0,0,0,0,.006.007,0,0,0,0,0,0,0,0,0,0,.005.006,0,0,0,0,0,0,0,0,0,0,0,.005s0,0,0,0l0,0,0,0,0,0,0,0,0,.005,0,0,0,0,0,0,0,0,0,0,0,0s0,0,0,0l0,0,0,0,0,0,0,0,0,0,0,0,0,0,0,0,0,0,.005.007h0l0,.005,0,0,0,0,0,0,.006.006,0,0,0,0,0,0,0,0,0,0,.005.007h0l0,.005,0,0,0,0,0,0,.005.006h0l0,.006,0,0,0,0,0,0,.006.006h0a.015.015,0,0,1,.005.006l0,0,0,.005,0,0,.006.006h0l.006.006v0l.005.005v0l.012.014,0,0,0,.006h0l.012.014h0a.011.011,0,0,0,.005.006h0c0,.005.008.01.011.014l0,0,0,.005,0,0,.012.014h0l.006.006h0l.012.014h0l.006.007h0l.012.015.006.007.014.015h0l.02.022c.006.007.012.015.02.022q.209.246.412.5h0l.019.023a.1.1,0,0,0,.012.015h0l.005.007h0l.013.016.005.007h0l.012.015h0l.005.006h0l.012.015h0l.005.006v0l.005.006h0a.238.238,0,0,1-.035.332.231.231,0,0,1-.146.052A.231.231,0,0,1-2450.755-101.729Zm-27.485-3.361a.239.239,0,0,1,.041-.331l.2-.157.023-.018h0l.017-.014h0l.005,0h0l.005,0h0l.01-.007,0,0,0,0,0,0,0,0,0,0,.008-.006,0,0,0,0,0,0,0,0,0,0a.016.016,0,0,1,.006,0l0,0s0,0,0,0l0,0,0,0a.009.009,0,0,1,0,0l0,0,.005,0,0,0,0,0,0,0,.005,0h0l.007-.005,0,0,0,0,0,0,.005,0h0l.007-.005,0,0,.005,0,0,0,.014-.011h0l.005-.005h0l.015-.011h0l.007-.005h0l.015-.011h0l.007-.005h0l.023-.018h0l.023-.018.024-.017q.762-.556,1.576-1.04a.232.232,0,0,1,.118-.032.231.231,0,0,1,.2.117.238.238,0,0,1-.083.323,19.44,19.44,0,0,0-2.071,1.417.229.229,0,0,1-.142.049A.23.23,0,0,1-2478.24-105.09Zm23.9-.155a19.7,19.7,0,0,0-2.094-1.382.239.239,0,0,1-.088-.322.232.232,0,0,1,.2-.12.23.23,0,0,1,.114.03h0l.006,0,0,0,.006,0h0l.007,0h0l.005,0,0,0,.005,0,0,0,.007,0,0,0,.005,0,0,0,0,0,0,0,.007,0,0,0,0,0,0,0,0,0,0,0,0,0,.007,0,0,0,0,0,0,0,0,0,0,0,.009.005h0l.005,0h0l.005,0h0a.037.037,0,0,1,.01.006h0l.005,0h0l.017.01h0l.005,0h0l.018.011h0l.005,0h0l.026.014h0q.58.343,1.136.724l.006,0h0l.018.012h0l.005,0h0l.018.013.006,0h0l.017.012h0l.006,0,0,0,.016.011h0l.005,0,0,0,.016.011,0,0,0,0,0,0,0,0h0l.008.006,0,0,0,0,0,0,0,0,0,0,.008.005,0,0,0,0,0,0,0,0a.008.008,0,0,1,0,0l.005,0,0,0,0,0,0,0,0,0,.005,0,0,0,.005,0,0,0a.009.009,0,0,0,0,0l0,0,.005,0,0,0,.006,0,0,0,.005,0,0,0,.014.01,0,0,.006,0,0,0,.015.011h0l.007,0h0l.015.011h0l.007.005h0l.024.017h0c.136.1.27.2.4.3a.238.238,0,0,1,.048.33.23.23,0,0,1-.186.1A.228.228,0,0,1-2454.342-105.245Zm-19.575-2.482a.238.238,0,0,1,.123-.31,19.629,19.629,0,0,1,2.414-.857.213.213,0,0,1,.062-.009.233.233,0,0,1,.224.173.237.237,0,0,1-.161.292,19.189,19.189,0,0,0-2.357.836.229.229,0,0,1-.091.019A.233.233,0,0,1-2473.917-107.727Zm15.231,0a19.339,19.339,0,0,0-2.37-.8.236.236,0,0,1-.167-.288.233.233,0,0,1,.225-.176.216.216,0,0,1,.059.007h.011l.009,0h0l.006,0h0l.005,0h0l.007,0h0l.008,0h0l.006,0h0l.006,0h0l.009,0h0l.007,0h0l.007,0h0l.009,0h0l.008,0h0l.007,0h0l.019,0h0l.007,0h0l.018,0h0l.007,0h0l.007,0h0l.01,0,.009,0h0l.007,0h0l.018,0h0l.008,0h0l.019.005h0l.008,0h0l.028.008h0l.009,0,.019.005h0l.009,0,.029.008h0l.1.028a19.6,19.6,0,0,1,1.942.681.237.237,0,0,1,.129.307.232.232,0,0,1-.215.148A.229.229,0,0,1-2458.686-107.727Zm-2.039-1.2Z" transform="translate(2486 112)" fill="#f65150"/>
</svg>
