<svg xmlns="http://www.w3.org/2000/svg" width="50.459" height="74.813" viewBox="0 0 50.459 74.813">
  <g id="Housekeeping" transform="translate(-0.018)">
    <path id="Rectangle_9093" data-name="Rectangle 9093" d="M5,0H45a5,5,0,0,1,5,5V54a0,0,0,0,1,0,0H0a0,0,0,0,1,0,0V5A5,5,0,0,1,5,0Z" transform="translate(0.477)" fill="#1e3044" opacity="0.15"/>
    <path id="Path_15927" data-name="Path 15927" d="M0,0H50V18.9c0,3.263-2.239,5.908-5,5.908H5c-2.761,0-5-2.645-5-5.908Z" transform="translate(0.017 50)" fill="#1e3044"/>
    <path id="Icon_map-shopping-mall" data-name="Icon map-shopping-mall" d="M18.415,6.435a2.968,2.968,0,0,0,3.231-2.627A2.9,2.9,0,0,0,18.891.729a2.962,2.962,0,0,0-3.231,2.629A2.908,2.908,0,0,0,18.415,6.435ZM30.8,29.52l-1-8.64H28.183a6.789,6.789,0,0,0-.037-1.237c-.048-.447-.19-.774-.421-.877a1.24,1.24,0,0,0,.34-.747,1.267,1.267,0,0,0-.533-1.134l-4.127-2.713L20.367,8.451a3.238,3.238,0,0,0-2.385-1.439,3.4,3.4,0,0,0-2.106.6L9.847,12.275a1.194,1.194,0,0,0-.415.623l-1.4,5.653-.107.168v0H7.908a.635.635,0,0,0-.532.522,4.139,4.139,0,0,0-.176.989v.649H5.635l-1,8.64H8.674L6.9,32.353a2.291,2.291,0,0,0-.274.829A1.974,1.974,0,0,0,8.5,35.274a2.109,2.109,0,0,0,1.907-.949l2.988-4.8h.391l-.061-.531.829-1.333a4.334,4.334,0,0,0,.408-.823l1.012-4.4L20.29,26.95l1.356,6.79a2.06,2.06,0,0,0,1.831,1.533A2,2,0,0,0,25.669,33.5l-.012-.395-.708-3.582ZM7.889,20.153c.04-.341.168-.534.392-.534h.084a1.36,1.36,0,0,0,2.071.038.487.487,0,0,1,.142.235,2.428,2.428,0,0,1,.094.639,3.109,3.109,0,0,1-.014.351H7.868a5.612,5.612,0,0,1,.021-.727Zm4.126.727h-.853a6.849,6.849,0,0,0-.034-1.237,1.275,1.275,0,0,0-.314-.812l1.065-4.638,2.1-1.625Zm15.666,0H24.888a5,5,0,0,1,.021-.727c.037-.341.167-.534.392-.534.323,0,.616-.01.876-.016s.618-.022,1.066-.022c.172,0,.289.1.354.31a2.343,2.343,0,0,1,.1.639l-.012.351Zm-9.033-1.644L20,13.522,21.14,15.67a1.467,1.467,0,0,0,.337.384l4.066,2.666h-.614c-.235,0-.322.225-.4.522a4.205,4.205,0,0,0-.045.989v.649H22.657l-.294,2.542-3.714-4.185Z" transform="translate(7.298 7.279)" fill="#1e3044"/>
    <text id="HK" transform="translate(18.477 66)" fill="#d9dcdf" font-size="10" font-family="Montserrat-SemiBold, Montserrat" font-weight="600"><tspan x="0" y="0">HK</tspan></text>
  </g>
</svg>
