<svg xmlns="http://www.w3.org/2000/svg" width="35.058" height="32.957" viewBox="0 0 35.058 32.957">
  <path id="Union_72" data-name="Union 72" d="M-3896.523-3583.043c-.163,0-.295-.093-.295-.208s.132-.208.295-.208h23.537c.163,0,.295.093.295.208s-.132.208-.295.208Zm6.08-.992c-.163,0-.294-.087-.294-.194s.131-.194.294-.194h23.538c.163,0,.294.086.294.194s-.131.194-.294.194Zm4.424-2.028h-.989a5.025,5.025,0,0,1-.438-1.255,6.192,6.192,0,0,1,.008,1.255h-.8a5.172,5.172,0,0,1-.2-1.271,5.987,5.987,0,0,1-.222,1.271h-.364a1.832,1.832,0,0,0-.154-.321,2.238,2.238,0,0,1-.283-1.009,3.174,3.174,0,0,1-.29,1.006c-.051.119-.094.229-.129.324h-.456a9.667,9.667,0,0,1-.108-1.212,9.115,9.115,0,0,1-.133,1.212h-.909a3.007,3.007,0,0,0-.073-.321,4.379,4.379,0,0,1-.136-1.013,5.909,5.909,0,0,1-.138,1.01c-.025.126-.046.232-.062.324h-.583a9.162,9.162,0,0,1-.2-1.694,10.4,10.4,0,0,1-.222,1.694h-.558a5.2,5.2,0,0,1-.2-1.274,6.016,6.016,0,0,1-.223,1.274h-.6a5.181,5.181,0,0,1-.2-1.271,6,6,0,0,1-.222,1.271h-.832a5.113,5.113,0,0,1-.2-1.274,6.139,6.139,0,0,1-.223,1.274h-.611a5.241,5.241,0,0,1,.055-1.246,6.218,6.218,0,0,1-.484,1.246h-.659a9.783,9.783,0,0,1,.15-1.185,9.333,9.333,0,0,1-.4,1.185h-.874a7.2,7.2,0,0,1,.673-1.082l0,0c.015-.021.073-.115.066-.129a3.029,3.029,0,0,0-.5.548,3.033,3.033,0,0,1-.809.667H-3900a3.534,3.534,0,0,0,.908-1.148,6.794,6.794,0,0,0,.62-3.947,7.434,7.434,0,0,1,.682-4.163,4.987,4.987,0,0,1,.973-1.364h8.827a2.306,2.306,0,0,1,.987.921,6.6,6.6,0,0,1,.67,4.222,7.068,7.068,0,0,0,.724,4.392,2.939,2.939,0,0,0,1.036,1.085l-.964,0a5.012,5.012,0,0,1-.935-1.012,5.725,5.725,0,0,1,.454,1.012h0Zm2.932-.286a1.111,1.111,0,0,1-.981-1.2l-3.381-18.789h-.053a.975.975,0,0,1-.981-.966.975.975,0,0,1,.981-.966h21.577a.975.975,0,0,1,.981.966.977.977,0,0,1-.836.955l-2.6,18.8a1.111,1.111,0,0,1-.981,1.2Zm-3.25-20.51a26.769,26.769,0,0,0,3,2.312,13.342,13.342,0,0,0,7.085,2.6,11.95,11.95,0,0,0,6.684-2.609,20.7,20.7,0,0,0,2.6-2.277.371.371,0,0,0,.061,0,.486.486,0,0,0,.49-.482.487.487,0,0,0-.49-.484.488.488,0,0,0-.49.484.476.476,0,0,0,.037.184,20.665,20.665,0,0,1-2.5,2.185,11.453,11.453,0,0,1-6.388,2.512c-2.467,0-5.062-1.368-6.805-2.515a26.213,26.213,0,0,1-2.982-2.3.547.547,0,0,0,0-.067.488.488,0,0,0-.49-.484.487.487,0,0,0-.49.484.486.486,0,0,0,.49.482.531.531,0,0,0,.182-.033Zm-10.482,9.69V-3600a2,2,0,0,1,2-2h1.433v-13.037a.974.974,0,0,1,.981-.965.973.973,0,0,1,.981.965V-3602h1.433a2,2,0,0,1,2,2v2.829Z" transform="translate(3900 3616)" fill="#f65150"/>
</svg>
