<svg xmlns="http://www.w3.org/2000/svg" width="30.808" height="20.539" viewBox="0 0 30.808 20.539">
  <path id="Icon_awesome-eye" data-name="Icon awesome-eye" d="M30.622,13.988A17.155,17.155,0,0,0,15.4,4.5,17.158,17.158,0,0,0,.186,13.989a1.73,1.73,0,0,0,0,1.561A17.155,17.155,0,0,0,15.4,25.039,17.158,17.158,0,0,0,30.622,15.55,1.73,1.73,0,0,0,30.622,13.988ZM15.4,22.471a7.7,7.7,0,1,1,7.7-7.7A7.7,7.7,0,0,1,15.4,22.471Zm0-12.837a5.1,5.1,0,0,0-1.354.2,2.559,2.559,0,0,1-3.578,3.578A5.123,5.123,0,1,0,15.4,9.635Z" transform="translate(0 -4.5)" fill="#069"/>
</svg>
