<svg xmlns="http://www.w3.org/2000/svg" width="28.358" height="28.861" viewBox="0 0 28.358 28.861">
  <path id="Path_1836" data-name="Path 1836" d="M138.53,52.162l6.284,10.883a1.843,1.843,0,0,1-1.6,2.765H130.649a1.844,1.844,0,0,1-1.6-2.765l6.284-10.883a1.844,1.844,0,0,1,3.194,0Zm-1.6,11.324a.954.954,0,1,0-.958-.958.96.96,0,0,0,.958.958Zm.007-8.678a.914.914,0,0,0-.961.86v3.687a.967.967,0,0,0,1.922,0V55.668a.914.914,0,0,0-.961-.86M133.676,80.1V77.473a.475.475,0,0,0-.451-.437h-5.837a.48.48,0,0,0-.451.437V80.1m-.43-12.162,3.128,3.107-.7.7-3.254-3.233a1.34,1.34,0,0,1-.392-.94v-.15a1.943,1.943,0,0,1,.73-1.569V62.42a1.636,1.636,0,0,0-3.271,0v6.916a2.989,2.989,0,0,0,.968,1.964l3.044,3.027a2.459,2.459,0,0,1,.766,1.429l.035.294h5.417V73.23a3.67,3.67,0,0,0-.968-2.394L127.9,66.743a1.15,1.15,0,0,0-.618-.311.945.945,0,0,0-1,1,.6.6,0,0,0,.039.238.671.671,0,0,0,.189.276ZM146.925,80.1V77.472a.475.475,0,0,0-.451-.437h-5.84a.48.48,0,0,0-.451.437V80.1m7.357-12.438a.687.687,0,0,0,.039-.238.947.947,0,0,0-1-1,1.08,1.08,0,0,0-.619.311l-4.117,4.092a3.675,3.675,0,0,0-.968,2.394v2.82H146.3l.035-.294a2.459,2.459,0,0,1,.766-1.429l3.044-3.027a2.989,2.989,0,0,0,.968-1.964V62.416a1.636,1.636,0,0,0-3.271,0v3.435a1.943,1.943,0,0,1,.73,1.569v.15a1.333,1.333,0,0,1-.392.94l-3.254,3.233-.7-.7,3.128-3.107a.671.671,0,0,0,.189-.276Z" transform="translate(-122.751 -51.24)" fill="#fff"/>
</svg>
