<svg id="Insights" xmlns="http://www.w3.org/2000/svg" width="18.172" height="17.718" viewBox="0 0 18.172 17.718">
  <g id="noun-knowledge-2784245" transform="translate(0)">
    <path id="Path_15848" data-name="Path 15848" d="M310.793,342.159v-.909H306.25v.909Z" transform="translate(-299.435 -324.441)" fill="#33a437"/>
    <path id="Path_15849" data-name="Path 15849" d="M256.254,105.4a.455.455,0,0,1,.227.393v.454h.909v-2.726h-.909v-.909h4.543v.909h-.909v2.726h.909v-.454a.455.455,0,0,1,.227-.393,4.687,4.687,0,0,0,2.5-4.15,5,5,0,1,0-9.995,0,4.686,4.686,0,0,0,2.5,4.15Zm2.5-8.239v.909a3.1,3.1,0,0,0-3.18,3.18h-.909A3.942,3.942,0,0,1,258.752,97.16Zm-3.18,5v.909h-.909v-.909Z" transform="translate(-249.666 -92.163)" fill="#33a437"/>
    <path id="Path_15850" data-name="Path 15850" d="M306.25,306.25h4.543v.909H306.25Z" transform="translate(-299.435 -291.258)" fill="#33a437"/>
    <path id="Path_15851" data-name="Path 15851" d="M341.25,236.25h.909v2.726h-.909Z" transform="translate(-332.618 -224.892)" fill="#33a437"/>
    <path id="Path_15852" data-name="Path 15852" d="M341.25,17.5h.909v2.272h-.909Z" transform="translate(-332.618 -17.5)" fill="#33a437"/>
    <path id="Path_15853" data-name="Path 15853" d="M212.56,46.956l.643-.643,1.817,1.817-.643.643Z" transform="translate(-210.61 -44.817)" fill="#33a437"/>
    <path id="Path_15854" data-name="Path 15854" d="M175,175h2.272v.909H175Z" transform="translate(-175 -166.822)" fill="#33a437"/>
    <path id="Path_15855" data-name="Path 15855" d="M440.06,48.129l1.817-1.817.642.643L440.7,48.772Z" transform="translate(-426.298 -44.816)" fill="#33a437"/>
    <path id="Path_15856" data-name="Path 15856" d="M481.25,175h2.272v.909H481.25Z" transform="translate(-465.349 -166.822)" fill="#33a437"/>
  </g>
</svg>
