<svg xmlns="http://www.w3.org/2000/svg" width="27.262" height="24.811" viewBox="0 0 27.262 24.811">
  <g id="noun-open-door-4851821" transform="translate(-4.031 -5.916)">
    <path id="Path_16361" data-name="Path 16361" d="M16.282,22.4a.909.909,0,0,0-.056-.92l-5.251-9.095a.835.835,0,0,0-1.537,0L4.187,21.481a.835.835,0,0,0,.768,1.331h10.5A.908.908,0,0,0,16.282,22.4Zm-6.075-1.02a.682.682,0,1,1,.682-.682A.681.681,0,0,1,10.206,21.381Zm.575-2.323H9.632l-.108-4.235h1.364Z" transform="translate(0 -2.086)" fill="#069"/>
    <path id="Path_16362" data-name="Path 16362" d="M35.932,6.065a.649.649,0,0,0-.413-.147l-16.9,0a.65.65,0,0,0-.65.65v4.8l1.3,2.252v-6.4h9.514L23.712,8.2a.651.651,0,0,0-.527.638V27.016H19.267v-4.99h-1.3v5.64a.65.65,0,0,0,.65.65h4.569v1.761a.651.651,0,0,0,.65.65.614.614,0,0,0,.124-.012L35.643,28.44a.651.651,0,0,0,.526-.638V6.567A.647.647,0,0,0,35.932,6.065ZM26.026,21.323c-.577,0-1.043-.8-1.043-1.8s.466-1.8,1.043-1.8,1.042.8,1.042,1.8S26.6,21.323,26.026,21.323Z" transform="translate(-4.877)" fill="#069"/>
  </g>
</svg>
