<svg xmlns="http://www.w3.org/2000/svg" width="50" height="74.813" viewBox="0 0 50 74.813">
  <g id="Lifting_and_Hoisting" data-name="Lifting and Hoisting" transform="translate(22365.578 14217.582)">
    <g id="Group_13076" data-name="Group 13076" transform="translate(-26246.578 3811.15)">
      <g id="Group_13075" data-name="Group 13075" transform="translate(3880.523 -18028.732)">
        <path id="Rectangle_9121" data-name="Rectangle 9121" d="M5,0H45a5,5,0,0,1,5,5V54a0,0,0,0,1,0,0H0a0,0,0,0,1,0,0V5A5,5,0,0,1,5,0Z" transform="translate(0.477)" fill="#ffbc00" opacity="0.15"/>
        <path id="Path_15948" data-name="Path 15948" d="M0,0H50V18.9c0,3.263-2.239,5.908-5,5.908H5c-2.761,0-5-2.645-5-5.908Z" transform="translate(0.477 50)" fill="#ffbc00"/>
        <text id="L_H" data-name="L&amp;H" transform="translate(14.477 66)" fill="#fff" font-size="10" font-family="Montserrat-SemiBold, Montserrat" font-weight="600"><tspan x="0" y="0">L&amp;H</tspan></text>
      </g>
    </g>
    <path id="Path_15955" data-name="Path 15955" d="M30.873,6.076c-.036-.031-.062-.067-.1-.093L21.217.133h0L21.134.086h-.062a.85.85,0,0,0-.16,0,.566.566,0,0,0-.206.041h0L3.192,7.039a.515.515,0,0,0-.211.139H.21V9.99H2.785v7.179H1.6v2.724H2.718v1.344a.618.618,0,0,0,.613.613.474.474,0,0,1,.412.242.546.546,0,0,1-.072.572.664.664,0,0,1-.335.1.515.515,0,0,1-.129,0,.458.458,0,0,1-.278-.221.608.608,0,0,0-.515-.319.669.669,0,0,0-.294.072.613.613,0,0,0-.242.834,1.669,1.669,0,0,0,1.03.819,1.612,1.612,0,0,0,.443.062A1.869,1.869,0,0,0,4.3,23.73a1.272,1.272,0,0,0,.433-.433,1.772,1.772,0,0,0,.088-1.8,1.694,1.694,0,0,0-.87-.757v-.845h1.3V17.169H4.026V9.99H16.937v2.575h1.3v3.569h0v.077h0v7.143h0v7.261H15.284V33H26.532V30.616H23.586V12.56h1.3V9.985h3.09v1.1h5.006V6.076ZM17.921,4.608h-.984V7.183H6.153L19.5,1.879Zm4.434,26.007H19.78l2.575-2.256Zm-2.884-1.36v-4.5l2.575,2.251Zm2.884-3.6L19.78,23.4l2.575-2.256Zm-2.884-3.6v-4.5L22.046,19.8Zm2.884-3.6L19.78,16.185l2.575-2.256Zm-2.884-3.6V12.56h2.575ZM19.337,4.608l1.576-2.724,1.571,2.724Zm8.611,1.468v1.1h-3.09V4.6H23.9L22.654,2.44l5.917,3.631Z" transform="translate(-22357.172 -14207.737)" fill="#eaad01"/>
  </g>
</svg>
