<svg xmlns="http://www.w3.org/2000/svg" width="31.472" height="31.473" viewBox="0 0 31.472 31.473">
  <path id="path2524" d="M6.141,1.058a.563.563,0,0,0-.553.568V2.751a.563.563,0,0,0,1.126,0V1.626A.562.562,0,0,0,6.141,1.058Zm8.981,0a.569.569,0,0,0-.469.257L12.4,4.687a.562.562,0,0,0,.469.875h1.686v5.389l-.4.4a.562.562,0,0,0-.154.506l.562,2.808a1.353,1.353,0,0,0,.323.668,1.114,1.114,0,0,0,.794.348h.561v.633a1.668,1.668,0,0,0-.719,2.661L7.634,22.418H3.818a.563.563,0,0,0-.507.56V24.1a.563.563,0,0,0,.561.565H29.749a.563.563,0,0,0,.561-.565V22.978a.563.563,0,0,0-.561-.56H26.006l-7.9-3.45a1.672,1.672,0,0,0,.287-.485.563.563,0,0,0-1.055-.394.562.562,0,1,1-.527-.758.561.561,0,0,0,.56-.58V15.676h.561a1.112,1.112,0,0,0,.793-.348,1.355,1.355,0,0,0,.324-.668l.561-2.808a.562.562,0,0,0-.154-.506l-.4-.4V5.562H32.53c0-1.132,0-3.38,0-4.5Zm.806,1.133h1.587l.33.329.329-.329h3.114l.328.327.327-.327h1.591L22.412,3.313l1.127,1.125H21.948l-.332-.332-.332.331H18.177l-.331-.331-.333.331H15.922L17.05,3.313Zm8.178,0h1.589l.329.329.329-.329H29.47l.326.326.326-.326h1.592L30.591,3.312l1.127,1.126H30.128L29.8,4.106l-.333.333H26.355l-.333-.333-.333.333H24.1l1.127-1.125Zm-4.374.032L18.639,3.314,19.73,4.4l1.091-1.089Zm8.179,0-1.091,1.09L27.91,4.4,29,3.312ZM9.328,2.377H9.321a.562.562,0,0,0-.385.17l-.8.8a.562.562,0,1,0,.8.791l.8-.791a.562.562,0,0,0-.4-.967Zm-6.364,0a.562.562,0,0,0-.394.966l.8.791a.562.562,0,1,0,.793-.791l-.793-.8a.565.565,0,0,0-.4-.17Zm3.185,1.5A2.248,2.248,0,1,0,8.4,6.122,2.256,2.256,0,0,0,6.149,3.874ZM1.594,5.562a.563.563,0,1,0,.057,1.125H2.777a.563.563,0,1,0,0-1.125H1.594Zm7.877,0a.563.563,0,1,0,.054,1.125h1.126a.563.563,0,1,0,0-1.125H9.471Zm6.212,0h2.251V9.818l-.162-.161a.562.562,0,0,0-.4-.161h-1.18a.56.56,0,0,0-.344.161l-.167.167ZM3.753,7.94a.561.561,0,0,0-.386.169l-.8.8a.562.562,0,1,0,.8.791l.793-.791a.561.561,0,0,0-.406-.966Zm4.779,0a.561.561,0,0,0-.4.966l.8.791a.562.562,0,1,0,.8-.791l-.8-.8a.561.561,0,0,0-.4-.169Zm-2.387.982a.544.544,0,0,0-.058,0,.563.563,0,0,0-.5.569v1.125a.563.563,0,1,0,1.126,0V9.494a.562.562,0,0,0-.569-.572ZM16.795,12.3a.562.562,0,1,1-.562.562.562.562,0,0,1,.562-.562Zm.026,7.334L23.2,22.418H10.442ZM5,25.79v3.371H28.623V25.79Zm1.681,1.121a.562.562,0,1,1-.562.562.562.562,0,0,1,.562-.562Zm3.372,0a.562.562,0,1,1-.562.562A.562.562,0,0,1,10.05,26.911Zm3.372,0a.562.562,0,1,1-.562.562A.562.562,0,0,1,13.423,26.911Zm3.372,0a.562.562,0,1,1-.562.562A.562.562,0,0,1,16.795,26.911Zm3.372,0a.562.562,0,1,1-.562.562A.562.562,0,0,1,20.167,26.911Zm3.372,0a.562.562,0,1,1-.562.562A.562.562,0,0,1,23.539,26.911Zm3.372,0a.562.562,0,1,1-.562.562A.562.562,0,0,1,26.911,26.911ZM3.818,30.283a.563.563,0,0,0-.507.56v1.128a.563.563,0,0,0,.561.56H29.749a.563.563,0,0,0,.561-.56V30.843a.563.563,0,0,0-.561-.56H3.818Z" transform="translate(-1.058 -1.058)" fill="#f65150"/>
</svg>
