<svg xmlns="http://www.w3.org/2000/svg" width="264" height="233.374" viewBox="0 0 264 233.374">
  <g id="Group_9336" data-name="Group 9336" transform="translate(-828 -326.626)">
    <ellipse id="Ellipse_573" data-name="Ellipse 573" cx="132" cy="21.5" rx="132" ry="21.5" transform="translate(828 517)" fill="#e2f5ff" opacity="0.35"/>
    <path id="Rectangle_4837" data-name="Rectangle 4837" d="M0,0H169.392a0,0,0,0,1,0,0V91.13a17,17,0,0,1-17,17H17a17,17,0,0,1-17-17V0A0,0,0,0,1,0,0Z" transform="translate(875.575 423.007)" fill="#fff"/>
    <path id="Path_13734" data-name="Path 13734" d="M244.9,73.359H85.818a9.866,9.866,0,0,0-9.658,9.936V201.588a9.866,9.866,0,0,0,9.658,9.936H244.9a9.866,9.866,0,0,0,9.658-9.936V83.295A9.865,9.865,0,0,0,244.9,73.359ZM133.2,83.67h64.327a2.626,2.626,0,0,1,0,5.249H133.2a2.626,2.626,0,0,1,0-5.249Zm-27.881,0a2.626,2.626,0,1,1-2.551,2.625A2.527,2.527,0,0,1,105.317,83.67Zm-8.565,0A2.626,2.626,0,1,1,94.2,86.295,2.643,2.643,0,0,1,96.752,83.67Zm-8.383,0a2.626,2.626,0,1,1-2.551,2.625A2.527,2.527,0,0,1,88.369,83.67ZM249.46,201.776a4.578,4.578,0,0,1-4.556,4.687H85.817a4.578,4.578,0,0,1-4.556-4.687V99.23h168.38V201.776Z" transform="translate(795.063 323.976)" fill="#069"/>
    <g id="Group_9335" data-name="Group 9335" transform="translate(931.816 457.104)">
      <path id="Path_13692" data-name="Path 13692" d="M354.688,277.271a2.662,2.662,0,0,1-1.538-.486c-12.326-8.672-15.468-17.389-27.795-8.716a2.679,2.679,0,0,1-3.081-4.383c14.024-9.86,19.931-1.143,33.958,8.716a2.679,2.679,0,0,1-1.543,4.87Z" transform="translate(-302.76 -229.055)" fill="#069"/>
      <path id="Path_13693" data-name="Path 13693" d="M384.687,171.365a7.639,7.639,0,1,1,7.639-7.64A7.648,7.648,0,0,1,384.687,171.365Zm0-11.112a3.472,3.472,0,1,0,3.472,3.471A3.475,3.475,0,0,0,384.687,160.253Z" transform="translate(-334.804 -156.086)" fill="#069"/>
      <path id="Path_13694" data-name="Path 13694" d="M271.927,171.365a7.639,7.639,0,1,1,7.639-7.64A7.648,7.648,0,0,1,271.927,171.365Zm0-11.112a3.472,3.472,0,1,0,3.472,3.471A3.475,3.475,0,0,0,271.927,160.253Z" transform="translate(-264.288 -156.086)" fill="#069"/>
    </g>
    <path id="Path_13775" data-name="Path 13775" d="M197.939,240.368a33.112,33.112,0,0,1-50.809,28.043,3.038,3.038,0,0,0-1.659-.452,1.916,1.916,0,0,0-.9.15L131.6,272.03l4.071-13.871a3.013,3.013,0,0,0-.3-2.261,34.7,34.7,0,0,1-3.769-15.53,33.169,33.169,0,1,1,66.338,0Z" transform="translate(879.953 119.427)" fill="#069"/>
    <path id="Union_44" data-name="Union 44" d="M3.718,35.983A3.732,3.732,0,0,1,.494,34.089a3.688,3.688,0,0,1,.038-3.75L6.791,19.885a13.736,13.736,0,0,1-1.176-5.606,14.3,14.3,0,0,1,28.6,0h0A14.289,14.289,0,0,1,22.99,28.18l1.29,2.159a3.689,3.689,0,0,1,.038,3.75,3.643,3.643,0,0,1-3.225,1.894Zm7.549-18.938L2.58,31.551a1.384,1.384,0,0,0,0,1.364,1.339,1.339,0,0,0,1.176.682H21.131a1.339,1.339,0,0,0,1.176-.682h0a1.372,1.372,0,0,0,0-1.364L13.619,17.044a1.424,1.424,0,0,0-1.176-.644A1.294,1.294,0,0,0,11.267,17.044Zm4.363-1.212L21.7,26.021h0A11.9,11.9,0,1,0,8,14.28a10.875,10.875,0,0,0,.379,2.954l.873-1.4a3.7,3.7,0,0,1,6.373,0ZM11.153,30.6a1.29,1.29,0,1,1,1.29,1.288A1.289,1.289,0,0,1,11.153,30.6Zm1.176-2.311a.97.97,0,0,1-.872-.871l-.493-5.3a1.478,1.478,0,0,1,1.328-1.591h0a1.478,1.478,0,0,1,1.593,1.326v.265l-.493,5.3a1,1,0,0,1-.989.874Zm7.587-12.84a1.181,1.181,0,0,1-1.176-1.174V7.651a1.176,1.176,0,0,1,2.352,0v5.416h4.1a1.144,1.144,0,0,1,1.176,1.212,1.181,1.181,0,0,1-1.176,1.174Z" transform="translate(1027.036 341.69)" fill="#fff"/>
    <path id="Path_13815" data-name="Path 13815" d="M11871,5585.077s10.539-10.373,15.816-15.244,17.86,0,17.86,0" transform="translate(-10823.689 -5115.368)" fill="none" stroke="#069" stroke-linecap="round" stroke-width="5"/>
    <path id="Path_13816" data-name="Path 13816" d="M11904.678,5585.077s-10.539-10.373-15.816-15.244-17.86,0-17.86,0" transform="translate(-11031.988 -5115.368)" fill="none" stroke="#069" stroke-linecap="round" stroke-width="5"/>
  </g>
</svg>
