<svg id="noun-video-live-4681625" xmlns="http://www.w3.org/2000/svg" width="31.337" height="32.001" viewBox="0 0 31.337 32.001">
  <path id="Path_14477" data-name="Path 14477" d="M101.428,39.364H123.6V58.18H106.484a5.071,5.071,0,0,1-5.057-5.056V39.364Zm3.9-8.584a.812.812,0,0,1-1.148-1.148,11.787,11.787,0,0,1,16.669,0,.812.812,0,1,1-1.148,1.148,10.163,10.163,0,0,0-14.374,0Zm5,5a.812.812,0,1,1-1.148-1.148,4.721,4.721,0,0,1,6.677,0,.812.812,0,1,1-1.148,1.149,3.1,3.1,0,0,0-4.382,0ZM107.845,33.3a.812.812,0,1,1-1.148-1.148,8.228,8.228,0,0,1,11.635,0,.812.812,0,0,1-1.148,1.148,6.6,6.6,0,0,0-9.338,0Zm17.108,10.987,7.812-2.416V55.677l-7.812-2.416Zm-17.326-1.6,9.774,6.086-9.774,6.086Z" transform="translate(-101.427 -26.179)" fill="#069" fill-rule="evenodd"/>
</svg>

<svg id="noun-video-live-4681625" xmlns="http://www.w3.org/2000/svg" width="31.337" height="32.001" viewBox="0 0 31.337 32.001">
  <path id="Path_14477" data-name="Path 14477" d="M101.428,39.364H123.6V58.18H106.484a5.071,5.071,0,0,1-5.057-5.056V39.364Zm3.9-8.584a.812.812,0,0,1-1.148-1.148,11.787,11.787,0,0,1,16.669,0,.812.812,0,1,1-1.148,1.148,10.163,10.163,0,0,0-14.374,0Zm5,5a.812.812,0,1,1-1.148-1.148,4.721,4.721,0,0,1,6.677,0,.812.812,0,1,1-1.148,1.149,3.1,3.1,0,0,0-4.382,0ZM107.845,33.3a.812.812,0,1,1-1.148-1.148,8.228,8.228,0,0,1,11.635,0,.812.812,0,0,1-1.148,1.148,6.6,6.6,0,0,0-9.338,0Zm17.108,10.987,7.812-2.416V55.677l-7.812-2.416Zm-17.326-1.6,9.774,6.086-9.774,6.086Z" transform="translate(-101.427 -26.179)" fill="#069" fill-rule="evenodd"/>
</svg>
