<svg id="noun-data-analysis-3741455" xmlns="http://www.w3.org/2000/svg" width="30.784" height="30.784" viewBox="0 0 30.784 30.784">
  <path id="Path_14424" data-name="Path 14424" d="M315,227.947a9.255,9.255,0,0,0,2.2-.684v-8.516H315Z" transform="translate(-301.807 -207.203)" fill="#069"/>
  <path id="Path_14425" data-name="Path 14425" d="M183.75,266.363a9.4,9.4,0,0,0,2.2,1.631v-5.5h-2.2Z" transform="translate(-178.803 -248.205)" fill="#069"/>
  <path id="Path_14426" data-name="Path 14426" d="M367.5,300.481a9.386,9.386,0,0,0,1.1-.806V297.5h-1.1Z" transform="translate(-351.008 -281.012)" fill="#069"/>
  <path id="Path_14427" data-name="Path 14427" d="M315,131.25h2.2v4.4H315Z" transform="translate(-301.807 -125.203)" fill="#069"/>
  <path id="Path_14428" data-name="Path 14428" d="M236.25,288.75h1.1v1.1h-1.1Z" transform="translate(-228.004 -272.808)" fill="#069"/>
  <path id="Path_14429" data-name="Path 14429" d="M183.75,201.25h2.2V204h-2.2Z" transform="translate(-178.803 -190.805)" fill="#069"/>
  <path id="Path_14430" data-name="Path 14430" d="M236.25,325.9a9.3,9.3,0,0,0,1.1.34v-2.487h-1.1Z" transform="translate(-228.004 -305.608)" fill="#069"/>
  <path id="Path_14431" data-name="Path 14431" d="M367.5,253.75h1.1V255.4h-1.1Z" transform="translate(-351.008 -240.007)" fill="#069"/>
  <path id="Path_14432" data-name="Path 14432" d="M441.12,373.1l1.971-1.971.6.6-1.971,1.971Z" transform="translate(-420.003 -350.008)" fill="#069"/>
  <path id="Path_14433" data-name="Path 14433" d="M470.881,398.908,464.967,393,463,394.966l5.914,5.914h0a1.394,1.394,0,0,0,1.971-1.971Z" transform="translate(-440.505 -370.504)" fill="#069"/>
  <path id="Path_14434" data-name="Path 14434" d="M424.757,353.88q-.415.457-.872.872l.855.856.872-.872Z" transform="translate(-403.851 -333.846)" fill="#069"/>
  <path id="Path_14435" data-name="Path 14435" d="M116.544,35a11.544,11.544,0,1,0,11.544,11.544A11.557,11.557,0,0,0,116.544,35Zm0,21.989a10.445,10.445,0,1,1,10.445-10.445A10.456,10.456,0,0,1,116.544,56.989Z" transform="translate(-105 -35)" fill="#069"/>
  <path id="Path_14436" data-name="Path 14436" d="M149.345,70a9.34,9.34,0,0,0-7.7,14.64V77.7a.55.55,0,0,1,.55-.55h3.3a.55.55,0,0,1,.55.55v4.948H147.7a.55.55,0,0,1,.55.55v5.432a9.409,9.409,0,0,0,1.1.065c.185,0,.368-.006.55-.017V73.3a.55.55,0,0,1,.55-.55h3.3a.55.55,0,0,1,.55.55v7.146h1.649a.55.55,0,0,1,.55.55V85.36A9.34,9.34,0,0,0,149.345,70Z" transform="translate(-137.801 -67.801)" fill="#069"/>
</svg>
