<svg xmlns="http://www.w3.org/2000/svg" width="38.753" height="57.111" viewBox="0 0 38.753 57.111">
  <g id="noun-broken-pipe-192016_1_" data-name="noun-broken-pipe-192016 (1)" transform="translate(-175.361 -22.631)">
    <path id="Path_14119" data-name="Path 14119" d="M223.094,427.3a4.255,4.255,0,0,1-8.509,0c0-2.349,4.254-8.951,4.254-8.951S223.094,424.947,223.094,427.3Z" transform="translate(-34.872 -351.808)" fill="#069"/>
    <path id="Path_14120" data-name="Path 14120" d="M207.269,45.844V48.9h-6.318a5.027,5.027,0,0,1-4.764-5.014h-.017V29.476h3.053V22.631H175.361v6.845h3.052V49.387a17.171,17.171,0,0,0,4.221,11.277l3.477-4.641L182.6,54.2l7.747-9.984L187.9,52.728l2.849,1.614-3.882,9.864a17.133,17.133,0,0,0,8.817,2.447h11.589v3.054h6.844V45.844Z" transform="translate(0)" fill="#069"/>
  </g>
</svg>
