<svg id="Observation_" data-name="Observation " xmlns="http://www.w3.org/2000/svg" width="23.01" height="23.01" viewBox="0 0 23.01 23.01">
  <g id="Rectangle_8682" data-name="Rectangle 8682" transform="translate(0)" fill="rgba(226,245,255,0.41)" stroke="#069" stroke-width="0.7">
    <rect width="23.01" height="23.01" rx="4" stroke="none"/>
    <rect x="0.35" y="0.35" width="22.31" height="22.31" rx="3.65" fill="none"/>
  </g>
  <g id="noun-insights-5634577" transform="translate(5.775 4.998)">
    <path id="Path_14474" data-name="Path 14474" d="M111.4,72.018V70.987h-1.031Zm5.232-11.649h-4.007a.219.219,0,0,0-.219.219l0,.92a.222.222,0,0,0,.216.19h4.01a.219.219,0,0,0,.219-.219v-.891a.224.224,0,0,0-.223-.219Zm-4.184,5.782v.894h.972v-.894Zm0-2.871v.894h.972V63.28Zm0,5.739v.894h.972v-.894Zm7-5.294a3.252,3.252,0,0,1,.439.02V60.789h-2.7v.583h2.1a.162.162,0,0,1,.164.164Zm-.327,6.014a3.022,3.022,0,0,1-2.37-1.814h-1.7v1.545a.164.164,0,0,1-.164.164h-1.136v.449a.164.164,0,0,1-.164.164h-1.3a.162.162,0,0,1-.164-.164V68.862a.164.164,0,0,1,.164-.164h1.3a.164.164,0,0,1,.164.164v.449h.972V67.765a.164.164,0,0,1,.164-.164h1.745a2.942,2.942,0,0,1-.121-.835h-2.76v.449a.164.164,0,0,1-.164.164h-1.3a.162.162,0,0,1-.164-.164V65.994a.164.164,0,0,1,.164-.164h1.3a.164.164,0,0,1,.164.164v.449h2.776a2.949,2.949,0,0,1,.21-.835h-1.85a.162.162,0,0,1-.164-.164V63.9h-.972v.449a.164.164,0,0,1-.164.164h-1.3a.162.162,0,0,1-.164-.164V63.126a.164.164,0,0,1,.164-.164h1.3a.164.164,0,0,1,.164.164v.445h1.136a.162.162,0,0,1,.164.164V65.28h1.843a3.033,3.033,0,0,1,2.226-1.519V61.7h-1.984a.546.546,0,0,1-.5.327h-4.007a.55.55,0,0,1-.5-.327h-1.984v8.964h1.424a.162.162,0,0,1,.164.164v1.421h7.393V69.74Zm.766.007a3.253,3.253,0,0,1-.439.02v2.645a.162.162,0,0,1-.164.164H111.56c-.013,0-.023,0-.036,0l-.082-.046-1.588-1.588a.169.169,0,0,1-.049-.118V61.535a.162.162,0,0,1,.164-.164h2.1v-.583h-2.7V73.518h10.509Zm1.067-4.42a2.007,2.007,0,1,0,0,2.838A2,2,0,0,0,120.947,65.326Zm-1.421-.917a2.334,2.334,0,1,1-2.334,2.334A2.333,2.333,0,0,1,119.526,64.41Zm2.937,4.855-.416.416a.124.124,0,0,0,0,.177l1.1,1.1a.125.125,0,0,0,.177,0l.416-.416a.121.121,0,0,0,0-.174l-1.1-1.1a.127.127,0,0,0-.088-.036A.115.115,0,0,0,122.462,69.265Zm-.534.069.183-.183-.488-.488a.162.162,0,0,1-.01-.219,2.714,2.714,0,1,0-.406.4.164.164,0,0,1,.229,0Z" transform="translate(-109.37 -60.37)" fill="#069"/>
  </g>
</svg>
