<svg xmlns="http://www.w3.org/2000/svg" width="36.115" height="32.96" viewBox="0 0 36.115 32.96">
  <g id="noun-insights-5634577" transform="translate(-109.37 -60.37)">
    <path id="Path_14474" data-name="Path 14474" d="M114.451,89.572V86.987h-2.585Zm13.115-29.2H117.52a.55.55,0,0,0-.55.55l.008,2.306a.556.556,0,0,0,.542.476h10.054a.55.55,0,0,0,.55-.55V60.92a.562.562,0,0,0-.558-.55ZM117.077,74.864V77.1h2.438V74.864Zm0-7.2v2.241h2.438V67.666Zm0,14.387v2.241h2.438V82.054Zm17.539-13.271a8.16,8.16,0,0,1,1.1.049V61.42h-6.779v1.461h5.269a.406.406,0,0,1,.41.41ZM133.8,83.859a7.576,7.576,0,0,1-5.942-4.547h-4.26v3.874a.412.412,0,0,1-.41.41h-2.848v1.124a.412.412,0,0,1-.41.41h-3.258a.406.406,0,0,1-.41-.41V81.659a.412.412,0,0,1,.41-.41h3.258a.412.412,0,0,1,.41.41v1.124h2.438V78.91a.412.412,0,0,1,.41-.41h4.375a7.374,7.374,0,0,1-.3-2.093h-6.919v1.124a.412.412,0,0,1-.41.41h-3.258a.406.406,0,0,1-.41-.41V74.47a.412.412,0,0,1,.41-.41h3.258a.412.412,0,0,1,.41.41v1.124h6.96a7.393,7.393,0,0,1,.525-2.093h-4.637a.406.406,0,0,1-.41-.41V69.217h-2.438v1.124a.412.412,0,0,1-.41.41h-3.258a.406.406,0,0,1-.41-.41V67.28a.412.412,0,0,1,.41-.41h3.258a.412.412,0,0,1,.41.41V68.4h2.848a.406.406,0,0,1,.41.41V72.68h4.621a7.6,7.6,0,0,1,5.581-3.808V63.7h-4.974a1.37,1.37,0,0,1-1.256.821H117.52a1.378,1.378,0,0,1-1.256-.821H111.29V86.173h3.57a.406.406,0,0,1,.41.41v3.562H133.8V83.859Zm1.921.016a8.163,8.163,0,0,1-1.1.049v6.632a.406.406,0,0,1-.41.41H114.861c-.033,0-.057-.008-.09-.008l-.205-.115-3.981-3.981a.422.422,0,0,1-.123-.3V63.291a.406.406,0,0,1,.41-.41h5.269V61.42H109.37V93.33h26.345Zm2.676-11.08a5.032,5.032,0,1,0,0,7.116A5.023,5.023,0,0,0,138.391,72.8Zm-3.562-2.3a5.852,5.852,0,1,1-5.852,5.852A5.849,5.849,0,0,1,134.829,70.5Zm7.362,12.171-1.042,1.042a.312.312,0,0,0,0,.443l2.758,2.758a.312.312,0,0,0,.443,0l1.042-1.042a.3.3,0,0,0,0-.435l-2.758-2.758a.317.317,0,0,0-.222-.09A.289.289,0,0,0,142.191,82.668Zm-1.338.172.46-.46-1.223-1.223a.4.4,0,0,1-.025-.55,6.8,6.8,0,1,0-1.018,1.01.411.411,0,0,1,.575.008Z" fill="#fff"/>
  </g>
</svg>
