<svg xmlns="http://www.w3.org/2000/svg" width="51" height="75" viewBox="0 0 51 75">
  <g id="Group_15507" data-name="Group 15507" transform="translate(17756 23602)">
    <rect id="Rectangle_11635" data-name="Rectangle 11635" width="51" height="75" rx="6" transform="translate(-17756 -23602)" fill="#c2d1d9"/>
    <path id="Rectangle_11636" data-name="Rectangle 11636" d="M0,0H51a0,0,0,0,1,0,0V17a6,6,0,0,1-6,6H6a6,6,0,0,1-6-6V0A0,0,0,0,1,0,0Z" transform="translate(-17756 -23550)" fill="#069"/>
    <path id="Path_17007" data-name="Path 17007" d="M4.22.1A4.109,4.109,0,0,1,2.71-.17a3.651,3.651,0,0,1-1.2-.755,3.4,3.4,0,0,1-.79-1.14A3.613,3.613,0,0,1,.44-3.5,3.613,3.613,0,0,1,.72-4.935a3.4,3.4,0,0,1,.79-1.14,3.651,3.651,0,0,1,1.2-.755,4.081,4.081,0,0,1,1.5-.27,4.07,4.07,0,0,1,1.5.27,3.664,3.664,0,0,1,1.2.755,3.4,3.4,0,0,1,.79,1.14A3.613,3.613,0,0,1,7.98-3.5,3.649,3.649,0,0,1,7.7-2.06,3.335,3.335,0,0,1,6.91-.92a3.707,3.707,0,0,1-1.2.75A4.042,4.042,0,0,1,4.22.1ZM4.21-1.04a2.615,2.615,0,0,0,.98-.18,2.259,2.259,0,0,0,.78-.515,2.428,2.428,0,0,0,.515-.78A2.542,2.542,0,0,0,6.67-3.5a2.542,2.542,0,0,0-.185-.985,2.428,2.428,0,0,0-.515-.78,2.259,2.259,0,0,0-.78-.515,2.615,2.615,0,0,0-.98-.18,2.577,2.577,0,0,0-.975.18,2.323,2.323,0,0,0-.78.515,2.388,2.388,0,0,0-.52.78A2.542,2.542,0,0,0,1.75-3.5a2.553,2.553,0,0,0,.185.98,2.414,2.414,0,0,0,.515.785,2.259,2.259,0,0,0,.78.515A2.615,2.615,0,0,0,4.21-1.04ZM10.68,0V-5.9H8.36V-7H14.3v1.1H11.98V0ZM20.2-7h1.3V0H20.2ZM16.58,0h-1.3V-7h1.3ZM20.3-3H16.47V-4.11H20.3Z" transform="translate(-17741 -23535)" fill="#c2d1d9"/>
    <path id="Union_224" data-name="Union 224" d="M16.538,27a2,2,0,0,1-2-2V16.538a2,2,0,0,1,2-2H25a2,2,0,0,1,2,2V25a2,2,0,0,1-2,2Zm-15.5,0a1.039,1.039,0,1,1,0-2.077H11.423a1.039,1.039,0,1,1,0,2.077Zm0-5.192a1.039,1.039,0,0,1,0-2.077H11.423a1.039,1.039,0,0,1,0,2.077Zm0-5.192a1.039,1.039,0,0,1,0-2.077H11.423a1.039,1.039,0,0,1,0,2.077Zm15.5-4.154a2,2,0,0,1-2-2V2a2,2,0,0,1,2-2H25a2,2,0,0,1,2,2v8.462a2,2,0,0,1-2,2ZM2,12.461a2,2,0,0,1-2-2V2A2,2,0,0,1,2,0h8.462a2,2,0,0,1,2,2v8.462a2,2,0,0,1-2,2Z" transform="translate(-17744 -23589)" fill="#069"/>
  </g>
</svg>
