<svg xmlns="http://www.w3.org/2000/svg" width="50.46" height="74.813" viewBox="0 0 50.46 74.813">
  <g id="Group_14553" data-name="Group 14553" transform="translate(-3948.54 18029.813)">
    <g id="Group_1299" data-name="Group 1299" transform="translate(3948.523 -18029.813)">
      <path id="Rectangle_937" data-name="Rectangle 937" d="M5,0H45a5,5,0,0,1,5,5V54a0,0,0,0,1,0,0H0a0,0,0,0,1,0,0V5A5,5,0,0,1,5,0Z" transform="translate(0.477)" fill="#e7cece"/>
      <path id="Path_210" data-name="Path 210" d="M0,0H50V18.9c0,3.263-2.239,5.908-5,5.908H5c-2.761,0-5-2.645-5-5.908Z" transform="translate(0.017 50)" fill="#f65150"/>
      <text id="OTHERS" transform="translate(3.517 66)" fill="#d9dcdf" font-size="10" font-family="Montserrat-SemiBold, Montserrat" font-weight="600"><tspan x="0" y="0">OTHERS</tspan></text>
    </g>
    <g id="Group_11093" data-name="Group 11093" transform="translate(3769.117 -18856.273)">
      <path id="Path_251" data-name="Path 251" d="M10.718,26.05H.815a.815.815,0,1,1,0-1.631h9.9a.815.815,0,1,1,0,1.631Zm.815-5.75a.815.815,0,0,0-.815-.815H.815a.815.815,0,1,0,0,1.631h9.9A.816.816,0,0,0,11.534,20.3Zm.154-4.935a.815.815,0,0,0-.815-.815H.815a.815.815,0,0,0,0,1.631H10.873A.815.815,0,0,0,11.688,15.365Zm0-6.08V2.49A2.449,2.449,0,0,0,9.242.044h-6.8A2.449,2.449,0,0,0,0,2.49v6.8a2.449,2.449,0,0,0,2.446,2.446h6.8A2.449,2.449,0,0,0,11.688,9.286Zm14.4,0V2.49A2.449,2.449,0,0,0,23.647.044h-6.8A2.449,2.449,0,0,0,14.4,2.49v6.8a2.449,2.449,0,0,0,2.446,2.446h6.8A2.449,2.449,0,0,0,26.093,9.286Zm0,14.354v-6.8A2.449,2.449,0,0,0,23.647,14.4h-6.8A2.449,2.449,0,0,0,14.4,16.844v6.8a2.449,2.449,0,0,0,2.446,2.446h6.8A2.449,2.449,0,0,0,26.093,23.639Z" transform="translate(191.606 839.373)" fill="#f65150"/>
    </g>
  </g>
</svg>
