<svg xmlns="http://www.w3.org/2000/svg" width="39" height="37" viewBox="0 0 39 37">
  <g id="_2" data-name="2" transform="translate(19304 21492)">
    <g id="Group_13351" data-name="Group 13351" transform="translate(-19304 -21492)">
      <g id="Rectangle_4816" data-name="Rectangle 4816" fill="#ecf8ff" stroke="#069" stroke-width="1">
        <rect width="39" height="37" rx="6" stroke="none"/>
        <rect x="0.5" y="0.5" width="38" height="36" rx="5.5" fill="none"/>
      </g>
    </g>
    <path id="Path_14475" data-name="Path 14475" d="M113.063,81.595V79.716h-1.879ZM122.6,60.37h-7.3a.4.4,0,0,0-.4.4l.006,1.676a.4.4,0,0,0,.394.346H122.6a.4.4,0,0,0,.4-.4V60.769a.409.409,0,0,0-.406-.4ZM114.972,70.9v1.629h1.772V70.9Zm0-5.232V67.3h1.772V65.673Zm0,10.457v1.629h1.772V76.13Zm12.748-9.646a5.931,5.931,0,0,1,.8.036V61.133h-4.927V62.2h3.83a.3.3,0,0,1,.3.3Zm-.6,10.958a5.506,5.506,0,0,1-4.319-3.3h-3.1v2.816a.3.3,0,0,1-.3.3h-2.07v.817a.3.3,0,0,1-.3.3h-2.368a.3.3,0,0,1-.3-.3V75.844a.3.3,0,0,1,.3-.3h2.368a.3.3,0,0,1,.3.3v.817h1.772V73.845a.3.3,0,0,1,.3-.3h3.18a5.36,5.36,0,0,1-.221-1.521H117.34v.817a.3.3,0,0,1-.3.3h-2.368a.3.3,0,0,1-.3-.3V70.618a.3.3,0,0,1,.3-.3h2.368a.3.3,0,0,1,.3.3v.817H122.4a5.374,5.374,0,0,1,.382-1.521h-3.37a.3.3,0,0,1-.3-.3V66.8H117.34v.817a.3.3,0,0,1-.3.3h-2.368a.3.3,0,0,1-.3-.3V65.392a.3.3,0,0,1,.3-.3h2.368a.3.3,0,0,1,.3.3V66.2h2.07a.3.3,0,0,1,.3.3v2.816h3.358a5.527,5.527,0,0,1,4.056-2.768V62.791h-3.615a1,1,0,0,1-.913.6h-7.3a1,1,0,0,1-.913-.6h-3.615V79.124h2.595a.3.3,0,0,1,.3.3v2.589h13.47V77.442Zm1.4.012a5.932,5.932,0,0,1-.8.036v4.82a.3.3,0,0,1-.3.3h-14.06c-.024,0-.042-.006-.066-.006l-.149-.084-2.893-2.893a.307.307,0,0,1-.089-.215V62.493a.3.3,0,0,1,.3-.3h3.83V61.133H109.37V84.326h19.149Zm1.945-8.053a3.657,3.657,0,1,0,0,5.172A3.651,3.651,0,0,0,130.463,69.4Zm-2.589-1.67a4.253,4.253,0,1,1-4.253,4.253A4.252,4.252,0,0,1,127.874,67.731Zm5.351,8.846-.758.758a.227.227,0,0,0,0,.322l2,2a.227.227,0,0,0,.322,0l.758-.758a.22.22,0,0,0,0-.316l-2-2a.23.23,0,0,0-.161-.066A.21.21,0,0,0,133.225,76.577Zm-.972.125.334-.334-.889-.889a.294.294,0,0,1-.018-.4,4.946,4.946,0,1,0-.74.734.3.3,0,0,1,.418.006Z" transform="translate(-19403.994 -21546.848)" fill="#069"/>
  </g>
</svg>
