<svg xmlns="http://www.w3.org/2000/svg" width="50.347" height="75" viewBox="0 0 50.347 75">
  <g id="Group_14548" data-name="Group 14548" transform="translate(-78.53 -546)">
    <path id="Rectangle_3175" data-name="Rectangle 3175" d="M5,0H45a5,5,0,0,1,5,5V54a0,0,0,0,1,0,0H0a0,0,0,0,1,0,0V5A5,5,0,0,1,5,0Z" transform="translate(78.877 546)" fill="#dcf7f0"/>
    <path id="Path_860" data-name="Path 860" d="M0,0H50V18.9c0,3.263-2.239,5.908-5,5.908H5c-2.761,0-5-2.645-5-5.908Z" transform="translate(78.53 596.188)" fill="#16c599"/>
    <text id="PD" transform="translate(96.53 612)" fill="#d3f0ee" font-size="10" font-family="Montserrat-SemiBold, Montserrat" font-weight="600"><tspan x="0" y="0">PD</tspan></text>
    <path id="Path_13979" data-name="Path 13979" d="M22.483,2.5H17.346L15.109,7a.17.17,0,0,0,.074.246L18.3,9.431a.186.186,0,0,1,.025.295l-3.564,4.006a.193.193,0,0,0,0,.27l2.04,2.212a.189.189,0,0,1,.025.246L13.364,21.6A.2.2,0,0,1,13,21.451l.909-4.572a.191.191,0,0,0-.049-.2l-2.827-2.655A.189.189,0,0,1,11,13.782l2.409-3.711a.218.218,0,0,0-.049-.27L10.07,7.612A.187.187,0,0,1,10,7.391L11.1,2.5H5.867A3.357,3.357,0,0,0,2.5,5.867V22.458a3.357,3.357,0,0,0,3.367,3.367H22.458a3.357,3.357,0,0,0,3.367-3.367V5.867A3.321,3.321,0,0,0,22.483,2.5Z" transform="translate(89.714 558.837)" fill="#16c599"/>
  </g>
</svg>
