<svg xmlns="http://www.w3.org/2000/svg" width="19.015" height="19" viewBox="0 0 19.015 19">
  <g id="noun-push-pin-629406" transform="translate(-80.063 -8.75)">
    <path id="Path_15251" data-name="Path 15251" d="M89.67,223.312a6.6,6.6,0,0,0-4.12-1.906,6.155,6.155,0,0,0-3.628.738l4.12,4.12L80.2,232.1a.483.483,0,0,0,0,.676.452.452,0,0,0,.369.123.874.874,0,0,0,.369-.123l5.841-5.841,4.12,4.12a7.4,7.4,0,0,0,.738-3.628A7.017,7.017,0,0,0,89.67,223.312Z" transform="translate(0 -205.154)" fill="#069"/>
    <path id="Path_15252" data-name="Path 15252" d="M440.395,14.407l-5.473-5.472a.524.524,0,1,0-.738.738l5.473,5.472a.561.561,0,0,0,.738,0,.461.461,0,0,0,0-.738Z" transform="translate(-341.501)" fill="#069"/>
    <path id="Path_15253" data-name="Path 15253" d="M269.5,74.55h0c.369.123.615.184.922.307.061,0,.123.061.184.061l.738.369c.061,0,.061.061.123.061a5.127,5.127,0,0,1,.738.492c.061.061.123.061.184.123a3.222,3.222,0,0,1,.676.615,6.122,6.122,0,0,1,.615.676c.061.061.061.123.123.184a5.126,5.126,0,0,1,.492.738c0,.061.061.061.061.123l.369.738c0,.061.061.123.061.184a4.527,4.527,0,0,1,.246.861v.061l4.489-5.841-4.3-4.3Z" transform="translate(-182.781 -59.098)" fill="#069"/>
  </g>
</svg>
