<svg xmlns="http://www.w3.org/2000/svg" width="24.401" height="24.402" viewBox="0 0 24.401 24.402">
  <path id="path2208" d="M12.388,1.058a.879.879,0,0,0-.871.872V3.237c1.452,0,2.034,0,3.486,0V1.93a.879.879,0,0,0-.872-.872ZM10.646,2.413A6.956,6.956,0,0,0,6.795,6.286H8.357a.436.436,0,0,1,0,.872H6.723a1.308,1.308,0,0,0,0,2.615H19.8a1.308,1.308,0,0,0,0-2.615H18.162a.436.436,0,0,1,0-.872H19.72a6.954,6.954,0,0,0-3.848-3.872V3.672a.436.436,0,0,1-.436.436q-2.178,0-4.356,0a.436.436,0,0,1-.435-.436V2.413ZM11.954,4.98h2.612a.436.436,0,1,1,0,.872H11.954a.436.436,0,1,1,0-.872Zm0,1.306h2.612a.436.436,0,1,1,0,.872H11.954a.436.436,0,1,1,0-.872ZM7.676,10.209h0Zm.094.435a5.218,5.218,0,0,0,5.052,3.924h.872a5.223,5.223,0,0,0,5.056-3.924Zm1.953,4.793,3.536,4.414,3.536-4.414H9.723Zm-1.106.012a8.109,8.109,0,0,0-4.849,1.669,7.012,7.012,0,0,1,2.458,4.418h6.6V20.7l-.228-.284-.016-.02L9.043,15.981Zm9.285,0-.409.511-.015.02-1.636,2.04L13.694,20.7v.835h6.6a7.009,7.009,0,0,1,2.457-4.417,8.108,8.108,0,0,0-4.85-1.67ZM3.1,17.691a6.78,6.78,0,0,0-2.041,4.72v2.615a.436.436,0,0,0,.434.434h3.93V22.517A6.137,6.137,0,0,0,3.1,17.691Zm20.319,0a6.137,6.137,0,0,0-2.324,4.826V25.46h3.931a.436.436,0,0,0,.434-.434V22.411a6.78,6.78,0,0,0-2.041-4.72ZM6.293,22.411c0,.036,0,.071,0,.106V25.46h6.526V22.411Zm7.4,0V25.46h6.53V22.517c0-.036,0-.071,0-.106Z" transform="translate(-1.059 -1.059)" fill="#f65150"/>
</svg>
