<svg xmlns="http://www.w3.org/2000/svg" width="50.459" height="75" viewBox="0 0 50.459 75">
  <g id="Group_14547" data-name="Group 14547" transform="translate(-0.018)">
    <g id="Group_539" data-name="Group 539">
      <g id="Group_421" data-name="Group 421">
        <path id="Rectangle_937" data-name="Rectangle 937" d="M5,0H45a5,5,0,0,1,5,5V54a0,0,0,0,1,0,0H0a0,0,0,0,1,0,0V5A5,5,0,0,1,5,0Z" transform="translate(0.477)" fill="#ffefd9"/>
        <path id="Path_210" data-name="Path 210" d="M0,0H50V18.9c0,3.263-2.239,5.908-5,5.908H5c-2.761,0-5-2.645-5-5.908Z" transform="translate(0.017 50.187)" fill="#ff9100"/>
        <text id="RF" transform="translate(18.477 66)" fill="#ffefd9" font-size="10" font-family="Montserrat-SemiBold, Montserrat" font-weight="600"><tspan x="0" y="0">RF</tspan></text>
      </g>
      <g id="Group_11091" data-name="Group 11091" transform="translate(10.087 10.092)">
        <path id="Path_248" data-name="Path 248" d="M63.975,82.839h3.447v2.833H63.975Zm8.7-7.326a4.685,4.685,0,0,1-.8-3.719c.315-1.7.344-1.555.344-1.555-.059,1.433.529,1.911,1.514,2.778,0,0-.542-2.36-.214-3.182A12.424,12.424,0,0,1,75.192,67.5c-.051,1.059.59,1.6.572,1.4.241-2.329,1.123-3.352,3.085-4.506-.388,1.554-.732,3.585,1.286,4.176a3.68,3.68,0,0,1,.657-1.512c.075,1.087,1.407,1.823,1.8,3.557.818-.154.618-1.21.486-1.815a5.361,5.361,0,0,1,1,3.4,6.526,6.526,0,0,1-1.177,4.261,10.465,10.465,0,0,1-2.372,2.2,3.667,3.667,0,0,0,.854-3.684l-1.186.943s.013.043.1-.186a3.477,3.477,0,0,0,.086-1.543,3.732,3.732,0,0,0-.857-1.428,2.122,2.122,0,0,0-.086.585,1.2,1.2,0,0,1-.629.858l-.142-.586a14.4,14.4,0,0,0-1.457-2.413,2.076,2.076,0,0,0-.486.813,7.019,7.019,0,0,0-.242,3.086c.143,1.058.557,1.3.557,1.3l-1.929-.957s.015.242.029,1.157a3.085,3.085,0,0,0,.172,1.214l-.786-.342a6.249,6.249,0,0,0,.324.7A11.729,11.729,0,0,1,72.673,75.513ZM65.841,61.878H90.02v16.43H85.249V70.56c0-9.652-14.637-9.652-14.637,0v7.748H65.841Zm-1.7-3.127H91.718v2.238H64.142ZM62.77,54.67H93.09v3.273H62.77Zm1.205,24.446h8.339V81.95H63.975Zm9.785,0H82.1V81.95H73.76Zm-4.893,3.722h8.34v2.833h-8.34Zm9.785,0h8.339v2.833H78.653Zm9.785,0h3.418v2.833H88.437Zm-4.892-3.722h8.339V81.95H83.545Z" transform="translate(-62.77 -54.67)" fill="#ff9100" fill-rule="evenodd"/>
      </g>
    </g>
  </g>
</svg>
