<svg id="Reset" xmlns="http://www.w3.org/2000/svg" xmlns:xlink="http://www.w3.org/1999/xlink" width="12.802" height="12.802" viewBox="0 0 12.802 12.802">
  <defs>
    <clipPath id="clip-path">
      <path id="_Icon_小olor" data-name=" Icon 小olor" d="M12.306,7.415a.712.712,0,0,0-.893.462,5.071,5.071,0,0,1-4.881,3.5A5.051,5.051,0,0,1,1.422,6.4,5.051,5.051,0,0,1,6.532,1.422a5.158,5.158,0,0,1,3.3,1.188L8.3,2.356a.711.711,0,1,0-.232,1.4l3.02.5a.729.729,0,0,0,.117.009.7.7,0,0,0,.244-.043.691.691,0,0,0,.073-.042.707.707,0,0,0,.137-.08.644.644,0,0,0,.064-.075.611.611,0,0,0,.094-.111.742.742,0,0,0,.038-.1.653.653,0,0,0,.048-.127L12.434.844a.711.711,0,0,0-1.4-.264L10.843,1.6A6.565,6.565,0,0,0,6.532,0,6.475,6.475,0,0,0,0,6.4a6.475,6.475,0,0,0,6.532,6.4,6.49,6.49,0,0,0,6.237-4.494.712.712,0,0,0-.462-.893" fill="#069"/>
    </clipPath>
  </defs>
  <path id="_Icon_小olor-2" data-name=" Icon 小olor" d="M12.306,7.415a.712.712,0,0,0-.893.462,5.071,5.071,0,0,1-4.881,3.5A5.051,5.051,0,0,1,1.422,6.4,5.051,5.051,0,0,1,6.532,1.422a5.158,5.158,0,0,1,3.3,1.188L8.3,2.356a.711.711,0,1,0-.232,1.4l3.02.5a.729.729,0,0,0,.117.009.7.7,0,0,0,.244-.043.691.691,0,0,0,.073-.042.707.707,0,0,0,.137-.08.644.644,0,0,0,.064-.075.611.611,0,0,0,.094-.111.742.742,0,0,0,.038-.1.653.653,0,0,0,.048-.127L12.434.844a.711.711,0,0,0-1.4-.264L10.843,1.6A6.565,6.565,0,0,0,6.532,0,6.475,6.475,0,0,0,0,6.4a6.475,6.475,0,0,0,6.532,6.4,6.49,6.49,0,0,0,6.237-4.494.712.712,0,0,0-.462-.893" fill="#069"/>
</svg>
