<svg id="Search" xmlns="http://www.w3.org/2000/svg" width="17.759" height="17.759" viewBox="0 0 17.759 17.759">
  <path id="Path_206" data-name="Path 206" d="M10.992,3A7.992,7.992,0,1,1,5.341,5.341,7.939,7.939,0,0,1,10.992,3Zm0,14.207a6.216,6.216,0,1,0-6.216-6.216A6.223,6.223,0,0,0,10.992,17.207Z" transform="translate(-3 -3)" fill="#069"/>
  <path id="Path_207" data-name="Path 207" d="M28.226,29.113a.885.885,0,0,1-.628-.26l-3.863-3.863a.888.888,0,0,1,1.256-1.256L28.853,27.6a.888.888,0,0,1-.628,1.516Z" transform="translate(-11.355 -11.355)" fill="#069"/>
</svg>
