<svg xmlns="http://www.w3.org/2000/svg" width="25.056" height="25" viewBox="0 0 25.056 25">
  <g id="Setting_white" transform="translate(-97.998 -27.998)">
    <path id="Path_1060" data-name="Path 1060" d="M121.749,37.71h-1.221a10.506,10.506,0,0,0-.971-2.386l.86-.86a1.223,1.223,0,0,0,0-1.72l-2.22-2.22a1.223,1.223,0,0,0-1.72,0l-.86.86a10.026,10.026,0,0,0-2.386-.971V29.22A1.191,1.191,0,0,0,112.038,28H108.93a1.214,1.214,0,0,0-1.221,1.221v1.221a10.506,10.506,0,0,0-2.386.971l-.86-.86a1.223,1.223,0,0,0-1.72,0l-2.22,2.22a1.223,1.223,0,0,0,0,1.72l.86.86a10.026,10.026,0,0,0-.971,2.386H99.219A1.174,1.174,0,0,0,98,38.931v3.135a1.208,1.208,0,0,0,1.221,1.193h1.221a10.506,10.506,0,0,0,.971,2.386l-.86.86a1.223,1.223,0,0,0,0,1.72l2.22,2.22a1.223,1.223,0,0,0,1.72,0l.86-.86a10.025,10.025,0,0,0,2.386.971v1.221A1.232,1.232,0,0,0,108.958,53h3.135a1.232,1.232,0,0,0,1.221-1.221V50.557a10.505,10.505,0,0,0,2.386-.971l.86.86a1.223,1.223,0,0,0,1.72,0l2.22-2.22a1.223,1.223,0,0,0,0-1.72l-.86-.86a10.025,10.025,0,0,0,.971-2.386h1.221a1.232,1.232,0,0,0,1.221-1.221V38.931a1.368,1.368,0,0,0-1.3-1.221Zm-11.265,8.324a5.549,5.549,0,1,1,5.549-5.549A5.566,5.566,0,0,1,110.484,46.034Z" transform="translate(0 0)" fill="#fff"/>
  </g>
</svg>
