<svg xmlns="http://www.w3.org/2000/svg" width="24.748" height="21.499" viewBox="0 0 24.748 21.499">
  <g id="noun-share-1154299" transform="translate(-155.119 -110.602)">
    <path id="Path_14490" data-name="Path 14490" d="M176.991,249.756h-3.48a1.065,1.065,0,1,0,0,2.131h3.48a.712.712,0,0,1,.71.71v6.995a.712.712,0,0,1-.71.71H157.96a.712.712,0,0,1-.71-.71V252.6a.712.712,0,0,1,.71-.71h3.48a1.065,1.065,0,0,0,0-2.131h-3.48a2.849,2.849,0,0,0-2.841,2.841v6.995a2.849,2.849,0,0,0,2.841,2.841h19.067a2.849,2.849,0,0,0,2.841-2.841V252.6a2.879,2.879,0,0,0-2.876-2.84Z" transform="translate(0 -130.331)" fill="#fff"/>
    <path id="Path_14491" data-name="Path 14491" d="M238.239,117.579l4.19-3.586v10.936a1.065,1.065,0,1,0,2.131,0V113.993l4.19,3.586a1.057,1.057,0,1,0,1.385-1.6l-.035-.035-5.894-5.077a1.033,1.033,0,0,0-1.385,0l-5.965,5.113a1.057,1.057,0,1,0,1.385,1.6h0Z" transform="translate(-76.196)" fill="#fff"/>
  </g>
</svg>
