<svg xmlns="http://www.w3.org/2000/svg" width="30" height="27" viewBox="0 0 30 27">
  <g id="Icon_material-round-support-agent" data-name="Icon material-round-support-agent" transform="translate(-3 -4.5)">
    <path id="Path_17193" data-name="Path 17193" d="M31.5,18.33a13.505,13.505,0,1,0-27,.09A2.952,2.952,0,0,0,3,21v3a3.009,3.009,0,0,0,3,3,1.5,1.5,0,0,0,1.5-1.5V18.285c0-5.745,4.425-10.77,10.17-10.935A10.511,10.511,0,0,1,28.5,17.85V28.5H18a1.5,1.5,0,0,0,0,3H28.5a3.009,3.009,0,0,0,3-3V26.67A2.773,2.773,0,0,0,33,24.21V20.76a2.762,2.762,0,0,0-1.5-2.43Z" fill="#fff"/>
    <path id="Path_17194" data-name="Path 17194" d="M15,19.5A1.5,1.5,0,1,1,13.5,18,1.5,1.5,0,0,1,15,19.5Z" fill="#fff"/>
    <path id="Path_17195" data-name="Path 17195" d="M24,19.5A1.5,1.5,0,1,1,22.5,18,1.5,1.5,0,0,1,24,19.5Z" fill="#fff"/>
    <path id="Path_17196" data-name="Path 17196" d="M27,16.545a9.059,9.059,0,0,0-17.97,2.13A12.113,12.113,0,0,0,16.32,9.84,12.056,12.056,0,0,0,27,16.545Z" fill="#fff"/>
  </g>
</svg>
