<svg xmlns="http://www.w3.org/2000/svg" width="50" height="74.813" viewBox="0 0 50 74.813">
  <g id="Group_14552" data-name="Group 14552" transform="translate(-3881 18028.732)">
    <g id="Group_1297" data-name="Group 1297" transform="translate(3880.523 -18028.732)">
      <path id="Rectangle_937" data-name="Rectangle 937" d="M5,0H45a5,5,0,0,1,5,5V54a0,0,0,0,1,0,0H0a0,0,0,0,1,0,0V5A5,5,0,0,1,5,0Z" transform="translate(0.477)" fill="#fff5d9"/>
      <path id="Path_210" data-name="Path 210" d="M0,0H50V18.9c0,3.263-2.239,5.908-5,5.908H5c-2.761,0-5-2.645-5-5.908Z" transform="translate(0.477 50)" fill="#ffbc00"/>
      <text id="TI" transform="translate(20.977 66)" fill="#d9dcdf" font-size="10" font-family="Montserrat-SemiBold, Montserrat" font-weight="600"><tspan x="0" y="0">TI</tspan></text>
    </g>
    <path id="Exclusion_3" data-name="Exclusion 3" d="M15.887,31.771A15.886,15.886,0,0,1,4.653,4.653,15.783,15.783,0,0,1,15.887,0a29.559,29.559,0,0,1,3.529.4,9.036,9.036,0,0,0,2.026.231A9.035,9.035,0,0,0,24,.264,10.6,10.6,0,0,1,25.77,0a5.96,5.96,0,0,1,5.95,5.932A9.586,9.586,0,0,1,31.471,7.7a11.348,11.348,0,0,0-.177,4.658,12.873,12.873,0,0,1,.478,3.532A15.889,15.889,0,0,1,15.887,31.771Zm-.1-24.818A8.933,8.933,0,0,0,7.559,19.379c.1.237.21.467.324.683l-.321.321a.983.983,0,0,0,0,1.4l3.194,3.195a.987.987,0,0,0,1.4,0l.663-.663a8.913,8.913,0,0,1-4.934-4.251L9.4,18.54A6.938,6.938,0,0,0,14.43,22.7l2.15-2.149,6.065-6.066A6.962,6.962,0,0,1,14.43,22.7l-1.614,1.614a8.917,8.917,0,0,0,2.962.505h.109a8.987,8.987,0,0,0,8.824-8.932,8.877,8.877,0,0,0-.506-2.964l1.533-1.534a.986.986,0,0,0,0-1.4L22.544,6.8a.989.989,0,0,0-1.4,0l-.87.87L21.806,9.2a.307.307,0,0,1,.088.179,8.934,8.934,0,0,0-6.111-2.421ZM10.089,21.385a.307.307,0,0,0-.217.523l.758.755a.3.3,0,0,0,.43,0,.306.306,0,0,0,0-.433l-.754-.755A.308.308,0,0,0,10.089,21.385ZM25.755,3.954a1.994,1.994,0,0,0,0,3.988h.019a2,2,0,0,0,.754-3.835A1.976,1.976,0,0,0,25.755,3.954Zm-12.886,15.6a.3.3,0,0,1-.217-.09l-2.085-2.087L9.4,18.54a6.958,6.958,0,0,1,9.084-9.085l-1.3,1.3,2.087,2.087a.308.308,0,0,1,0,.433.305.305,0,0,1-.433,0l-2.087-2.087-2.66,2.66,1.527,1.53a.3.3,0,0,1,0,.433.305.305,0,0,1-.43,0l-1.53-1.53L11,16.946l2.087,2.087a.3.3,0,0,1,0,.431A.3.3,0,0,1,12.868,19.555Zm9.777-5.073,0,0a6.94,6.94,0,0,0-4.156-5.025L19.845,8.1l1.528,1.53a.307.307,0,0,0,.217.089.3.3,0,0,0,.215-.089.313.313,0,0,0,.088-.254,8.972,8.972,0,0,1,2.31,3.548l-1.559,1.559Z" transform="translate(3890.114 -18018.598)" fill="#ffbc00"/>
  </g>
</svg>
