<svg xmlns="http://www.w3.org/2000/svg" width="14.699" height="14.699" viewBox="0 0 14.699 14.699">
  <g id="Tick" transform="translate(-320 -338)">
    <path id="Path_18739" data-name="Path 18739" d="M7.35,0A7.35,7.35,0,1,1,0,7.35,7.35,7.35,0,0,1,7.35,0Z" transform="translate(320 338)" fill="#34a338"/>
    <path id="Icon_ionic-ios-checkbox" data-name="Icon ionic-ios-checkbox" d="M10.32,14.141h0a.7.7,0,0,1-.45.213.679.679,0,0,1-.453-.221l-2.17-2.171a.154.154,0,0,1,0-.221l.69-.69a.15.15,0,0,1,.217,0L9.87,12.772,14.6,8.008a.153.153,0,0,1,.109-.047h0a.141.141,0,0,1,.109.047l.678.7Z" transform="translate(316.013 334.192)" fill="#fff"/>
  </g>
</svg>
