<svg xmlns="http://www.w3.org/2000/svg" width="37" height="37" viewBox="0 0 37 37">
  <g id="Tick" transform="translate(-1816 -328)">
    <rect id="Rectangle_3711" data-name="Rectangle 3711" width="37" height="37" rx="5" transform="translate(1816 328)" fill="#32a436"/>
    <g id="Group_2605" data-name="Group 2605" transform="translate(1826.525 338.525)">
      <g id="Icon_feather-check-circle" data-name="Icon feather-check-circle" transform="translate(0 0)">
        <path id="Path_454" data-name="Path 454" d="M9.961,18.174A8.217,8.217,0,1,1,13.309,2.451a.821.821,0,1,1-.668,1.5,6.574,6.574,0,1,0,3.9,6.009v-.68a.821.821,0,0,1,1.641,0v.68a8.228,8.228,0,0,1-8.219,8.214Z" transform="translate(-1.749 -1.737)" fill="#fff"/>
        <path id="Path_455" data-name="Path 455" d="M15.289,13.793a.821.821,0,0,1-.58-.24L12.49,11.335a.821.821,0,0,1,1.161-1.161l1.638,1.638L22.1,4.991a.821.821,0,1,1,1.161,1.16l-7.395,7.4a.821.821,0,0,1-.58.241Z" transform="translate(-7.073 -3.264)" fill="#fff"/>
      </g>
    </g>
  </g>
</svg>
