<svg xmlns="http://www.w3.org/2000/svg" width="18.999" height="19" viewBox="0 0 18.999 19">
  <g id="noun-push-pin-5402866" transform="translate(-95.154 -25.151)">
    <path id="Path_15205" data-name="Path 15205" d="M394.553,33.242a1.288,1.288,0,0,1-.911-.377l-5.513-5.51a1.291,1.291,0,1,1,1.826-1.826l5.51,5.51a1.29,1.29,0,0,1-.913,2.2Zm-5.51-7.439a.638.638,0,0,0-.451,1.089L394.1,32.4a.638.638,0,1,0,.9-.9l-5.51-5.51a.635.635,0,0,0-.451-.187Z" transform="translate(-281.691 0)" fill="#069"/>
    <path id="Path_15206" data-name="Path 15206" d="M164.945,210.174a.326.326,0,0,1-.231-.1l-8.587-8.587a.326.326,0,0,1,0-.462,3.655,3.655,0,0,1,5.169,0l3.879,3.879a3.655,3.655,0,0,1,0,5.169.326.326,0,0,1-.23.1Zm-8.113-8.9,8.1,8.1a3,3,0,0,0-.219-4l-3.88-3.879a3,3,0,0,0-4-.22Z" transform="translate(-58.609 -168.292)" fill="#069"/>
    <path id="Path_15207" data-name="Path 15207" d="M250.852,89.8a.326.326,0,0,1-.2-.586l5.977-4.51a.326.326,0,0,1,.393.521l-5.977,4.51a.327.327,0,0,1-.2.066Z" transform="translate(-149.581 -57.269)" fill="#069"/>
    <path id="Path_15208" data-name="Path 15208" d="M407.2,208.636a.326.326,0,0,1-.26-.523l4.511-5.979a.326.326,0,0,1,.519.393l-4.51,5.977a.326.326,0,0,1-.26.132Z" transform="translate(-300.103 -170.275)" fill="#069"/>
    <path id="Path_15209" data-name="Path 15209" d="M95.48,321.534a.326.326,0,0,1-.264-.518l5.52-7.606a.326.326,0,0,1,.495-.041l2.087,2.09a.326.326,0,0,1-.041.495l-7.6,5.519a.325.325,0,0,1-.192.062Zm5.559-7.432-4.092,5.637,5.637-4.092Z" transform="translate(0 -277.383)" fill="#069"/>
  </g>
</svg>
