<svg xmlns="http://www.w3.org/2000/svg" width="25.748" height="23.623" viewBox="0 0 25.748 23.623">
  <path id="Union_198" data-name="Union 198" d="M92.312-378.359l4.5-1.793v3.665c0,.3,1.13.3,1.125-4.122L103-382.631v5.28a4.476,4.476,0,0,0-1.687-.325,7.5,7.5,0,0,0-3.984,1.074,3.991,3.991,0,0,0-1.421,1.556,5.857,5.857,0,0,0-1.007,4.761c.393,2,1.8,2.9,2.22,3.582l-4.807,2.589ZM80.5-369.738v-12.893l10.687,4.271v14.245Zm15.061-1.844a5.343,5.343,0,0,1,5.343-5.343,5.343,5.343,0,0,1,5.343,5.343,5.343,5.343,0,0,1-5.343,5.343A5.343,5.343,0,0,1,95.561-371.582Zm4.58,3.817a.764.764,0,0,0,.763.763.763.763,0,0,0,.763-.763.762.762,0,0,0-.763-.763A.763.763,0,0,0,100.141-367.765Zm2.1-6.19a1.738,1.738,0,0,1-.775,1.658,3.1,3.1,0,0,0-1.133,2.433.6.6,0,0,0,.572.585.6.6,0,0,0,.572-.585,1.663,1.663,0,0,1,.776-1.586,3.19,3.19,0,0,0,1.133-2.5,2.356,2.356,0,0,0-2.481-2.207,2.381,2.381,0,0,0-2.469,1.623.608.608,0,0,0,.429.7.6.6,0,0,0,.692-.429c.1-.417.61-.751,1.347-.751A1.218,1.218,0,0,1,102.24-373.955Zm-20.975-9.589,4.517-1.811,10.124,4.342-4.156,1.66Zm5.985-2.39,4.5-1.8,7.03,2.812,3.454,1.381-4.86,1.942Z" transform="translate(-80.5 387.736)" fill="#069"/>
</svg>
