<svg xmlns="http://www.w3.org/2000/svg" width="25.559" height="25.623" viewBox="0 0 25.559 25.623">
  <g id="noun-vandalism-5278135" transform="translate(-2.002 -1.926)">
    <path id="Path_16420" data-name="Path 16420" d="M11.8,24.345a1.493,1.493,0,0,0-.58-2.8A4.268,4.268,0,0,0,6.7,19.055l-.466-1.282a1.278,1.278,0,0,0-2.4.874L4.3,19.93a4.265,4.265,0,0,0-1.859,4.815,1.492,1.492,0,0,0,1.351,2.514L6.422,34.48a2.565,2.565,0,0,0,2.4,1.683c.621.078,3.358-1.107,4.077-1.321a2.559,2.559,0,0,0,1.529-3.276L11.8,24.345ZM4.65,18.031a.429.429,0,0,1,.787.034l.437,1.2-.8.292-.437-1.2A.425.425,0,0,1,4.65,18.031Zm-.341,8.15-.6.217a.637.637,0,1,1-.435-1.2l7.6-2.769a.64.64,0,0,1,.439,1.2L4.309,26.181Zm6.845,3.857-1.166-3.2a.426.426,0,0,1,.8-.291l1.166,3.2A.426.426,0,0,1,11.154,30.038Zm1.274,2.256a.426.426,0,0,1-.546-.255l-.146-.4a.426.426,0,1,1,.8-.291l.146.4A.425.425,0,0,1,12.429,32.294Z" transform="translate(0 -8.617)" fill="#069"/>
    <path id="Path_16421" data-name="Path 16421" d="M25.577,1.926H5.555A2.558,2.558,0,0,0,3,4.482V11.9A4.72,4.72,0,0,1,3.851,11V4.482a1.7,1.7,0,0,1,1.7-1.7H20.039V6.186H17.483a.426.426,0,0,0,0,.852h5.538v3.834H16.2a.426.426,0,1,0,0,.852h3.834v3.834H14.5a.426.426,0,1,0,0,.852h1.278l0,3.408H14.769l.311.852h10.5a2.558,2.558,0,0,0,2.556-2.556V4.482a2.558,2.558,0,0,0-2.556-2.556ZM23.021,19.818H16.629l0-3.408h6.39v3.408Zm4.26-1.7a1.7,1.7,0,0,1-1.7,1.7h-1.7V16.41h3.408Zm0-2.556h-6.39V11.724h6.39Zm0-4.686H23.873V7.038h3.408v3.834Zm0-4.686h-6.39V2.778h4.686a1.7,1.7,0,0,1,1.7,1.7Z" transform="translate(-0.572 0)" fill="#069"/>
    <path id="Path_16422" data-name="Path 16422" d="M15.5,11.558a1.715,1.715,0,0,0,1.641.557,2.13,2.13,0,0,0,4.057-.867,2.775,2.775,0,0,0-1.127-4.983,2.131,2.131,0,0,0-4.094.862,1.71,1.71,0,0,0-1.226,1.227,1.7,1.7,0,1,0,.748,3.2Z" transform="translate(-6.312 -1.74)" fill="#069"/>
  </g>
</svg>
