<svg xmlns="http://www.w3.org/2000/svg" width="21.6" height="28" viewBox="0 0 21.6 28">
  <path id="Union_33" data-name="Union 33" d="M-977.4,143H-999V123.565h8.308V115H-977.4v28h0Zm-11.706-11.893h0l1.577,1.564a2.27,2.27,0,0,0-.505,1.435,2.319,2.319,0,0,0,2.326,2.306,2.319,2.319,0,0,0,2.326-2.306,2.282,2.282,0,0,0-.39-1.278l1.5-1.7a2.339,2.339,0,0,0,1.218.341,2.319,2.319,0,0,0,2.326-2.306,2.319,2.319,0,0,0-2.326-2.306,2.319,2.319,0,0,0-2.326,2.306,2.281,2.281,0,0,0,.39,1.278l-1.5,1.7a2.337,2.337,0,0,0-1.218-.341,2.32,2.32,0,0,0-1.043.244l-1.65-1.636a2.279,2.279,0,0,0,.367-1.243,2.319,2.319,0,0,0-2.326-2.306,2.319,2.319,0,0,0-2.326,2.306,2.262,2.262,0,0,0,.246,1.033l-1.862,1.846a2.317,2.317,0,0,0-1.043-.244,2.319,2.319,0,0,0-2.326,2.306,2.319,2.319,0,0,0,2.326,2.306,2.319,2.319,0,0,0,2.326-2.306,2.268,2.268,0,0,0-.505-1.435l1.716-1.7a2.316,2.316,0,0,0,1.448.5,2.333,2.333,0,0,0,1.254-.363h0Zm2.235-9.354h5.982v-.659h-5.982Zm0-1.976h5.982v-.659h-5.982Zm0-1.977h5.982v-.659h-5.982Zm-11.759,4.614,7.046-6.954v6.954Zm-.207,0h0Z" transform="translate(999 -115)" fill="#fff" opacity="0.99"/>
</svg>
