<svg xmlns="http://www.w3.org/2000/svg" width="27" height="27" viewBox="0 0 27 27">
  <path id="Subtraction_50" data-name="Subtraction 50" d="M-201-82h-21a3,3,0,0,1-3-3v-21a3,3,0,0,1,3-3h21a3,3,0,0,1,3,3v21A3,3,0,0,1-201-82Zm-7.164-3.971a.636.636,0,0,0-.635.635.636.636,0,0,0,.635.635h6.988a.636.636,0,0,0,.635-.635v-6.988a.636.636,0,0,0-.635-.635.636.636,0,0,0-.635.635v6.353Zm-13.659-6.988a.636.636,0,0,0-.635.635v6.988a.636.636,0,0,0,.635.635h6.988a.636.636,0,0,0,.635-.635.636.636,0,0,0-.635-.635h-6.353v-6.353A.636.636,0,0,0-221.824-92.959Zm-.476-3.176v1.271h21.758v-1.271H-222.3Zm14.135-10.165a.636.636,0,0,0-.635.635.636.636,0,0,0,.635.635h6.353v6.353a.635.635,0,0,0,.635.634.636.636,0,0,0,.635-.634v-6.988a.636.636,0,0,0-.635-.635Zm-13.659,0a.636.636,0,0,0-.635.635v6.988a.635.635,0,0,0,.635.634.636.636,0,0,0,.635-.634v-6.353h6.353a.636.636,0,0,0,.635-.635.636.636,0,0,0-.635-.635Z" transform="translate(225 109)" fill="#fff"/>
</svg>
