<svg id="Component_840" data-name="Component 840" xmlns="http://www.w3.org/2000/svg" width="50.459" height="74.813" viewBox="0 0 50.459 74.813">
  <g id="Group_1299" data-name="Group 1299" transform="translate(-0.017)">
    <path id="Rectangle_937" data-name="Rectangle 937" d="M5,0H45a5,5,0,0,1,5,5V54a0,0,0,0,1,0,0H0a0,0,0,0,1,0,0V5A5,5,0,0,1,5,0Z" transform="translate(0.477)" fill="#f65150" opacity="0.15"/>
    <path id="Path_210" data-name="Path 210" d="M0,0H50V18.9c0,3.263-2.239,5.908-5,5.908H5c-2.761,0-5-2.645-5-5.908Z" transform="translate(0.017 50)" fill="#f65150"/>
    <text id="VS" transform="translate(18.477 66)" fill="#d9dcdf" font-size="10" font-family="SegoeUI, Segoe UI"><tspan x="0" y="0">VS</tspan></text>
  </g>
  <path id="Union_90" data-name="Union 90" d="M-3392.348-2975.6c-.4-.118-9.835-3.047-9.464-17.574l.016-.647.663-.036a31.913,31.913,0,0,0,8.722-2.053l.277-.128.286.106c2.366.882,6.8,2.224,8.831,2.075l.813-.059-.08,1.553c-.292,5.822-.593,11.842-7.588,15.888a15.7,15.7,0,0,1-2.088.881l-.2.05Zm-8.036-16.911c-.064,11.877,6.893,15,8.239,15.5.234-.089.713-.285,1.6-.7,6.272-3.631,6.542-9.017,6.827-14.719v-.021a35.651,35.651,0,0,1-8.359-2.065A34.577,34.577,0,0,1-3400.385-2992.507Zm-17.106,13.326c-.018-.928-.006-5.83,0-7.895v-.144c.029-.153.719-3.759,1.592-4.288-1.057-.3-1.337-.412-1.383-.431-.1-.042-.922-.428-.669-1.2a1.408,1.408,0,0,1,1.036-.937h2.565l2.019-3.044a5.343,5.343,0,0,1,3.381-1.823c.588-.038,1.792-.057,3.578-.057,3.007,0,6.733.057,6.755.057a4.7,4.7,0,0,1,4.119,2.648c-.967.283-1.226.341-1.282.352-.083-.183-.882-1.765-3.592-1.765h-.047c-.86.005-2.113.008-3.723.008-2.428,0-5.047-.006-5.616-.008a3.487,3.487,0,0,0-2.807,1.639c-.878,1.513-1.9,3.135-2.017,3.315,0,.005-.43.6-.244.967.1.191.342.287.728.287.067,0,.138,0,.211-.008.509.009,1.653.013,3.4.013,1.733,0,4.089,0,6.633-.013h.115a30.259,30.259,0,0,0,1.159,7.385h-5.207a.9.9,0,0,0-.9.9.9.9,0,0,0,.9.9h5.588a.909.909,0,0,0,.281-.045,10.546,10.546,0,0,0,.865,1.571c-2.485.018-4.793.026-6.861.026-3.209,0-5.406-.018-6.2-.025h-.044v1.611a.7.7,0,0,1-.106.555.849.849,0,0,1-.708.262l-.1,0c-.328-.016-.713-.025-1.143-.025-.709,0-1.308.024-1.317.025a.988.988,0,0,1-.274.04C-3417.11-2978.327-3417.476-2978.474-3417.491-2979.181Zm1.589-8.15a1.626,1.626,0,0,0,1.643,1.6h.029v.007l2.688-.008h.056a1.117,1.117,0,0,0,1.13-1.1,1.1,1.1,0,0,0-.771-1.046l-2.3-.837a1.677,1.677,0,0,0-.835-.222A1.627,1.627,0,0,0-3415.9-2987.331Zm17.865,1.8c-.052-.211-.119-.424-.119-.424l-.045-.179-.044-.141h6.188v7.948S-3397.053-2980.918-3398.037-2985.536Zm5.979-.819v-6.744s.511.25.519.258c.247.231,5.789,1.516,6.282,1.61.338.4-.679,4.876-.679,4.876Z" transform="translate(3425.333 3013.742)" fill="#f65150"/>
</svg>
