<svg xmlns="http://www.w3.org/2000/svg" width="24.566" height="28.004" viewBox="0 0 24.566 28.004">
  <g id="noun-thief-1772866" transform="translate(-8.297 -2.5)">
    <g id="Group_14061" data-name="Group 14061" transform="translate(8.297 2.5)">
      <path id="Path_16363" data-name="Path 16363" d="M45.04,3.913a1.757,1.757,0,0,0,.442.265,3.932,3.932,0,0,0-.206.53,2.9,2.9,0,0,0,2.149,3.5A2.673,2.673,0,0,0,48.1,8.3a2.895,2.895,0,0,0,.677-5.712A2.673,2.673,0,0,0,48.1,2.5a2.916,2.916,0,0,0-2.208,1.031V3.354a1.453,1.453,0,0,0-.353-.707.218.218,0,0,0-.383.088,1.492,1.492,0,0,0-.059.383,1.386,1.386,0,0,0-.265-.088.208.208,0,0,0-.265.265A1.73,1.73,0,0,0,45.04,3.913Zm5.536.707A2.454,2.454,0,0,1,50.634,6c0,.059-.029.088-.059.147L45.54,4.944a.374.374,0,0,1,.029-.177,3.139,3.139,0,0,1,.206-.559Z" transform="translate(-33.879 -2.5)" fill="#069"/>
      <path id="Path_16364" data-name="Path 16364" d="M74.618,41.6a1.845,1.845,0,0,1-.766.648L71.2,43.367c-.029,0-.059.029-.088.029-.648,2.238.177,5.3,3.622,4.181C78.681,46.311,76.826,42.748,74.618,41.6Z" transform="translate(-52.474 -30.087)" fill="#069"/>
      <path id="Path_16365" data-name="Path 16365" d="M70.415,30.516l1.354-.589c.059-.029.118-.029.147-.059l-.059-.766a.3.3,0,0,0-.412-.265l-1.3.412a.309.309,0,0,0-.177.471Z" transform="translate(-51.776 -21.064)" fill="#069"/>
      <path id="Path_16366" data-name="Path 16366" d="M24.728,38.749a12.076,12.076,0,0,0-2-3.74l-1.413-1.767,1.826-5.035q.265.442.618.972a2.509,2.509,0,0,0,3.092.972l2.65-1.119a1.307,1.307,0,1,0-1-2.414l-2.562,1.089c-2.3-3.592-2.65-3.681-3.21-3.769l-2.12-.412c-.353-.059-.707-.147-4.181.942a3.5,3.5,0,0,0-2.091,1.737l-1.413,2.68a1.307,1.307,0,0,0,.53,1.767,1.2,1.2,0,0,0,.618.147,1.337,1.337,0,0,0,1.148-.677l1.443-2.68a.981.981,0,0,1,.559-.471c.236-.088.471-.147.677-.206l-1.148,4.358L15.571,35.3l-5.653-.177a1.576,1.576,0,0,0-.088,3.151l5.653.177h.088a3.118,3.118,0,0,0,3-2.267l.265-.972,1.443,1.8a8.8,8.8,0,0,1,1.472,2.738L23.2,44.226a1.546,1.546,0,0,0,1.5,1.089,1.334,1.334,0,0,0,.471-.088,1.562,1.562,0,0,0,1-1.973Z" transform="translate(-8.297 -17.313)" fill="#069"/>
      <ellipse id="Ellipse_834" data-name="Ellipse 834" cx="0.501" cy="0.412" rx="0.501" ry="0.412" transform="translate(15.489 2.356)" fill="#069"/>
    </g>
  </g>
</svg>
