<svg id="noun-weapon-1331957" xmlns="http://www.w3.org/2000/svg" width="32.342" height="20.211" viewBox="0 0 32.342 20.211">
  <g id="Group_14083" data-name="Group 14083" transform="translate(0)">
    <path id="Path_16398" data-name="Path 16398" d="M28.079.005H3.645a1.154,1.154,0,0,1-1.225,0H1.286A6.676,6.676,0,0,0,.04,3.276L1.1,3.282c.6-.539,1.115-.849,1.242.007L3.6,3.3V.609l.181.363V3.3l.254,0V.609l.182.363V3.3l.254,0V.609l.182.363V3.3l.254,0V.609L5.09.972V3.305l.254,0V.609l.181.363V3.307l.254,0V.609l.182.363V3.31l.254,0V.609L6.4.972V3.312l8.261.048V2.982l.828.056.221.323,6.981.046c.979-.89,3.2-.923,5.659-.783a5.064,5.064,0,0,0-.266-2.62Z" transform="translate(3.951 0.516)" fill="#069" fill-rule="evenodd"/>
    <path id="Path_16399" data-name="Path 16399" d="M2.245.548,1.584.6C.908.349.659-.314.025.2l.21.419C.979.578,1.364,1.128,1.807,1.7A6.413,6.413,0,0,1,2.245.548Z" transform="translate(2.421 0.791)" fill="#069" fill-rule="evenodd"/>
    <path id="Path_16400" data-name="Path 16400" d="M6.451,2.812C6.54,1.91,6.7,1,6.735.1A21.645,21.645,0,0,0,3.325.1,3.95,3.95,0,0,0,1.09.862L1.046.88l-.787,0V2.812H6.451Z" transform="translate(25.591 3.149)" fill="#069"/>
    <path id="Path_16401" data-name="Path 16401" d="M25.746.04H3.812c.035.722-.77,1.048-1.826,1.255L.91,1.673l-.04.7c1.959.511,3.219.872,2.864,2.517L0,13.285l.116,1.226,8.572,1.724.106-.464L7.9,15.656l2.744-8.04c.358-.822.815-1.333,1.444-1.308l4.257.124c1.23-.083,1.794-1.023,1.753-2.739a1.268,1.268,0,0,1,1.3-1.184l6.347-.064V.04Zm-21.287,13a.692.692,0,0,0,.961-.961l-.961.961Zm.387-1.265a.692.692,0,0,0-.492,1.178l.978-.978a.689.689,0,0,0-.486-.2ZM8.224,3.289a.692.692,0,0,0,.961-.961Zm.387-1.265A.692.692,0,0,0,8.119,3.2L9.1,2.224a.69.69,0,0,0-.486-.2Zm8.126.681H15.28c-.736.875-.346,1.711.068,2.495A1.664,1.664,0,0,1,14.634,2.7H14.3a2.563,2.563,0,0,0,.011,3.039h2.427a1.886,1.886,0,0,0,0-3.039ZM6.915.72,1.35,13.377l.89.941.036.02,4.548.824L11.508,1.452A5.75,5.75,0,0,0,6.915.72Zm4.436.787L6.736,15.014l-4.417-.8L1.5,13.351,7.007.833a5.618,5.618,0,0,1,4.343.674Z" transform="translate(0 3.977)" fill="#069" fill-rule="evenodd"/>
    <path id="Path_16402" data-name="Path 16402" d="M.941,0,.306.442h1.2Z" transform="translate(30.158)" fill="#069" fill-rule="evenodd"/>
  </g>
</svg>
