<svg xmlns="http://www.w3.org/2000/svg" width="50.459" height="74.813" viewBox="0 0 50.459 74.813">
  <g id="Group_14546" data-name="Group 14546" transform="translate(-0.018)">
    <path id="Rectangle_937" data-name="Rectangle 937" d="M5,0H45a5,5,0,0,1,5,5V54a0,0,0,0,1,0,0H0a0,0,0,0,1,0,0V5A5,5,0,0,1,5,0Z" transform="translate(0.477)" fill="#dde0e3"/>
    <path id="Path_210" data-name="Path 210" d="M0,0H50V18.9c0,3.263-2.239,5.908-5,5.908H5c-2.761,0-5-2.645-5-5.908Z" transform="translate(0.017 50)" fill="#1e3044"/>
    <text id="WJ" transform="translate(18.477 66)" fill="#d9dcdf" font-size="10" font-family="Montserrat-SemiBold, Montserrat" font-weight="600"><tspan x="0" y="0">WJ</tspan></text>
    <g id="Слой_3" data-name="Слой 3" transform="translate(6.204 16.925)">
      <path id="Path_234" data-name="Path 234" d="M30.117,14.509a1.18,1.18,0,0,1-1.169,1.18h-4.5l-3.34,3.33-9.134,9.134a1.169,1.169,0,0,1-1.66,0L6.14,23.977,1.964,28.152a1.127,1.127,0,0,1-.825.344A1.138,1.138,0,0,1,.3,28.152,1.159,1.159,0,0,1,.3,26.5l5.021-4.948L18.144,8.695a1.18,1.18,0,0,1,1.67,0l4.635,4.645h4.5A1.169,1.169,0,0,1,30.117,14.509Z" transform="translate(0.04 -8.348)" fill="#1e3044"/>
      <path id="Path_235" data-name="Path 235" d="M36.291,14.487a1.587,1.587,0,0,0,0-.261.939.939,0,0,0-.063-.23s0,0,0-.063a.564.564,0,0,0-.094-.125,1.148,1.148,0,0,0-.146-.188.825.825,0,0,0-.188-.146.564.564,0,0,0-.125-.094l-3.382-1.639.658-1.044a1.18,1.18,0,1,0-2.015-1.221l-1.326,2.2a1.19,1.19,0,0,0-.115.939,1.148,1.148,0,0,0,.616.72l2.359,1.148-2.443,1.138a1.18,1.18,0,0,0-.5,1.66l1.367,2.161a1.19,1.19,0,0,0,1.044.564,1.148,1.148,0,0,0,.605-.167,1.169,1.169,0,0,0,.4-1.608l-.658-1.1L35.665,15.5h0a1.19,1.19,0,0,0,.324-.24v-.052a1.044,1.044,0,0,0,.157-.219v-.073a.825.825,0,0,0,.063-.23A1.69,1.69,0,0,0,36.291,14.487Z" transform="translate(1.33 -8.326)" fill="#1e3044"/>
    </g>
  </g>
</svg>
