<svg xmlns="http://www.w3.org/2000/svg" width="37" height="37" viewBox="0 0 37 37">
  <g id="Wrong" transform="translate(-1866 -328)">
    <g id="Rectangle_3710" data-name="Rectangle 3710" transform="translate(1866 328)" fill="none" stroke="#f65150" stroke-width="1">
      <rect width="37" height="37" rx="5" stroke="none"/>
      <rect x="0.5" y="0.5" width="36" height="36" rx="4.5" fill="none"/>
    </g>
    <g id="Group_1672" data-name="Group 1672" transform="translate(1877.525 338.525)">
      <g id="Icon_ionic-ios-close-circle-outline" data-name="Icon ionic-ios-close-circle-outline" transform="translate(0 0)">
        <path id="Path_456" data-name="Path 456" d="M17.953,17.137l-1.9-1.9,1.9-1.9a.575.575,0,0,0-.813-.813l-1.9,1.9-1.9-1.9a.575.575,0,1,0-.813.813l1.9,1.9-1.9,1.9a.556.556,0,0,0,0,.813.571.571,0,0,0,.813,0l1.9-1.9,1.9,1.9a.577.577,0,0,0,.813,0A.571.571,0,0,0,17.953,17.137Z" transform="translate(-7.764 -7.762)" fill="#f65150"/>
        <path id="Path_457" data-name="Path 457" d="M10.856,4.382a6.471,6.471,0,1,1-4.578,1.9,6.431,6.431,0,0,1,4.578-1.9m0-1.007a7.481,7.481,0,1,0,7.481,7.481,7.479,7.479,0,0,0-7.481-7.481Z" transform="translate(-3.375 -3.375)" fill="#f65150"/>
      </g>
    </g>
  </g>
</svg>
