<svg xmlns="http://www.w3.org/2000/svg" width="67.703" height="52.557" viewBox="0 0 67.703 52.557">
  <path id="Union_214" data-name="Union 214" d="M9126.427,20934.6l-2.947-.4a.106.106,0,0,1-.095-.109l.089-1.545a.7.7,0,0,0-.42-.684,8.317,8.317,0,0,1-1.786-1.039.735.735,0,0,0-.421-.143.678.678,0,0,0-.384.115l-1.3.842a.1.1,0,0,1-.142-.021l-1.8-2.365a.111.111,0,0,1,.021-.146l1.15-1.029a.7.7,0,0,0,.185-.783,8.18,8.18,0,0,1-.525-2,.709.709,0,0,0-.552-.588l-1.514-.322a.108.108,0,0,1-.089-.119l.095-.715,0-.037.3-2.191a.109.109,0,0,1,.11-.1l1.544.09a.7.7,0,0,0,.684-.42,8.034,8.034,0,0,1,1.035-1.787.7.7,0,0,0,.026-.809l-.841-1.3a.1.1,0,0,1,.021-.141l2.364-1.8a.108.108,0,0,1,.147.016l1,1.119.031.037a.7.7,0,0,0,.783.184,8.235,8.235,0,0,1,2-.525.717.717,0,0,0,.589-.551l.32-1.514a.116.116,0,0,1,.121-.09l2.947.4a.1.1,0,0,1,.095.109l-.09,1.545a.7.7,0,0,0,.421.684,8.2,8.2,0,0,1,1.786,1.039.7.7,0,0,0,.81.027l1.3-.846a.106.106,0,0,1,.143.025l1.807,2.365a.111.111,0,0,1-.021.146l-1.15,1.029a.7.7,0,0,0-.185.783,8.2,8.2,0,0,1,.525,1.99.709.709,0,0,0,.552.594l1.514.322a.105.105,0,0,1,.084.119l-.4,2.943a.1.1,0,0,1-.11.094l-1.545-.084a.7.7,0,0,0-.683.42,8.111,8.111,0,0,1-1.035,1.787.7.7,0,0,0-.031.8l.851,1.3a.111.111,0,0,1-.026.141l-2.364,1.8a.107.107,0,0,1-.146-.016l-1.03-1.156a.7.7,0,0,0-.782-.184,8.269,8.269,0,0,1-1.991.525.707.707,0,0,0-.594.551l-.321,1.514a.111.111,0,0,1-.1.09Zm-2.843-14.018a4.512,4.512,0,0,0,2.139,8.059,4.607,4.607,0,0,0,.609.037,4.512,4.512,0,0,0,.588-8.984,4.73,4.73,0,0,0-.6-.041A4.488,4.488,0,0,0,9123.584,20920.58Zm-16.051,6.8a.255.255,0,0,1-.257-.236l-.163-2.08a.833.833,0,0,0-.6-.74,11.131,11.131,0,0,1-2.6-1.078.844.844,0,0,0-.951.1l-1.581,1.361a.26.26,0,0,1-.353-.012l-2.831-2.832a.258.258,0,0,1-.016-.352l1.36-1.586a.826.826,0,0,0,.095-.951,11.437,11.437,0,0,1-1.072-2.6.835.835,0,0,0-.74-.6l-2.086-.164a.252.252,0,0,1-.231-.252v-4.014a.241.241,0,0,1,.247-.248l2.08-.156a.837.837,0,0,0,.741-.609,10.99,10.99,0,0,1,1.077-2.6.845.845,0,0,0-.095-.951l-1.36-1.586a.249.249,0,0,1,.01-.348l2.838-2.838a.253.253,0,0,1,.347-.01l1.586,1.361a.837.837,0,0,0,.946.094,11.437,11.437,0,0,1,2.6-1.076.838.838,0,0,0,.609-.74l.162-2.082a.257.257,0,0,1,.253-.236h4.009a.258.258,0,0,1,.257.236l.163,2.082a.833.833,0,0,0,.6.74,11.16,11.16,0,0,1,2.6,1.076.848.848,0,0,0,.951-.094l1.581-1.361a.259.259,0,0,1,.352.01l2.832,2.838a.253.253,0,0,1,.016.348l-1.36,1.586a.834.834,0,0,0-.1.951,11.305,11.305,0,0,1,1.077,2.59.832.832,0,0,0,.74.609l2.086.158a.26.26,0,0,1,.231.258v4.008a.258.258,0,0,1-.236.258l-.573.047-.9-1.02a.758.758,0,0,0-1.02-.1l-2.358,1.8a.749.749,0,0,0-.179,1.008l.846,1.3a.047.047,0,0,1,0,.063,8.768,8.768,0,0,0-1.119,1.924.058.058,0,0,1-.053.025l-1.555-.09a.757.757,0,0,0-.788.652l-.258,1.938a1.3,1.3,0,0,0-.226.084,11.229,11.229,0,0,1-2.591,1.078.83.83,0,0,0-.609.74l-.163,2.08a.254.254,0,0,1-.252.236Zm-1.634-14.037a3.641,3.641,0,1,0,3.641-3.637A3.642,3.642,0,0,0,9105.9,20913.346Zm50.416,3.426s-2.789-1.7-4.029-2.459a.594.594,0,0,1-.284-.41.587.587,0,0,1,.121-.479c1.313-1.654,5.3-6.672,6.5-8.191a.634.634,0,0,1,.825-.141c.74.445,2.164,1.318,3.147,1.918a1.214,1.214,0,0,1,.551.756,1.188,1.188,0,0,1-.157.914c-1.208,1.875-3.751,5.832-4.96,7.713a1.248,1.248,0,0,1-1.052.564A1.274,1.274,0,0,1,9156.315,20916.771Zm-8.685-2.182-12.089-6.8-4.513,4.613h-6.646v-1.965l-2.675-.258-.257-.82h8.243l3.068-3.137-10.2-5.736a1.479,1.479,0,0,1-.7-.889,1.426,1.426,0,0,1,.153-1.1c.4-.687.872-1.477,1.108-1.875a.319.319,0,0,1,.425-.115c2.569,1.449,22.6,12.713,24.447,13.754a.323.323,0,0,0,.278.016c.457-.193,1.9-.809,3.094-1.312a.64.64,0,0,1,.73.152.6.6,0,0,1,.074.725c-.757,1.281-1.8,3.041-2.5,4.219a1.463,1.463,0,0,1-.9.678,1.557,1.557,0,0,1-1.135-.143Zm.331-6.125c-2.569-1.445-22.586-12.709-26.148-14.711a.6.6,0,0,1-.231-.83c1.151-1.934,5.128-8.643,6.273-10.582a.664.664,0,0,1,.378-.283.673.673,0,0,1,.474.063c3.977,2.238,28.712,16.15,34.187,19.234a.587.587,0,0,1,.311.557.607.607,0,0,1-.373.525c-3.263,1.383-12.552,5.318-14.307,6.059a.621.621,0,0,1-.562-.031Z" transform="translate(-9095.502 -20882.041)" fill="#069"/>
</svg>
