<svg xmlns="http://www.w3.org/2000/svg" width="43.362" height="40.336" viewBox="0 0 43.362 40.336">
  <path id="Union_249" data-name="Union 249" d="M-4750.221,20354.1l-9.308-13.092a2.028,2.028,0,0,1-.138-2.146,2.025,2.025,0,0,1,1.824-1.139h5.154l1.144-18.482a2.974,2.974,0,0,1,3.147-2.785,3,3,0,0,1,2.784,2.785l1.185,18.482h5.2a2.092,2.092,0,0,1,1.829,1.139,2.141,2.141,0,0,1-.138,2.146l-9.308,13.092a2.089,2.089,0,0,1-1.69.869A2.073,2.073,0,0,1-4750.221,20354.1Zm-19.075-.955a2.993,2.993,0,0,1-2.779-2.783l-1.19-18.482h-5.2a2.077,2.077,0,0,1-1.824-1.141,2.013,2.013,0,0,1,.138-2.145l9.308-13.094a2.07,2.07,0,0,1,1.686-.867,2.087,2.087,0,0,1,1.691.867l9.354,13.094a2.023,2.023,0,0,1,.133,2.145,2.132,2.132,0,0,1-1.824,1.141h-5.2l-1.139,18.482a2.97,2.97,0,0,1-2.988,2.787C-4769.187,20353.145-4769.241,20353.143-4769.3,20353.141Z" transform="translate(4780.535 -20314.629)" fill="#006799"/>
</svg>
