<svg xmlns="http://www.w3.org/2000/svg" width="62.001" height="54.172" viewBox="0 0 62.001 54.172">
  <g id="noun-confined-space-1651629" transform="translate(-100.044 -61.601)">
    <path id="Path_13979" data-name="Path 13979" d="M133.235,248.44v2.494a13.707,13.707,0,1,1-2.817,0V248.44H100.044c0,16.573,13.879,30.009,31,30.009s31-13.435,31-30.009Z" transform="translate(0 -162.675)" fill="#069"/>
    <path id="Path_13980" data-name="Path 13980" d="M322.1,326.13h-.282a1.857,1.857,0,0,0-1.946,1.628v6.861a.8.8,0,0,0,1.6,0h0V328.9h0a.173.173,0,0,1,.346,0,0,0,0,0,1,0,0v4.056h1.214Z" transform="translate(-192.519 -231.495)" fill="#069"/>
    <path id="Path_13981" data-name="Path 13981" d="M345.086,332.966l.936-6.832h-3.379l.937,6.832Z" transform="translate(-212.454 -231.568)" fill="#069"/>
    <path id="Path_13982" data-name="Path 13982" d="M336.117,399.874s0,0,0,0a1.149,1.149,0,0,0,2.3,0h0v-9.053h0s0-.005,0-.008a.174.174,0,1,1,.348,0s0,.005,0,.008h0v9.048s0,0,0,.005a1.149,1.149,0,0,0,2.3,0h0V388.948h-4.946Z" transform="translate(-206.71 -286.314)" fill="#069"/>
    <path id="Path_13983" data-name="Path 13983" d="M368.4,326.13h-.263l-.937,6.833h1.216V328.9h0a.173.173,0,0,1,.346,0s0,0,0,.007v5.7h0a.8.8,0,0,0,1.6,0h0v-6.748a1.9,1.9,0,0,0-1.964-1.741Z" transform="translate(-233.967 -231.495)" fill="#069"/>
    <path id="Path_13984" data-name="Path 13984" d="M336.794,285.259h.335a1.83,1.83,0,0,0,3.656,0h.346a.289.289,0,0,0,0-.57h-.126a2.21,2.21,0,0,0-1-1.862l-.152.861a.19.19,0,0,1-.374-.066l.036-.205.135-.769a1.9,1.9,0,0,0-1.346-.011l.135.769.038.215a.19.19,0,1,1-.374.066l-.023-.133-.131-.746a2.207,2.207,0,0,0-1.028,1.878h-.126a.29.29,0,0,0,0,.572Z" transform="translate(-207.093 -193.438)" fill="#069"/>
    <path id="Path_13985" data-name="Path 13985" d="M404.575,87.5a3.213,3.213,0,0,0-1.515-1.759,2,2,0,0,0-.808-.2l-.045,0h-3.681L391.475,83.1a.811.811,0,0,0-1.02.444.735.735,0,0,0,.473.959l6.67,2.3v14.981a1.232,1.232,0,0,0,2.459,0V93.362h.461v8.425a1.232,1.232,0,0,0,2.459,0v-14a9.385,9.385,0,0,1,.693,4.193c0,.514-.017,1.08-.056,1.7a.766.766,0,0,0,.748.789h.047a.775.775,0,0,0,.793-.7c.04-.648.059-1.242.059-1.788a11.659,11.659,0,0,0-.683-4.485Z" transform="translate(-253.972 -18.882)" fill="#069"/>
    <path id="Path_13986" data-name="Path 13986" d="M452.937,64.34h.335a1.83,1.83,0,0,0,3.656,0h.346a.289.289,0,0,0,0-.57h-.126a2.21,2.21,0,0,0-1-1.862l-.152.861a.19.19,0,1,1-.374-.066l.036-.2.135-.769a1.905,1.905,0,0,0-1.346-.009l.135.769.038.215a.19.19,0,1,1-.374.066l-.023-.133-.131-.746a2.207,2.207,0,0,0-1.028,1.878h-.126a.289.289,0,0,0,0,.571Z" transform="translate(-308.793 0)" fill="#069"/>
  </g>
</svg>
