<svg xmlns="http://www.w3.org/2000/svg" width="56.349" height="55.451" viewBox="0 0 56.349 55.451">
  <g id="noun-crane-3059954" transform="translate(-78.479 -12.727)">
    <path id="Path_14160" data-name="Path 14160" d="M116.767,176.77h-8.01v-2.377h9.506a1.353,1.353,0,0,0,1.32-1.32v-6.689a4.132,4.132,0,0,0-4.137-4.137H104.533l-1.848-11.97a3.124,3.124,0,0,0-3.08-2.64H87.017a3.187,3.187,0,0,0-3.08,2.552l-2.112,11.442a5.818,5.818,0,0,0-.088,1.232v10.21a1.353,1.353,0,0,0,1.32,1.32h9.506v2.377H84.641a6.161,6.161,0,1,0,0,12.323h32.127a6.161,6.161,0,1,0,0-12.323Zm-29.574-6.865a.882.882,0,0,1-.88-.88V163.04a1.117,1.117,0,0,1,.088-.528l1.76-9.506a.857.857,0,0,1,.88-.7h8.714a.936.936,0,0,1,.88.792l2.817,15.844a.929.929,0,0,1-.88,1.056H87.193Zm7.218,4.577H107v2.377H94.411Zm-8.978,11.354a2.93,2.93,0,0,1-2.9-2.9,2.856,2.856,0,0,1,2.9-2.817,2.861,2.861,0,0,1,0,5.721Zm10.21,0a2.93,2.93,0,0,1-2.9-2.9,2.856,2.856,0,0,1,2.9-2.817,2.781,2.781,0,0,1,2.817,2.817A2.856,2.856,0,0,1,95.643,185.836Zm10.122,0a2.861,2.861,0,1,1,0-5.721,2.781,2.781,0,0,1,2.817,2.817A2.856,2.856,0,0,1,105.765,185.836Zm10.122,0a2.8,2.8,0,0,1-2.817-2.9,2.836,2.836,0,0,1,2.817-2.817,2.861,2.861,0,1,1,0,5.721Z" transform="translate(0 -120.915)" fill="#069"/>
    <path id="Path_14161" data-name="Path 14161" d="M399.282,30.946V29.362h1.32a.557.557,0,0,0,.528-.44l.616-3.257a.5.5,0,0,0-.528-.616h-1.937V17.832a2.564,2.564,0,0,0,1.76-2.465,2.64,2.64,0,0,0-5.281,0v.264h-.176l-14.611,6.6a.086.086,0,0,0-.088.088,2.458,2.458,0,0,0-1.937-.792,2.593,2.593,0,0,0-2.64,2.64,2.564,2.564,0,0,0,1.76,2.465v10.21h-.616a.977.977,0,0,0-.968.968v1.76H381.5v-1.76a.977.977,0,0,0-.968-.968h-.7V26.634a2.643,2.643,0,0,0,1.848-2.465V23.9h.176l14.611-6.6c.088,0,.088-.088.176-.088a3.165,3.165,0,0,0,1.056.7v7.129H395.76a.5.5,0,0,0-.528.616l.616,3.257a.558.558,0,0,0,.528.44h1.32v2.377a.882.882,0,0,0,.88.88,1.563,1.563,0,0,1,.88.352,1.13,1.13,0,0,1,.352.88,1.232,1.232,0,0,1-2.465,0,.88.88,0,1,0-1.76,0,3.08,3.08,0,1,0,6.161,0,3.291,3.291,0,0,0-.88-2.2c-.7-.264-1.143-.616-1.583-.7Z" transform="translate(-266.935 0)" fill="#069"/>
  </g>
</svg>
