<svg id="noun-environment-2021423" xmlns="http://www.w3.org/2000/svg" width="56.54" height="50.954" viewBox="0 0 56.54 50.954">
  <path id="Path_14024" data-name="Path 14024" d="M230.792,43.28c-3.992-.179-11.559-.119-15.016,1.907s-4.528,4.648-4.052,7.329a25.716,25.716,0,0,1,9.236-2.324,41.484,41.484,0,0,0-14.9,11.2,27.3,27.3,0,0,0-9.891-11.858,24.337,24.337,0,0,1,8.818,4.648c1.132-2.443.775-5.244-2.086-8.044s-10.189-4.707-14.122-5.541a1.732,1.732,0,0,0-2.026,2.026c.834,3.873,2.8,11.2,5.661,14.062,2.979,2.92,5.9,3.217,8.342,1.907A20,20,0,0,1,204.4,68.783h1.072c.775,0,1.43-.059,2.2-.119a20.974,20.974,0,0,0-.477-3.456,40.074,40.074,0,0,1,7.508-7.448c2.086,1.907,5.005,2.383,8.58.238,3.456-2.026,7.15-8.7,8.938-12.215a1.743,1.743,0,0,0-1.429-2.5Z" transform="translate(-175.855 -40.565)" fill="#069"/>
  <path id="Path_14025" data-name="Path 14025" d="M135.688,322.533l-6.555.775v.3a3.686,3.686,0,0,1-2.562,3.4c-2.86.894-9.534,2.383-9.831,2.443h-.3l-7.567-.179a1.4,1.4,0,0,1-1.37-1.43,1.362,1.362,0,0,1,1.43-1.37l7.091.179a2.449,2.449,0,0,0,.655-.059c1.609-.357,6.495-1.43,8.819-2.145.477-.179.894-.3.953-1.132a4.084,4.084,0,0,0-1.49-3.4c-.953-.536-3.873-.3-6.495-.119a32.237,32.237,0,0,1-5.9.179,32.4,32.4,0,0,1-4.588-.834,15.624,15.624,0,0,0-9.474.536c-.953.357-1.966.775-2.8,1.132a28.565,28.565,0,0,1-5.839,1.728l-3.754.715a1.908,1.908,0,0,0-1.549,1.847v10.725a1.9,1.9,0,0,0,2.324,1.847l3.813-.775a11.883,11.883,0,0,1,4.588,0l11.619,2.682a11.542,11.542,0,0,0,7.984-.6l23.06-11.023a1.654,1.654,0,0,0,.715-.715c1.192-2.86-.834-4.945-2.979-4.707Z" transform="translate(-84.564 -289.072)" fill="#069"/>
</svg>
