<svg id="noun-vitals-signs-monitor-175109" xmlns="http://www.w3.org/2000/svg" width="52.777" height="52.777" viewBox="0 0 52.777 52.777">
  <path id="Path_14117" data-name="Path 14117" d="M128.607,9.932V7.073c0-.677-1.684-1.241-3.706-1.241H79.536c-2.021,0-3.706.564-3.706,1.241V9.894c0,.113.224.188.561.188h51.654c.337,0,.562-.075.562-.15Zm-14.374-2.52h7.3c.9,0,1.684.263,1.684.564s-.786.564-1.684.564h-7.3c-.9,0-1.684-.263-1.684-.564S113.335,7.412,114.233,7.412Zm-31.329,0H96.267c.9,0,1.684.263,1.684.564s-.786.564-1.684.564H82.9c-1.011,0-1.684-.263-1.684-.564S81.894,7.412,82.9,7.412Z" transform="translate(-75.83 -5.832)" fill="#069"/>
  <path id="Path_14118" data-name="Path 14118" d="M75.832,173.394v41.891c0,2.609,1.687,4.783,3.711,4.783h45.318c2.024,0,3.711-2.174,3.711-4.783V172.67H76.395c-.337,0-.562.29-.562.725Zm45.768,27.4H111.367c-.787,0-1.349-.58-1.574-1.594l-.225-1.015c-.113-.58-.787-.58-1.012,0l-2.924,10.871a1.783,1.783,0,0,1-1.574,1.45h-.113c-.787,0-1.349-.725-1.574-1.739L99,189.774c-.113-.58-.787-.725-1.012-.145l-4.5,12.611a1.919,1.919,0,0,1-1.349,1.3c-.562.145-1.125-.29-1.574-.87L87.752,197.6a.556.556,0,0,0-.45-.29H82.917a2.245,2.245,0,0,1,0-4.348h5.51a1.52,1.52,0,0,1,1.349.87l1.349,2.319c.225.435.675.29.9-.145l5.623-15.8a1.85,1.85,0,0,1,1.687-1.3,1.91,1.91,0,0,1,1.462,1.739l3.149,17.539c.113.58.787.725,1.012,0l2.7-9.856a1.8,1.8,0,0,1,1.687-1.45c.787,0,1.349.58,1.574,1.594l1.687,7.392c.113.29.225.435.45.435H121.6a2.029,2.029,0,0,1,1.687,2.174c0,1.16-.675,2.319-1.687,2.319Z" transform="translate(-75.832 -167.291)" fill="#069"/>
</svg>
