<svg xmlns="http://www.w3.org/2000/svg" width="54.328" height="54.328" viewBox="0 0 54.328 54.328">
  <path id="Path_17129" data-name="Path 17129" d="M53.034,21.991H49.865a22.484,22.484,0,0,0-2.988-7.218l2.277-2.239a1.294,1.294,0,0,0,0-1.836L43.63,5.174a1.294,1.294,0,0,0-1.836,0L39.556,7.452a22.485,22.485,0,0,0-7.218-2.988V1.3A1.293,1.293,0,0,0,31.046,0H23.283A1.294,1.294,0,0,0,21.99,1.3V4.464a22.484,22.484,0,0,0-7.218,2.988L12.534,5.174a1.294,1.294,0,0,0-1.836,0L5.174,10.7a1.294,1.294,0,0,0,0,1.836l2.239,2.239a22.49,22.49,0,0,0-2.95,7.218H1.295A1.294,1.294,0,0,0,0,23.283v7.763a1.293,1.293,0,0,0,1.295,1.292H4.463a22.484,22.484,0,0,0,2.988,7.218L5.174,41.795a1.294,1.294,0,0,0,0,1.836L10.7,49.155a1.294,1.294,0,0,0,1.836,0l2.239-2.239a22.49,22.49,0,0,0,7.218,2.95v3.168a1.293,1.293,0,0,0,1.292,1.295h7.763a1.293,1.293,0,0,0,1.292-1.295V49.866a22.484,22.484,0,0,0,7.218-2.988l2.239,2.277a1.294,1.294,0,0,0,1.836,0l5.524-5.524a1.294,1.294,0,0,0,0-1.836l-2.239-2.239a22.49,22.49,0,0,0,2.95-7.218h3.168a1.293,1.293,0,0,0,1.295-1.292V23.283a1.293,1.293,0,0,0-1.295-1.292ZM27.164,45.273a18.107,18.107,0,1,1,12.805-5.3,18.111,18.111,0,0,1-12.805,5.3Zm14.229-19.4h1.292a15.388,15.388,0,0,0-3.62-8.718l-.853.866,0,0a1.3,1.3,0,1,1-1.836-1.838l.866-.853a15.386,15.386,0,0,0-8.782-3.623v1.229a1.295,1.295,0,1,1-2.589,0V11.706a15.405,15.405,0,0,0-8.718,3.623l.866.853h0a1.3,1.3,0,0,1-1.838,1.838l-.853-.866v0a15.4,15.4,0,0,0-3.623,8.718h1.229a1.295,1.295,0,1,1,0,2.589H11.706a15.405,15.405,0,0,0,3.623,8.718l.853-.866v0a1.3,1.3,0,0,1,1.838,1.838L17.154,39h0a15.4,15.4,0,0,0,8.718,3.686V41.394a1.295,1.295,0,0,1,2.589,0v1.292a15.388,15.388,0,0,0,8.718-3.62l-.866-.853,0,0a1.3,1.3,0,0,1,1.838-1.836l.853.866a15.392,15.392,0,0,0,3.686-8.782H41.393a1.295,1.295,0,1,1,0-2.589Zm-9.429,6.093h0a1.289,1.289,0,0,1-1.836,0l-2.3-2.3a2.675,2.675,0,0,1-.66.091A2.587,2.587,0,0,1,25.87,24.94V20.7a1.295,1.295,0,0,1,2.589,0V24.94a2.589,2.589,0,0,1,1.292,2.224,2.675,2.675,0,0,1-.091.66l2.3,2.3a1.289,1.289,0,0,1,0,1.836Z" fill="#069"/>
</svg>
