<svg xmlns="http://www.w3.org/2000/svg" width="55.151" height="56.662" viewBox="0 0 55.151 56.662">
  <path id="Path_14234" data-name="Path 14234" d="M85.284,39.483l10.939-7.008.741.456L86.025,39.938Zm-.171,5.925v-3.76l-.741-.456v3.76ZM87.05,47.06a.97.97,0,0,1-1.424.854l-2.678-1.538a1.058,1.058,0,0,1-.513-.854V40.109L78.96,38.115V51.39l11.509,6.666V44.724L86.993,42.73c.057,0,.057,4.33.057,4.33Zm15.5,5.128,1.424-.854V38.058c-1.766,1.025-9.97,5.754-11.509,6.666V58.056c2.108-1.253,8.033-4.672,10.084-5.868Zm-8.2-20.8L91.494,29.74,79.929,36.406,83.4,38.4Zm7.293,4.216-2.792-1.6L87.9,41.021c.513.285,2.963,1.709,3.589,2.051L103,36.406ZM133.484,6.552h-8.09v1.6H131.2a1.508,1.508,0,0,1,1.481,1.481v42.9a1.471,1.471,0,0,1-1.481,1.481H103.288l-2.564,1.481-.228.114h32.988a.647.647,0,0,0,.627-.684V7.236c-.057-.342-.285-.684-.627-.684ZM105.909,52.074V36.406a1,1,0,0,0-.456-.854l-2.336-1.367v-24.1h27.689v41.99Zm20.909-20.34H115.252a.969.969,0,0,0,0,1.937h11.566A.969.969,0,0,0,126.818,31.734ZM115.2,30.424h8.261a.969.969,0,0,0,0-1.937H115.2A.969.969,0,0,0,115.2,30.424ZM126.818,20.34H115.252a.969.969,0,0,0,0,1.937h11.566A.969.969,0,0,0,126.818,20.34Zm-3.361-3.248H115.2a.969.969,0,1,0,0,1.937h8.261a.969.969,0,1,0,0-1.937Zm-18.4.854v3.362a2.1,2.1,0,0,0,2.108,2.108h3.248a2.1,2.1,0,0,0,2.108-2.108V17.89l2.849-2.849A.967.967,0,0,0,114,13.673l-2.564,2.564a1.968,1.968,0,0,0-1.025-.285h-3.3a2.055,2.055,0,0,0-1.139.342.991.991,0,0,0-1.025.228.955.955,0,0,0,.114,1.424Zm2.051,16.864h3.248a2.1,2.1,0,0,0,2.108-2.108V29.227l2.849-2.849a.967.967,0,0,0-1.367-1.367l-2.621,2.621a1.873,1.873,0,0,0-.969-.228h-3.247a2.357,2.357,0,0,0-1.083.285.956.956,0,0,0-1.025,1.6V32.7a2.14,2.14,0,0,0,2.108,2.108ZM101.123,9.685A1.471,1.471,0,0,1,102.6,8.2h5.811V6.552h-8.09a.605.605,0,0,0-.57.684V32.3l1.424.8V9.685Zm22.391-1.538V5.3A2.019,2.019,0,0,0,121.519,3.3h-1.88a.976.976,0,0,1-.912-.627,1.937,1.937,0,0,0-3.646,0,.924.924,0,0,1-.912.627h-1.88A2.019,2.019,0,0,0,110.3,5.3V8.147ZM107.1,21.479h3.248a.151.151,0,0,0,.171-.171V19.77l-1.139,1.139a.944.944,0,0,1-.684.285c-.57.057-1.253-.912-1.766-1.367v1.481a.181.181,0,0,0,.171.171Zm2.678-3.589h-2.108l1.025,1.025Zm-.114,11.395h-1.937l.968.969Zm.74,3.589a.151.151,0,0,0,.171-.171v-1.6l-1.139,1.139a.944.944,0,0,1-.684.285c-.57.057-1.253-.912-1.766-1.367V32.7a.151.151,0,0,0,.171.171Z" transform="translate(-78.96 -1.395)" fill="#069"/>
</svg>
