<svg xmlns="http://www.w3.org/2000/svg" width="42.353" height="40.283" viewBox="0 0 42.353 40.283">
  <path id="Path_17570" data-name="Path 17570" d="M19.629,7.048h5.9V10.01A14.925,14.925,0,0,1,30.9,12.237l2.1-2.1,4.174,4.174-2.1,2.1A14.937,14.937,0,0,1,37.3,21.783h2.962v5.9H38.116L34.531,21.7A2.392,2.392,0,0,0,32.2,20.552a10.492,10.492,0,1,0-9.9,14.67l-2.675,4.465V39.46a14.931,14.931,0,0,1-5.373-2.227l-2.1,2.1L7.986,35.154l2.1-2.1a14.936,14.936,0,0,1-2.227-5.373H4.893v-5.9H7.855a14.939,14.939,0,0,1,2.227-5.373l-2.1-2.1,4.174-4.174,2.1,2.1a14.936,14.936,0,0,1,5.373-2.227V7.048ZM22.58,30.171a1.194,1.194,0,1,0,1.194,1.194,1.194,1.194,0,0,0-1.194-1.194Zm-2.086-8.786a2.086,2.086,0,1,1,2.393,2.065,1.753,1.753,0,0,0-1.5,1.729v2.332a1.194,1.194,0,1,0,2.387,0V25.694a4.472,4.472,0,1,0-5.667-4.309,1.194,1.194,0,0,0,2.389,0ZM47.048,45.26,33.355,22.41a1.035,1.035,0,0,0-1.774,0L17.888,45.26a1.366,1.366,0,0,0,1.173,2.071H45.874A1.366,1.366,0,0,0,47.048,45.26Zm-14.58-.173a1.462,1.462,0,1,1,1.462-1.462A1.462,1.462,0,0,1,32.468,45.087Zm1.136-5.81a1.138,1.138,0,0,1-2.272,0l-.7-10.128c0-2.3,3.668-2.3,3.668,0Z" transform="translate(-4.893 -7.049)" fill="#069" fill-rule="evenodd"/>
</svg>
