<svg xmlns="http://www.w3.org/2000/svg" width="52.372" height="60.582" viewBox="0 0 52.372 60.582">
  <g id="noun-live-streaming-3937535" transform="translate(-115.136 -8.308)">
    <path id="Path_14356" data-name="Path 14356" d="M167.508,38.032a5.319,5.319,0,0,0-5.319-5.319H120.455a5.319,5.319,0,0,0-5.319,5.319V63.57a5.319,5.319,0,0,0,5.319,5.319h41.734a5.319,5.319,0,0,0,5.319-5.319Zm-16.787,14.7a2.163,2.163,0,0,0,0-3.87L135.188,41.1a2.163,2.163,0,0,0-3.131,1.935V58.567a2.164,2.164,0,0,0,3.131,1.936l15.532-7.766Zm-.967-1.935-15.532,7.766V43.035Zm1.294-22.967a11.387,11.387,0,0,0-19.452,0,1.212,1.212,0,0,0,2.071,1.26,8.963,8.963,0,0,1,15.311,0,1.212,1.212,0,0,0,2.07-1.26Zm3.734-5.722a17.021,17.021,0,0,0-26.919,0,1.211,1.211,0,1,0,1.984,1.391,14.609,14.609,0,0,1,22.952,0,1.211,1.211,0,1,0,1.984-1.391Zm4.252-5.033a1.212,1.212,0,1,1-1.991,1.381,19.853,19.853,0,0,0-31.441,0,1.212,1.212,0,1,1-1.991-1.381c3.765-5.432,10.471-8.771,17.712-8.771s13.947,3.339,17.712,8.771Z" transform="translate(0 0)" fill="#069" fill-rule="evenodd"/>
  </g>
</svg>
