<svg xmlns="http://www.w3.org/2000/svg" width="11.402" height="15.217" viewBox="0 0 11.402 15.217">
  <g id="noun-lock-6349677" transform="translate(-5.347 -2.512)">
    <path id="Path_16908" data-name="Path 16908" d="M16.292,9.165c0-.994-.016-1.94,0-2.887a3.809,3.809,0,0,1,7.617-.032c.016.834,0,1.652,0,2.486,0,.128.016.257.016.433h.866a.955.955,0,0,1,1.01,1.026v6.495a.941.941,0,0,1-1.026,1.042H15.426A.941.941,0,0,1,14.4,16.686V10.223a.967.967,0,0,1,1.058-1.074c.257.016.513.016.834.016Zm1.94.032H22c0-1.042.048-2.053-.016-3.079A1.859,1.859,0,0,0,20.093,4.45a1.878,1.878,0,0,0-1.86,1.668C18.185,7.128,18.233,8.155,18.233,9.2Zm.834,6.27h2.069c-.128-.641-.257-1.251-.369-1.86a.565.565,0,0,1,.128-.577,1,1,0,0,0-.08-1.427,1.04,1.04,0,0,0-1.507,1.427.912.912,0,0,1,.144.529C19.339,14.2,19.211,14.81,19.067,15.467Z" transform="translate(-9.053)" fill="#a0a0a0"/>
  </g>
</svg>
