<svg xmlns="http://www.w3.org/2000/svg" width="29.113" height="29.391" viewBox="0 0 29.113 29.391">
  <g id="noun-menu-1157124" transform="translate(-84.197 -11.961)">
    <path id="Path_895" data-name="Path 895" d="M87.679,8.961H81.925a.732.732,0,0,0-.728.728v5.754a.732.732,0,0,0,.728.728h5.754a.732.732,0,0,0,.728-.728V9.689a.732.732,0,0,0-.728-.728Z" transform="translate(3 3)" fill="#fff"/>
    <path id="Path_896" data-name="Path 896" d="M301.039,8.961h-5.754a.732.732,0,0,0-.728.728v5.754a.732.732,0,0,0,.728.728h5.754a.732.732,0,0,0,.728-.728V9.689a.732.732,0,0,0-.728-.728Z" transform="translate(-199.253 3)" fill="#fff"/>
    <path id="Path_897" data-name="Path 897" d="M509.884,8.961h-5.72a.732.732,0,0,0-.728.728v5.754a.732.732,0,0,0,.728.728h5.72a.732.732,0,0,0,.728-.728V9.689a.711.711,0,0,0-.728-.728Z" transform="translate(-397.301 3)" fill="#fff"/>
    <path id="Path_898" data-name="Path 898" d="M87.679,221.2H81.925a.732.732,0,0,0-.728.728v5.754a.732.732,0,0,0,.728.728h5.754a.732.732,0,0,0,.728-.728v-5.754a.732.732,0,0,0-.728-.728Z" transform="translate(3 -198.201)" fill="#fff"/>
    <path id="Path_899" data-name="Path 899" d="M301.039,221.2h-5.754a.732.732,0,0,0-.728.728v5.754a.732.732,0,0,0,.728.728h5.754a.732.732,0,0,0,.728-.728v-5.754a.732.732,0,0,0-.728-.728Z" transform="translate(-199.253 -198.201)" fill="#fff"/>
    <path id="Path_900" data-name="Path 900" d="M509.884,221.2h-5.72a.732.732,0,0,0-.728.728v5.754a.732.732,0,0,0,.728.728h5.72a.732.732,0,0,0,.728-.728v-5.754A.711.711,0,0,0,509.884,221.2Z" transform="translate(-397.301 -198.201)" fill="#fff"/>
    <path id="Path_901" data-name="Path 901" d="M87.679,432.88H81.925a.756.756,0,0,0-.728.728v5.754a.732.732,0,0,0,.728.728h5.754a.732.732,0,0,0,.728-.728v-5.754a.756.756,0,0,0-.728-.728Z" transform="translate(3 -398.877)" fill="#fff"/>
    <path id="Path_902" data-name="Path 902" d="M301.039,435.12h-5.754a.732.732,0,0,0-.728.728V441.6a.732.732,0,0,0,.728.728h5.754a.732.732,0,0,0,.728-.728v-5.789a.726.726,0,0,0-.728-.693Z" transform="translate(-199.253 -400.979)" fill="#fff"/>
    <path id="Path_903" data-name="Path 903" d="M509.884,432.88h-5.72a.732.732,0,0,0-.728.728v5.754a.732.732,0,0,0,.728.728h5.719a.732.732,0,0,0,.728-.728v-5.754A.732.732,0,0,0,509.884,432.88Z" transform="translate(-397.301 -398.877)" fill="#fff"/>
  </g>
</svg>
