<svg xmlns="http://www.w3.org/2000/svg" width="51.113" height="56.017" viewBox="0 0 51.113 56.017">
  <g id="noun-population-2654167" transform="translate(-144.629 -54.93)">
    <path id="Path_14271" data-name="Path 14271" d="M165.387,69.822h9.6a4.122,4.122,0,0,1,4.113,4.112v10.61a4.127,4.127,0,0,1-2.725,3.872L174.26,108.8c-.121,1.179-1.371,2.148-3.049,2.148h-2.049c-1.675,0-2.925-.969-3.05-2.148L163.995,88.41a4.121,4.121,0,0,1-2.719-3.867V73.934a4.122,4.122,0,0,1,4.112-4.112Zm-16.647,0h9.6a4.056,4.056,0,0,1,2.455.817,5.615,5.615,0,0,0-1.063,3.295v10.61a5.621,5.621,0,0,0,1.063,3.3,4.131,4.131,0,0,1-1.067.58l-2.117,20.38c-.12,1.179-1.37,2.148-3.049,2.148h-2.049c-1.674,0-2.924-.969-3.049-2.148l-2.117-20.388a4.122,4.122,0,0,1-2.719-3.867V73.934a4.121,4.121,0,0,1,4.112-4.112Zm4.8-14.892a6.653,6.653,0,1,1-6.653,6.654A6.653,6.653,0,0,1,153.541,54.93Zm28.488,14.892h9.6a4.122,4.122,0,0,1,4.113,4.112v10.61a4.127,4.127,0,0,1-2.725,3.872L190.9,108.8c-.121,1.179-1.371,2.148-3.049,2.148H185.8c-1.675,0-2.925-.969-3.05-2.148l-2.116-20.384a4.076,4.076,0,0,1-1.063-.576,5.623,5.623,0,0,0,1.066-3.3V73.934a5.623,5.623,0,0,0-1.066-3.295,4.084,4.084,0,0,1,2.455-.817ZM170.187,54.93a6.653,6.653,0,1,1-6.653,6.654A6.654,6.654,0,0,1,170.187,54.93Zm16.642,0a6.653,6.653,0,1,1-6.653,6.654A6.654,6.654,0,0,1,186.829,54.93Z" transform="translate(0 0)" fill="#069" fill-rule="evenodd"/>
  </g>
</svg>
