<svg xmlns="http://www.w3.org/2000/svg" width="57.614" height="57.637" viewBox="0 0 57.614 57.637">
  <path id="Path_17563" data-name="Path 17563" d="M21.5,4.316a8.7,8.7,0,1,0,8.7,8.7A8.7,8.7,0,0,0,21.5,4.316Zm0,1.38a7.322,7.322,0,1,1-7.322,7.322A7.323,7.323,0,0,1,21.5,5.7Zm0,.961a6.362,6.362,0,1,1-6.362,6.362A6.362,6.362,0,0,1,21.5,6.657Zm-.488,3.472a.84.84,0,1,1,1.68,0v3.028a.838.838,0,0,1-.387.707l-2.843,1.895a.841.841,0,1,1-.931-1.4l2.481-1.653Zm28.7,9.447h5.549a1.308,1.308,0,0,1,1.306,1.306l0,20.1-1,.722a10.172,10.172,0,0,0-1.6-.663l-.2-1.242A1.683,1.683,0,0,0,52.3,38.394a12.727,12.727,0,0,0-2.9,0,1.675,1.675,0,0,0-.981.466l0-17.981a1.306,1.306,0,0,1,1.306-1.3ZM8.871,30.845h5.549a1.308,1.308,0,0,1,1.306,1.306V51.341H7.567V32.15a1.308,1.308,0,0,1,1.3-1.306ZM22.488,36.8h5.549a1.308,1.308,0,0,1,1.306,1.306V51.341H21.182V38.108A1.308,1.308,0,0,1,22.488,36.8ZM36.1,26.925h5.549a1.308,1.308,0,0,1,1.306,1.306V41.107a12.647,12.647,0,0,0-1.944,1.966,1.686,1.686,0,0,0-.044,2.035l.737,1.02a10.172,10.172,0,0,0-.663,1.6l-1.242.2A1.683,1.683,0,0,0,38.392,49.4a12.815,12.815,0,0,0-.074,1.944H34.8l0-23.111a1.308,1.308,0,0,1,1.3-1.306ZM46.595,12.632a.839.839,0,0,1,.126-1.673l4.25.328a.839.839,0,0,1,.774.9l-.328,4.25a.839.839,0,1,1-1.673-.126L49.923,14l-9.88,7.993a.837.837,0,0,1-.527.187v0l-8.214,0L25.113,32.9a.833.833,0,0,1-1.141.308.853.853,0,0,1-.313-.315l-4.191-7.259H10.374a.84.84,0,0,1,0-1.68h9.575v0a.83.83,0,0,1,.724.419l3.713,6.433,5.669-9.818a.84.84,0,0,1,.764-.49l8.4,0L48.743,12.8ZM38.52,52.78H5.973a1.647,1.647,0,0,0-1.641,1.641v.929a1.647,1.647,0,0,0,1.641,1.641H40.755a1.647,1.647,0,0,1,.214-.4l.737-1.02a10.173,10.173,0,0,1-.663-1.6l-1.242-.2a1.694,1.694,0,0,1-1.281-.993ZM48.994,42.193a8.776,8.776,0,0,0-2.959,1.227l-1.776-1.281a.241.241,0,0,0-.3.007,11.164,11.164,0,0,0-1.821,1.821.248.248,0,0,0-.007.3l1.281,1.776A8.827,8.827,0,0,0,42.186,49l-2.163.35a.241.241,0,0,0-.2.214,11.247,11.247,0,0,0,0,2.575.243.243,0,0,0,.2.214l2.163.35a8.8,8.8,0,0,0,1.227,2.959l-1.281,1.776a.241.241,0,0,0,.007.3,11.165,11.165,0,0,0,1.821,1.821.248.248,0,0,0,.3.007l1.776-1.281a8.827,8.827,0,0,0,2.959,1.227l.35,2.163a.241.241,0,0,0,.214.2,11.248,11.248,0,0,0,2.575,0,.243.243,0,0,0,.214-.2l.35-2.163a8.8,8.8,0,0,0,2.959-1.227l1.776,1.281a.241.241,0,0,0,.3-.007,11.164,11.164,0,0,0,1.821-1.821.248.248,0,0,0,.007-.3l-1.281-1.776A8.827,8.827,0,0,0,59.5,52.7l2.163-.35a.241.241,0,0,0,.2-.214,11.248,11.248,0,0,0,0-2.575.243.243,0,0,0-.2-.214L59.5,49a8.8,8.8,0,0,0-1.227-2.959l1.281-1.776a.241.241,0,0,0-.007-.3,11.165,11.165,0,0,0-1.821-1.821.248.248,0,0,0-.3-.007L55.656,43.42A8.827,8.827,0,0,0,52.7,42.193l-.35-2.163a.241.241,0,0,0-.214-.2,11.248,11.248,0,0,0-2.575,0,.243.243,0,0,0-.214.2Zm8.631,8.656a6.778,6.778,0,1,1-6.778-6.778A6.779,6.779,0,0,1,57.625,50.849Zm-1.439,0a5.339,5.339,0,1,1-5.339-5.339A5.338,5.338,0,0,1,56.186,50.849Z" transform="translate(-4.332 -4.316)" fill="#069" fill-rule="evenodd"/>
</svg>
