<svg xmlns="http://www.w3.org/2000/svg" width="38.751" height="57.113" viewBox="0 0 38.751 57.113">
  <path id="Union_248" data-name="Union 248" d="M-3988.909,20190.342c0-2.346,4.252-8.951,4.252-8.951s4.257,6.605,4.257,8.951a4.257,4.257,0,0,1-4.257,4.258A4.256,4.256,0,0,1-3988.909,20190.342Zm27.556-5.777v-3.057h-11.591a17.131,17.131,0,0,1-8.819-2.447l3.882-9.863-2.848-1.611,2.453-8.516-7.749,9.984,3.512,1.826-3.477,4.637a17.173,17.173,0,0,1-4.222-11.277v-19.906h-3.051v-6.848h23.861v6.848h-3.051v14.408h.015a5.03,5.03,0,0,0,4.764,5.012h6.32v-3.057h6.842v23.867Z" transform="translate(3993.263 -20137.486)" fill="#069"/>
</svg>
