<svg xmlns="http://www.w3.org/2000/svg" width="57.414" height="57.419" viewBox="0 0 57.414 57.419">
  <g id="noun-monitoring-2244089" transform="translate(0)">
    <path id="Path_14087" data-name="Path 14087" d="M227.783,8.4a21.974,21.974,0,0,0,0,43.948,21.974,21.974,0,1,0,0-43.948Zm0,37.105a15.131,15.131,0,1,1,15.139-15.131A15.134,15.134,0,0,1,227.783,45.508Z" transform="translate(-192.351 -8.402)" fill="#069"/>
    <path id="Path_14088" data-name="Path 14088" d="M98.227,352.882l1.794-1.65a23.5,23.5,0,0,1-5.587-5.642l-1.812,1.677-1.4-1.4a.939.939,0,0,0-1.273,0l-9.471,9.48a7.04,7.04,0,0,0,9.956,9.956l9.471-9.471a.888.888,0,0,0,0-1.273Z" transform="translate(-78.418 -309.947)" fill="#069"/>
    <path id="Path_14089" data-name="Path 14089" d="M383.618,189.629a3.571,3.571,0,0,0,3.567-3.567c0-.084,0-.168-.009-.252a2.274,2.274,0,0,1-3.1-3.288,3.615,3.615,0,0,0-.454-.027,3.567,3.567,0,1,0,0,7.135Z" transform="translate(-348.166 -164.092)" fill="#069"/>
    <path id="Path_14090" data-name="Path 14090" d="M320.04,152.565c-.224-.3-5.632-7.22-12.458-7.22s-12.233,6.924-12.459,7.22a.445.445,0,0,0,0,.547c.224.3,5.623,7.22,12.459,7.22s12.233-6.924,12.458-7.22A.445.445,0,0,0,320.04,152.565ZM307.582,157.3a4.462,4.462,0,1,1,0-8.924,4.266,4.266,0,0,1,1.632.3.462.462,0,0,1,.278.413.453.453,0,0,1-.269.412A1.378,1.378,0,1,0,311,151.39a.448.448,0,0,1,.431-.251.453.453,0,0,1,.395.314,4.552,4.552,0,0,1,.224,1.39,4.465,4.465,0,0,1-4.466,4.458Z" transform="translate(-272.132 -130.869)" fill="#069"/>
  </g>
</svg>
