<svg xmlns="http://www.w3.org/2000/svg" width="52.075" height="57.15" viewBox="0 0 52.075 57.15">
  <path id="Path_17569" data-name="Path 17569" d="M38.432,45.042a6.339,6.339,0,1,0,6.34,6.34,6.341,6.341,0,0,0-6.34-6.34Zm0,9.225v0a2.885,2.885,0,0,1-2.886-2.883.541.541,0,1,1,1.082,0,1.8,1.8,0,0,0,1.8,1.774.541.541,0,0,1,0,1.082Zm2.345-2.345a.548.548,0,0,1-.541-.541,1.815,1.815,0,0,0-1.8-1.834.541.541,0,1,1,0-1.082,2.89,2.89,0,0,1,2.886,2.886.533.533,0,0,1-.149.4.54.54,0,0,1-.392.17Zm10-3.605v0a1.093,1.093,0,0,1-1.033-.719,13.418,13.418,0,0,0-.6-1.444,1.1,1.1,0,0,1,.195-1.26,2.165,2.165,0,0,0,0-3.081l-1.277-1.277a2.165,2.165,0,0,0-3.081,0,1.1,1.1,0,0,1-1.26.195,11.2,11.2,0,0,0-1.444-.6,1.093,1.093,0,0,1-.719-1.033,2.167,2.167,0,0,0-2.164-2.164h-1.8A2.165,2.165,0,0,0,35.425,39.1,1.092,1.092,0,0,1,34.7,40.13a11.323,11.323,0,0,0-1.442.6A1.1,1.1,0,0,1,32,40.533a2.162,2.162,0,0,0-3.078,0l-1.277,1.277a2.165,2.165,0,0,0,0,3.081,1.1,1.1,0,0,1,.2,1.26,12.069,12.069,0,0,0-.606,1.444,1.087,1.087,0,0,1-1.03.719,2.165,2.165,0,0,0-2.164,2.164v1.8a2.163,2.163,0,0,0,2.164,2.164,1.086,1.086,0,0,1,1.03.722,13.72,13.72,0,0,0,.6,1.442,1.1,1.1,0,0,1-.195,1.263,2.162,2.162,0,0,0,0,3.078l1.277,1.277a2.162,2.162,0,0,0,3.078,0,1.1,1.1,0,0,1,1.263-.195,12.66,12.66,0,0,0,1.442.6,1.086,1.086,0,0,1,.722,1.03,2.163,2.163,0,0,0,2.164,2.164h1.8a2.165,2.165,0,0,0,2.164-2.164,1.087,1.087,0,0,1,.719-1.03,11.241,11.241,0,0,0,1.444-.606,1.1,1.1,0,0,1,1.26.2,2.165,2.165,0,0,0,3.081,0l1.277-1.277a2.162,2.162,0,0,0,0-3.078,1.1,1.1,0,0,1-.2-1.263,12.218,12.218,0,0,0,.606-1.442,1.1,1.1,0,0,1,1.033-.722,2.165,2.165,0,0,0,2.164-2.164v-1.8a2.165,2.165,0,0,0-2.164-2.185ZM38.433,58.8a7.421,7.421,0,1,1,7.422-7.422A7.423,7.423,0,0,1,38.433,58.8Zm0-50.125v0a10.167,10.167,0,1,0,7.178,2.978,10.156,10.156,0,0,0-7.178-2.978ZM34.56,22.7a.532.532,0,0,1,0,.765.511.511,0,0,1-.381.16.543.543,0,0,1-.384-.16,6.561,6.561,0,0,1,0-9.269.542.542,0,0,1,.765,0,.532.532,0,0,1,0,.765,5.472,5.472,0,0,0,0,7.738Zm4.414.484a.541.541,0,1,1-1.082,0v-.554a.541.541,0,1,1,1.082,0Zm0-2.653a.541.541,0,1,1-1.082,0V14.474a.541.541,0,1,1,1.082,0Zm4.1,2.935a.543.543,0,0,1-.384.16.511.511,0,0,1-.381-.16.532.532,0,0,1,0-.765,5.472,5.472,0,0,0,0-7.738.532.532,0,0,1,0-.765.542.542,0,0,1,.765,0,6.561,6.561,0,0,1,0,9.269ZM22.565,32.584a4.227,4.227,0,1,0,4.227,4.227,4.222,4.222,0,0,0-4.227-4.227Zm0,6.391A2.165,2.165,0,0,1,20.4,36.812a.541.541,0,0,1,1.082,0,1.082,1.082,0,0,0,1.082,1.082.541.541,0,1,1,0,1.082ZM24.2,37.352a.543.543,0,0,1-.541-.541,1.1,1.1,0,0,0-1.09-1.09.541.541,0,1,1,0-1.082A2.165,2.165,0,0,1,24.728,36.8a.547.547,0,0,1-.5.549Zm.671,8.005a.583.583,0,0,1,.411-.554c.246-.087.49-.195.722-.3a3.275,3.275,0,0,1,.719-3.513L28,39.7a3.26,3.26,0,0,1,2.345-.974,3.309,3.309,0,0,1,1.3.276,1.671,1.671,0,0,0,1.174-1.588V36.184a1.673,1.673,0,0,0-1.671-1.674.6.6,0,0,1-.563-.411,7.849,7.849,0,0,0-.427-1.022.61.61,0,0,1,.108-.687,1.659,1.659,0,0,0,0-2.364l-.887-.887a1.659,1.659,0,0,0-2.364,0,.6.6,0,0,1-.722.108,7.728,7.728,0,0,0-1.025-.427.606.606,0,0,1-.411-.563,1.673,1.673,0,0,0-1.671-1.671h-1.22a1.673,1.673,0,0,0-1.674,1.671.6.6,0,0,1-.4.563,7.069,7.069,0,0,0-1.025.427.6.6,0,0,1-.684-.108,1.668,1.668,0,0,0-2.372,0l-.887.887a1.668,1.668,0,0,0,0,2.364.6.6,0,0,1,.108.687,9.985,9.985,0,0,0-.4,1.022.583.583,0,0,1-.554.411A1.684,1.684,0,0,0,12.4,36.184v1.255a1.684,1.684,0,0,0,1.682,1.674.594.594,0,0,1,.554.4,10.062,10.062,0,0,0,.425,1.03.575.575,0,0,1-.108.679,1.688,1.688,0,0,0,0,2.372l.86.9a1.688,1.688,0,0,0,2.372,0,.58.58,0,0,1,.684-.108,8.261,8.261,0,0,0,1.025.425.594.594,0,0,1,.4.554,1.684,1.684,0,0,0,1.674,1.682h1.255a1.681,1.681,0,0,0,1.674-1.7Zm-7.581-8.547a5.309,5.309,0,1,1,5.279,5.309A5.309,5.309,0,0,1,17.286,36.811ZM54.3,32.584a4.228,4.228,0,1,0,4.225,4.227A4.228,4.228,0,0,0,54.3,32.584Zm0,6.391a2.163,2.163,0,0,1-2.164-2.164.541.541,0,1,1,1.082,0A1.087,1.087,0,0,0,54.3,37.893a.541.541,0,1,1,0,1.082Zm1.623-1.623a.546.546,0,0,1-.541-.541,1.092,1.092,0,0,0-1.082-1.09.541.541,0,0,1,0-1.082A2.167,2.167,0,0,1,56.464,36.8a.546.546,0,0,1-.168.4.535.535,0,0,1-.4.151Zm6.924-2.843a.584.584,0,0,1-.557-.411,8.855,8.855,0,0,0-.425-1.022.591.591,0,0,1,.108-.687,1.678,1.678,0,0,0,0-2.364l-.917-.887a1.668,1.668,0,0,0-2.372,0,.579.579,0,0,1-.679.108,7.45,7.45,0,0,0-1.03-.427.6.6,0,0,1-.4-.563A1.673,1.673,0,0,0,54.9,26.585H53.644a1.673,1.673,0,0,0-1.674,1.671.6.6,0,0,1-.411.563,7.85,7.85,0,0,0-1.022.427.611.611,0,0,1-.722-.108,1.662,1.662,0,0,0-2.366,0l-.887.887a1.673,1.673,0,0,0,0,2.364.591.591,0,0,1,.108.687,7.832,7.832,0,0,0-.425,1.022.6.6,0,0,1-.563.411,1.674,1.674,0,0,0-1.674,1.674v1.255a1.677,1.677,0,0,0,1.176,1.588,3.3,3.3,0,0,1,1.3-.276,3.249,3.249,0,0,1,2.307.952l1.277,1.285a3.266,3.266,0,0,1,.722,3.513c.238.108.484.216.722.3a.586.586,0,0,1,.411.554,1.678,1.678,0,0,0,1.671,1.68h1.255a1.68,1.68,0,0,0,1.674-1.68.591.591,0,0,1,.4-.554,8.391,8.391,0,0,0,1.033-.427.584.584,0,0,1,.676.108,1.686,1.686,0,0,0,2.375,0L61.9,43.6a1.688,1.688,0,0,0,0-2.372.575.575,0,0,1-.108-.679,8.71,8.71,0,0,0,.446-1.03.594.594,0,0,1,.554-.4,1.684,1.684,0,0,0,1.682-1.674V36.183a1.683,1.683,0,0,0-1.652-1.674ZM54.3,42.12a5.309,5.309,0,1,1,5.307-5.309A5.314,5.314,0,0,1,54.3,42.12Z" transform="translate(-12.396 -8.676)" fill="#069"/>
</svg>
