<svg xmlns="http://www.w3.org/2000/svg" width="49.733" height="57.185" viewBox="0 0 49.733 57.185">
  <g id="noun-schedule-5657313" transform="translate(-136.399 -34.401)">
    <path id="Path_14316" data-name="Path 14316" d="M171.378,62.078a14.754,14.754,0,1,0,14.754,14.754,14.77,14.77,0,0,0-14.754-14.754Zm6.449,16.64h-6.449a1.885,1.885,0,0,1-1.885-1.885V68.32a1.885,1.885,0,1,1,3.769,0v6.629h4.565a1.885,1.885,0,1,1,0,3.769ZM173.775,39.9h-4.141V36.472a2.071,2.071,0,0,1,4.142,0V39.9Zm-23.476,0h-4.142V36.472a2.071,2.071,0,0,1,4.142,0V39.9Zm2.669,38.985-.019-.166h-6.219a1.885,1.885,0,1,1,0-3.769h6.219l.019-.166a18.421,18.421,0,0,1,2.948-8.14l.191-.289h-9.377a1.884,1.884,0,1,1,0-3.769h12.822l.052-.043a18.485,18.485,0,0,1,23.621.066l.306.256V46.823a5.927,5.927,0,0,0-5.92-5.921H173.59v1.9a1.885,1.885,0,1,1-3.769,0V40.9H150.112v1.9a1.885,1.885,0,1,1-3.769,0V40.9h-4.024a5.927,5.927,0,0,0-5.92,5.921V82.114a5.927,5.927,0,0,0,5.92,5.921h14.314l-.217-.3a18.438,18.438,0,0,1-3.448-8.857Zm-6.237-28.662H173.2a1.885,1.885,0,1,1,0,3.769H146.731a1.885,1.885,0,0,1,0-3.769Z" fill="#069"/>
  </g>
</svg>
