<svg xmlns="http://www.w3.org/2000/svg" width="63.367" height="60.356" viewBox="0 0 63.367 60.356">
  <g id="noun-scope-4193455" transform="translate(-70.031 -36.669)">
    <path id="Path_15388" data-name="Path 15388" d="M135.105,77.4H123.68V73.912h3.462a.5.5,0,0,0,.5-.5V66.556a.5.5,0,0,0-.5-.5H123.68V37.17a.5.5,0,1,0-1,0V66.055H109.8V37.17a.5.5,0,0,0-1,0V66.055H95.923V62.564h3.861a.5.5,0,0,0,.5-.5V55.209a.5.5,0,0,0-.5-.5H95.924V37.171a.5.5,0,1,0-1,0V54.708H82.046V51.217h7.232a.5.5,0,0,0,.5-.5V43.861a.5.5,0,0,0-.5-.5H82.046V37.171a.5.5,0,1,0-1,0V43.36H73.023a.5.5,0,0,0-.5.5v6.855a.5.5,0,0,0,.5.5h8.025v3.491H76.789a.5.5,0,0,0-.5.5v6.855a.5.5,0,0,0,.5.5h4.255V91.49a.5.5,0,1,0,1,0V62.564H94.922v3.491H90.865a.5.5,0,0,0-.5.5v6.855a.5.5,0,0,0,.5.5h4.058V91.49a.5.5,0,0,0,1,0V73.912H108.8V77.4h-3.462a.5.5,0,0,0-.5.5v6.855a.5.5,0,0,0,.5.5H108.8v6.23a.5.5,0,1,0,1,0V85.26h12.876v6.23a.5.5,0,1,0,1,0V85.26h11.426a.5.5,0,0,0,.5-.5V77.9a.5.5,0,0,0-.5-.5Zm-25.3-3.491h12.876V77.4H109.8Z" transform="translate(-2.208)" fill="#069"/>
    <g id="Group_11711" data-name="Group 11711" transform="translate(70.038 96.623)">
      <path id="Path_15389" data-name="Path 15389" d="M.222-1.2.2-1.191a.079.079,0,0,1-.023,0,.081.081,0,0,1-.06-.021.076.076,0,0,1-.021-.057.077.077,0,0,1,.021-.057.081.081,0,0,1,.06-.021.079.079,0,0,1,.023,0,.082.082,0,0,1,.023.007V-1.3L.2-1.312a.079.079,0,0,0-.023,0A.04.04,0,0,0,.145-1.3a.048.048,0,0,0-.012.036.053.053,0,0,0,.012.037.042.042,0,0,0,.032.012.066.066,0,0,0,.023,0A.08.08,0,0,0,.222-1.23Z" transform="translate(-0.094 1.344)" fill="#069"/>
    </g>
    <g id="Group_11712" data-name="Group 11712" transform="translate(70.196 96.66)">
      <path id="Path_15390" data-name="Path 15390" d="M.24-.982l-.011,0-.009,0A.025.025,0,0,0,.2-.978a.042.042,0,0,0-.007.027V-.9H.156v-.112H.192v.018A.046.046,0,0,1,.208-1.01a.04.04,0,0,1,.021-.005H.24Z" transform="translate(-0.156 1.016)" fill="#069"/>
    </g>
    <g id="Group_11713" data-name="Group 11713" transform="translate(70.288 96.66)">
      <path id="Path_15391" data-name="Path 15391" d="M.2-.957v.011H.115a.025.025,0,0,0,.007.02.043.043,0,0,0,.023.005.066.066,0,0,0,.023,0L.194-.934v.027A.091.091,0,0,1,.167-.9a.1.1,0,0,1-.025,0A.068.068,0,0,1,.094-.913.06.06,0,0,1,.078-.957.058.058,0,0,1,.094-1,.066.066,0,0,1,.14-1.016.058.058,0,0,1,.183-1,.058.058,0,0,1,.2-.957ZM.162-.969A.018.018,0,0,0,.154-.984.018.018,0,0,0,.14-.991a.028.028,0,0,0-.018.005.027.027,0,0,0-.007.016Z" transform="translate(-0.078 1.016)" fill="#069"/>
    </g>
    <g id="Group_11714" data-name="Group 11714" transform="translate(70.428 96.66)">
      <path id="Path_15392" data-name="Path 15392" d="M.137-.952a.028.028,0,0,0-.018.005.013.013,0,0,0-.005.011.012.012,0,0,0,.005.011.02.02,0,0,0,.012,0A.024.024,0,0,0,.149-.929.025.025,0,0,0,.156-.946V-.952ZM.192-.964V-.9H.156V-.916A.05.05,0,0,1,.139-.9.042.042,0,0,1,.117-.9.038.038,0,0,1,.089-.907.036.036,0,0,1,.078-.934.033.033,0,0,1,.091-.962.073.073,0,0,1,.135-.973H.156v0A.014.014,0,0,0,.149-.987a.053.053,0,0,0-.021,0l-.021,0a.04.04,0,0,0-.018.007V-1.01l.021,0,.025,0A.061.061,0,0,1,.178-1,.05.05,0,0,1,.192-.964Z" transform="translate(-0.078 1.016)" fill="#069"/>
    </g>
    <g id="Group_11715" data-name="Group 11715" transform="translate(70.561 96.632)">
      <path id="Path_15393" data-name="Path 15393" d="M.085-1.266v.032H.122v.025H.085v.048a.022.022,0,0,0,0,.011.034.034,0,0,0,.014,0H.118v.027H.088a.04.04,0,0,1-.03-.009.04.04,0,0,1-.009-.03v-.048H.031v-.025H.049v-.032Z" transform="translate(-0.031 1.266)" fill="#069"/>
    </g>
    <g id="Group_11716" data-name="Group 11716" transform="translate(70.664 96.66)">
      <path id="Path_15394" data-name="Path 15394" d="M.2-.957v.011H.115a.025.025,0,0,0,.007.02.043.043,0,0,0,.023.005.066.066,0,0,0,.023,0L.194-.934v.027A.091.091,0,0,1,.167-.9a.1.1,0,0,1-.025,0A.068.068,0,0,1,.094-.913.06.06,0,0,1,.078-.957.058.058,0,0,1,.094-1,.066.066,0,0,1,.14-1.016.058.058,0,0,1,.183-1,.058.058,0,0,1,.2-.957ZM.162-.969A.018.018,0,0,0,.154-.984.018.018,0,0,0,.14-.991a.028.028,0,0,0-.018.005.027.027,0,0,0-.007.016Z" transform="translate(-0.078 1.016)" fill="#069"/>
    </g>
    <g id="Group_11717" data-name="Group 11717" transform="translate(70.804 96.619)">
      <path id="Path_15395" data-name="Path 15395" d="M.163-1.315v-.06H.2v.156H.163v-.016a.059.059,0,0,1-.016.014.042.042,0,0,1-.021.005.045.045,0,0,1-.036-.016.074.074,0,0,1-.012-.044.064.064,0,0,1,.012-.041.044.044,0,0,1,.036-.018.042.042,0,0,1,.021.005.039.039,0,0,1,.016.014ZM.14-1.242a.017.017,0,0,0,.016-.009.04.04,0,0,0,.007-.025A.033.033,0,0,0,.156-1.3.018.018,0,0,0,.14-1.308a.023.023,0,0,0-.02.009.039.039,0,0,0-.005.023.048.048,0,0,0,.005.025A.022.022,0,0,0,.14-1.242Z" transform="translate(-0.078 1.375)" fill="#069"/>
    </g>
    <g id="Group_11718" data-name="Group 11718" transform="translate(71.031 96.619)">
      <path id="Path_15396" data-name="Path 15396" d="M.217-1.242a.017.017,0,0,0,.016-.009A.04.04,0,0,0,.24-1.276.033.033,0,0,0,.233-1.3a.018.018,0,0,0-.016-.009A.023.023,0,0,0,.2-1.3a.039.039,0,0,0-.005.023A.048.048,0,0,0,.2-1.251.022.022,0,0,0,.217-1.242ZM.192-1.315a.035.035,0,0,1,.016-.014.04.04,0,0,1,.021-.005.04.04,0,0,1,.034.018.06.06,0,0,1,.014.041.069.069,0,0,1-.014.044.041.041,0,0,1-.034.016A.04.04,0,0,1,.208-1.22a.049.049,0,0,1-.016-.014v.016H.156v-.156H.192Z" transform="translate(-0.156 1.375)" fill="#069"/>
    </g>
    <g id="Group_11719" data-name="Group 11719" transform="translate(71.162 96.664)">
      <path id="Path_15397" data-name="Path 15397" d="M.016-.984H.053l.03.076L.108-.984H.145L.1-.862A.055.055,0,0,1,.08-.835a.041.041,0,0,1-.025.007H.035V-.851H.046a.019.019,0,0,0,.012,0A.02.02,0,0,0,.065-.865l0,0Z" transform="translate(-0.016 0.984)" fill="#069"/>
    </g>
    <g id="Group_11720" data-name="Group 11720" transform="translate(71.38 96.623)">
      <path id="Path_15398" data-name="Path 15398" d="M.233-1.337V-1.3A.082.082,0,0,0,.21-1.312a.091.091,0,0,0-.023,0,.045.045,0,0,0-.02,0A.013.013,0,0,0,.161-1.3a.011.011,0,0,0,0,.009.036.036,0,0,0,.018.005l.016,0a.072.072,0,0,1,.036.016.036.036,0,0,1,.011.028A.044.044,0,0,1,.228-1.2a.066.066,0,0,1-.044.012.122.122,0,0,1-.028,0A.107.107,0,0,1,.127-1.2v-.034l.027.012a.1.1,0,0,0,.027,0,.042.042,0,0,0,.02,0,.016.016,0,0,0,.007-.012A.013.013,0,0,0,.2-1.242.027.027,0,0,0,.184-1.25l-.014,0a.068.068,0,0,1-.034-.016A.038.038,0,0,1,.125-1.3a.039.039,0,0,1,.014-.034.069.069,0,0,1,.043-.012l.025,0,.027.005Z" transform="translate(-0.125 1.344)" fill="#069"/>
    </g>
    <g id="Group_11721" data-name="Group 11721" transform="translate(71.515 96.625)">
      <path id="Path_15399" data-name="Path 15399" d="M.124-1.2H.064l-.011.027H.016l.055-.151H.117l.055.151H.133ZM.072-1.232H.113l-.02-.06Z" transform="translate(-0.016 1.328)" fill="#069"/>
    </g>
    <g id="Group_11722" data-name="Group 11722" transform="translate(71.692 96.625)">
      <path id="Path_15400" data-name="Path 15400" d="M.172-1.328H.22l.036.082.034-.082h.05v.151H.3v-.11l-.034.082H.243L.207-1.287v.11H.172Z" transform="translate(-0.172 1.328)" fill="#069"/>
    </g>
    <g id="Group_11723" data-name="Group 11723" transform="translate(71.968 96.625)">
      <path id="Path_15401" data-name="Path 15401" d="M.209-1.3v.092H.223a.051.051,0,0,0,.037-.012.046.046,0,0,0,.012-.034.044.044,0,0,0-.012-.034A.052.052,0,0,0,.223-1.3Zm-.037-.03H.213a.171.171,0,0,1,.05.005.086.086,0,0,1,.03.016.091.091,0,0,1,.014.025.078.078,0,0,1,.005.03.085.085,0,0,1-.005.03A.1.1,0,0,1,.293-1.2a.072.072,0,0,1-.03.018.232.232,0,0,1-.05,0H.172Z" transform="translate(-0.172 1.328)" fill="#069"/>
    </g>
    <g id="Group_11724" data-name="Group 11724" transform="translate(72.128 96.66)">
      <path id="Path_15402" data-name="Path 15402" d="M.2-.957v.011H.115a.025.025,0,0,0,.007.02.043.043,0,0,0,.023.005.066.066,0,0,0,.023,0L.194-.934v.027A.091.091,0,0,1,.167-.9a.1.1,0,0,1-.025,0A.068.068,0,0,1,.094-.913.06.06,0,0,1,.078-.957.058.058,0,0,1,.094-1,.066.066,0,0,1,.14-1.016.058.058,0,0,1,.183-1,.058.058,0,0,1,.2-.957ZM.162-.969A.018.018,0,0,0,.154-.984.018.018,0,0,0,.14-.991a.028.028,0,0,0-.018.005.027.027,0,0,0-.007.016Z" transform="translate(-0.078 1.016)" fill="#069"/>
    </g>
    <g id="Group_11725" data-name="Group 11725" transform="translate(72.269 96.66)">
      <path id="Path_15403" data-name="Path 15403" d="M.188-1.009v.027A.08.08,0,0,0,.167-.989l-.021,0-.014,0a.007.007,0,0,0-.005.007s0,.006,0,.007l.014,0,.005,0a.073.073,0,0,1,.037.012A.026.026,0,0,1,.2-.934a.034.034,0,0,1-.014.028A.07.07,0,0,1,.143-.9L.119-.9.1-.9V-.932l.021.009.023,0,.016,0A.01.01,0,0,0,.161-.932a.008.008,0,0,0,0-.007.022.022,0,0,0-.014,0l-.007,0A.081.081,0,0,1,.1-.955.032.032,0,0,1,.094-.98a.031.031,0,0,1,.012-.027.064.064,0,0,1,.037-.009l.021,0,.023.005Z" transform="translate(-0.094 1.016)" fill="#069"/>
    </g>
    <g id="Group_11726" data-name="Group 11726" transform="translate(72.398 96.619)">
      <path id="Path_15404" data-name="Path 15404" d="M.156-1.331H.192v.112H.156Zm0-.044H.192v.028H.156Z" transform="translate(-0.156 1.375)" fill="#069"/>
    </g>
    <g id="Group_11727" data-name="Group 11727" transform="translate(72.46 96.66)">
      <path id="Path_15405" data-name="Path 15405" d="M.163-.92A.055.055,0,0,1,.147-.9a.054.054,0,0,1-.021,0A.045.045,0,0,1,.091-.916.063.063,0,0,1,.078-.957.067.067,0,0,1,.091-1a.045.045,0,0,1,.036-.016.042.042,0,0,1,.021.005A.039.039,0,0,1,.163-1v-.016H.2v.1A.051.051,0,0,1,.181-.87a.071.071,0,0,1-.048.014l-.021,0L.092-.863V-.89A.055.055,0,0,0,.11-.882a.055.055,0,0,0,.02,0A.031.031,0,0,0,.154-.888.028.028,0,0,0,.163-.911ZM.14-.989a.023.023,0,0,0-.02.009.039.039,0,0,0-.005.023.043.043,0,0,0,.005.023.025.025,0,0,0,.02.007A.018.018,0,0,0,.156-.934.037.037,0,0,0,.163-.957.033.033,0,0,0,.156-.98.018.018,0,0,0,.14-.989Z" transform="translate(-0.078 1.016)" fill="#069"/>
    </g>
    <g id="Group_11728" data-name="Group 11728" transform="translate(72.616 96.66)">
      <path id="Path_15406" data-name="Path 15406" d="M.27-.969V-.9H.233V-.953a.087.087,0,0,0,0-.02.013.013,0,0,0,0-.007L.224-.985a.012.012,0,0,0-.007,0A.023.023,0,0,0,.2-.98a.049.049,0,0,0-.005.025V-.9H.156v-.112H.192V-1A.046.046,0,0,1,.209-1.01a.037.037,0,0,1,.02-.005A.039.039,0,0,1,.259-1,.05.05,0,0,1,.27-.969Z" transform="translate(-0.156 1.016)" fill="#069"/>
    </g>
    <g id="Group_11729" data-name="Group 11729" transform="translate(72.755 96.66)">
      <path id="Path_15407" data-name="Path 15407" d="M.188-1.009v.027A.08.08,0,0,0,.167-.989l-.021,0-.014,0a.007.007,0,0,0-.005.007s0,.006,0,.007l.014,0,.005,0a.073.073,0,0,1,.037.012A.026.026,0,0,1,.2-.934a.034.034,0,0,1-.014.028A.07.07,0,0,1,.143-.9L.119-.9.1-.9V-.932l.021.009.023,0,.016,0A.01.01,0,0,0,.161-.932a.008.008,0,0,0,0-.007.022.022,0,0,0-.014,0l-.007,0A.081.081,0,0,1,.1-.955.032.032,0,0,1,.094-.98a.031.031,0,0,1,.012-.027.064.064,0,0,1,.037-.009l.021,0,.023.005Z" transform="translate(-0.094 1.016)" fill="#069"/>
    </g>
    <g id="Group_11730" data-name="Group 11730" transform="translate(70.031 96.825)">
      <path id="Path_15408" data-name="Path 15408" d="M.118-1.375v.023H.1a.015.015,0,0,0-.011,0,.014.014,0,0,0,0,.009v.009h.03v.025H.086v.087H.049v-.087H.031v-.025H.049v-.009A.034.034,0,0,1,.06-1.366a.05.05,0,0,1,.032-.009Z" transform="translate(-0.031 1.375)" fill="#069"/>
    </g>
    <g id="Group_11731" data-name="Group 11731" transform="translate(70.135 96.866)">
      <path id="Path_15409" data-name="Path 15409" d="M.24-.982l-.011,0-.009,0A.025.025,0,0,0,.2-.978a.042.042,0,0,0-.007.027V-.9H.156v-.112H.192v.018A.046.046,0,0,1,.208-1.01a.04.04,0,0,1,.021-.005H.24Z" transform="translate(-0.156 1.016)" fill="#069"/>
    </g>
    <g id="Group_11732" data-name="Group 11732" transform="translate(70.227 96.866)">
      <path id="Path_15410" data-name="Path 15410" d="M.14-.989a.023.023,0,0,0-.02.009.039.039,0,0,0-.005.023.048.048,0,0,0,.005.025.022.022,0,0,0,.02.009A.019.019,0,0,0,.158-.932.04.04,0,0,0,.165-.957.033.033,0,0,0,.158-.98.02.02,0,0,0,.14-.989Zm0-.027A.06.06,0,0,1,.185-1,.056.056,0,0,1,.2-.957a.057.057,0,0,1-.018.044A.06.06,0,0,1,.14-.9.066.066,0,0,1,.094-.913.06.06,0,0,1,.078-.957.058.058,0,0,1,.094-1,.066.066,0,0,1,.14-1.016Z" transform="translate(-0.078 1.016)" fill="#069"/>
    </g>
    <g id="Group_11733" data-name="Group 11733" transform="translate(70.377 96.866)">
      <path id="Path_15411" data-name="Path 15411" d="M.261-.994A.036.036,0,0,1,.275-1.01.047.047,0,0,1,.3-1.016.039.039,0,0,1,.327-1a.05.05,0,0,1,.011.034V-.9H.3V-.966a.036.036,0,0,0,0-.018A.013.013,0,0,0,.286-.989.018.018,0,0,0,.27-.98a.049.049,0,0,0-.005.025V-.9H.227V-.959a.056.056,0,0,0,0-.025s0-.005-.011-.005A.018.018,0,0,0,.2-.98a.049.049,0,0,0-.005.025V-.9H.156v-.112H.192V-1A.039.039,0,0,1,.206-1.01a.037.037,0,0,1,.02-.005.042.042,0,0,1,.021.005.039.039,0,0,1,.014.016Z" transform="translate(-0.156 1.016)" fill="#069"/>
    </g>
    <g id="Group_11734" data-name="Group 11734" transform="translate(70.648 96.837)">
      <path id="Path_15412" data-name="Path 15412" d="M.085-1.266v.032H.122v.025H.085v.048a.022.022,0,0,0,0,.011.034.034,0,0,0,.014,0H.118v.027H.088a.04.04,0,0,1-.03-.009.04.04,0,0,1-.009-.03v-.048H.031v-.025H.049v-.032Z" transform="translate(-0.031 1.266)" fill="#069"/>
    </g>
    <g id="Group_11735" data-name="Group 11735" transform="translate(70.761 96.825)">
      <path id="Path_15413" data-name="Path 15413" d="M.27-1.288v.069H.233V-1.27a.1.1,0,0,0,0-.021.013.013,0,0,0,0-.007L.224-1.3a.012.012,0,0,0-.007,0A.023.023,0,0,0,.2-1.3a.049.049,0,0,0-.005.025v.055H.156v-.156H.192v.06a.046.046,0,0,1,.018-.014.037.037,0,0,1,.02-.005.039.039,0,0,1,.03.012.05.05,0,0,1,.011.034Z" transform="translate(-0.156 1.375)" fill="#069"/>
    </g>
    <g id="Group_11736" data-name="Group 11736" transform="translate(70.898 96.866)">
      <path id="Path_15414" data-name="Path 15414" d="M.2-.957v.011H.115a.025.025,0,0,0,.007.02.043.043,0,0,0,.023.005.066.066,0,0,0,.023,0L.194-.934v.027A.091.091,0,0,1,.167-.9a.1.1,0,0,1-.025,0A.068.068,0,0,1,.094-.913.06.06,0,0,1,.078-.957.058.058,0,0,1,.094-1,.066.066,0,0,1,.14-1.016.058.058,0,0,1,.183-1,.058.058,0,0,1,.2-.957ZM.162-.969A.018.018,0,0,0,.154-.984.018.018,0,0,0,.14-.991a.028.028,0,0,0-.018.005.027.027,0,0,0-.007.016Z" transform="translate(-0.078 1.016)" fill="#069"/>
    </g>
    <g id="Group_11737" data-name="Group 11737" transform="translate(71.12 96.83)">
      <path id="Path_15415" data-name="Path 15415" d="M.172-1.328H.215l.055.1v-.1H.305v.151H.262l-.055-.1v.1H.172Z" transform="translate(-0.172 1.328)" fill="#069"/>
    </g>
    <g id="Group_11738" data-name="Group 11738" transform="translate(71.281 96.866)">
      <path id="Path_15416" data-name="Path 15416" d="M.14-.989a.023.023,0,0,0-.02.009.039.039,0,0,0-.005.023.048.048,0,0,0,.005.025.022.022,0,0,0,.02.009A.019.019,0,0,0,.158-.932.04.04,0,0,0,.165-.957.033.033,0,0,0,.158-.98.02.02,0,0,0,.14-.989Zm0-.027A.06.06,0,0,1,.185-1,.056.056,0,0,1,.2-.957a.057.057,0,0,1-.018.044A.06.06,0,0,1,.14-.9.066.066,0,0,1,.094-.913.06.06,0,0,1,.078-.957.058.058,0,0,1,.094-1,.066.066,0,0,1,.14-1.016Z" transform="translate(-0.078 1.016)" fill="#069"/>
    </g>
    <g id="Group_11739" data-name="Group 11739" transform="translate(71.429 96.869)">
      <path id="Path_15417" data-name="Path 15417" d="M.141-.917V-.984H.176v.073A.013.013,0,0,0,.18-.9.008.008,0,0,0,.185-.9l.009,0A.024.024,0,0,0,.212-.9.04.04,0,0,0,.219-.929V-.984H.254v.112H.219V-.888A.1.1,0,0,1,.2-.874a.038.038,0,0,1-.02.005.037.037,0,0,1-.03-.012A.052.052,0,0,1,.141-.917Z" transform="translate(-0.141 0.984)" fill="#069"/>
    </g>
    <g id="Group_11740" data-name="Group 11740" transform="translate(71.577 96.866)">
      <path id="Path_15418" data-name="Path 15418" d="M.27-.969V-.9H.233V-.953a.087.087,0,0,0,0-.02.013.013,0,0,0,0-.007L.224-.985a.012.012,0,0,0-.007,0A.023.023,0,0,0,.2-.98a.049.049,0,0,0-.005.025V-.9H.156v-.112H.192V-1A.046.046,0,0,1,.209-1.01a.037.037,0,0,1,.02-.005A.039.039,0,0,1,.259-1,.05.05,0,0,1,.27-.969Z" transform="translate(-0.156 1.016)" fill="#069"/>
    </g>
    <g id="Group_11741" data-name="Group 11741" transform="translate(71.796 96.83)">
      <path id="Path_15419" data-name="Path 15419" d="M.172-1.328H.236a.059.059,0,0,1,.043.014.043.043,0,0,1,.016.036.047.047,0,0,1-.016.037.063.063,0,0,1-.043.012H.209v.052H.172ZM.209-1.3v.043H.232a.022.022,0,0,0,.016-.005.02.02,0,0,0,.007-.016.02.02,0,0,0-.007-.016A.022.022,0,0,0,.232-1.3Z" transform="translate(-0.172 1.328)" fill="#069"/>
    </g>
    <g id="Group_11742" data-name="Group 11742" transform="translate(71.945 96.866)">
      <path id="Path_15420" data-name="Path 15420" d="M.24-.982l-.011,0-.009,0A.025.025,0,0,0,.2-.978a.042.042,0,0,0-.007.027V-.9H.156v-.112H.192v.018A.046.046,0,0,1,.208-1.01a.04.04,0,0,1,.021-.005H.24Z" transform="translate(-0.156 1.016)" fill="#069"/>
    </g>
    <g id="Group_11743" data-name="Group 11743" transform="translate(72.037 96.866)">
      <path id="Path_15421" data-name="Path 15421" d="M.14-.989a.023.023,0,0,0-.02.009.039.039,0,0,0-.005.023.048.048,0,0,0,.005.025.022.022,0,0,0,.02.009A.019.019,0,0,0,.158-.932.04.04,0,0,0,.165-.957.033.033,0,0,0,.158-.98.02.02,0,0,0,.14-.989Zm0-.027A.06.06,0,0,1,.185-1,.056.056,0,0,1,.2-.957a.057.057,0,0,1-.018.044A.06.06,0,0,1,.14-.9.066.066,0,0,1,.094-.913.06.06,0,0,1,.078-.957.058.058,0,0,1,.094-1,.066.066,0,0,1,.14-1.016Z" transform="translate(-0.078 1.016)" fill="#069"/>
    </g>
    <g id="Group_11744" data-name="Group 11744" transform="translate(72.163 96.825)">
      <path id="Path_15422" data-name="Path 15422" d="M-.038-1.331H0v.11a.047.047,0,0,1-.011.034.041.041,0,0,1-.032.012H-.062V-1.2h.007A.014.014,0,0,0-.043-1.2s.005-.008.005-.018Zm0-.044H0v.028H-.038Z" transform="translate(0.063 1.375)" fill="#069"/>
    </g>
    <g id="Group_11745" data-name="Group 11745" transform="translate(72.249 96.866)">
      <path id="Path_15423" data-name="Path 15423" d="M.2-.957v.011H.115a.025.025,0,0,0,.007.02.043.043,0,0,0,.023.005.066.066,0,0,0,.023,0L.194-.934v.027A.091.091,0,0,1,.167-.9a.1.1,0,0,1-.025,0A.068.068,0,0,1,.094-.913.06.06,0,0,1,.078-.957.058.058,0,0,1,.094-1,.066.066,0,0,1,.14-1.016.058.058,0,0,1,.183-1,.058.058,0,0,1,.2-.957ZM.162-.969A.018.018,0,0,0,.154-.984.018.018,0,0,0,.14-.991a.028.028,0,0,0-.018.005.027.027,0,0,0-.007.016Z" transform="translate(-0.078 1.016)" fill="#069"/>
    </g>
    <g id="Group_11746" data-name="Group 11746" transform="translate(72.388 96.866)">
      <path id="Path_15424" data-name="Path 15424" d="M.178-1.009V-.98A.047.047,0,0,0,.163-.987l-.016,0A.031.031,0,0,0,.124-.98a.027.027,0,0,0-.009.023.032.032,0,0,0,.009.025.029.029,0,0,0,.023.009l.016,0L.178-.932V-.9L.16-.9.144-.9a.071.071,0,0,1-.05-.016A.06.06,0,0,1,.078-.957.058.058,0,0,1,.094-1a.071.071,0,0,1,.05-.016l.016,0,.018.005Z" transform="translate(-0.078 1.016)" fill="#069"/>
    </g>
    <g id="Group_11747" data-name="Group 11747" transform="translate(72.505 96.837)">
      <path id="Path_15425" data-name="Path 15425" d="M.085-1.266v.032H.122v.025H.085v.048a.022.022,0,0,0,0,.011.034.034,0,0,0,.014,0H.118v.027H.088a.04.04,0,0,1-.03-.009.04.04,0,0,1-.009-.03v-.048H.031v-.025H.049v-.032Z" transform="translate(-0.031 1.266)" fill="#069"/>
    </g>
  </g>
</svg>
