<svg xmlns="http://www.w3.org/2000/svg" width="51.45" height="58.356" viewBox="0 0 51.45 58.356">
  <g id="noun-security-2968141" transform="translate(-8.818 -3.626)">
    <g id="Group_15182" data-name="Group 15182" transform="translate(8.818 3.626)">
      <g id="Group_15180" data-name="Group 15180" transform="translate(3.401 3.815)">
        <g id="Group_15178" data-name="Group 15178">
          <path id="Path_16911" data-name="Path 16911" d="M57.662,15.867l-21.406-6.5-21.405,6.5S7.162,52.41,36.256,60.1C65.349,52.409,57.662,15.867,57.662,15.867ZM36.256,47.4A13.451,13.451,0,1,1,49.707,33.953,13.451,13.451,0,0,1,36.256,47.4Z" transform="translate(-13.932 -9.362)" fill="#069"/>
        </g>
        <g id="Group_15179" data-name="Group 15179" transform="translate(12.31 18.647)">
          <path id="Path_16912" data-name="Path 16912" d="M49.967,37.693,39.185,48.475l-5.038-5.038a1,1,0,0,0-1.413,1.413l5.745,5.745a1,1,0,0,0,1.413,0L51.38,39.105a1,1,0,1,0-1.413-1.413Z" transform="translate(-32.442 -37.401)" fill="#069"/>
        </g>
      </g>
      <g id="Group_15181" data-name="Group 15181">
        <path id="Path_16913" data-name="Path 16913" d="M34.543,61.982l-.163-.043c-13.631-3.6-22.193-13.5-24.76-28.609a66.093,66.093,0,0,1,.237-21.856l.078-.37L34.543,3.626,59.151,11.1l.078.37a66.1,66.1,0,0,1,.237,21.856C56.9,48.444,48.337,58.337,34.706,61.939ZM11.039,12.1a65.071,65.071,0,0,0-.152,21.046C13.4,47.862,21.353,57.117,34.543,60.66c13.2-3.547,21.16-12.813,23.663-27.544A64.981,64.981,0,0,0,58.049,12.1L34.543,4.962Z" transform="translate(-8.818 -3.626)" fill="#069"/>
      </g>
    </g>
  </g>
</svg>
