<svg xmlns="http://www.w3.org/2000/svg" width="56.579" height="56.578" viewBox="0 0 56.579 56.578">
  <g id="noun-surveillance-3644777" transform="translate(-102.5 -27.917)">
    <path id="Path_14355" data-name="Path 14355" d="M114.846,66.354V84.5H102.5V33.931a6.175,6.175,0,0,1,12.346,0V57.255h3.765a1.666,1.666,0,0,1,1.163.469,1.581,1.581,0,0,1,.481,1.133v1.029h5.311l3.069-3.136L118.43,51.009a1.463,1.463,0,0,1-.7-.884,1.422,1.422,0,0,1,.15-1.105L119,47.143a.311.311,0,0,1,.189-.142.32.32,0,0,1,.237.031l24.444,13.751a.321.321,0,0,0,.281.015l3.092-1.315a.648.648,0,0,1,.729.155.608.608,0,0,1,.077.724l-2.5,4.22a1.493,1.493,0,0,1-.908.679,1.527,1.527,0,0,1-1.133-.145l-12.087-6.8L126.9,62.928h-6.647v1.826a1.58,1.58,0,0,1-.481,1.133,1.669,1.669,0,0,1-1.163.469h-3.765Zm33.312-1.513a.608.608,0,0,1-.284-.41.6.6,0,0,1,.121-.48l6.5-8.19a.638.638,0,0,1,.828-.143l3.144,1.919a1.218,1.218,0,0,1,.553.756,1.188,1.188,0,0,1-.159.915L153.9,66.917a1.265,1.265,0,0,1-1.716.384l-4.029-2.46ZM158.7,52.964a.6.6,0,0,0,.064-1.084L124.58,32.649a.641.641,0,0,0-.473-.061.625.625,0,0,0-.379.283l-6.27,10.581a.6.6,0,0,0,.229.831l26.149,14.71a.64.64,0,0,0,.561.031l14.308-6.06Z" transform="translate(0 0)" fill="#069" fill-rule="evenodd"/>
  </g>
</svg>
