<svg xmlns="http://www.w3.org/2000/svg" width="15.18" height="15.18" viewBox="0 0 15.18 15.18">
  <g id="Group_12775" data-name="Group 12775" transform="translate(5685.18 3736.59)">
    <path id="Path_456" data-name="Path 456" d="M18.034,17.207l-1.923-1.923,1.923-1.923a.583.583,0,1,0-.825-.825L15.287,14.46l-1.923-1.923a.583.583,0,0,0-.825.825l1.923,1.923-1.923,1.923a.564.564,0,0,0,0,.825.579.579,0,0,0,.825,0l1.923-1.923,1.923,1.923a.586.586,0,0,0,.825,0A.579.579,0,0,0,18.034,17.207Z" transform="translate(-5692.877 -3744.283)" fill="#f65150"/>
    <path id="Path_457" data-name="Path 457" d="M10.965,4.4A6.566,6.566,0,1,1,6.32,6.32,6.525,6.525,0,0,1,10.965,4.4m0-1.022a7.59,7.59,0,1,0,7.59,7.59,7.589,7.589,0,0,0-7.59-7.59Z" transform="translate(-5688.555 -3739.965)" fill="#f65150"/>
  </g>
</svg>
