<svg xmlns="http://www.w3.org/2000/svg" width="67.74" height="66.879" viewBox="0 0 67.74 66.879">
  <g id="Group_2983" data-name="Group 2983" transform="translate(-172.63 -17344)">
    <path id="Path_1836" data-name="Path 1836" d="M129.8,100.725A17.308,17.308,0,0,1,112.6,83.265a16.941,16.941,0,0,1,1.19-6.26H83.6a11.593,11.593,0,0,0-1.948.11,6.546,6.546,0,0,0-5.519,6.37V128.73a7.216,7.216,0,0,0,7.034,7.138h44.042a5.539,5.539,0,0,0,3.463-1.208,7.327,7.327,0,0,0,2.814-6.04V100.286a18.8,18.8,0,0,1-3.679.439ZM93.226,85.79a7.689,7.689,0,1,1-7.467,7.687A7.585,7.585,0,0,1,93.226,85.79Zm33.438,40.3a1.264,1.264,0,0,1-1.082.439H96.365c-2.164,0-4.329,0-6.6-.11h-3.03a24.106,24.106,0,0,1-2.814.11h-.108c-.108,0-.216,0-.216-.11-.649-.439.649-1.318.866-1.647.649-.769,8.008-11.2,8.116-11.311a4.53,4.53,0,0,1,3.787-2.306c2.056,0,3.138,2.2,4.761,3.185,2.164,1.318,3.571-.439,4.545-2.087.757-1.1,1.407-2.306,2.164-3.514.433-.659.866-1.428,1.3-2.087.541-.769.974-1.647,1.515-2.416l.974-1.647c.108-.11.216-.22.216-.329.433-.549.866-.879,1.19-.879s.757.329,1.082.988c3.571,6.479,7.142,13.068,10.713,19.439l1.731,3.075.325.659c-.108.11,0,.329-.216.549Z" transform="translate(96.5 17275.012)" fill="#069"/>
    <path id="Path_1837" data-name="Path 1837" d="M410.438,13.125A14.278,14.278,0,1,0,424.505,27.4,14.145,14.145,0,0,0,410.438,13.125Zm7.9,12.959-1.731,1.537a.326.326,0,0,1-.433,0L412.6,24a.3.3,0,0,0-.541.22V36.845a.289.289,0,0,1-.325.329h-2.381a.289.289,0,0,1-.325-.329V23.777a.3.3,0,0,0-.541-.22l-4.112,4.173a.325.325,0,0,1-.433,0l-1.407-1.757a.338.338,0,0,1,0-.439l7.683-7.8a.326.326,0,0,1,.433,0l7.683,7.8A.505.505,0,0,1,418.337,26.084Z" transform="translate(-184.135 17330.875)" fill="#069"/>
  </g>
</svg>
