<svg id="volume_off_black_24dp" xmlns="http://www.w3.org/2000/svg" width="24" height="24" viewBox="0 0 24 24">
  <path id="Path_442" data-name="Path 442" d="M0,0H24V24H0Z" fill="none"/>
  <path id="Path_443" data-name="Path 443" d="M4.34,2.93,2.93,4.34,7.29,8.7,7,9H3v6H7l5,5V13.41l4.18,4.18A6.711,6.711,0,0,1,14,18.7v2.06a8.94,8.94,0,0,0,3.61-1.75l2.05,2.05,1.41-1.41ZM10,15.17,7.83,13H5V11H7.83l.88-.88L10,11.41ZM19,12a6.975,6.975,0,0,1-.41,2.34l1.53,1.53A8.984,8.984,0,0,0,14,3.23V5.29A7.005,7.005,0,0,1,19,12ZM12,4,10.12,5.88,12,7.76Zm4.5,8A4.5,4.5,0,0,0,14,7.97V9.76l2.48,2.48A1.942,1.942,0,0,0,16.5,12Z" fill="#069"/>
</svg>
