<svg id="Detect_Black" xmlns="http://www.w3.org/2000/svg" width="1367.18" height="763.628" viewBox="0 0 1367.18 763.628">
  <g id="Group_9062" data-name="Group 9062" transform="translate(393.58 297.744)">
    <path id="Path_13769" data-name="Path 13769" d="M671.64,509.59a83.538,83.538,0,0,1,29.14,4.99,63.417,63.417,0,0,1,23.36,14.97,68.979,68.979,0,0,1,15.42,24.95q5.55,14.97,5.56,35.15a112.007,112.007,0,0,1-4.54,32.66,71.917,71.917,0,0,1-13.72,25.85,64.128,64.128,0,0,1-22.91,17.12q-13.725,6.24-32.32,6.24H601.78V509.59h69.85Zm-2.49,131.99a45.829,45.829,0,0,0,14.97-2.49,32.861,32.861,0,0,0,12.93-8.28,41.647,41.647,0,0,0,9.07-15.08q3.405-9.3,3.4-22.68a94.313,94.313,0,0,0-2.38-22.11,44.292,44.292,0,0,0-7.82-16.9,34.734,34.734,0,0,0-14.4-10.77q-8.955-3.735-22.11-3.74h-25.4V641.58h31.75Z" transform="translate(-601.78 -505.73)"/>
    <path id="Path_13770" data-name="Path 13770" d="M907.95,509.59v29.94h-85.5v34.7h78.47V601.9H822.45v39.69h87.31v29.94H786.84V509.6h121.1Z" transform="translate(-601.78 -505.73)"/>
    <path id="Path_13771" data-name="Path 13771" d="M938.12,539.53V509.59h132.67v29.94h-48.53V671.52h-35.6V539.53H938.13Z" transform="translate(-601.78 -505.73)"/>
    <path id="Path_13772" data-name="Path 13772" d="M1227.49,509.59v29.94h-85.5v34.7h78.47V601.9h-78.47v39.69h87.31v29.94H1106.38V509.6h121.1Z" transform="translate(-601.78 -505.73)"/>
    <path id="Path_13773" data-name="Path 13773" d="M1374.22,552.8a35.8,35.8,0,0,0-7.94-8.96,37.115,37.115,0,0,0-23.36-8.16q-12.03,0-20.41,4.65a38.572,38.572,0,0,0-13.61,12.47,54.7,54.7,0,0,0-7.6,17.8,88.456,88.456,0,0,0-2.38,20.64,80.423,80.423,0,0,0,2.38,19.84,53.588,53.588,0,0,0,7.6,17.35,38.929,38.929,0,0,0,13.61,12.36q8.385,4.65,20.41,4.65,16.335,0,25.51-9.98t11.23-26.31h34.47a82.345,82.345,0,0,1-7.03,27.44,65.688,65.688,0,0,1-14.97,20.86,63.538,63.538,0,0,1-21.77,13.15,79.863,79.863,0,0,1-27.44,4.54q-18.6,0-33.45-6.46a71.675,71.675,0,0,1-25.06-17.8,78.865,78.865,0,0,1-15.65-26.65,97.725,97.725,0,0,1-5.44-33,102.431,102.431,0,0,1,5.44-33.68,80.869,80.869,0,0,1,15.65-27.1,71.489,71.489,0,0,1,25.06-18.14q14.85-6.57,33.45-6.58a81.63,81.63,0,0,1,25.29,3.86,68.371,68.371,0,0,1,21.32,11.23,60.62,60.62,0,0,1,15.53,18.26,65.329,65.329,0,0,1,7.71,24.95H1378.3a29.346,29.346,0,0,0-4.08-11.23Z" transform="translate(-601.78 -505.73)"/>
    <path id="Path_13774" data-name="Path 13774" d="M1442.71,539.53V509.59h132.67v29.94h-48.53V671.52h-35.61V539.53Z" transform="translate(-601.78 -505.73)"/>
  </g>
  <g id="Group_9063" data-name="Group 9063">
    <path id="Path_13775" data-name="Path 13775" d="M208.22,948.41c0-3.81-.05-7.63.01-11.44.12-7.07,4.04-11.29,11.13-11.48,7.85-.2,15.72-.21,23.56.08,6.81.26,10.91,4.28,11.15,10.97q.435,11.76.02,23.54c-.25,7.41-4.61,11.4-11.97,11.47-7.18.07-14.36.1-21.54,0-8.13-.11-12.25-4.31-12.33-12.39-.04-3.59,0-7.18,0-10.77h-.02Z" transform="translate(-208.2 -207.986)"/>
    <path id="Path_13776" data-name="Path 13776" d="M524.9,486.39H423.21a6.812,6.812,0,0,0-7.03,6.57l.1,194.01a7.394,7.394,0,0,0,7.45,7.4l31.31-.19a7.4,7.4,0,0,0,7.36-7.42c-.05-32.5-.2-119.68-.2-142.56v-3.91c0-2.37-.14-4.7,1.76-6.44,2.03-1.86,4.8-1.69,7.36-1.69H526.2a5.718,5.718,0,0,0,5.41-5.61V492.64a6.492,6.492,0,0,0-6.71-6.26ZM462.15,537.1" transform="translate(-208.2 -207.986)"/>
    <path id="Path_13777" data-name="Path 13777" d="M601.05,231.19c0,3.81.05,7.63-.01,11.44-.12,7.07-4.04,11.29-11.13,11.48-7.85.2-15.72.21-23.56-.08-6.81-.26-10.91-4.28-11.15-10.97q-.435-11.76-.02-23.54c.25-7.41,4.61-11.4,11.97-11.47,7.18-.07,14.36-.1,21.54,0,8.13.11,12.25,4.31,12.33,12.39.04,3.59,0,7.18,0,10.77h.02Z" transform="translate(-208.2 -207.986)"/>
    <path id="Path_13778" data-name="Path 13778" d="M531.55,234.73c0,3.27.05,6.55-.01,9.82-.11,6.07-3.47,9.69-9.55,9.85-6.74.17-13.49.18-20.22-.07-5.85-.22-9.36-3.67-9.57-9.42-.25-6.73-.25-13.48-.02-20.21.21-6.36,3.95-9.79,10.27-9.85,6.16-.06,12.33-.09,18.49,0,6.98.1,10.52,3.7,10.58,10.63.03,3.08,0,6.16,0,9.24h.02Z" transform="translate(-208.2 -207.986)"/>
    <path id="Path_13779" data-name="Path 13779" d="M462.36,304c0,3.27.05,6.55-.01,9.82-.11,6.07-3.47,9.69-9.55,9.85-6.74.17-13.49.18-20.22-.07-5.85-.22-9.36-3.67-9.57-9.42-.25-6.73-.25-13.48-.02-20.21.21-6.36,3.95-9.79,10.27-9.85,6.16-.06,12.33-.09,18.49,0,6.98.1,10.52,3.7,10.58,10.63.03,3.08,0,6.16,0,9.24h.02Z" transform="translate(-208.2 -207.986)"/>
    <path id="Path_13780" data-name="Path 13780" d="M393.17,442.66c0,3.27.05,6.55-.01,9.82-.11,6.07-3.47,9.69-9.55,9.85-6.74.17-13.49.18-20.22-.07-5.85-.22-9.36-3.67-9.57-9.42-.25-6.73-.25-13.48-.02-20.21.21-6.36,3.95-9.79,10.27-9.85,6.16-.06,12.33-.09,18.49,0,6.98.1,10.52,3.7,10.58,10.63.03,3.08,0,6.16,0,9.24h.02Z" transform="translate(-208.2 -207.986)"/>
    <path id="Path_13781" data-name="Path 13781" d="M436.01,756.64c-3.27,0-6.55.05-9.82-.01-6.07-.11-9.69-3.47-9.85-9.55-.17-6.74-.18-13.49.07-20.22.22-5.85,3.67-9.36,9.42-9.57,6.73-.25,13.48-.25,20.21-.02,6.36.21,9.79,3.95,9.85,10.27.06,6.16.09,12.33,0,18.49-.1,6.98-3.7,10.52-10.63,10.58-3.08.03-6.16,0-9.24,0v.02Z" transform="translate(-208.2 -207.986)"/>
    <path id="Path_13782" data-name="Path 13782" d="M366.82,895.58c-3.27,0-6.55.05-9.82-.01-6.07-.11-9.69-3.47-9.85-9.55-.17-6.74-.18-13.49.07-20.22.22-5.85,3.67-9.36,9.42-9.57,6.73-.25,13.48-.25,20.21-.02,6.36.21,9.79,3.95,9.85,10.27.06,6.16.09,12.33,0,18.49-.1,6.98-3.7,10.52-10.63,10.58-3.08.03-6.16,0-9.24,0v.02Z" transform="translate(-208.2 -207.986)"/>
    <path id="Path_13783" data-name="Path 13783" d="M297.35,964.77c-3.27,0-6.55.05-9.82-.01-6.07-.11-9.69-3.47-9.85-9.55-.17-6.74-.18-13.49.07-20.22.22-5.85,3.67-9.36,9.42-9.57,6.73-.25,13.48-.25,20.21-.02,6.36.21,9.79,3.95,9.85,10.27.06,6.16.09,12.33,0,18.49-.1,6.98-3.7,10.52-10.63,10.58-3.08.03-6.16,0-9.24,0v.02Z" transform="translate(-208.2 -207.986)"/>
    <path id="Path_13784" data-name="Path 13784" d="M462.6,450.77c-.12,7.07-4.04,11.29-11.13,11.48-7.85.2-15.72.21-23.56-.08-6.81-.26-10.91-4.28-11.15-10.97q-.435-11.76-.02-23.54c.25-7.41,4.61-11.4,11.97-11.47,7.18-.07,14.36-.1,21.54,0,8.13.11,12.25,4.31,12.33,12.39.04,3.59.08,18.39.02,22.2Z" transform="translate(-208.2 -207.986)"/>
    <path id="Path_13785" data-name="Path 13785" d="M531.55,439.33c0,3.81.05,7.63-.01,11.44-.12,7.07-4.04,11.29-11.13,11.48-7.85.2-15.72.21-23.56-.08-6.81-.26-10.91-4.28-11.15-10.97q-.435-11.76-.02-23.54c.25-7.41,4.61-11.4,11.97-11.47,7.18-.07,14.36-.1,21.54,0,8.13.11,12.25,4.31,12.33,12.39.04,3.59,0,7.18,0,10.77h.02Z" transform="translate(-208.2 -207.986)"/>
    <path id="Path_13786" data-name="Path 13786" d="M531.55,370.14c0,3.81.05,7.63-.01,11.44-.12,7.07-4.04,11.29-11.13,11.48-7.85.2-15.72.21-23.56-.08-6.81-.26-10.91-4.28-11.15-10.97q-.435-11.76-.02-23.54c.25-7.41,4.61-11.4,11.97-11.47,7.18-.07,14.36-.1,21.54,0,8.13.11,12.25,4.31,12.33,12.39.04,3.59,0,7.18,0,10.77h.02Z" transform="translate(-208.2 -207.986)"/>
    <path id="Path_13787" data-name="Path 13787" d="M531.55,300.94c0,3.81.05,7.63-.01,11.44-.12,7.07-4.04,11.29-11.13,11.48-7.85.2-15.72.21-23.56-.08-6.81-.26-10.91-4.28-11.15-10.97q-.435-11.76-.02-23.54c.25-7.41,4.61-11.4,11.97-11.47,7.18-.07,14.36-.1,21.54,0,8.13.11,12.25,4.31,12.33,12.39.04,3.59,0,7.18,0,10.77h.02Z" transform="translate(-208.2 -207.986)"/>
    <path id="Path_13788" data-name="Path 13788" d="M601.05,300.94c0,3.81.05,7.63-.01,11.44-.12,7.07-4.04,11.29-11.13,11.48-7.85.2-15.72.21-23.56-.08-6.81-.26-10.91-4.28-11.15-10.97q-.435-11.76-.02-23.54c.25-7.41,4.61-11.4,11.97-11.47,7.18-.07,14.36-.1,21.54,0,8.13.11,12.25,4.31,12.33,12.39.04,3.59,0,7.18,0,10.77h.02Z" transform="translate(-208.2 -207.986)"/>
    <path id="Path_13789" data-name="Path 13789" d="M601.05,370.14c0,3.81.05,7.63-.01,11.44-.12,7.07-4.04,11.29-11.13,11.48-7.85.2-15.72.21-23.56-.08-6.81-.26-10.91-4.28-11.15-10.97q-.435-11.76-.02-23.54c.25-7.41,4.61-11.4,11.97-11.47,7.18-.07,14.36-.1,21.54,0,8.13.11,12.25,4.31,12.33,12.39.04,3.59,0,7.18,0,10.77h.02Z" transform="translate(-208.2 -207.986)"/>
    <path id="Path_13790" data-name="Path 13790" d="M462.61,370.14c0,3.81.05,7.63-.01,11.44-.12,7.07-4.04,11.29-11.13,11.48-7.85.2-15.72.21-23.56-.08-6.81-.26-10.91-4.28-11.15-10.97q-.435-11.76-.02-23.54c.25-7.41,4.61-11.4,11.97-11.47,7.18-.07,14.36-.1,21.54,0,8.13.11,12.25,4.31,12.33,12.39.04,3.59,0,7.18,0,10.77h.02Z" transform="translate(-208.2 -207.986)"/>
    <path id="Path_13791" data-name="Path 13791" d="M346.9,728.96c.12-7.07,4.04-11.29,11.13-11.48,7.85-.2,15.72-.21,23.56.08,6.81.26,10.91,4.28,11.15,10.97q.435,11.76.02,23.54c-.25,7.41-4.61,11.4-11.97,11.47-7.18.07-14.36.1-21.54,0-8.13-.11-12.25-4.31-12.33-12.39-.04-3.59-.08-18.39-.02-22.2Z" transform="translate(-208.2 -207.986)"/>
    <path id="Path_13792" data-name="Path 13792" d="M277.94,740.4c0-3.81-.05-7.63.01-11.44.12-7.07,4.04-11.29,11.13-11.48,7.85-.2,15.72-.21,23.56.08,6.81.26,10.91,4.28,11.15,10.97q.435,11.76.02,23.54c-.25,7.41-4.61,11.4-11.97,11.47-7.18.07-14.36.1-21.54,0-8.13-.11-12.25-4.31-12.33-12.39-.04-3.59,0-7.18,0-10.77h-.02Z" transform="translate(-208.2 -207.986)"/>
    <path id="Path_13793" data-name="Path 13793" d="M277.94,809.59c0-3.81-.05-7.63.01-11.44.12-7.07,4.04-11.29,11.13-11.48,7.85-.2,15.72-.21,23.56.08,6.81.26,10.91,4.28,11.15,10.97q.435,11.76.02,23.54c-.25,7.41-4.61,11.4-11.97,11.47-7.18.07-14.36.1-21.54,0-8.13-.11-12.25-4.31-12.33-12.39-.04-3.59,0-7.18,0-10.77h-.02Z" transform="translate(-208.2 -207.986)"/>
    <path id="Path_13794" data-name="Path 13794" d="M277.94,878.78c0-3.81-.05-7.63.01-11.44.12-7.07,4.04-11.29,11.13-11.48,7.85-.2,15.72-.21,23.56.08,6.81.26,10.91,4.28,11.15,10.97q.435,11.76.02,23.54c-.25,7.41-4.61,11.4-11.97,11.47-7.18.07-14.36.1-21.54,0-8.13-.11-12.25-4.31-12.33-12.39-.04-3.59,0-7.18,0-10.77h-.02Z" transform="translate(-208.2 -207.986)"/>
    <path id="Path_13795" data-name="Path 13795" d="M208.44,878.78c0-3.81-.05-7.63.01-11.44.12-7.07,4.04-11.29,11.13-11.48,7.85-.2,15.72-.21,23.56.08,6.81.26,10.91,4.28,11.15,10.97q.435,11.76.02,23.54c-.25,7.41-4.61,11.4-11.97,11.47-7.18.07-14.36.1-21.54,0-8.13-.11-12.25-4.31-12.33-12.39-.04-3.59,0-7.18,0-10.77h-.02Z" transform="translate(-208.2 -207.986)"/>
    <path id="Path_13796" data-name="Path 13796" d="M208.44,809.59c0-3.81-.05-7.63.01-11.44.12-7.07,4.04-11.29,11.13-11.48,7.85-.2,15.72-.21,23.56.08,6.81.26,10.91,4.28,11.15,10.97q.435,11.76.02,23.54c-.25,7.41-4.61,11.4-11.97,11.47-7.18.07-14.36.1-21.54,0-8.13-.11-12.25-4.31-12.33-12.39-.04-3.59,0-7.18,0-10.77h-.02Z" transform="translate(-208.2 -207.986)"/>
    <path id="Path_13797" data-name="Path 13797" d="M346.89,809.59c0-3.81-.05-7.63.01-11.44.12-7.07,4.04-11.29,11.13-11.48,7.85-.2,15.72-.21,23.56.08,6.81.26,10.91,4.28,11.15,10.97q.435,11.76.02,23.54c-.25,7.41-4.61,11.4-11.97,11.47-7.18.07-14.36.1-21.54,0-8.13-.11-12.25-4.31-12.33-12.39-.04-3.59,0-7.18,0-10.77h-.02Z" transform="translate(-208.2 -207.986)"/>
    <path id="Path_13798" data-name="Path 13798" d="M386.26,486.53H354.38a7.456,7.456,0,0,0-5.57,2.36c-1.59,1.79-1.56,3.72-1.56,5.84,0,49.71.02,97.21.02,146.92a6.835,6.835,0,0,1-6.54,6.69c-6.46.01-12.92.14-19.39.04-18.32-.28-36.59-1.88-49.91-14.22-11.88-11-16.4-27.86-16.4-43.47,0-32.7,25.83-58.13,60.84-58.13h3.5c2.78,0,4.48-3.21,4.48-5.81V491.91a5.051,5.051,0,0,0-5.12-5.33c-3.5-.02-1.25-.03-1.42-.03-61.45,0-109.03,46.76-109.03,104.15,0,25.06,4.06,47.98,20.16,65.83,17.91,19.87,43.82,33.47,73.36,36.79,13.41,1.51,26.72,1.09,40.46.98,14.62-.12,29.68.03,44.04.03a6.791,6.791,0,0,0,6.89-5.76c.03-.34.03-.7.03-1.04V493.03a6.734,6.734,0,0,0-6.95-6.49Z" transform="translate(-208.2 -207.986)"/>
  </g>
</svg>
