<svg xmlns="http://www.w3.org/2000/svg" width="16.009" height="13.636" viewBox="0 0 16.009 13.636">
  <path id="Subtraction_188" data-name="Subtraction 188" d="M13.628,13.636H2.4A2.433,2.433,0,0,1,.318,12.46a2.214,2.214,0,0,1,.025-2.328L4.382,3.644l-.014-.03,0,0L6.23.783A2.429,2.429,0,0,1,8.025,0,2.46,2.46,0,0,1,9.509.5l4.469,6.917L14,7.452l.863,1.334-.008,0-.023,0,.832,1.34a2.214,2.214,0,0,1,.025,2.328A2.365,2.365,0,0,1,13.628,13.636Zm-11.2-1.482H13.643a.87.87,0,0,0,.751-.423.826.826,0,0,0,0-.846l-5.607-9a.927.927,0,0,0-.759-.4H7.992a.845.845,0,0,0-.723.4l-5.606,9a.835.835,0,0,0,0,.846.871.871,0,0,0,.752.423h.008Zm5.6-1.06a.817.817,0,0,1-.832-.8.779.779,0,0,1,.243-.566.844.844,0,0,1,.588-.235.8.8,0,1,1,0,1.6ZM8,8.862H8l-.047,0a.615.615,0,0,1-.563-.541L7.075,5.03a.932.932,0,0,1,.856-.987q.04,0,.079,0a.938.938,0,0,1,.949.827V5.03l-.318,3.29A.64.64,0,0,1,8,8.862Z" fill="#ff4000"/>
</svg>
