<svg xmlns="http://www.w3.org/2000/svg" width="40" height="40" viewBox="0 0 40 40">
  <g id="Group_19929" data-name="Group 19929" transform="translate(-1672 -747)">
    <rect id="Rectangle_12754" data-name="Rectangle 12754" width="40" height="40" rx="6" transform="translate(1672 747)" fill="#4994ec"/>
    <path id="Path_17568" data-name="Path 17568" d="M28.357,24.852H19.433a.417.417,0,0,1-.419-.416,4.879,4.879,0,0,1,9.757,0,.416.416,0,0,1-.415.416h0Zm-13.3,0H6.131a.414.414,0,0,1-.415-.416,4.877,4.877,0,0,1,9.753,0,.416.416,0,0,1-.415.416h0Zm8.839-11.794a3.05,3.05,0,0,1,2.157,5.205h0a3.05,3.05,0,0,1-4.313,0l-.022-.025a3.049,3.049,0,0,1,2.178-5.181h0Zm-13.3,0a3.05,3.05,0,1,1-2.156,5.206l-.022-.025a3.049,3.049,0,0,1,2.179-5.181h0ZM5.173,23.492a5.419,5.419,0,0,1,.455-1.432,5.094,5.094,0,0,0-.86.654,2.232,2.232,0,0,0-.782,1.6c0,1.341,1.554,2.509,4.063,3.313a29.675,29.675,0,0,0,7.605,1.2l-1.893.985a.415.415,0,0,0,.382.738l3.332-1.732a.415.415,0,0,0,.037-.724l-.026-.015-3.108-1.9a.415.415,0,0,0-.433.708L15.767,28A28.936,28.936,0,0,1,8.3,26.838c-2.153-.69-3.483-1.585-3.483-2.523a1.277,1.277,0,0,1,.353-.821h0Zm14.7-2.808L20,20.547a5.739,5.739,0,0,1,.749-.627q-.54-.047-1.1-.08c-.775-.046-1.565-.069-2.358-.069-.812,0-1.616.025-2.4.072q-.584.035-1.146.085a5.476,5.476,0,0,1,.738.619c.048.047.092.1.14.144l.316-.02q1.13-.067,2.355-.069,1.2,0,2.314.066l.265.016h0Zm2.168,7.885a21.079,21.079,0,0,0,6.084-1.559c1.558-.731,2.472-1.656,2.472-2.7a2.251,2.251,0,0,0-.819-1.637,5.288,5.288,0,0,0-.959-.7,5.4,5.4,0,0,1,.474,1.383,1.393,1.393,0,0,1,.474.951c0,.686-.738,1.358-1.991,1.947a20.264,20.264,0,0,1-5.837,1.484.416.416,0,0,0,.1.825h0ZM19.276,11.5a2.922,2.922,0,1,0-2.068.856,2.913,2.913,0,0,0,2.068-.856h0ZM11.759,10.22a.4.4,0,0,0,.4.4h.735a4.277,4.277,0,0,0,.18.524,4.171,4.171,0,0,0,.246.5l-.522.52a.4.4,0,0,0,0,.57l1.109,1.11a.4.4,0,0,0,.569,0l.522-.52a4.34,4.34,0,0,0,.5.245,4.419,4.419,0,0,0,.522.18v.734a.4.4,0,0,0,.4.4h1.569a.4.4,0,0,0,.4-.4V13.75a4.557,4.557,0,0,0,.525-.18,4.661,4.661,0,0,0,.5-.244l.522.52a.4.4,0,0,0,.569,0l1.109-1.11a.4.4,0,0,0,0-.57l-.522-.52a4.26,4.26,0,0,0,.246-.5,4.373,4.373,0,0,0,.18-.524h.735a.4.4,0,0,0,.4-.4V8.65a.4.4,0,0,0-.4-.4h-.735A4.346,4.346,0,0,0,21.1,7.224l.522-.52a.4.4,0,0,0,0-.57L20.51,5.025a.4.4,0,0,0-.569,0l-.522.52a4.435,4.435,0,0,0-.5-.244,4.317,4.317,0,0,0-.522-.18V4.386a.4.4,0,0,0-.4-.4H16.425a.4.4,0,0,0-.4.4V5.12a4.451,4.451,0,0,0-.525.18,4.659,4.659,0,0,0-.5.244l-.522-.52a.4.4,0,0,0-.569,0L12.8,6.135a.4.4,0,0,0,0,.57l.522.52a4.2,4.2,0,0,0-.246.5,4.372,4.372,0,0,0-.18.524H12.16a.4.4,0,0,0-.4.4V10.22Z" transform="translate(1674.21 749.213)" fill="#fff" fill-rule="evenodd"/>
  </g>
</svg>
