<svg xmlns="http://www.w3.org/2000/svg" width="111.816" height="111.819" viewBox="0 0 111.816 111.819">
  <path id="Path_17617" data-name="Path 17617" d="M106.4,91.678H68.9a1.753,1.753,0,0,1-1.759-1.747,20.5,20.5,0,0,1,41,0,1.75,1.75,0,0,1-1.745,1.747h0Zm-55.9,0H13a1.741,1.741,0,0,1-1.745-1.747,20.493,20.493,0,0,1,40.986,0A1.75,1.75,0,0,1,50.5,91.678h0Zm37.143-49.56A12.815,12.815,0,0,1,96.7,63.992v0a12.817,12.817,0,0,1-18.124,0c-.03-.034-.062-.068-.092-.1a12.811,12.811,0,0,1,9.154-21.774h0Zm-55.9,0A12.816,12.816,0,1,1,22.681,64c-.03-.034-.062-.068-.092-.1a12.811,12.811,0,0,1,9.155-21.774h0ZM8.972,85.966a22.77,22.77,0,0,1,1.914-6.018A21.405,21.405,0,0,0,7.274,82.7a9.38,9.38,0,0,0-3.288,6.721c0,5.635,6.531,10.542,17.074,13.92,8.437,2.7,19.57,4.532,31.96,5.031l-7.953,4.138a1.745,1.745,0,0,0,1.606,3.1l14-7.279a1.745,1.745,0,0,0,.157-3.044,1.224,1.224,0,0,0-.109-.064L47.66,97.248a1.745,1.745,0,0,0-1.821,2.977l7.654,4.669c-12.218-.464-23.147-2.239-31.367-4.87-9.047-2.9-14.636-6.662-14.636-10.6A5.368,5.368,0,0,1,8.972,85.97h0Zm61.766-11.8c.186-.194.371-.389.556-.578a24.118,24.118,0,0,1,3.149-2.633q-2.269-.2-4.631-.338c-3.257-.192-6.577-.292-9.911-.292-3.412,0-6.792.1-10.1.3q-2.455.146-4.816.358a23.012,23.012,0,0,1,3.1,2.6c.2.2.386.4.587.605.447-.029.88-.058,1.328-.085q4.748-.282,9.895-.289,5.048,0,9.726.279l1.112.068h0ZM79.847,107.3c10.375-1.3,19.282-3.6,25.566-6.551,6.545-3.07,10.389-6.958,10.389-11.335,0-2.472-1.2-4.785-3.442-6.879a22.221,22.221,0,0,0-4.029-2.928,22.681,22.681,0,0,1,1.991,5.811,5.852,5.852,0,0,1,1.991,4c0,2.882-3.1,5.708-8.368,8.183-5.944,2.788-14.48,4.977-24.53,6.236a1.747,1.747,0,0,0,.433,3.468h0ZM68.238,35.578a12.28,12.28,0,1,0-8.692,3.6,12.242,12.242,0,0,0,8.692-3.6h0ZM36.652,30.194a1.689,1.689,0,0,0,1.683,1.691h3.087a17.975,17.975,0,0,0,.757,2.2,17.528,17.528,0,0,0,1.034,2.093l-2.192,2.183a1.69,1.69,0,0,0,0,2.395l4.662,4.666a1.691,1.691,0,0,0,2.392,0l2.192-2.185a18.239,18.239,0,0,0,2.1,1.028,18.57,18.57,0,0,0,2.192.757V48.11a1.692,1.692,0,0,0,1.7,1.692h6.591a1.693,1.693,0,0,0,1.7-1.692V45.025a19.148,19.148,0,0,0,2.208-.757,19.59,19.59,0,0,0,2.084-1.027l2.192,2.183a1.691,1.691,0,0,0,2.392,0l4.662-4.666a1.69,1.69,0,0,0,0-2.395L75.892,36.18a17.9,17.9,0,0,0,1.034-2.093,18.374,18.374,0,0,0,.757-2.2H80.77a1.69,1.69,0,0,0,1.683-1.691v-6.6A1.69,1.69,0,0,0,80.77,21.9H77.683a18.265,18.265,0,0,0-1.791-4.3l2.192-2.183a1.688,1.688,0,0,0,0-2.394L73.422,8.361a1.691,1.691,0,0,0-2.392,0l-2.192,2.185a18.639,18.639,0,0,0-2.1-1.027,18.141,18.141,0,0,0-2.192-.757V5.675a1.694,1.694,0,0,0-1.7-1.692H56.257a1.694,1.694,0,0,0-1.7,1.692V8.76a18.7,18.7,0,0,0-2.208.758,19.579,19.579,0,0,0-2.084,1.025L48.075,8.361a1.691,1.691,0,0,0-2.392,0l-4.662,4.667a1.688,1.688,0,0,0,0,2.394L43.213,17.6A17.635,17.635,0,0,0,42.179,19.7a18.373,18.373,0,0,0-.757,2.2H38.335a1.69,1.69,0,0,0-1.683,1.694v6.6Z" transform="translate(-3.986 -3.983)" fill="#a5caf6" fill-rule="evenodd" opacity="0.41"/>
</svg>
