<svg xmlns="http://www.w3.org/2000/svg" width="40.155" height="40.155" viewBox="0 0 40.155 40.155">
  <g id="Group_19934" data-name="Group 19934" transform="translate(-14.691 -46.207)">
    <rect id="Color" width="40.155" height="40.155" rx="8" transform="translate(14.691 46.207)" fill="#069"/>
    <path id="Path_17435" data-name="Path 17435" d="M27.6,22.777l-1.545,7.243a.327.327,0,0,1-.32.259h-7.8a.328.328,0,0,1-.32-.258l-1.844-7.244H11.839V34.2H31.833V22.777Zm-1.3-5.027L27,22.44l-1.288,6.043L24.332,22.8,26.3,17.752Zm-9.221.15.036-.225L19.256,22.8l-1.332,5.763-1.562-6.132.707-4.477a.461.461,0,0,0,.008-.052v0ZM16,20.514a1.374,1.374,0,0,0-.8.252,1.7,1.7,0,0,0-.222.179.148.148,0,0,1-.023.021,2.08,2.08,0,0,0-.514.846,2.141,2.141,0,0,0-.076.31h1.383l.255-1.608ZM15,20.125a1.961,1.961,0,0,1,1.11-.26l.259-1.636a1.5,1.5,0,0,0-.593.285,1.954,1.954,0,0,0-.187.168.282.282,0,0,1-.03.031,2.092,2.092,0,0,0-.453.785,2.15,2.15,0,0,0-.105.58c0,.015,0,.032,0,.047Zm-2.775,2A1.99,1.99,0,0,0,12.894,21a1.272,1.272,0,0,0-.244-1.061c-.023-.027-.047-.052-.072-.079l-.635,2.26Zm1.3-4.061a2.667,2.667,0,0,1-.4-.131l-.352,1.248c.032.021.063.044.094.068h0a1.767,1.767,0,0,1,.287.273c.01.012.02.027.031.038a2.017,2.017,0,0,0,.341-.731,1.571,1.571,0,0,0-.005-.768Zm1.264-.033q.015.052.034.1a2.823,2.823,0,0,0,.124.3,2.828,2.828,0,0,0-.594,1.624,2.563,2.563,0,0,0,.04.566,2.752,2.752,0,0,0-.567.991,3.02,3.02,0,0,0-.1.414c-.005.032-.01.063-.014.1h-.6a2.529,2.529,0,0,0,.434-1,2.062,2.062,0,0,0-.033-.925l.005-.007h0a2.71,2.71,0,0,0,.651-1.214,2.26,2.26,0,0,0,.039-.841c.039,0,.079,0,.118-.008h0a2.167,2.167,0,0,0,.465-.1Zm1.179-1.213a1.77,1.77,0,0,1-.588.892,2.166,2.166,0,0,0,.059.212l.009.027h0a2.068,2.068,0,0,1,1.031-.4l.117-.736Zm-2.66.477a1.849,1.849,0,0,0,.957.18,1.238,1.238,0,0,0,.878-.452,1.2,1.2,0,0,0,.129-.206h-1.83Zm13.981,2.6h0a1.923,1.923,0,0,1,1.307.233v-.047a2.148,2.148,0,0,0-.1-.58,2.094,2.094,0,0,0-.454-.785.282.282,0,0,1-.03-.031,1.825,1.825,0,0,0-.187-.168,1.437,1.437,0,0,0-.783-.313l.253,1.69Zm1.937,2.231h0a2.142,2.142,0,0,0-.076-.31,2.08,2.08,0,0,0-.514-.846.223.223,0,0,1-.023-.021,1.71,1.71,0,0,0-.223-.179,1.306,1.306,0,0,0-1-.227l.237,1.584ZM31.077,19.8h0a1.209,1.209,0,0,0-.14.14A1.272,1.272,0,0,0,30.692,21a1.99,1.99,0,0,0,.672,1.122h.364L31.076,19.8Zm-2.756-2.984a1.143,1.143,0,0,0,.128.2,1.239,1.239,0,0,0,.88.453,1.876,1.876,0,0,0,1.033-.218l-.124-.44Zm-.108.892a1.724,1.724,0,0,1-.277-.282,1.787,1.787,0,0,1-.311-.61h-.8l.109.729a2.029,2.029,0,0,1,1.213.4l.009-.027h0a1.914,1.914,0,0,0,.059-.212Zm1.174.425h0a2.26,2.26,0,0,0,.039.841,2.712,2.712,0,0,0,.652,1.214l.005.006h0a2.062,2.062,0,0,0-.033.925,2.544,2.544,0,0,0,.434,1h-.6c0-.032-.008-.063-.014-.1h0a2.848,2.848,0,0,0-.1-.414,2.757,2.757,0,0,0-.564-.992,2.626,2.626,0,0,0,.04-.566,2.848,2.848,0,0,0-.593-1.625,2.61,2.61,0,0,0,.124-.3q.018-.052.034-.1h0a2.061,2.061,0,0,0,.465.1l.118.008Zm1.154-.237h0a2.609,2.609,0,0,1-.472.166,1.563,1.563,0,0,0-.007.769,2.017,2.017,0,0,0,.341.731c.01-.013.02-.027.031-.038a1.766,1.766,0,0,1,.287-.273,1.883,1.883,0,0,1,.169-.115ZM23.713,28.209a.327.327,0,1,1,.21.619,2.283,2.283,0,0,1-.3.081,2.366,2.366,0,0,1-1.231-.085,2.37,2.37,0,0,1-.6-.307,2.367,2.367,0,0,1-.431.233,2.356,2.356,0,0,1-1.725.027.327.327,0,0,1,.231-.612,1.7,1.7,0,0,0,1.714-.309.326.326,0,0,1,.441.012,1.753,1.753,0,0,0,.578.339,1.715,1.715,0,0,0,.67.089,1.631,1.631,0,0,0,.222-.031,1.751,1.751,0,0,0,.215-.057Zm-.551-1.819h0a.327.327,0,0,1,.272.595,1.6,1.6,0,0,1-.243.088,1.489,1.489,0,0,1-1.012-.092,1.707,1.707,0,0,1-.386-.25,1.7,1.7,0,0,1-.254.171,1.505,1.505,0,0,1-.6.188,1.437,1.437,0,0,1-.413-.02,1.511,1.511,0,0,1-.4-.138.327.327,0,0,1,.294-.583.848.848,0,0,0,.226.079.812.812,0,0,0,.228.013h0a.863.863,0,0,0,.343-.108,1.216,1.216,0,0,0,.324-.271.327.327,0,0,1,.462-.036.3.3,0,0,1,.049.052,1.193,1.193,0,0,0,.4.312.8.8,0,0,0,.567.052.754.754,0,0,0,.139-.05Zm-.091-1.83h0a.327.327,0,1,1,.287.588,1.5,1.5,0,0,1-.233.09,1.32,1.32,0,0,1-.245.045,1.355,1.355,0,0,1-.736-.139,1.627,1.627,0,0,1-.352-.235,1.778,1.778,0,0,1-.222.158,1.419,1.419,0,0,1-.582.191,1.312,1.312,0,0,1-.4-.023,1.369,1.369,0,0,1-.382-.14.327.327,0,0,1,.31-.576.76.76,0,0,0,.2.077.662.662,0,0,0,.206.011.757.757,0,0,0,.313-.1,1.137,1.137,0,0,0,.292-.255.327.327,0,0,1,.524-.011,1.127,1.127,0,0,0,.379.322.709.709,0,0,0,.386.075.652.652,0,0,0,.126-.025.708.708,0,0,0,.127-.049Zm.728-1.19,1.52,6.256H18.35L19.8,23.334a2.349,2.349,0,0,0,1.564-.081,2.569,2.569,0,0,0,.3-.152h.247a2.414,2.414,0,0,0,.476.226,2.333,2.333,0,0,0,.926.125,2.384,2.384,0,0,0,.306-.04c.057-.012.116-.027.173-.043Z" transform="translate(12.932 40.678)" fill="#fff" fill-rule="evenodd"/>
  </g>
</svg>
