<svg xmlns="http://www.w3.org/2000/svg" width="13.171" height="21.45" viewBox="0 0 13.171 21.45">
  <path id="Path_17345" data-name="Path 17345" d="M352.921,728.563h0a1.09,1.09,0,1,0,1.09,1.09,1.09,1.09,0,0,0-1.09-1.09Zm0-1.093h0a2.183,2.183,0,1,1-2.183,2.183,2.183,2.183,0,0,1,2.183-2.183Zm0,4.873h0a.546.546,0,0,1,.546.546v4.027a.546.546,0,0,1-1.092,0V732.89a.546.546,0,0,1,.546-.546Zm0-9.617h0a.628.628,0,0,0-.367.136h0c-1.736,1.315-3.675,2.772-4.212,5.359h0c-.522,2.516.312,6.053,1.088,9.393a.557.557,0,0,0,.387.409l.858.249.508.692a.557.557,0,0,0,.449.228h2.572a.559.559,0,0,0,.449-.228l.508-.691.858-.249a.557.557,0,0,0,.388-.409c.777-3.34,1.613-6.876,1.092-9.393h0c-.536-2.588-2.475-4.046-4.21-5.362h0l-.029-.022h0a.547.547,0,0,0-.336-.113Zm-4.83,10.083h0a6.259,6.259,0,0,0-1.194,1.47h0a4.068,4.068,0,0,0-.473,2.881h0a10.591,10.591,0,0,0,1.633,3.175.557.557,0,0,0,1.022-.332v-.025h0a10.233,10.233,0,0,1,.038-2.244h0c0-.015-.008-.029-.011-.044-.118-.509-.239-1.026-.356-1.546h0c-.252-1.117-.489-2.245-.657-3.337Zm9.657,0h0c-.247,1.6-.644,3.277-1.017,4.881,0,.015-.007.029-.011.044h0a10.234,10.234,0,0,1,.037,2.244h0v.024h0a.557.557,0,0,0,1.022.333,10.6,10.6,0,0,0,1.635-3.175h0a4.068,4.068,0,0,0-.472-2.881h0a6.258,6.258,0,0,0-1.193-1.471Zm-6.587,7.006h0a.557.557,0,0,0-.557.557v1.809a.557.557,0,1,0,1.115,0v-1.809a.557.557,0,0,0-.557-.557Zm3.514,0h0a.557.557,0,0,0-.557.557v1.809a.557.557,0,1,0,1.115,0v-1.809a.557.557,0,0,0-.557-.557Zm-1.757,1.435h0a.557.557,0,0,0-.557.557v1.809a.557.557,0,1,0,1.115,0v-1.809a.557.557,0,0,0-.557-.557Z" transform="translate(-346.336 -722.727)" fill="#069"/>
</svg>
