<svg xmlns="http://www.w3.org/2000/svg" width="18.04" height="18.04" viewBox="0 0 18.04 18.04">
  <path id="Path_17344" data-name="Path 17344" d="M7.009,3.355a.848.848,0,0,1-.12-.6.978.978,0,0,1,.3-.542A.921.921,0,0,1,7.792,2h6.626a.8.8,0,0,1,.572.211.978.978,0,0,1,.3.542.848.848,0,0,1-.12.6.821.821,0,0,1-.452.392H7.491A.882.882,0,0,1,7.009,3.355Zm5.9,2.259h-.6v.6h.6ZM9.3,8.626h.6v-.6H9.3Zm.6-3.012H9.3v.6h.6Zm0,10.24a.309.309,0,0,0-.3.3v1.114A4.179,4.179,0,0,0,7.642,15.1a3.215,3.215,0,0,0,.753-.934,2.615,2.615,0,0,0,.3-1.175h0v.753a.309.309,0,0,0,.3.3h1.2a.309.309,0,0,0,.3-.3v-1.2a.309.309,0,0,0-.3-.3H9.208v-.6H10.2a.309.309,0,0,0,.3-.3v-1.2a.309.309,0,0,0-.3-.3H9a.323.323,0,0,0-.181.06,4.408,4.408,0,0,0-.632-.843,5.54,5.54,0,0,0-.663-.512V4.951a.618.618,0,0,1,.6-.6h6.023a.618.618,0,0,1,.6.6V6.277a1.125,1.125,0,0,0-.181.211.663.663,0,0,0-.241-.03,1.364,1.364,0,0,0-.482.09,1.146,1.146,0,0,0-.392.271l-.542.542-.06.06h-.843a.309.309,0,0,0-.3.3v1.2a.309.309,0,0,0,.3.3h.03a.834.834,0,0,0-.03.271V9.83a.309.309,0,0,0-.3.3v1.2a.309.309,0,0,0,.3.3h.542a1.493,1.493,0,0,0,.241.6h-.783a.309.309,0,0,0-.3.3v1.2a.309.309,0,0,0,.3.3h1.2a.309.309,0,0,0,.3-.3v-.753a1.18,1.18,0,0,0,.783.271.663.663,0,0,0,.241-.03,1.31,1.31,0,0,0,.181.211v4.247H12.611V16.155a.309.309,0,0,0-.3-.3Zm1.807-9.336a.309.309,0,0,0,.3.3h1.2a.309.309,0,0,0,.3-.3v-1.2a.309.309,0,0,0-.3-.3h-1.2a.309.309,0,0,0-.3.3Zm-3.012,0a.309.309,0,0,0,.3.3h1.2a.309.309,0,0,0,.3-.3v-1.2a.309.309,0,0,0-.3-.3H9a.309.309,0,0,0-.3.3ZM10.5,8.927v-1.2a.309.309,0,0,0-.3-.3H9a.309.309,0,0,0-.3.3v1.2a.309.309,0,0,0,.3.3h1.2a.309.309,0,0,0,.3-.3Zm1.506,8.764V16.456H10.2v1.235Zm6.957-5.331-.542.542a1.146,1.146,0,0,1-.392.271,1.248,1.248,0,0,1-.482.09.663.663,0,0,1-.241-.03,1.126,1.126,0,0,1-.452.392,1.246,1.246,0,0,1-.572.151h-.753a.663.663,0,0,1-.241-.03v3.945h3.945V12.24a.362.362,0,0,0-.06-.241A.723.723,0,0,1,18.966,12.36Zm-10.36-.873A2.707,2.707,0,0,0,8.364,10.4a2.407,2.407,0,0,0-.542-.813l-.753,1.265c-.03.03-.06.09-.12.12a.271.271,0,0,1-.151.03,1.3,1.3,0,0,1-.151-.03.443.443,0,0,1-.151-.181.34.34,0,0,1,.03-.241L7.34,9.2a3.858,3.858,0,0,0-.6-.331,2.075,2.075,0,0,0-.241-.09l.03-.211v-.09c0-.03-.03-.06-.06-.09l-.06-.06c-.03,0-.06-.03-.09-.03H5.262a.111.111,0,0,0-.09.03.065.065,0,0,0-.06.06c-.03.03-.03.06-.06.09,0,.03-.03.06,0,.09v.151a3.074,3.074,0,0,0-.873.331L4.991,10.4a.32.32,0,0,1,.03.241c-.03.09-.06.151-.151.181a.272.272,0,0,1-.151.03.272.272,0,0,1-.151-.03.235.235,0,0,1-.12-.12L3.666,9.379l-.09.09a3.068,3.068,0,0,0-.632.9A3.336,3.336,0,0,0,2.7,11.457v.422H8.545v-.392ZM7.732,9.5l.12.12L8,9.379a.32.32,0,0,0,.03-.241c-.03-.09-.06-.151-.151-.181a.32.32,0,0,0-.241-.03.277.277,0,0,0-.181.12l-.09.151.09.06A1.094,1.094,0,0,1,7.732,9.5ZM4.118,8.927a.443.443,0,0,0-.181-.151.34.34,0,0,0-.241.03c-.09.03-.09.12-.12.211a.34.34,0,0,0,.03.241l.12.181c.151-.12.331-.241.482-.361Zm4.126,7.349a3.6,3.6,0,0,0-2.53-1.054,2.362,2.362,0,0,0,1.536-.572,2.326,2.326,0,0,0,.843-1.566v-.271a1.025,1.025,0,0,0-.03-.3H3.3c0,.09-.03.211-.03.3a2.455,2.455,0,0,0,.663,1.656,2.36,2.36,0,0,0,1.626.753h.12a3.4,3.4,0,0,0-1.355.271A3.6,3.6,0,0,0,2.371,17.45,3.662,3.662,0,0,0,2.1,18.835v.9a.309.309,0,0,0,.3.3H9.027a.309.309,0,0,0,.3-.3v-.9a3.662,3.662,0,0,0-.271-1.385A4.549,4.549,0,0,0,8.244,16.276Zm4.066-2.831h.6v-.6h-.6ZM9.3,10.433v.6h.6v-.6Zm0,2.409v.6h.6v-.6Zm10.631,5.752a1.015,1.015,0,0,0-.512-.331H9.87a3.273,3.273,0,0,1,.03.542v.9a1.281,1.281,0,0,1-.06.331h9.4a.82.82,0,0,0,.632-.271.867.867,0,0,0,.271-.632A.826.826,0,0,0,19.929,18.595ZM15.111,6.728a.613.613,0,0,1,.452-.181h.753a.664.664,0,0,1,.452.181.613.613,0,0,1,.181.452.029.029,0,0,0,.03.03c.03,0,.03.03.06.03s.03.03.06.03h.06a.485.485,0,0,1,.211-.12.709.709,0,0,1,.241-.06.362.362,0,0,1,.241.06c.06.03.151.09.211.12l.542.542a.655.655,0,0,1,0,.9v.06c.03.03.03.06.06.12a.029.029,0,0,0,.03.03.709.709,0,0,1,.241.06c.06.03.151.09.211.12a.485.485,0,0,1,.12.211.567.567,0,0,1,.06.241v.753a.709.709,0,0,1-.06.241,1.31,1.31,0,0,1-.12.211.485.485,0,0,1-.211.12.709.709,0,0,1-.241.06.029.029,0,0,0-.03.03.228.228,0,0,1-.06.12v.06a.485.485,0,0,1,.12.211.567.567,0,0,1,.06.241v.151a.625.625,0,0,1-.181.3l-.542.542a.613.613,0,0,1-.452.181.664.664,0,0,1-.452-.181H17.1c-.03,0-.06.03-.09.03h-.03v.03a.547.547,0,0,1-.181.422.613.613,0,0,1-.452.181h-.753a.664.664,0,0,1-.452-.181.613.613,0,0,1-.181-.452.029.029,0,0,0-.03-.03.228.228,0,0,1-.12-.06h-.03a.6.6,0,0,1-.422.181.664.664,0,0,1-.452-.181l-.6-.6a.625.625,0,0,1-.181-.3v-.12a.362.362,0,0,1,.06-.241c.03-.06.09-.151.12-.211v-.06c-.03-.03-.03-.09-.06-.12a.029.029,0,0,0-.03-.03.686.686,0,0,1-.331-.09.7.7,0,0,1-.271-.331q0-.09,0-.181V9.5a.879.879,0,0,1,.06-.271.531.531,0,0,1,.241-.271.607.607,0,0,1,.331-.09.029.029,0,0,0,.03-.03c0-.03.03-.06.06-.12v-.06a.655.655,0,0,1,0-.9l.542-.542a.485.485,0,0,1,.211-.12.567.567,0,0,1,.241-.06.547.547,0,0,1,.422.181h.06a.029.029,0,0,0,.03-.03.105.105,0,0,0,.06-.03.029.029,0,0,0,.03-.03A.583.583,0,0,1,15.111,6.728Zm-.03,2.259a1.333,1.333,0,0,0-.331.6,1.084,1.084,0,0,0,.06.693,1.132,1.132,0,0,0,.452.542,1.324,1.324,0,0,0,.663.211,1.208,1.208,0,0,0,.452-.09,1.331,1.331,0,0,0,.663-.663,1.208,1.208,0,0,0,.09-.452,1.026,1.026,0,0,0-.211-.663,1.132,1.132,0,0,0-.542-.452,1.084,1.084,0,0,0-.693-.06A.93.93,0,0,0,15.081,8.987Zm-2.168-.361Z" transform="translate(-2.1 -2)" fill="#e1f5ff"/>
</svg>
