<svg xmlns="http://www.w3.org/2000/svg" width="40.155" height="40.155" viewBox="0 0 40.155 40.155">
  <g id="Group_19931" data-name="Group 19931" transform="translate(-14.691 -108.398)">
    <path id="Color" d="M8,0H32.155a8,8,0,0,1,8,8V32.155a8,8,0,0,1-8,8H8a8,8,0,0,1-8-8V8A8,8,0,0,1,8,0Z" transform="translate(14.691 108.398)" fill="#069"/>
    <path id="Path_17832" data-name="Path 17832" d="M7.607,3.52a.951.951,0,0,1-.135-.676,1.1,1.1,0,0,1,.338-.608A1.033,1.033,0,0,1,8.486,2h7.433a.892.892,0,0,1,.642.237,1.1,1.1,0,0,1,.338.608.951.951,0,0,1-.135.676.921.921,0,0,1-.507.439H8.148A.99.99,0,0,1,7.607,3.52ZM14.23,6.054h-.676V6.73h.676ZM10.175,9.433h.676V8.757h-.676Zm.676-3.379h-.676V6.73h.676Zm0,11.488a.346.346,0,0,0-.338.338v1.25a4.688,4.688,0,0,0-2.2-2.433,3.606,3.606,0,0,0,.845-1.047A2.934,2.934,0,0,0,9.5,14.332h0v.845a.346.346,0,0,0,.338.338h1.352a.346.346,0,0,0,.338-.338V13.826a.346.346,0,0,0-.338-.338H10.074v-.676h1.115a.346.346,0,0,0,.338-.338V11.123a.346.346,0,0,0-.338-.338H9.837a.362.362,0,0,0-.2.068,4.945,4.945,0,0,0-.71-.946,6.215,6.215,0,0,0-.743-.574V5.311a.693.693,0,0,1,.676-.676h6.758a.693.693,0,0,1,.676.676V6.8a1.262,1.262,0,0,0-.2.237A.744.744,0,0,0,15.818,7a1.53,1.53,0,0,0-.541.1,1.286,1.286,0,0,0-.439.3l-.608.608-.068.068h-.946a.346.346,0,0,0-.338.338V9.771a.346.346,0,0,0,.338.338h.034a.935.935,0,0,0-.034.3v.372a.346.346,0,0,0-.338.338v1.351a.346.346,0,0,0,.338.338h.608a1.675,1.675,0,0,0,.27.676h-.878a.346.346,0,0,0-.338.338v1.352a.346.346,0,0,0,.338.338h1.351a.346.346,0,0,0,.338-.338v-.845a1.323,1.323,0,0,0,.878.3.744.744,0,0,0,.27-.034,1.47,1.47,0,0,0,.2.237V19.6H13.892V17.88a.346.346,0,0,0-.338-.338ZM12.878,7.068a.346.346,0,0,0,.338.338h1.351a.346.346,0,0,0,.338-.338V5.717a.346.346,0,0,0-.338-.338H13.216a.346.346,0,0,0-.338.338Zm-3.379,0a.346.346,0,0,0,.338.338h1.352a.346.346,0,0,0,.338-.338V5.717a.346.346,0,0,0-.338-.338H9.837a.346.346,0,0,0-.338.338Zm2.027,2.7V8.42a.346.346,0,0,0-.338-.338H9.837A.346.346,0,0,0,9.5,8.42V9.771a.346.346,0,0,0,.338.338h1.352a.346.346,0,0,0,.338-.338ZM13.216,19.6V18.218H11.189V19.6Zm7.8-5.98-.608.608a1.286,1.286,0,0,1-.439.3,1.4,1.4,0,0,1-.541.1.744.744,0,0,1-.27-.034,1.263,1.263,0,0,1-.507.439,1.4,1.4,0,0,1-.642.169h-.845a.744.744,0,0,1-.27-.034V19.6h4.426V13.488a.406.406,0,0,0-.068-.27A.811.811,0,0,1,21.021,13.623ZM9.4,12.643a3.037,3.037,0,0,0-.27-1.216,2.7,2.7,0,0,0-.608-.912l-.845,1.419c-.034.034-.068.1-.135.135a.3.3,0,0,1-.169.034,1.463,1.463,0,0,1-.169-.034.5.5,0,0,1-.169-.2.381.381,0,0,1,.034-.27l.912-1.52A4.328,4.328,0,0,0,7.3,9.7a2.328,2.328,0,0,0-.27-.1l.034-.237v-.1c0-.034-.034-.068-.068-.1L6.932,9.1c-.034,0-.068-.034-.1-.034H5.648a.124.124,0,0,0-.1.034.073.073,0,0,0-.068.068c-.034.034-.034.068-.068.1,0,.034-.034.068,0,.1v.169a3.449,3.449,0,0,0-.98.372l.912,1.52a.359.359,0,0,1,.034.27c-.034.1-.068.169-.169.2a.3.3,0,0,1-.169.034.3.3,0,0,1-.169-.034.264.264,0,0,1-.135-.135l-.878-1.487-.1.1a3.441,3.441,0,0,0-.71,1.014,3.742,3.742,0,0,0-.27,1.216v.473H9.331v-.439Zm-.98-2.23.135.135.169-.27a.359.359,0,0,0,.034-.27c-.034-.1-.068-.169-.169-.2a.359.359,0,0,0-.27-.034.31.31,0,0,0-.2.135l-.1.169.1.068A1.227,1.227,0,0,1,8.418,10.413ZM4.364,9.771a.5.5,0,0,0-.2-.169.381.381,0,0,0-.27.034c-.1.034-.1.135-.135.237a.381.381,0,0,0,.034.27l.135.2c.169-.135.372-.27.541-.405Zm4.629,8.244a4.038,4.038,0,0,0-2.838-1.183,2.65,2.65,0,0,0,1.723-.642,2.61,2.61,0,0,0,.946-1.757v-.3a1.149,1.149,0,0,0-.034-.338H3.452c0,.1-.034.237-.034.338a2.754,2.754,0,0,0,.743,1.858,2.648,2.648,0,0,0,1.825.845h.135a3.819,3.819,0,0,0-1.52.3,4.038,4.038,0,0,0-2.2,2.2,4.108,4.108,0,0,0-.3,1.554V21.9a.346.346,0,0,0,.338.338H9.871a.346.346,0,0,0,.338-.338V20.887a4.108,4.108,0,0,0-.3-1.554A5.1,5.1,0,0,0,8.993,18.015Zm4.561-3.176h.676v-.676h-.676ZM10.175,11.46v.676h.676V11.46Zm0,2.7v.676h.676v-.676ZM22.1,20.617a1.138,1.138,0,0,0-.574-.372H10.817a3.672,3.672,0,0,1,.034.608v1.014a1.437,1.437,0,0,1-.068.372H21.325a.92.92,0,0,0,.71-.3.972.972,0,0,0,.3-.71A.927.927,0,0,0,22.1,20.617ZM16.7,7.3a.688.688,0,0,1,.507-.2h.845a.745.745,0,0,1,.507.2.688.688,0,0,1,.2.507.033.033,0,0,0,.034.034c.034,0,.034.034.068.034s.034.034.068.034h.068a.545.545,0,0,1,.237-.135.8.8,0,0,1,.27-.068.406.406,0,0,1,.27.068c.068.034.169.1.237.135l.608.608a.735.735,0,0,1,0,1.014V9.6c.034.034.034.068.068.135a.033.033,0,0,0,.034.034.8.8,0,0,1,.27.068c.068.034.169.1.237.135a.545.545,0,0,1,.135.237.637.637,0,0,1,.068.27v.845a.8.8,0,0,1-.068.27,1.469,1.469,0,0,1-.135.237.545.545,0,0,1-.237.135.8.8,0,0,1-.27.068.033.033,0,0,0-.034.034.256.256,0,0,1-.068.135v.068a.545.545,0,0,1,.135.237.637.637,0,0,1,.068.27v.169a.7.7,0,0,1-.2.338l-.608.608a.688.688,0,0,1-.507.2.745.745,0,0,1-.507-.2h-.068c-.034,0-.068.034-.1.034h-.034v.034a.613.613,0,0,1-.2.473.688.688,0,0,1-.507.2h-.845a.745.745,0,0,1-.507-.2.688.688,0,0,1-.2-.507.033.033,0,0,0-.034-.034.256.256,0,0,1-.135-.068h-.034a.667.667,0,0,1-.473.2.745.745,0,0,1-.507-.2l-.676-.676a.7.7,0,0,1-.2-.338v-.135a.406.406,0,0,1,.068-.27c.034-.068.1-.169.135-.237V12.1c-.034-.034-.034-.1-.068-.135a.033.033,0,0,0-.034-.034.77.77,0,0,1-.372-.1.786.786,0,0,1-.3-.372q0-.1,0-.2v-.845a.987.987,0,0,1,.068-.3.6.6,0,0,1,.27-.3.681.681,0,0,1,.372-.1.033.033,0,0,0,.034-.034c0-.034.034-.068.068-.135V9.467a.735.735,0,0,1,0-1.014l.608-.608a.545.545,0,0,1,.237-.135.637.637,0,0,1,.27-.068.613.613,0,0,1,.473.2h.068a.033.033,0,0,0,.034-.034.118.118,0,0,0,.068-.034.033.033,0,0,0,.034-.034A.654.654,0,0,1,16.7,7.3Zm-.034,2.534a1.5,1.5,0,0,0-.372.676,1.216,1.216,0,0,0,.068.777,1.27,1.27,0,0,0,.507.608,1.485,1.485,0,0,0,.743.237,1.356,1.356,0,0,0,.507-.1,1.493,1.493,0,0,0,.743-.743,1.356,1.356,0,0,0,.1-.507,1.151,1.151,0,0,0-.237-.743,1.27,1.27,0,0,0-.608-.507,1.216,1.216,0,0,0-.777-.068A1.044,1.044,0,0,0,16.662,9.839ZM14.23,9.433Z" transform="translate(22.549 116.357)" fill="#fff"/>
  </g>
</svg>
