<svg xmlns="http://www.w3.org/2000/svg" width="40.155" height="40.155" viewBox="0 0 40.155 40.155">
  <g id="Group_19932" data-name="Group 19932" transform="translate(-14.691 -170.59)">
    <rect id="Color" width="40.155" height="40.155" rx="8" transform="translate(14.691 170.59)" fill="#069"/>
    <path id="Path_17833" data-name="Path 17833" d="M5.632.529c-2.169,0-4.02,1.183-4.02,3.352v.488a.49.49,0,0,1-.488.492h-.6L2.7,7.389,4.861,4.861H4.27a.491.491,0,0,1-.492-.492V3.88A3.592,3.592,0,0,1,5.632.529Zm9.4,1.529a.276.276,0,0,0-.123.162,1.934,1.934,0,0,1-.322.566,2.4,2.4,0,0,1-.943.613,2.414,2.414,0,0,1-1.106.216,1.951,1.951,0,0,1-.626-.181c-.123-.051-.143-.047-.2-.032a1.671,1.671,0,0,0-.575.434,1.829,1.829,0,0,0-.445.568c-.017.052-.02.078.029.2a1.937,1.937,0,0,1,.169.626,2.41,2.41,0,0,1-.232,1.1,2.4,2.4,0,0,1-.629.933,1.949,1.949,0,0,1-.57.314c-.123.051-.141.075-.165.12a1.831,1.831,0,0,0-.1.714,1.672,1.672,0,0,0,.087.714c.026.052.041.068.163.122a1.958,1.958,0,0,1,.563.326,2.4,2.4,0,0,1,.616.943,2.408,2.408,0,0,1,.213,1.107,1.942,1.942,0,0,1-.178.623c-.051.123-.049.149-.035.2a1.848,1.848,0,0,0,.436.573,1.738,1.738,0,0,0,.565.445c.061.016.078.02.2-.029a1.962,1.962,0,0,1,.629-.168,2.4,2.4,0,0,1,1.1.232,2.4,2.4,0,0,1,.933.631,1.943,1.943,0,0,1,.314.568.282.282,0,0,0,.12.166,1.621,1.621,0,0,0,.714.1h.109a1.621,1.621,0,0,0,.714-.1.282.282,0,0,0,.12-.166,1.943,1.943,0,0,1,.314-.568,2.926,2.926,0,0,1,2.033-.863,1.962,1.962,0,0,1,.629.168c.124.048.141.045.2.029a1.738,1.738,0,0,0,.565-.445,1.848,1.848,0,0,0,.436-.573c.014-.054.016-.08-.035-.2a1.942,1.942,0,0,1-.178-.623,2.408,2.408,0,0,1,.213-1.107,2.4,2.4,0,0,1,.616-.943,1.958,1.958,0,0,1,.563-.326c.122-.054.137-.07.163-.122a1.672,1.672,0,0,0,.087-.714,1.831,1.831,0,0,0-.1-.714c-.024-.045-.042-.068-.165-.12a1.949,1.949,0,0,1-.57-.314,2.4,2.4,0,0,1-.629-.933,2.41,2.41,0,0,1-.232-1.1,1.937,1.937,0,0,1,.169-.626c.048-.124.046-.151.029-.2a1.829,1.829,0,0,0-.445-.568,1.671,1.671,0,0,0-.575-.434c-.057-.015-.077-.019-.2.032a1.951,1.951,0,0,1-.626.181A2.414,2.414,0,0,1,17.739,3.4a2.4,2.4,0,0,1-.943-.613,1.934,1.934,0,0,1-.322-.566.275.275,0,0,0-.123-.162,1.593,1.593,0,0,0-.659-.084,1.593,1.593,0,0,0-.659.084Zm2.314,2.423a4.331,4.331,0,0,1-1.659,8.334h-.214l.107.107a.36.36,0,0,1-.509.509l-.722-.723a.361.361,0,0,1,0-.509l.722-.722a.36.36,0,1,1,.509.509l-.106.106h.214a3.6,3.6,0,0,0,2.282-.812l-.374-.375a.362.362,0,0,1,.512-.511l.374.374a3.6,3.6,0,0,0,.747-1.582c.023-.114.038-.228.051-.341h-.344a.361.361,0,1,1,0-.722h.345a3.608,3.608,0,0,0-.8-1.926l-.377.375a.361.361,0,0,1-.512-.509l.377-.377a3.616,3.616,0,0,0-1.926-.8v.346a.361.361,0,1,1-.722,0V4.89a3.61,3.61,0,0,0-1.924.8l.373.375a.36.36,0,0,1-.509.509L12.891,6.2q-.108.132-.2.276A3.6,3.6,0,0,0,12.1,8.125h.348a.361.361,0,1,1,0,.722H12.1a3.6,3.6,0,0,0,1.039,2.188.361.361,0,0,1-.509.512,4.331,4.331,0,0,1,4.72-7.065Zm-1.3,2.2v1.8a.361.361,0,0,1-.106.256l-.738.738a.361.361,0,1,1-.509-.512l.632-.632V6.68a.361.361,0,0,1,.722,0ZM6.3,8.111v3.609h3.778a.768.768,0,0,0,.033-.154,1.673,1.673,0,0,0-.162-.774,1.671,1.671,0,0,0-.421-.668,1.289,1.289,0,0,0-.379-.208.955.955,0,0,1-.52-.458,2.338,2.338,0,0,1-.163-1.048c0-.109,0-.206.011-.3Zm-.722.512-3.1,3.1h3.1Zm-3.735,3.82L.722,14.971H10.763l.408-.917a3.009,3.009,0,0,1-.626-.52,2.258,2.258,0,0,1-.611-.866.886.886,0,0,1-.039-.226Zm10.595,1.566a1.629,1.629,0,0,0-.352.11,1.542,1.542,0,0,1-.182.057l-.58,1.3a.361.361,0,0,1-.331.216H1.612v6.5H12.442Zm.722,7.42,2.889-4.048v-1.7c-.093.006-.192.01-.3.011-.042,0-.082,0-.12,0a2.257,2.257,0,0,1-1.044-.181.957.957,0,0,1-.451-.525,1.3,1.3,0,0,0-.2-.384,1.69,1.69,0,0,0-.663-.429c-.04-.017-.072-.027-.109-.042ZM2.688,19.3a.356.356,0,0,1,.367.362v1.445a.361.361,0,1,1-.721,0V19.664A.357.357,0,0,1,2.688,19.3Zm1.812.362v1.445a.361.361,0,1,1-.722,0V19.664a.361.361,0,1,1,.722,0ZM5.575,19.3a.357.357,0,0,1,.367.362v1.445a.361.361,0,1,1-.722,0V19.664A.357.357,0,0,1,5.575,19.3Z" transform="translate(24.12 179.309)" fill="#fff"/>
  </g>
</svg>
