<svg xmlns="http://www.w3.org/2000/svg" width="40" height="40" viewBox="0 0 40 40">
  <g id="Group_19926" data-name="Group 19926" transform="translate(-939 -746)">
    <rect id="Rectangle_12748" data-name="Rectangle 12748" width="40" height="40" rx="6" transform="translate(939 746)" fill="#14c599"/>
    <path id="Path_17565" data-name="Path 17565" d="M22.054,22.2H19.619V20.97a1.225,1.225,0,1,1,2.428,0Zm1.167,1.149v1.317h0a.689.689,0,0,1-.689.689h-3.37a.689.689,0,0,1-.689-.689V23.343h0a.689.689,0,0,1,.689-.689h3.37a.688.688,0,0,1,.682.689Zm-2.145.371h0a.23.23,0,1,0-.459,0v.577a.23.23,0,1,0,.459,0Zm5.605-3.732a12.73,12.73,0,0,1-5.85,10.626,12.71,12.71,0,0,1-5.85-10.626A6.227,6.227,0,0,0,18,16.21h5.657a6.221,6.221,0,0,0,3.02,3.773Zm-3.008,3.369h0A1.151,1.151,0,0,0,22.525,22.2h-.018V20.979a1.675,1.675,0,1,0-3.347,0V22.2h-.018a1.148,1.148,0,0,0-1.149,1.149v1.317h0a1.151,1.151,0,0,0,1.149,1.149H22.51a1.151,1.151,0,0,0,1.149-1.149ZM20.939,33.1a.234.234,0,0,1-.221,0c-9-4.886-7.9-14.5-7.884-14.6a.227.227,0,0,1,.224-.2c.1,0,2.487-.1,3.176-4.111A.233.233,0,0,1,16.46,14H25.2a.233.233,0,0,1,.226.19C26.112,18.2,28.487,18.3,28.6,18.3a.233.233,0,0,1,.224.2c.013.1,1.115,9.71-7.884,14.6Zm6.206-13.249a.231.231,0,0,0-.132-.208,5.778,5.778,0,0,1-2.968-3.725.222.222,0,0,0-.217-.159H17.836a.23.23,0,0,0-.218.159,5.755,5.755,0,0,1-2.965,3.712.222.222,0,0,0-.132.209,13.2,13.2,0,0,0,6.188,11.232h0a.221.221,0,0,0,.245,0,13.211,13.211,0,0,0,6.191-11.22Zm-.612-3.633,1.185-2.579h.768a1.687,1.687,0,1,0-.022-.459h-.882a.23.23,0,0,0-.208.136l-1.082,2.34a4.775,4.775,0,0,0,.252.551ZM12.442,15v1.08a.233.233,0,0,0,.23.23h2.38c.077-.141.153-.307.226-.459H12.916v-.855a1.684,1.684,0,1,0-.459,0Zm1.581,11.9H10.591v-.861a1.684,1.684,0,1,0-.459,0v1.1a.23.23,0,0,0,.23.23h3.9c-.083-.16-.169-.307-.235-.465Zm.067,3.944v-.8h2.043c-.132-.153-.263-.307-.389-.459H13.85a.225.225,0,0,0-.163.067.227.227,0,0,0-.067.163v1.026a1.686,1.686,0,1,0,.459,0Zm17.459-5.82V23.567a.23.23,0,0,0-.23-.23H28.9c-.032.153-.069.307-.11.459h2.275v1.226a1.684,1.684,0,1,0,.459,0Zm-3.161,5.8a1.689,1.689,0,0,0-1.669,1.455H24.6V31.022c-.15.144-.307.285-.459.426v1.062a.227.227,0,0,0,.23.23h2.352a1.685,1.685,0,1,0,1.669-1.915Z" transform="translate(937.672 743.582)" fill="#fff"/>
  </g>
</svg>
