<svg xmlns="http://www.w3.org/2000/svg" width="40.155" height="40.155" viewBox="0 0 40.155 40.155">
  <g id="Group_19939" data-name="Group 19939" transform="translate(-306.767 -813.572)">
    <rect id="Color" width="40.155" height="40.155" rx="8" transform="translate(306.767 813.572)" fill="#069"/>
    <path id="Path_17837" data-name="Path 17837" d="M16.227,10.882h4.441a1.481,1.481,0,0,1,1.48,1.48v2.961a1.481,1.481,0,0,1-1.48,1.48H16.227v1.4a1.111,1.111,0,0,1-1.842.836L9.714,14.957a1.48,1.48,0,0,1,0-2.228l4.671-4.087a1.111,1.111,0,0,1,1.842.836v1.4Zm3.317,7.4v2.961a1.481,1.481,0,0,1-1.48,1.48H5.48A1.481,1.481,0,0,1,4,21.245V3.48A1.481,1.481,0,0,1,5.48,2h8.434a1.483,1.483,0,0,1,1.047.434L19.11,6.582a1.483,1.483,0,0,1,.434,1.047V9.4H17.706a2.591,2.591,0,0,0-4.3-1.874L8.739,11.615a2.96,2.96,0,0,0,0,4.456l4.671,4.087a2.591,2.591,0,0,0,4.3-1.874Z" transform="translate(314.556 820.443)" fill="#fff" fill-rule="evenodd"/>
  </g>
</svg>
