<svg xmlns="http://www.w3.org/2000/svg" width="40" height="40" viewBox="0 0 40 40">
  <g id="Group_19923" data-name="Group 19923" transform="translate(-943.608 -493)">
    <rect id="Rectangle_12859" data-name="Rectangle 12859" width="40" height="40" rx="6" transform="translate(943.608 493)" fill="#ec693d"/>
    <g id="Group_17003" data-name="Group 17003" transform="translate(951.225 502.164)">
      <path id="Path_17561" data-name="Path 17561" d="M8.514,8.257a4.257,4.257,0,1,0-4.257,4.257A4.262,4.262,0,0,0,8.514,8.257ZM3.87,10.192a.386.386,0,0,1-.274-.113L2.048,8.531A.387.387,0,0,1,2.6,7.983L3.87,9.258,5.918,7.209a.387.387,0,0,1,.547.547L4.144,10.079A.386.386,0,0,1,3.87,10.192Zm6.579,1.935H8.9V10.2a4.931,4.931,0,0,0,.252-.778h1.3ZM23.22,13.288a.774.774,0,0,0-.774-.774H20.511v1.935a.388.388,0,0,1-.387.387H18.576a.388.388,0,0,1-.387-.387V12.514H16.254a.774.774,0,0,0-.774.774v5.418h7.74Zm-5.8,4.644h-.774a.387.387,0,1,1,0-.774h.774a.387.387,0,1,1,0,.774ZM16.254,11.74H20.9a.774.774,0,0,0,.774-.774V6.322a.776.776,0,0,0-.774-.774H19.737V7.483a.388.388,0,0,1-.387.387H17.8a.388.388,0,0,1-.387-.387V5.548H16.254a.774.774,0,0,0-.774.774v4.644A.774.774,0,0,0,16.254,11.74Zm3.483-1.548h.774a.387.387,0,0,1,0,.774h-.774a.387.387,0,0,1,0-.774Zm-.774-3.1h-.774V5.548h.774Zm0,6.966V12.514h.774v1.548ZM6.579,16H8.127v.774H6.579Zm1.548-3.483V11.469a5.012,5.012,0,0,1-3.483,1.8v5.433H14.706V10.192a.774.774,0,0,0-.774-.774H11.223v3.1a.388.388,0,0,1-.387.387H8.514A.388.388,0,0,1,8.127,12.514Zm.774,3.1v1.548a.388.388,0,0,1-.387.387H6.192a.388.388,0,0,1-.387-.387V15.61a.388.388,0,0,1,.387-.387H8.514A.388.388,0,0,1,8.9,15.61ZM24.768,24.9a.774.774,0,0,1-.774.774H3.87a.774.774,0,1,1,0-1.548H23.994A.774.774,0,0,1,24.768,24.9ZM3.87,19.48H23.994a.774.774,0,0,1,0,1.548H3.87a.774.774,0,0,1,0-1.548Zm12.384,3.87V21.8h2.322V23.35Zm4.644,0V21.8H23.22V23.35Zm-10.836,0V21.8h2.322V23.35Zm-5.418,0V21.8H6.966V23.35Z" transform="translate(0 -4)" fill="#fff"/>
    </g>
  </g>
</svg>
