<svg xmlns="http://www.w3.org/2000/svg" width="40" height="40" viewBox="0 0 40 40">
  <g id="Group_19927" data-name="Group 19927" transform="translate(-1183.107 -746.5)">
    <rect id="Rectangle_12750" data-name="Rectangle 12750" width="40" height="40" rx="6" transform="translate(1183.107 746.5)" fill="#ff3a2a"/>
    <path id="Path_17570" data-name="Path 17570" d="M13.035,7.048H16.3V8.684a8.246,8.246,0,0,1,2.968,1.23l1.158-1.158,2.306,2.306L21.57,12.221a8.253,8.253,0,0,1,1.23,2.968h1.636v3.261H23.249l-1.98-3.3a1.321,1.321,0,0,0-1.287-.637,5.8,5.8,0,1,0-5.469,8.105l-1.478,2.467v-.125a8.249,8.249,0,0,1-2.969-1.23L8.908,24.883,6.6,22.577,7.76,21.419a8.252,8.252,0,0,1-1.23-2.969H4.893V15.189H6.529a8.254,8.254,0,0,1,1.23-2.969L6.6,11.063,8.908,8.757l1.158,1.158a8.252,8.252,0,0,1,2.969-1.23V7.048Zm1.631,12.775a.659.659,0,1,0,.659.659.659.659,0,0,0-.659-.659Zm-1.152-4.854a1.152,1.152,0,1,1,1.322,1.141.969.969,0,0,0-.83.955v1.289a.659.659,0,1,0,1.319,0v-1a2.471,2.471,0,1,0-3.131-2.381.66.66,0,0,0,1.32,0ZM28.184,28.16,20.618,15.535a.572.572,0,0,0-.98,0L12.073,28.16a.755.755,0,0,0,.648,1.144H27.536A.755.755,0,0,0,28.184,28.16Zm-8.056-.1a.808.808,0,1,1,.808-.808A.808.808,0,0,1,20.128,28.065Zm.628-3.21a.629.629,0,0,1-1.256,0l-.385-5.6a1.015,1.015,0,0,1,2.026,0Z" transform="translate(1186.514 748.324)" fill="#fff" fill-rule="evenodd"/>
  </g>
</svg>
