<svg id="noun-map-view-232160" xmlns="http://www.w3.org/2000/svg" width="18.786" height="17.052" viewBox="0 0 18.786 17.052">
  <path id="Path_17326" data-name="Path 17326" d="M7.468,7.069h0L3.182,8.217a.97.97,0,0,0-.682.889V23.232a.514.514,0,0,0,.682.523l3.2-.858h0l1.766-.473V6.886Z" transform="translate(-2.5 -6.886)" fill="#fff"/>
  <path id="Path_17327" data-name="Path 17327" d="M52.219,7.461a3.538,3.538,0,0,0-2.966,5.471l2.977,5.13v0l3.07-5.309h-.008a3.538,3.538,0,0,0-3.074-5.293Zm0,4.931A1.391,1.391,0,1,1,53.609,11,1.39,1.39,0,0,1,52.219,12.392Z" transform="translate(-39.546 -7.347)" fill="#fff"/>
  <path id="Path_17328" data-name="Path 17328" d="M38.853,14.183a3.579,3.579,0,0,1-.255-.462l-.468-.806a4.376,4.376,0,0,1,.4-5.275l-2.815-.754V22.424l5.65,1.514V18.51Z" transform="translate(-29.146 -6.886)" fill="#fff"/>
  <path id="Path_17329" data-name="Path 17329" d="M73.9,7.715l-1.719.461-.421.113a4.375,4.375,0,0,1,.58,4.961.841.841,0,0,1-.054.113l-.707,1.223c-.011.022-.022.044-.035.066h.008l-2.619,4.528v5.406l.682-.183h0L73.9,23.252a.97.97,0,0,0,.682-.889V8.238A.514.514,0,0,0,73.9,7.715Z" transform="translate(-55.792 -7.532)" fill="#fff"/>
</svg>
