<svg xmlns="http://www.w3.org/2000/svg" width="40.155" height="40.155" viewBox="0 0 40.155 40.155">
  <g id="Group_19941" data-name="Group 19941" transform="translate(-14.691 -170.59)">
    <rect id="Color" width="40.155" height="40.155" rx="8" transform="translate(14.691 170.59)" fill="#069"/>
    <path id="Union_238" data-name="Union 238" d="M-1947.154,19315.984a4.746,4.746,0,0,0,.564-2.348,4.813,4.813,0,0,0-.564-2.352,2.116,2.116,0,0,0-.807-.848,83.668,83.668,0,0,0,13.183-.129c.6-.066,1.213-.146,1.81-.254-2.158-.865-4.472-1.363-6.687-2.053a20.6,20.6,0,0,1-3.569-1.379,2.715,2.715,0,0,1-1.2-1.119,1.47,1.47,0,0,1,.041-1.371,1.832,1.832,0,0,1,.741-.689,4.138,4.138,0,0,1,1-.352c.42-.1.854-.162,1.274-.217a51.284,51.284,0,0,1,5.609-.244c2.111,0,4.213.055,6.322.152a.316.316,0,0,1,.006.631q-3.131.234-6.248.607c-1.68.211-3.353.43-5,.8,1.441.346,2.927.559,4.393.779,1.208.2,2.406.408,3.605.689a17.013,17.013,0,0,1,3.373,1.1,4.06,4.06,0,0,1,2.192,2.125,2.8,2.8,0,0,1-.145,2.2,4.885,4.885,0,0,1-2.465,2.061,17.832,17.832,0,0,1-2.576.908,62.873,62.873,0,0,1-9.731,1.674q-2.962.311-5.921.463A2.157,2.157,0,0,0-1947.154,19315.984Zm-1.947.611a1.512,1.512,0,0,1-.348-.275,1.014,1.014,0,0,0,.122-.045c.036-.014.077-.027.115-.039a.715.715,0,0,0,.085-.027c.019.016.038.027.056.039a.837.837,0,0,0,.474.164,1.11,1.11,0,0,0,.828-.5,1.728,1.728,0,0,0,.149-.217,2.355,2.355,0,0,0,.171-.322,3.592,3.592,0,0,0,.228-.7.194.194,0,0,0,.013-.051c0-.016.006-.033.011-.049s.006-.027.008-.041.006-.035.011-.051,0-.012,0-.018a.265.265,0,0,0,.006-.041v-.006l.013-.078a4.124,4.124,0,0,0,.051-.543v-.035l0-.1h0v-.021c0-.068,0-.135,0-.2l0-.088c-.006-.076-.013-.156-.021-.23l-.019-.125c-.017-.123-.041-.24-.068-.359v0c-.017-.086-.041-.164-.062-.246a3.107,3.107,0,0,0-.339-.8,1.743,1.743,0,0,0-.457-.523.884.884,0,0,0-.519-.193,1.045,1.045,0,0,0-.741.4c-.021.023-.047.053-.068.08-.036.008-.077.016-.115.025-.092.023-.186.043-.278.064a.047.047,0,0,0,.013-.016,1.972,1.972,0,0,1,.651-.713,1.032,1.032,0,0,1,.542-.162,1.466,1.466,0,0,1,1.193.875,4.52,4.52,0,0,1,.525,2.211,4.517,4.517,0,0,1-.525,2.209,1.517,1.517,0,0,1-1.2.887A1.04,1.04,0,0,1-1949.1,19316.6Zm-2.06.1a1.26,1.26,0,0,1-.465-.564,1.567,1.567,0,0,1-.164-.59.546.546,0,0,1,.006-.123.193.193,0,0,1,.062-.133s0,0,.006,0a.148.148,0,0,1,.124.016,1.246,1.246,0,0,1,.489.578h0a1.549,1.549,0,0,1,.171.59.62.62,0,0,1-.013.148.154.154,0,0,1-.064.109s0,0-.006,0a.071.071,0,0,1-.029.006A.263.263,0,0,1-1951.16,19316.693Zm.45-.242a1.734,1.734,0,0,0-.188-.678,1.889,1.889,0,0,0-.418-.57c-.03-.02-.058-.041-.085-.059.055-.023.111-.051.173-.074l.177-.008a1.7,1.7,0,0,0,.269.3.592.592,0,0,0,.363.164h.015a.33.33,0,0,0,.122-.033.157.157,0,0,1,.024-.016,0,0,0,0,1,0,0c.043-.021.083-.039.126-.061,0,0,.006-.006.011-.006.041-.018.077-.037.117-.057l.233-.1c.032-.016.06-.027.09-.039a.05.05,0,0,1,.028-.012c.017-.01.036-.018.055-.027.085-.037.173-.072.26-.109,0,0,0,0,0,0h.026l.015-.018.192-.072.241-.092.021-.008a12.621,12.621,0,0,1,1.439-.422c0,.006,0,.01,0,.016,0,.021-.01.041-.013.059a.46.46,0,0,0-.013.053s0,.008,0,.012a.038.038,0,0,1,0,.01c0,.014-.006.023-.011.039a.011.011,0,0,0,0,.008.318.318,0,0,0-.013.043.461.461,0,0,0-.013.045s0,.006,0,.008c-.006.02-.009.035-.015.053a.435.435,0,0,0-.013.043.217.217,0,0,1-.011.027.19.19,0,0,1-.015.053s0,0,0,.008a.2.2,0,0,1-.011.027c0,.008-.006.016-.009.023l-.019.049c-.006.016-.009.029-.015.043a.2.2,0,0,0-.011.021v.006c-.013.033-.024.061-.036.088,0,0-.006.018-.011.023-.017.035-.034.068-.051.105s-.06.105-.089.154-.073.107-.107.158c-.314.061-.632.145-.948.236-.077.023-.154.047-.228.072l-.075.023c-.047.016-.094.031-.141.049a.118.118,0,0,1-.034.012,1.026,1.026,0,0,1-.111.033c-.058.018-.117.041-.177.063-.034.012-.066.025-.1.039-.013,0-.021.008-.034.012-.047.02-.09.035-.137.053-.275.107-.557.227-.837.357A.87.87,0,0,0-1950.71,19316.451Zm.175-1.191a.886.886,0,0,1-.243-.217c-.028-.033-.056-.07-.083-.109-.006-.008-.011-.016-.017-.023-.017-.027-.036-.059-.055-.088,0,0-.006-.008-.006-.012l-.051-.1-.011-.02a1.562,1.562,0,0,1-.162-.588.461.461,0,0,1,.006-.123.173.173,0,0,1,.062-.131s0,0,.006,0a.088.088,0,0,1,.036-.008.183.183,0,0,1,.085.025,1.125,1.125,0,0,1,.423.453c.021.037.045.076.066.123.009.018.015.035.023.053.017.039.032.072.045.105a.825.825,0,0,1,.036.111.578.578,0,0,1,.028.1c.009.039.015.074.021.113a.772.772,0,0,1,.011.115.7.7,0,0,1-.013.143.355.355,0,0,1-.021.063.114.114,0,0,1-.045.043.008.008,0,0,1-.006,0,.039.039,0,0,1-.03.008A.189.189,0,0,1-1950.535,19315.26Zm.442-.119a.805.805,0,0,0,0-.123V19315a.714.714,0,0,0-.006-.094.879.879,0,0,0-.017-.117c-.013-.057-.03-.119-.047-.182-.013-.037-.026-.07-.039-.107s-.028-.072-.042-.105c-.006-.014-.011-.023-.017-.035a.318.318,0,0,0-.017-.039,2.25,2.25,0,0,0-.154-.268,1.792,1.792,0,0,0-.154-.191,1.216,1.216,0,0,0-.115-.109c-.028-.018-.056-.041-.083-.062.06-.023.122-.053.179-.078a.062.062,0,0,0,.013.008v-.012c.038-.018.075-.035.113-.049a.12.12,0,0,1,.028-.014.2.2,0,0,0,.03-.014c.006,0,.013,0,.019-.008l.085-.037s0-.006.006-.006h0l.1-.041a.707.707,0,0,0,.09-.037.377.377,0,0,0,.051-.018c.028-.014.056-.021.083-.033.011-.008.019-.008.028-.014l.053-.021c.017,0,.041-.016.057-.021l.211-.08h0l.043-.016.013,0c.07-.027.143-.051.214-.078l.278-.092c.258-.086.521-.164.777-.232.288-.074.576-.143.862-.2v.008c.006.029.015.064.021.1s.019.076.026.117a.249.249,0,0,0,.006.039v.008s0,.012,0,.02a.011.011,0,0,1,0,.008c.006.041.013.078.019.115v.014c0,.031.009.068.013.1.006.055.013.111.015.166s0,.078.006.121v.027a.61.61,0,0,1,0,.088v.16c0,.031,0,.064,0,.094v.059a.2.2,0,0,0,0,.037v.1c0,.012,0,.02,0,.031v.006c0,.01,0,.016,0,.023v0c0,.01,0,.018,0,.027v.008a.054.054,0,0,0,0,.02v.01c0,.012,0,.02,0,.027s0,.016,0,.023,0,.008,0,.016,0,.008,0,.012v.012a.028.028,0,0,0,0,.018v.014a12.751,12.751,0,0,0-1.554.447c-.156.059-.312.115-.461.176,0,0,0,0,0,0h-.026l-.015.016c-.066.023-.13.053-.194.08-.026.01-.051.02-.075.031a.092.092,0,0,0-.041.016.019.019,0,0,1-.013,0s0,0-.006,0c-.034.018-.073.033-.107.049h0c-.075.031-.149.068-.224.1A.062.062,0,0,0-1950.093,19315.141Zm-2.606-.2a.779.779,0,0,1-.1-.123,1.556,1.556,0,0,1-.188-.586,1.324,1.324,0,0,1,.07-.721.222.222,0,0,1,.1-.109s.008,0,.013,0a.173.173,0,0,1,.109.049,1.265,1.265,0,0,1,.284.709,1.333,1.333,0,0,1-.073.721.2.2,0,0,1-.1.107s-.009,0-.013,0h-.009A.165.165,0,0,1-1952.7,19314.941Zm.487-.113a1.806,1.806,0,0,0,.034-.705,1.741,1.741,0,0,0-.222-.668.544.544,0,0,0-.068-.1c.519-.064,1.037-.109,1.552-.123a1.641,1.641,0,0,0,.149.227c-.12.055-.233.107-.348.164a.154.154,0,0,0-.077.023.182.182,0,0,0-.068.043.119.119,0,0,0-.032.031.573.573,0,0,0-.1.4,1.734,1.734,0,0,0,.188.678s0,.006,0,.012c-.032.012-.06.023-.087.035-.314.023-.636.055-.961.1C-1952.242,19314.906-1952.225,19314.869-1952.212,19314.828Zm1.633-1.5a.775.775,0,0,1-.081-.113c-.021-.035-.045-.07-.066-.109a1.217,1.217,0,0,1-.056-.117.992.992,0,0,1-.058-.158,1.245,1.245,0,0,1-.058-.756.155.155,0,0,1,.077-.1.021.021,0,0,1,.011,0h.015a.2.2,0,0,1,.122.051.981.981,0,0,1,.246.3,1.5,1.5,0,0,1,.094.2c.017.035.028.078.045.119a1.542,1.542,0,0,1,.047.154c.015.064.023.129.034.184s.006.08.009.115v.107s-.015.006-.021.01l-.058.023a.057.057,0,0,1-.017.006l-.088.037s-.006,0-.011,0a.33.33,0,0,0-.047.021.254.254,0,0,0-.049.02.469.469,0,0,0-.066.027A.164.164,0,0,0-1950.579,19313.332Zm.61-.219c0-.037-.006-.076-.008-.115a1.7,1.7,0,0,0-.028-.172c-.019-.08-.04-.164-.068-.248s-.051-.139-.081-.205-.062-.131-.1-.184-.068-.1-.1-.148a1.013,1.013,0,0,0-.068-.082.6.6,0,0,0-.079-.08c.077-.023.156-.047.228-.066l.171-.049.088-.023c.028-.008.056-.016.083-.021.109-.031.22-.059.329-.082h.013c.068-.018.132-.031.2-.051a.981.981,0,0,1,.137-.029c.111-.021.233-.047.354-.068.254-.047.508-.082.76-.115a1.682,1.682,0,0,1,.359.424,2.756,2.756,0,0,1,.269.6c-.282.055-.57.123-.856.2-.431.117-.864.254-1.289.408l-.015.01-.045.014c-.036.016-.077.031-.117.047s-.066.025-.1.035a.015.015,0,0,1-.013.01s-.015,0-.021.01Z" transform="translate(1974.747 -19117.568)" fill="#fff"/>
  </g>
</svg>
