<svg xmlns="http://www.w3.org/2000/svg" width="40.155" height="40.155" viewBox="0 0 40.155 40.155">
  <g id="Group_19936" data-name="Group 19936" transform="translate(-14.691 -877.955)">
    <rect id="Color" width="40.155" height="40.155" rx="8" transform="translate(14.691 877.955)" fill="#069"/>
    <path id="Union_236" data-name="Union 236" d="M-1944.539,20031.3l-.243-1.285a.236.236,0,0,0-.178-.18,7.255,7.255,0,0,1-1.585-.609.259.259,0,0,0-.26,0l-1.151.75-1.891-1.762.808-1.066a.216.216,0,0,0,0-.246,5.749,5.749,0,0,1-.652-1.48.226.226,0,0,0-.192-.164l-1.387-.227v-1.012l.314.082.352.09.51.121.325.078.572.117.278.059c.223.039.45.082.675.117a5.053,5.053,0,0,0,5.043,3.895,5.049,5.049,0,0,0,5.041-3.895c.227-.035.452-.078.677-.117l.276-.059c.187-.035.376-.078.565-.117.109-.023.218-.051.325-.078.171-.039.341-.078.512-.121l.343-.09c.107-.023.214-.051.318-.082l.007,1.008-1.374.227a.243.243,0,0,0-.2.164,5.779,5.779,0,0,1-.657,1.484.225.225,0,0,0,0,.246l.806,1.066-1.893,1.762-1.151-.75a.263.263,0,0,0-.263,0,6.787,6.787,0,0,1-1.579.609.229.229,0,0,0-.178.176l-.243,1.289Zm1.338-3.184a4.821,4.821,0,0,1-3.507-1.5,4.143,4.143,0,0,1-1-1.844c.16.023.318.043.485.066s.339.047.51.063c.225.031.454.051.684.074.158.016.321.035.486.047.243.02.488.035.73.047.145,0,.294.023.441.023.347.023.695.023,1.04.023h.265c.35,0,.7-.008,1.044-.023.147,0,.29-.023.437-.023.256-.012.5-.027.744-.047l.485-.047.686-.066.517-.074.488-.062a4.567,4.567,0,0,1-4.507,3.348Zm-3.157-3.621c-.548-.066-1.091-.137-1.636-.227-.439-.07-.88-.156-1.314-.25l-.416-.082-.352-.086c-.171-.039-.338-.078-.508-.121-.285-.07-.568-.148-.851-.227-.51-.145-1.038-.309-1.567-.488v-3.418h1.089l.973,1.555a.153.153,0,0,0,.058.063.152.152,0,0,0,.078.039c.281.09.561.168.844.242a25.264,25.264,0,0,0,3.705.7l.356.039.243.023.379.031.231.016.421.023h.227l.43.016h1.343l.4-.02.307-.012.652-.047h.04l.73-.07a31,31,0,0,0,4.9-.941.233.233,0,0,0,.142-.1l.973-1.555h1.084v3.418c-.532.176-1.058.344-1.574.492a30.139,30.139,0,0,1-3.438.77q-1.192.2-2.391.3-1.18.094-2.365.094A29.049,29.049,0,0,1-1946.358,20024.5Zm3.727-2.6h-1.434l-.485-.016-.225-.008-.392-.023-.265-.023-.205-.016a.1.1,0,0,1,0-.035c0-.031-.013-.059,0-.094a.443.443,0,0,0,.011-.117v-1.965l-.016-.2a1.345,1.345,0,0,1-.011-.172c0-.066-.018-.137-.018-.2l-.013-.18c-.018-.066,0-.133-.018-.2s0-.141-.018-.2a.67.67,0,0,1-.016-.176c-.042-.434-.091-.875-.143-1.332v-.09l-.036-.309v-.082l-.036-.3a.241.241,0,0,1-.013-.094,3.023,3.023,0,0,1-.038-.309v-.066c-.013-.105-.027-.223-.042-.336v-.031l-.042-.34v-.027c-.191-1.406-.361-2.488-.381-2.609l-.289-1.379a6.8,6.8,0,0,1,7,0l-.292,1.395c-.009.074-.062.4-.136.906a1.687,1.687,0,0,0-.035.246v.035c-.011.082-.025.16-.038.246v.055a1.862,1.862,0,0,0-.036.25v.074a1.979,1.979,0,0,0-.035.258.161.161,0,0,0-.013.082l-.036.262v.094c-.013.09-.027.176-.038.273v.1c-.011.086-.024.18-.038.273a.29.29,0,0,0-.013.105l-.036.285-.013.109-.038.289v.109l-.035.3a.3.3,0,0,0-.014.109,2.793,2.793,0,0,0-.038.34v.066l-.044.4v.008l-.045.41v.043c-.011.129-.033.238-.033.355v.125c-.007.086-.024.18-.024.266a.334.334,0,0,1,0,.141.976.976,0,0,0-.02.23.46.46,0,0,1,0,.156,1.072,1.072,0,0,0-.016.215v2.152a.106.106,0,0,0,0,.035l-.134.016-.438.055-.341.023-.272.016c-.174.012-.345.023-.516.023Zm-3.643-.164-.269-.031-.345-.043-.227-.035-.383-.062-.189-.031c-.142-.023-.281-.051-.418-.078l-.165-.027-.427-.094-.154-.031-.421-.1-.16-.043c-.12-.027-.243-.059-.365-.094l-.218-.059-.154-.047-.407-.113-.989-1.586a.134.134,0,0,0-.042-.047.242.242,0,0,0-.169-.066h-.232a9.17,9.17,0,0,1,1.4-3.266,3.825,3.825,0,0,1,1.325,3.094.233.233,0,0,0,.243.227.232.232,0,0,0,.243-.227,4.21,4.21,0,0,0-1.539-3.473,9.127,9.127,0,0,1,3.463-2.758c.078.516.174,1.168.272,1.891.011.094.024.184.038.281v.047l.038.266v.07c.009.086.022.172.033.262v.078a2.328,2.328,0,0,1,.031.258.2.2,0,0,1,.013.086c.009.086.031.172.031.254a.345.345,0,0,1,.011.105l.031.227a.389.389,0,0,1,.011.113l.053.242v.063c.031.277.06.547.089.816l.016.148c.018.063,0,.121.018.18s0,.121.016.176a.535.535,0,0,1,.018.152c0,.066.018.133.018.188a.437.437,0,0,0,0,.152.715.715,0,0,1,.016.176v.148l.029.18v.133l.016.18v2.141Zm6.026-.039a.3.3,0,0,1,0-.066v-.5a.338.338,0,0,1,0-.07v-1.441l.013-.187v-.129l.016-.187a.369.369,0,0,1,0-.141.841.841,0,0,0,.016-.191c0-.043,0-.07,0-.137s.02-.148.02-.2a.33.33,0,0,1,0-.141c.02-.07,0-.148.02-.2s0-.09.016-.148,0-.141.02-.191a.516.516,0,0,0,.018-.16l.013-.141.051-.453v-.1l.029-.238v-.109a2.025,2.025,0,0,0,.033-.258v-.078a2.372,2.372,0,0,0,.033-.273v-.066l.045-.285v-.055a2.865,2.865,0,0,0,.038-.289l0-.035c.118-.965.258-1.848.361-2.5a9,9,0,0,1,3.453,2.77,4.217,4.217,0,0,0-1.554,3.484.233.233,0,0,0,.243.227.234.234,0,0,0,.245-.227,3.809,3.809,0,0,1,1.332-3.109,9.229,9.229,0,0,1,1.492,3.309h-.243a.243.243,0,0,0-.209.113l-.993,1.586c-.309.074-.617.152-.926.227l-.221.055c-.2.047-.405.086-.6.125s-.387.086-.572.121-.367.066-.552.094l-.6.105c-.207.031-.41.059-.617.082l-.425.059Z" transform="translate(1978.199 -19122.449)" fill="#fff"/>
  </g>
</svg>
