<svg xmlns="http://www.w3.org/2000/svg" width="31.294" height="39.672" viewBox="0 0 31.294 39.672">
  <path id="Path_17963" data-name="Path 17963" d="M46.667,36.044l-.7-.7a6.5,6.5,0,0,0,1.5-3.667v3.879a1.526,1.526,0,0,0-.707.4h0Zm-5.247,1.61h3.946a1.525,1.525,0,0,1,.4-.711l.091-.091-.7-.7a6.5,6.5,0,0,1-3.733,1.506Zm3.348-2.7a5.369,5.369,0,1,1,1.586-3.81,5.387,5.387,0,0,1-1.586,3.81Zm-.866-.868a4.159,4.159,0,1,0-2.941,1.218A4.159,4.159,0,0,0,43.9,34.087ZM37.04,25.094V16.6H35.457v8.489Zm5.111-.366v-12.1H40.567v12a6.591,6.591,0,0,1,1.583.1Zm-.44-22.42V7.256h4.948ZM36.343,35.763A6.5,6.5,0,0,0,40.5,37.655H19.69V1.5H40.567V7.826a.571.571,0,0,0,.571.572h6.327v22.22a6.511,6.511,0,0,0-4.172-5.57V12.058a.572.572,0,0,0-.572-.572H40a.571.571,0,0,0-.571.572V24.8a6.484,6.484,0,0,0-1.242.435v-9.2a.571.571,0,0,0-.572-.571H34.885a.571.571,0,0,0-.571.571v9.632a.571.571,0,0,0,.571.572h1.772c-.107.093-.213.19-.314.292A6.5,6.5,0,0,0,35,28.469a.591.591,0,0,0-.114-.012H23.262a.572.572,0,0,0,0,1.143H34.618a6.536,6.536,0,0,0-.181,1.4H23.262a.572.572,0,0,0,0,1.143H34.511a6.522,6.522,0,0,0,.38,1.4H23.262a.572.572,0,0,0,0,1.143H35.478A6.517,6.517,0,0,0,36.343,35.763ZM29.623,7.1a.572.572,0,0,0,.571.572H33.9a.572.572,0,0,0,0-1.143H30.194A.571.571,0,0,0,29.623,7.1Zm0,2.356a.572.572,0,0,0,.571.572h6.689a.572.572,0,0,0,0-1.143H30.194A.572.572,0,0,0,29.623,9.456Zm0,2.356a.571.571,0,0,0,.571.571h6.689a.572.572,0,0,0,0-1.143H30.194A.572.572,0,0,0,29.623,11.812ZM29.2,25.665a.572.572,0,0,0,.572.572H32.5a.572.572,0,0,0,.572-.572V19.43a.571.571,0,0,0-.572-.571H29.775a.571.571,0,0,0-.572.571Zm-1.241-7.2a.572.572,0,0,0-.572-.572H24.664a.572.572,0,0,0-.572.572v7.2a.572.572,0,0,0,.572.572H27.39a.572.572,0,0,0,.572-.572Zm-4.894-7.1a1.986,1.986,0,0,0,1.809,1.8v.709a.572.572,0,1,0,1.143,0v-.709a1.986,1.986,0,0,0,1.809-1.8v-.64c0-1.453-1.375-1.687-2.284-1.842-1.1-.186-1.333-.314-1.333-.715v-.64c0-.334.529-.707,1.237-.707s1.237.373,1.237.707v.346a.572.572,0,0,0,1.143,0V7.537a1.986,1.986,0,0,0-1.809-1.8V5.032a.572.572,0,1,0-1.143,0v.709a1.986,1.986,0,0,0-1.809,1.8v.64c0,1.453,1.374,1.687,2.284,1.842,1.1.186,1.333.314,1.333.715v.64c0,.334-.529.707-1.237.707s-1.237-.373-1.237-.707v-.346a.572.572,0,0,0-1.143,0Zm2.168,13.72h1.583V19.04H25.235ZM31.929,20H30.346v5.092h1.583ZM48.122,36.761a.394.394,0,0,0-.555,0l-.992.991a.394.394,0,0,0,0,.555l.8.8,1.547-1.546Zm2.751,2.751-1.147-1.146L48.18,39.912l1.146,1.146a.4.4,0,0,0,.555,0l.99-.99a.4.4,0,0,0,0-.555Zm-7.779-10.5A3.016,3.016,0,0,0,37.947,31h1.89a.572.572,0,0,1,0,1.143H38.113a3.009,3.009,0,0,0,.714,1.133,3.051,3.051,0,0,0,.314.273H42.78a3.051,3.051,0,0,0,.314-.273,3.017,3.017,0,0,0,0-4.266Z" transform="translate(-19.69 -1.5)" fill="#069"/>
</svg>
