<svg xmlns="http://www.w3.org/2000/svg" width="40.155" height="40.155" viewBox="0 0 40.155 40.155">
  <g id="Group_19940" data-name="Group 19940" transform="translate(-317.691 -950.764)">
    <path id="Color" d="M8,0H32.155a8,8,0,0,1,8,8V32.155a8,8,0,0,1-8,8H8a8,8,0,0,1-8-8V8A8,8,0,0,1,8,0Z" transform="translate(317.691 950.764)" fill="#069"/>
    <path id="Path_17835" data-name="Path 17835" d="M6.16,27.8v-1.4c.009-.329.4-.238.618-.249V25.009a.249.249,0,0,1,.249-.249h.707L6.389,22.812A1.011,1.011,0,0,0,5.1,22.49a1,1,0,0,0-.356.322l-.87,1.26a.254.254,0,0,1-.021.031L.5,28.953H6.777v-.9C6.565,28.043,6.166,28.131,6.16,27.8Zm-2.912-.877a.416.416,0,0,1,.588-.587A.416.416,0,0,1,3.247,26.927Zm1.617,1.459a.416.416,0,0,1,0-.832A.416.416,0,0,1,4.865,28.386Zm.6-3.849a.416.416,0,0,1,.588-.588A.416.416,0,0,1,5.462,24.537Zm9.392,3.517h.368v.9H7.276v-.9Zm-.249-.5H6.658v-.9H14.6Zm-7.329-2.3h7.947v.9H7.276Zm17.2-.213.756,3.907H23.849V26.8a.249.249,0,1,0-.5,0v2.149h-.92V26.8a.249.249,0,1,0-.5,0v2.149h-.92V26.8a.249.249,0,1,0-.5,0v2.149H19.6V26.8a.249.249,0,1,0-.5,0v2.149h-.92V26.8a.249.249,0,1,0-.5,0v2.149H16.295l.756-3.907Zm-7.92-.072-.769,3.978h-.068V27.8c-.006-.327-.4-.239-.618-.249v-.9c.214-.011.609.08.618-.249v-1.4a.249.249,0,0,0-.249-.249H13.212V21.43h4.519V22.6h-.762A1.228,1.228,0,0,0,16.558,24.974Zm5.472-1.88h2.529a.727.727,0,1,1,0,1.453h-7.59a.727.727,0,0,1,0-1.454Zm-.249-.5H19.894v-.784h1.887Zm-1.4-1.283c0-1.357,0-5.117,0-6.424V12.538a.457.457,0,0,1,.914,0v8.775Zm-2.649-.382H13.212V19.766h4.519Zm.249-1.663H12.963a.249.249,0,0,0-.249.249V24.76H11.061c0-1.115,0-4.169,0-5.243a.249.249,0,0,0-.249-.249H5.805a.249.249,0,0,0-.249.249c0,.479,0,1.908,0,2.365a1.47,1.47,0,0,0-1.226.648l-.427.619v-6H19.882v4.168c-.2-.006-.476-.028-.487.249V22.6H18.229c0-.759,0-2.315,0-3.079A.249.249,0,0,0,17.98,19.268ZM8.558,24.76V21.43h2.005V24.76Zm-2.5-3.331H8.059v2.928L6.8,22.53a1.472,1.472,0,0,0-.743-.569Zm4.508-.5H6.054V19.766h4.508Zm2.031-8.755a.993.993,0,0,1-1.4,1.4A.993.993,0,0,1,12.594,12.177Zm7.288,2.835-7.411-5.7a.939.939,0,0,0-1.157,0L3.9,15.011v1.636H19.882ZM10.4,12.879a1.49,1.49,0,0,1,2.98,0A1.49,1.49,0,0,1,10.4,12.879ZM2.027,14.855l8.514-6.549a2.207,2.207,0,0,1,2.7,0l6.638,5.107v.972L12.775,8.917a1.43,1.43,0,0,0-1.764,0L2.267,15.643A.442.442,0,0,1,2.027,14.855Z" transform="translate(324.978 951.443)" fill="#fff" fill-rule="evenodd"/>
  </g>
</svg>
