<svg id="Group_16874" data-name="Group 16874" xmlns="http://www.w3.org/2000/svg" width="17.028" height="12.635" viewBox="0 0 17.028 12.635">
  <path id="Path_17333" data-name="Path 17333" d="M27.778,36.178h1.474a.606.606,0,0,1,.6.6v2.156a.606.606,0,0,1-.6.6H25.377a.606.606,0,0,1-.6-.6V36.778a.606.606,0,0,1,.6-.6h2.4Zm5.048,0H31.353a.606.606,0,0,0-.6.6v2.156a.606.606,0,0,0,.6.6h3.875a.606.606,0,0,0,.6-.6V36.778a.606.606,0,0,0-.6-.6h-2.4Zm-11.952,0H19.4a.606.606,0,0,0-.6.6v2.156a.606.606,0,0,0,.6.6h3.848a.606.606,0,0,0,.6-.6V36.778a.606.606,0,0,0-.6-.6H20.874Zm12.88-2.292v1.5h-.928V34.35H27.778v1.037H26.85V34.35H21.8v1.037h-.928v-1.5a.478.478,0,0,1,.464-.464H26.85V31.894H24.258a.722.722,0,0,1-.709-.71V27.61a.722.722,0,0,1,.709-.71H30.4a.722.722,0,0,1,.71.71v3.575a.722.722,0,0,1-.71.71H27.805v1.528h5.512A.438.438,0,0,1,33.754,33.886Zm-9.06-5.048a.215.215,0,0,0,.218.218h4.8a.215.215,0,0,0,.218-.218v-.273a.215.215,0,0,0-.218-.218h-4.8a.215.215,0,0,0-.218.218Zm5.021,1.583a.215.215,0,0,0,.218-.218v-.273a.215.215,0,0,0-.218-.218h-4.8a.215.215,0,0,0-.218.218V30.2a.215.215,0,0,0,.218.218Z" transform="translate(-18.8 -26.9)" fill="#069"/>
</svg>
