<svg xmlns="http://www.w3.org/2000/svg" width="40.155" height="40.155" viewBox="0 0 40.155 40.155">
  <g id="Group_19945" data-name="Group 19945" transform="translate(-14.691 -877.955)">
    <rect id="Color" width="40.155" height="40.155" rx="8" transform="translate(14.691 877.955)" fill="#069"/>
    <path id="Path_17855" data-name="Path 17855" d="M21.144,9.424,17.932,6.365V9.424Zm-5.515,2.745V11.6a.588.588,0,0,0-.588-.588H12.23a.588.588,0,0,0-.588.588v.574H15.63Zm-4.595,0V11.6A1.194,1.194,0,0,1,12.228,10.4h2.811A1.194,1.194,0,0,1,16.233,11.6v.574h1.74a.655.655,0,0,1,.461.192.664.664,0,0,1,.192.464v5.758a1.062,1.062,0,0,1-1.059,1.059H9.7a1.062,1.062,0,0,1-1.059-1.059V12.825a.655.655,0,0,1,.192-.461.648.648,0,0,1,.461-.194h1.74Zm2.7,3.963v-.8h-.21v.8a.1.1,0,0,0,.03.074.1.1,0,0,0,.178-.074Zm.6-.273v.273a.711.711,0,1,1-1.421,0V15.86h-.664a.305.305,0,0,1-.2-.074l-2.814-2.15v4.947a.449.449,0,0,0,.134.319.454.454,0,0,0,.319.134h7.87a.449.449,0,0,0,.319-.134.454.454,0,0,0,.134-.319V13.636L15.19,15.8a.313.313,0,0,1-.183.063h-.664Zm0-.825v.221h.563l3.117-2.379v-.052a.053.053,0,0,0-.013-.035.1.1,0,0,0-.035-.013H9.3a.053.053,0,0,0-.035.013.1.1,0,0,0-.013.035v.052l3.114,2.379h.563v-.221a.3.3,0,0,1,.3-.3h.817a.3.3,0,0,1,.3.3ZM11.9,17.865H10.123v.24H11.9Zm-2.081-.6a.3.3,0,0,0-.3.3v.844a.3.3,0,0,0,.3.3H12.2a.3.3,0,0,0,.3-.3v-.844a.3.3,0,0,0-.3-.3Zm6.654,6.723L19.1,21.4a.087.087,0,0,1,.016-.013,1.6,1.6,0,0,0,.541-.909.711.711,0,0,0-.148-.538.877.877,0,0,0-.453-.287,2.284,2.284,0,0,0-1.388.131.346.346,0,0,0-.074.041l-3.308,2.5a1.917,1.917,0,0,1-.543.292,1.87,1.87,0,0,1-.612.09l-2.005-.027H11.1a.048.048,0,0,1,0-.027.082.082,0,0,1,.011-.041.051.051,0,0,1,.047-.039l1.926-.019a.3.3,0,0,0,.085-.008,1.144,1.144,0,0,0-.118-2.237H13.04l-2.073-.227a6.508,6.508,0,0,0-2.4-.426c-.044,0-.087.005-.131.008V6.013a.053.053,0,0,1,.013-.035.1.1,0,0,1,.035-.013h8.839V9.726a.3.3,0,0,0,.3.3H21.6v13.9a.053.053,0,0,1-.013.035.1.1,0,0,1-.035.013H16.478ZM4.258,23.016,3.1,23.893l3.038,4.018L7.3,27.034Zm.711-.06,2.576,3.409a2.149,2.149,0,0,1,.727-.437,2.988,2.988,0,0,1,.83-.164l4.242-.279a2.255,2.255,0,0,0,.708-.153,1.729,1.729,0,0,0,.582-.385l4.042-3.972.016-.016a1.063,1.063,0,0,0,.363-.546.1.1,0,0,0-.019-.09.323.323,0,0,0-.153-.085,1.661,1.661,0,0,0-.964.1l-3.272,2.474a2.39,2.39,0,0,1-1.527.5l-2.005-.027a.592.592,0,0,1-.577-.377.669.669,0,0,1-.047-.265.689.689,0,0,1,.052-.256.641.641,0,0,1,.6-.416l1.893-.019a.552.552,0,0,0,.268-.194.546.546,0,0,0,.1-.347.531.531,0,0,0-.139-.336.554.554,0,0,0-.319-.172L10.87,20.68a.243.243,0,0,1-.085-.016,6.082,6.082,0,0,0-2.2-.407,1.814,1.814,0,0,0-1.278.516l-.016.016L4.959,22.951Zm-2.12,1.609,2.573,3.406-.227.172L2.622,24.737ZM22.2,19.124a2.6,2.6,0,0,0,0-5.17Zm0-5.775V11.232h.093l.129.828a.3.3,0,0,0,.246.256,4.355,4.355,0,0,1,.872.256,4.151,4.151,0,0,1,.79.429.3.3,0,0,0,.361,0l.683-.5.56.56-.5.68a.3.3,0,0,0-.005.35,4.245,4.245,0,0,1,.437.8,4.3,4.3,0,0,1,.256.866.3.3,0,0,0,.251.248l.833.129v.792l-.828.129a.3.3,0,0,0-.256.246,4.355,4.355,0,0,1-.256.872,4.245,4.245,0,0,1-.429.79.3.3,0,0,0,0,.361l.5.68-.56.56-.683-.5a.3.3,0,0,0-.35-.005,4.245,4.245,0,0,1-.8.437,4.3,4.3,0,0,1-.866.256.3.3,0,0,0-.248.251l-.129.833h-.093V19.73a3.209,3.209,0,0,0,0-6.388ZM9.718,8.08h3.931a.3.3,0,1,0,0-.606H9.718a.3.3,0,0,0,0,.606Zm0,1.713h6.1a.3.3,0,0,0,0-.606h-6.1a.3.3,0,0,0,0,.606ZM7.831,19.776a2.2,2.2,0,0,0-.861.492V4.6a.053.053,0,0,1,.013-.035.1.1,0,0,1,.035-.013h13.06a.053.053,0,0,1,.035.013.1.1,0,0,1,.013.035V7.627L17.847,5.457a.3.3,0,0,0-.224-.1H8.487a.654.654,0,0,0-.653.656V19.779Z" transform="translate(21.577 882.104)" fill="#fff" fill-rule="evenodd"/>
  </g>
</svg>
