<svg xmlns="http://www.w3.org/2000/svg" width="18.817" height="18.817" viewBox="0 0 18.817 18.817">
  <path id="Path_17346" data-name="Path 17346" d="M4.962.529C3.078.531,1.47,1.557,1.47,3.441v.424a.426.426,0,0,1-.424.428H.529l1.882,2.2,1.882-2.2H3.779a.426.426,0,0,1-.428-.428V3.44A3.121,3.121,0,0,1,4.962.529Zm8.166,1.329A.239.239,0,0,0,13.022,2a1.68,1.68,0,0,1-.28.491,2.088,2.088,0,0,1-.82.532,2.1,2.1,0,0,1-.961.187,1.7,1.7,0,0,1-.544-.157c-.107-.044-.125-.041-.174-.028a1.452,1.452,0,0,0-.5.377,1.589,1.589,0,0,0-.387.493c-.015.045-.017.068.025.176a1.683,1.683,0,0,1,.146.544,2.093,2.093,0,0,1-.2.959,2.088,2.088,0,0,1-.546.81,1.693,1.693,0,0,1-.5.273c-.107.045-.123.065-.143.1a1.59,1.59,0,0,0-.086.621A1.452,1.452,0,0,0,8.132,8c.023.045.035.059.141.106a1.7,1.7,0,0,1,.489.283A2.086,2.086,0,0,1,9.3,9.21a2.092,2.092,0,0,1,.185.962,1.687,1.687,0,0,1-.155.541c-.044.107-.042.13-.03.176a1.605,1.605,0,0,0,.379.5,1.51,1.51,0,0,0,.491.387c.053.014.068.017.176-.025a1.7,1.7,0,0,1,.546-.146,2.084,2.084,0,0,1,.956.2,2.089,2.089,0,0,1,.81.548,1.688,1.688,0,0,1,.273.493.245.245,0,0,0,.1.144,1.408,1.408,0,0,0,.62.086h.094a1.408,1.408,0,0,0,.62-.086.245.245,0,0,0,.1-.144,1.688,1.688,0,0,1,.273-.493,2.542,2.542,0,0,1,1.767-.75,1.7,1.7,0,0,1,.546.146c.108.042.123.039.176.025a1.51,1.51,0,0,0,.491-.387,1.606,1.606,0,0,0,.379-.5c.012-.047.014-.069-.03-.176a1.687,1.687,0,0,1-.155-.541,2.092,2.092,0,0,1,.185-.962,2.086,2.086,0,0,1,.535-.819,1.7,1.7,0,0,1,.489-.283c.106-.047.119-.061.141-.106a1.452,1.452,0,0,0,.076-.621,1.59,1.59,0,0,0-.086-.621c-.021-.039-.037-.059-.143-.1a1.693,1.693,0,0,1-.5-.273,2.088,2.088,0,0,1-.546-.81,2.093,2.093,0,0,1-.2-.959,1.683,1.683,0,0,1,.146-.544c.042-.108.04-.131.025-.176a1.589,1.589,0,0,0-.387-.493,1.452,1.452,0,0,0-.5-.377c-.049-.013-.067-.016-.174.028a1.7,1.7,0,0,1-.544.157,2.1,2.1,0,0,1-.961-.187,2.088,2.088,0,0,1-.82-.532A1.68,1.68,0,0,1,14.38,2a.239.239,0,0,0-.107-.141,1.384,1.384,0,0,0-.573-.073,1.384,1.384,0,0,0-.573.073Zm2.01,2.1A3.763,3.763,0,0,1,13.7,11.2h-.186l.093.093a.313.313,0,0,1-.442.442l-.627-.628a.314.314,0,0,1,0-.442l.627-.627a.313.313,0,1,1,.442.442l-.092.092H13.7a3.131,3.131,0,0,0,1.983-.705l-.325-.326A.314.314,0,0,1,15.8,9.1l.325.325a3.126,3.126,0,0,0,.649-1.374c.02-.1.033-.2.044-.3h-.3a.314.314,0,1,1,0-.627h.3a3.135,3.135,0,0,0-.692-1.673L15.8,5.78a.314.314,0,0,1-.445-.442l.328-.328a3.142,3.142,0,0,0-1.673-.692v.3a.314.314,0,1,1-.627,0v-.3a3.136,3.136,0,0,0-1.672.694l.324.326a.313.313,0,1,1-.442.442l-.325-.323q-.093.115-.177.24a3.131,3.131,0,0,0-.513,1.431h.3a.314.314,0,1,1,0,.627h-.3a3.128,3.128,0,0,0,.9,1.9.314.314,0,0,1-.442.445,3.762,3.762,0,0,1,4.1-6.138Zm-1.128,1.91V7.44a.313.313,0,0,1-.092.222l-.641.641a.314.314,0,0,1-.442-.445l.549-.549V5.872a.314.314,0,0,1,.627,0ZM5.546,7.115V10.25H8.828a.667.667,0,0,0,.029-.134,1.454,1.454,0,0,0-.141-.672,1.452,1.452,0,0,0-.366-.581,1.12,1.12,0,0,0-.329-.181.83.83,0,0,1-.451-.4,2.031,2.031,0,0,1-.141-.91c0-.094,0-.179.009-.259Zm-.627.445L2.23,10.25H4.919ZM1.674,10.878.7,13.075H9.419l.354-.8a2.614,2.614,0,0,1-.544-.452,1.961,1.961,0,0,1-.53-.752.77.77,0,0,1-.034-.2Zm9.2,1.36a1.415,1.415,0,0,0-.306.1,1.34,1.34,0,0,1-.158.05l-.5,1.131a.314.314,0,0,1-.287.187H1.47v5.643h9.408Zm.627,6.446,2.51-3.517V13.694c-.081.005-.167.008-.262.009-.036,0-.072,0-.1,0a1.961,1.961,0,0,1-.907-.157.831.831,0,0,1-.391-.456,1.125,1.125,0,0,0-.174-.333,1.468,1.468,0,0,0-.576-.373c-.035-.015-.063-.024-.095-.036ZM2.4,16.837a.31.31,0,0,1,.319.315v1.255a.313.313,0,1,1-.627,0V17.152A.31.31,0,0,1,2.4,16.837Zm1.574.315v1.255a.314.314,0,1,1-.627,0V17.152a.314.314,0,1,1,.627,0Zm.934-.315a.31.31,0,0,1,.319.315v1.255a.314.314,0,1,1-.627,0V17.152A.31.31,0,0,1,4.913,16.837Z" transform="translate(-0.529 -0.529)" fill="#069"/>
</svg>
