<svg xmlns="http://www.w3.org/2000/svg" width="40" height="40" viewBox="0 0 40 40">
  <g id="Group_19925" data-name="Group 19925" transform="translate(-1579.351 -493)">
    <rect id="Rectangle_12746" data-name="Rectangle 12746" width="40" height="40" rx="6" transform="translate(1579.351 493)" fill="#e45e56"/>
    <path id="Path_17563" data-name="Path 17563" d="M12.262,4.316a4.019,4.019,0,1,0,4.019,4.019A4.019,4.019,0,0,0,12.262,4.316Zm0,.637A3.382,3.382,0,1,1,8.88,8.335,3.382,3.382,0,0,1,12.262,4.954Zm0,.444A2.938,2.938,0,1,1,9.324,8.336,2.938,2.938,0,0,1,12.262,5.4ZM12.037,7a.388.388,0,0,1,.776,0V8.4a.387.387,0,0,1-.179.327L11.321,9.6a.388.388,0,1,1-.43-.646l1.146-.764Zm13.257,4.363h2.563a.6.6,0,0,1,.6.6v9.284L28,21.585a4.7,4.7,0,0,0-.739-.306l-.092-.574a.778.778,0,0,0-.679-.65,5.878,5.878,0,0,0-1.342,0,.774.774,0,0,0-.453.215v-8.3a.6.6,0,0,1,.6-.6Zm-18.866,5.2H8.991a.6.6,0,0,1,.6.6v8.863H5.826V17.172a.6.6,0,0,1,.6-.6Zm6.289,2.752H15.28a.6.6,0,0,1,.6.6v6.112H12.114V19.923a.6.6,0,0,1,.6-.6ZM19,14.758h2.563a.6.6,0,0,1,.6.6v5.947a5.841,5.841,0,0,0-.9.908.779.779,0,0,0-.02.94l.34.471a4.7,4.7,0,0,0-.306.739l-.574.092a.778.778,0,0,0-.65.679,5.919,5.919,0,0,0-.034.9H18.4V15.361a.6.6,0,0,1,.6-.6Zm4.847-6.6a.387.387,0,0,1,.058-.773l1.963.151a.388.388,0,0,1,.357.415l-.151,1.963a.387.387,0,1,1-.773-.058l.083-1.067L20.825,12.48a.387.387,0,0,1-.244.086H16.788l-2.858,4.95a.385.385,0,0,1-.527.142.394.394,0,0,1-.145-.146l-1.936-3.352h-4.2a.388.388,0,1,1,0-.776h4.422a.383.383,0,0,1,.335.193l1.715,2.971,2.618-4.535a.388.388,0,0,1,.353-.226h3.88l4.4-3.56ZM20.122,26.7H5.09a.761.761,0,0,0-.758.758v.429a.761.761,0,0,0,.758.758H21.154a.761.761,0,0,1,.1-.184l.34-.471a4.7,4.7,0,0,1-.306-.739l-.574-.092a.782.782,0,0,1-.592-.459Zm4.837-4.89a4.053,4.053,0,0,0-1.367.567l-.82-.592a.111.111,0,0,0-.138,0,5.156,5.156,0,0,0-.841.841.114.114,0,0,0,0,.138l.592.82a4.077,4.077,0,0,0-.567,1.367l-1,.162a.111.111,0,0,0-.094.1,5.2,5.2,0,0,0,0,1.189.112.112,0,0,0,.094.1l1,.162a4.063,4.063,0,0,0,.567,1.367l-.592.82a.111.111,0,0,0,0,.138,5.156,5.156,0,0,0,.841.841.114.114,0,0,0,.138,0l.82-.592a4.077,4.077,0,0,0,1.367.567l.162,1a.111.111,0,0,0,.1.094,5.2,5.2,0,0,0,1.189,0,.112.112,0,0,0,.1-.094l.162-1a4.063,4.063,0,0,0,1.367-.567l.82.592a.111.111,0,0,0,.138,0,5.156,5.156,0,0,0,.841-.841.114.114,0,0,0,0-.138l-.592-.82a4.077,4.077,0,0,0,.567-1.367l1-.162a.111.111,0,0,0,.094-.1,5.2,5.2,0,0,0,0-1.189.112.112,0,0,0-.094-.1l-1-.162a4.063,4.063,0,0,0-.567-1.367l.592-.82a.111.111,0,0,0,0-.138,5.156,5.156,0,0,0-.841-.841.114.114,0,0,0-.138,0l-.82.592a4.077,4.077,0,0,0-1.367-.567l-.162-1a.111.111,0,0,0-.1-.094,5.2,5.2,0,0,0-1.189,0,.112.112,0,0,0-.1.094Zm3.986,4a3.13,3.13,0,1,1-3.13-3.13A3.131,3.131,0,0,1,28.946,25.808Zm-.665,0a2.466,2.466,0,1,1-2.466-2.466A2.466,2.466,0,0,1,28.281,25.808Z" transform="translate(1581.714 495.373)" fill="#fff" fill-rule="evenodd"/>
  </g>
</svg>
