<svg xmlns="http://www.w3.org/2000/svg" width="40" height="40" viewBox="0 0 40 40">
  <g id="Group_19920" data-name="Group 19920" transform="translate(-5 -3)">
    <g id="Group_18925" data-name="Group 18925" transform="translate(5 2.5)">
      <rect id="Rectangle_12736" data-name="Rectangle 12736" width="40" height="40" rx="6" transform="translate(0 0.5)" fill="#069"/>
    </g>
    <path id="Path_17828" data-name="Path 17828" d="M25.931,6.035c-.082-.035-.154-.063-.221-.088a.348.348,0,0,1-.236-.262l-.639-3.052H21.6l-.639,3.052a.347.347,0,0,1-.217.255l-.233.091c-.078.035-.151.063-.212.091a.346.346,0,0,1-.359-.015L17.33,4.4,15.046,6.684,16.754,9.3a.35.35,0,0,1,.026.334c-.032.067-.063.145-.1.233s-.063.154-.088.217a.348.348,0,0,1-.262.236l-3.052.639v3.232l3.052.639a.352.352,0,0,1,.255.221c.026.067.057.145.095.236s.063.148.091.212a.351.351,0,0,1-.013.359l-1.708,2.612,2.284,2.284,2.612-1.708a.349.349,0,0,1,.334-.026c.067.032.141.063.233.1s.154.063.221.088a.348.348,0,0,1,.236.262l.639,3.052h3.232l.639-3.052a.354.354,0,0,1,.217-.255c.067-.026.145-.057.236-.095s.148-.063.212-.091a.346.346,0,0,1,.359.015l2.612,1.708L31.4,18.465l-1.708-2.612a.35.35,0,0,1-.026-.334c.032-.067.063-.141.1-.233s.063-.154.088-.221a.348.348,0,0,1,.262-.236l3.052-.639V10.958l-3.052-.639a.352.352,0,0,1-.255-.221c-.026-.067-.057-.145-.095-.236s-.063-.148-.091-.212a.346.346,0,0,1,.015-.359L31.4,6.679,29.115,4.395,26.5,6.1a.349.349,0,0,1-.334.026c-.067-.032-.141-.063-.233-.1Zm.675,3.156a4.784,4.784,0,1,1-3.383-1.4,4.765,4.765,0,0,1,3.383,1.4Zm-3.383-2.1a5.476,5.476,0,1,1-3.875,1.6,5.473,5.473,0,0,1,3.875-1.6Zm9.662,17.352H13.56a1.776,1.776,0,0,0,0,3.552H32.884a1.776,1.776,0,0,0,0-3.552ZM14.108,26.568a.35.35,0,1,1,0-.7H26.992a.35.35,0,1,1,0,.7Z" transform="translate(1.778 7.686)" fill="#fff" fill-rule="evenodd"/>
  </g>
</svg>
