<svg xmlns="http://www.w3.org/2000/svg" width="40" height="40" viewBox="0 0 40 40">
  <g id="Group_19922" data-name="Group 19922" transform="translate(-1262 -256)">
    <rect id="Rectangle_12853" data-name="Rectangle 12853" width="40" height="40" rx="6" transform="translate(1262 256)" fill="#06b050"/>
    <g id="Group_16993" data-name="Group 16993" transform="translate(1270.816 259.695)">
      <path id="Path_17553" data-name="Path 17553" d="M142.231,597.648a.5.5,0,0,0,.1.687l3.571,2.678a.5.5,0,0,0,.687-.1l1.442-1.923-4.326-3.262Z" transform="translate(-142.134 -568.499)" fill="#fff"/>
      <path id="Path_17554" data-name="Path 17554" d="M210.165,500.258l-3.262,1.03v.206a2.079,2.079,0,0,1-1.648,1.923l-.206.034a21.517,21.517,0,0,1-3.639.446l-1,.034a.6.6,0,1,1-.034-1.2l1-.034a19.525,19.525,0,0,0,3.433-.412l.206-.034a.848.848,0,0,0,.687-.824.906.906,0,0,0-.24-.652.86.86,0,0,0-.618-.275l-5.184-.172a2.488,2.488,0,0,0-1.614.481l-4.326,3.124,4.463,3.365,4.395.412a3,3,0,0,0,2.129-.618l6.42-5.013a1.047,1.047,0,0,0,.412-.755.942.942,0,0,0-.275-.79A1.188,1.188,0,0,0,210.165,500.258Z" transform="translate(-191.288 -477.495)" fill="#fff"/>
      <path id="Path_17555" data-name="Path 17555" d="M399.188,21.571a.835.835,0,0,0,.824-.824V19.031a.824.824,0,1,0-1.648,0v1.751A.806.806,0,0,0,399.188,21.571Z" transform="translate(-386.284 -18.207)" fill="#fff"/>
      <path id="Path_17556" data-name="Path 17556" d="M301.257,43.153a.841.841,0,0,0,.721.446,1.22,1.22,0,0,0,.343-.069.813.813,0,0,0,.378-1.1l-.755-1.579a.821.821,0,1,0-1.476.721Z" transform="translate(-292.92 -39.342)" fill="#fff"/>
      <path id="Path_17557" data-name="Path 17557" d="M480,43.531a.619.619,0,0,0,.343.069.8.8,0,0,0,.721-.446l.79-1.579a.821.821,0,0,0-1.476-.721l-.755,1.579A.813.813,0,0,0,480,43.531Z" transform="translate(-463.629 -39.342)" fill="#fff"/>
      <path id="Path_17558" data-name="Path 17558" d="M260.808,137.475l-1.476-.206c-.172-.446-.24-.549-.412-1l.893-1.2a.785.785,0,0,0-.069-1.03l-1.2-1.2a.785.785,0,0,0-1.03-.069l-1.2.893c-.446-.172-.549-.24-1-.412l-.24-1.476a.811.811,0,0,0-.79-.687H252.6a.807.807,0,0,0-.79.687l-.206,1.476c-.446.172-.549.24-1,.412l-1.2-.893a.785.785,0,0,0-1.03.069l-1.2,1.2a.785.785,0,0,0-.069,1.03l.893,1.2c-.172.446-.24.549-.412,1l-1.476.206a.811.811,0,0,0-.687.79v1.682a.781.781,0,0,0,.687.79l1.476.206c.172.446.24.549.412,1l-.893,1.2a.785.785,0,0,0,.069,1.03l1.2,1.2a.785.785,0,0,0,1.03.069l1.2-.893c.446.172.549.24,1,.412l.206,1.476a.811.811,0,0,0,.79.687h1.682a.807.807,0,0,0,.79-.687l.206-1.476c.446-.172.549-.24,1-.412l1.2.893a.785.785,0,0,0,1.03-.069l1.2-1.2a.785.785,0,0,0,.069-1.03l-.858-1.167c.172-.446.24-.549.412-1l1.476-.206a.811.811,0,0,0,.687-.79V138.3A.883.883,0,0,0,260.808,137.475Zm-4.395.824-3.193,3.193a.955.955,0,0,1-.721.275,1.181,1.181,0,0,1-.721-.275l-1.579-1.579a1,1,0,1,1,1.408-1.408l.893.893,2.506-2.506a1.016,1.016,0,0,1,1.408,0A.956.956,0,0,1,256.413,138.3Z" transform="translate(-240.557 -125.767)" fill="#fff"/>
    </g>
  </g>
</svg>
