<svg xmlns="http://www.w3.org/2000/svg" width="40" height="40" viewBox="0 0 40 40">
  <g id="Group_19928" data-name="Group 19928" transform="translate(-1432.25 -746)">
    <rect id="Rectangle_12752" data-name="Rectangle 12752" width="40" height="40" rx="6" transform="translate(1432.25 746)" fill="#1e3044"/>
    <path id="Path_17569" data-name="Path 17569" d="M24.017,24.907a2.829,2.829,0,1,0,2.83,2.83,2.83,2.83,0,0,0-2.83-2.83Zm0,4.118h0a1.287,1.287,0,0,1-1.288-1.287.241.241,0,0,1,.483,0,.805.805,0,0,0,.805.792.241.241,0,0,1,0,.483Zm1.047-1.047a.245.245,0,0,1-.241-.241.81.81,0,0,0-.805-.818.241.241,0,1,1,0-.483A1.29,1.29,0,0,1,25.3,27.723a.238.238,0,0,1-.066.179.241.241,0,0,1-.175.076Zm4.462-1.609h0a.488.488,0,0,1-.461-.321A5.989,5.989,0,0,0,28.8,25.4a.49.49,0,0,1,.087-.563.966.966,0,0,0,0-1.375l-.57-.57a.966.966,0,0,0-1.375,0,.49.49,0,0,1-.563.087,5,5,0,0,0-.645-.267.488.488,0,0,1-.321-.461.967.967,0,0,0-.966-.966H23.64a.966.966,0,0,0-.966.966.487.487,0,0,1-.322.461,5.054,5.054,0,0,0-.643.267.492.492,0,0,1-.564-.087.965.965,0,0,0-1.374,0l-.57.57a.966.966,0,0,0,0,1.375.492.492,0,0,1,.089.563,5.387,5.387,0,0,0-.27.645.485.485,0,0,1-.46.321.966.966,0,0,0-.966.966v.805a.965.965,0,0,0,.966.966.485.485,0,0,1,.46.322,6.124,6.124,0,0,0,.268.643.492.492,0,0,1-.087.564.965.965,0,0,0,0,1.374l.57.57a.965.965,0,0,0,1.374,0,.492.492,0,0,1,.564-.087,5.65,5.65,0,0,0,.643.268.485.485,0,0,1,.322.46.965.965,0,0,0,.966.966h.805a.966.966,0,0,0,.966-.966.485.485,0,0,1,.321-.46,5.017,5.017,0,0,0,.645-.27.492.492,0,0,1,.563.089.966.966,0,0,0,1.375,0l.57-.57a.965.965,0,0,0,0-1.374.492.492,0,0,1-.091-.564,5.454,5.454,0,0,0,.27-.643.49.49,0,0,1,.461-.322.966.966,0,0,0,.966-.966v-.805a.967.967,0,0,0-.966-.975Zm-5.508,4.68a3.312,3.312,0,1,1,3.313-3.313,3.313,3.313,0,0,1-3.313,3.313Zm0-22.373h0A4.538,4.538,0,1,0,27.221,10a4.533,4.533,0,0,0-3.2-1.329Zm-1.729,6.257a.238.238,0,0,1,0,.342.228.228,0,0,1-.17.071.242.242,0,0,1-.171-.071,2.928,2.928,0,0,1,0-4.137.242.242,0,0,1,.342,0,.238.238,0,0,1,0,.342,2.442,2.442,0,0,0,0,3.454Zm1.97.216a.241.241,0,1,1-.483,0V14.9a.241.241,0,1,1,.483,0Zm0-1.184a.241.241,0,1,1-.483,0v-2.7a.241.241,0,1,1,.483,0Zm1.829,1.31a.242.242,0,0,1-.171.071.228.228,0,0,1-.17-.071.238.238,0,0,1,0-.342,2.442,2.442,0,0,0,0-3.454.238.238,0,0,1,0-.342.242.242,0,0,1,.342,0,2.928,2.928,0,0,1,0,4.137Zm-9.153,4.072a1.887,1.887,0,1,0,1.887,1.887,1.884,1.884,0,0,0-1.887-1.887Zm0,2.853a.966.966,0,0,1-.966-.966.241.241,0,1,1,.483,0,.483.483,0,0,0,.483.483.241.241,0,0,1,0,.483Zm.728-.724a.242.242,0,0,1-.241-.241.49.49,0,0,0-.486-.486.241.241,0,1,1,0-.483.966.966,0,0,1,.966.966.244.244,0,0,1-.225.245Zm.3,3.573a.26.26,0,0,1,.183-.247c.11-.039.218-.087.322-.135a1.462,1.462,0,0,1,.321-1.568l.573-.573a1.455,1.455,0,0,1,1.047-.435,1.477,1.477,0,0,1,.579.123.746.746,0,0,0,.524-.709v-.55a.747.747,0,0,0-.746-.747.267.267,0,0,1-.251-.183,3.5,3.5,0,0,0-.191-.456.272.272,0,0,1,.048-.307.74.74,0,0,0,0-1.055l-.4-.4a.74.74,0,0,0-1.055,0,.266.266,0,0,1-.322.048,3.449,3.449,0,0,0-.458-.191.271.271,0,0,1-.183-.251.747.747,0,0,0-.746-.746h-.544a.747.747,0,0,0-.747.746.27.27,0,0,1-.18.251,3.155,3.155,0,0,0-.458.191.266.266,0,0,1-.305-.048.745.745,0,0,0-1.059,0l-.4.4a.745.745,0,0,0,0,1.055.268.268,0,0,1,.048.307,4.457,4.457,0,0,0-.177.456.26.26,0,0,1-.247.183.752.752,0,0,0-.751.747v.56a.752.752,0,0,0,.751.747.265.265,0,0,1,.247.18,4.491,4.491,0,0,0,.19.46.257.257,0,0,1-.048.3.753.753,0,0,0,0,1.059l.384.4a.753.753,0,0,0,1.059,0,.259.259,0,0,1,.305-.048,3.687,3.687,0,0,0,.458.19.265.265,0,0,1,.18.247.752.752,0,0,0,.747.751h.56a.75.75,0,0,0,.747-.757Zm-3.384-3.815a2.369,2.369,0,1,1,2.356,2.37A2.37,2.37,0,0,1,14.578,21.233ZM31.1,19.347a1.887,1.887,0,1,0,1.886,1.887A1.887,1.887,0,0,0,31.1,19.347Zm0,2.853a.965.965,0,0,1-.966-.966.241.241,0,1,1,.483,0,.485.485,0,0,0,.483.483.241.241,0,1,1,0,.483Zm.724-.724a.244.244,0,0,1-.241-.241.487.487,0,0,0-.483-.486.241.241,0,0,1,0-.483.967.967,0,0,1,.966.966.243.243,0,0,1-.075.177.239.239,0,0,1-.18.068Zm3.09-1.269a.26.26,0,0,1-.249-.183,3.952,3.952,0,0,0-.19-.456.264.264,0,0,1,.048-.307.749.749,0,0,0,0-1.055l-.409-.4a.745.745,0,0,0-1.059,0,.258.258,0,0,1-.3.048,3.325,3.325,0,0,0-.46-.191.27.27,0,0,1-.18-.251.747.747,0,0,0-.747-.746h-.56a.747.747,0,0,0-.747.746.267.267,0,0,1-.183.251,3.5,3.5,0,0,0-.456.191.273.273,0,0,1-.322-.048.742.742,0,0,0-1.056,0l-.4.4a.747.747,0,0,0,0,1.055.264.264,0,0,1,.048.307,3.5,3.5,0,0,0-.19.456.268.268,0,0,1-.251.183.747.747,0,0,0-.747.747v.56a.749.749,0,0,0,.525.709,1.472,1.472,0,0,1,.579-.123,1.45,1.45,0,0,1,1.03.425l.57.573a1.458,1.458,0,0,1,.322,1.568c.106.048.216.1.322.135a.262.262,0,0,1,.183.247.749.749,0,0,0,.746.75h.56a.75.75,0,0,0,.747-.75.264.264,0,0,1,.18-.247,3.745,3.745,0,0,0,.461-.191.261.261,0,0,1,.3.048.753.753,0,0,0,1.06,0l.4-.4a.753.753,0,0,0,0-1.059.257.257,0,0,1-.048-.3,3.887,3.887,0,0,0,.2-.46.265.265,0,0,1,.247-.18.752.752,0,0,0,.751-.747v-.56a.751.751,0,0,0-.738-.747ZM31.1,23.6a2.37,2.37,0,1,1,2.369-2.37A2.372,2.372,0,0,1,31.1,23.6Z" transform="translate(1428.234 745.07)" fill="#fff"/>
  </g>
</svg>
