<svg xmlns="http://www.w3.org/2000/svg" width="40" height="40" viewBox="0 0 40 40">
  <g id="Group_16963" data-name="Group 16963" transform="translate(0 -0.5)">
    <rect id="Rectangle_12736" data-name="Rectangle 12736" width="40" height="40" rx="6" transform="translate(0 0.5)" fill="#069"/>
    <path id="Path_17552" data-name="Path 17552" d="M10.2,22.684v5.959c0,2.949,3.164,5.606,5.327,5.606s5.327-2.657,5.327-5.606V22.684a8.07,8.07,0,0,1-5.327-1.846A8.072,8.072,0,0,1,10.2,22.684Zm8.833,2.288a1.44,1.44,0,0,1,0,2.035L15.644,30.4a1.438,1.438,0,0,1-2.035,0L11.9,28.684a1.439,1.439,0,0,1,2.035-2.035l.7.7L17,24.972a1.44,1.44,0,0,1,2.034,0Zm-4.407,3.5a.465.465,0,0,0,.329-.137l2.7-2.7a.508.508,0,0,1,.718.718l-3.389,3.389a.508.508,0,0,1-.718,0l-1.713-1.713a.508.508,0,1,1,.718-.718L14.3,28.331a.465.465,0,0,0,.329.137Zm8.063-25.41a6.03,6.03,0,0,1-.066-1.084C22.667,1.322,23.635,1,24.6,1s1.939.322,1.982.974a6.031,6.031,0,0,1-.066,1.084A2.837,2.837,0,0,0,22.689,3.058Zm1.916.186a1.912,1.912,0,1,1-1.912,1.912A1.912,1.912,0,0,1,24.6,3.244Zm2.46,3.333a2.832,2.832,0,0,0,.229-2.345c.009-.063.019-.126.028-.188.09-.6.169-1.144.194-1.613a6.162,6.162,0,0,1,3.176,4.5H27.073Q27.064,6.756,27.065,6.577Zm-4.927.35H18.519a6.163,6.163,0,0,1,3.176-4.494c.024.47.1,1.011.194,1.613.009.061.019.125.028.188a2.832,2.832,0,0,0,.228,2.343q0,.179-.008.351Zm9.9,23.489v-5.01a.465.465,0,1,0-.93,0v5.013H21.475a5.451,5.451,0,0,0,.31-1.775V22.684a.93.93,0,0,0-.93-.93,7.135,7.135,0,0,1-3.812-.992,12.238,12.238,0,0,1,3.8-2.019c1.7,1.777,5.838,1.777,7.535,0a12.272,12.272,0,0,1,8.5,11.675ZM20.583,14.354a11.868,11.868,0,0,1-1.686-3.81H30.313a11.876,11.876,0,0,1-1.686,3.81C27.057,16.538,22.152,16.538,20.583,14.354ZM17.494,8.848V8.625a.767.767,0,0,1,.765-.765H30.95a.767.767,0,0,1,.765.765v.223a.767.767,0,0,1-.765.765H18.258A.767.767,0,0,1,17.494,8.848Z" transform="translate(-3.536 2.375)" fill="#fff"/>
  </g>
</svg>
