<svg xmlns="http://www.w3.org/2000/svg" width="40" height="40" viewBox="0 0 40 40">
  <g id="Group_19921" data-name="Group 19921" transform="translate(-940 -256)">
    <rect id="Rectangle_12738" data-name="Rectangle 12738" width="40" height="40" rx="6" transform="translate(940 256)" fill="#f6bf42"/>
    <path id="Path_17129" data-name="Path 17129" d="M22.59,9.367h-1.35a9.577,9.577,0,0,0-1.273-3.074l.97-.954a.551.551,0,0,0,0-.782L18.585,2.2a.551.551,0,0,0-.782,0l-.954.97A9.578,9.578,0,0,0,13.775,1.9V.552A.551.551,0,0,0,13.224,0H9.918a.551.551,0,0,0-.551.551V1.9A9.577,9.577,0,0,0,6.293,3.174L5.339,2.2a.551.551,0,0,0-.782,0L2.2,4.557a.551.551,0,0,0,0,.782l.954.954A9.58,9.58,0,0,0,1.9,9.367H.552A.551.551,0,0,0,0,9.918v3.307a.551.551,0,0,0,.551.551H1.9A9.577,9.577,0,0,0,3.174,16.85L2.2,17.8a.551.551,0,0,0,0,.782l2.353,2.353a.551.551,0,0,0,.782,0l.954-.954a9.58,9.58,0,0,0,3.074,1.257v1.35a.551.551,0,0,0,.551.551h3.307a.551.551,0,0,0,.551-.551v-1.35a9.577,9.577,0,0,0,3.074-1.273l.954.97a.551.551,0,0,0,.782,0l2.353-2.353a.551.551,0,0,0,0-.782l-.954-.954a9.58,9.58,0,0,0,1.257-3.074h1.35a.551.551,0,0,0,.551-.551V9.918a.551.551,0,0,0-.551-.551ZM11.571,19.285a7.713,7.713,0,1,1,5.454-2.259,7.714,7.714,0,0,1-5.454,2.259Zm6.061-8.265h.551A6.555,6.555,0,0,0,16.64,7.306l-.363.369h0a.553.553,0,1,1-.782-.783l.369-.363a6.554,6.554,0,0,0-3.741-1.543V5.51a.551.551,0,1,1-1.1,0V4.987A6.562,6.562,0,0,0,7.306,6.53l.369.363h0a.554.554,0,0,1-.783.783l-.363-.369h0A6.562,6.562,0,0,0,4.986,11.02H5.51a.551.551,0,1,1,0,1.1H4.986a6.562,6.562,0,0,0,1.543,3.714l.363-.369h0a.554.554,0,0,1,.783.783l-.369.363h0a6.559,6.559,0,0,0,3.714,1.57v-.551a.551.551,0,0,1,1.1,0v.551h0a6.555,6.555,0,0,0,3.714-1.542l-.369-.363h0a.553.553,0,1,1,.783-.782l.363.369a6.556,6.556,0,0,0,1.57-3.741h-.551a.551.551,0,1,1,0-1.1Zm-4.016,2.6h0a.549.549,0,0,1-.782,0l-.981-.981a1.139,1.139,0,0,1-.281.039,1.1,1.1,0,0,1-.551-2.049V8.816a.551.551,0,0,1,1.1,0v1.808a1.1,1.1,0,0,1,.551.947,1.139,1.139,0,0,1-.039.281l.981.981a.549.549,0,0,1,0,.782Z" transform="translate(948.429 264.43)"/>
  </g>
</svg>
