<svg xmlns="http://www.w3.org/2000/svg" width="19.375" height="19.676" viewBox="0 0 19.375 19.676">
  <g id="Group_18936" data-name="Group 18936" transform="translate(-24.725 -115)">
    <path id="Path_17334" data-name="Path 17334" d="M75.363,17.957h2.553v4.021H75.363Z" transform="translate(-37.026 99)" fill="#e1f5ff"/>
    <path id="Path_17335" data-name="Path 17335" d="M60.309,10h7v1.438h-7Z" transform="translate(-25.675 104.996)" fill="#e1f5ff"/>
    <path id="Path_17336" data-name="Path 17336" d="M60.309,23.969a.677.677,0,0,0,.676.676h1.832a.677.677,0,0,0,.676-.676V17.957H60.934l-.624,4.3Z" transform="translate(-27.584 99)" fill="#e1f5ff"/>
    <path id="Path_17337" data-name="Path 17337" d="M45.1,73.211H35.263a2.065,2.065,0,1,0,0,4.129H45.1a2.065,2.065,0,1,0,0-4.129Zm-9.587,3.473a1.426,1.426,0,1,1,1.426-1.426A1.428,1.428,0,0,1,35.517,76.684Zm4.666,0a1.426,1.426,0,1,1,1.426-1.426A1.428,1.428,0,0,1,40.183,76.684Zm4.667,0a1.426,1.426,0,1,1,1.426-1.426A1.428,1.428,0,0,1,44.851,76.684Z" transform="translate(-5.473 57.336)" fill="#e1f5ff"/>
    <path id="Path_17338" data-name="Path 17338" d="M77.79,77.848a.908.908,0,1,0,.908.908A.909.909,0,0,0,77.79,77.848Z" transform="translate(-43.157 53.838)" fill="#e1f5ff"/>
    <path id="Path_17339" data-name="Path 17339" d="M58.814,77.848a.908.908,0,1,0,.908.908A.909.909,0,0,0,58.814,77.848Z" transform="translate(-24.181 53.838)" fill="#e1f5ff"/>
    <path id="Path_17340" data-name="Path 17340" d="M39.841,77.848a.908.908,0,1,0,.908.908A.909.909,0,0,0,39.841,77.848Z" transform="translate(-5.208 53.838)" fill="#e1f5ff"/>
    <path id="Path_17341" data-name="Path 17341" d="M48.3,65.23l-.381,1.445h6.732l-.381-1.445Z" transform="translate(-16.189 63.354)" fill="#e1f5ff"/>
    <path id="Path_17342" data-name="Path 17342" d="M36.355,57.92H49.549v-1.7H36.355Z" transform="translate(-8.63 70.145)" fill="#e1f5ff"/>
    <path id="Path_17343" data-name="Path 17343" d="M13.9,14.965l3.053,3.053v2.833H29.375V17.1a.6.6,0,0,0-.6-.6h-2.7V17.97a1.2,1.2,0,0,1-1.194,1.194H23.049a1.2,1.2,0,0,1-1.194-1.194V16.542l-4.272.717L14.626,14.3a5.545,5.545,0,0,0,1.474-3.77V10H10v6.1h.532A5.537,5.537,0,0,0,13.9,14.965Zm-2.711-.941a2.6,2.6,0,0,0,1.923-1.107.259.259,0,0,1,.444.266,3.115,3.115,0,0,1-2.316,1.356h-.026a.259.259,0,0,1-.025-.516Z" transform="translate(14.726 105)" fill="#e1f5ff"/>
  </g>
</svg>
