<svg xmlns="http://www.w3.org/2000/svg" width="40" height="40" viewBox="0 0 40 40">
  <g id="Group_19924" data-name="Group 19924" transform="translate(-908 19361.523)">
    <rect id="Rectangle_12742" data-name="Rectangle 12742" width="40" height="40" rx="6" transform="translate(908 -19361.523)" fill="#6f7884"/>
    <path id="Path_17559" data-name="Path 17559" d="M7.744,20.207a.494.494,0,1,1-.494-.494.494.494,0,0,1,.494.494ZM7.25,21.859A1.652,1.652,0,1,1,8.9,20.207,1.652,1.652,0,0,1,7.25,21.859Zm.994-1.652a.994.994,0,1,0-.994.994A.994.994,0,0,0,8.244,20.207ZM32,13.266H30.486v1.889H32ZM9.812,15.5a.885.885,0,1,0,.885.885.885.885,0,0,0-.885-.885Zm13.478,7.381a5.685,5.685,0,0,0-.61-1.474l-.1-.167,1.473-1.473-1.763-1.763-1.473,1.473-.167-.1a5.683,5.683,0,0,0-1.474-.61l-.187-.048V16.64H16.495v2.1l-.206.037a4.951,4.951,0,0,0-1.456.606l-.167.1-1.473-1.473-1.763,1.763L12.9,21.244l-.1.167a5.7,5.7,0,0,0-.611,1.474l-.048.188H10.062v2.494h2.084l.049.188a5.691,5.691,0,0,0,.61,1.475l.1.167-1.473,1.474,1.763,1.763,1.473-1.473.167.1a5.723,5.723,0,0,0,1.475.61l.187.049V32h2.494V29.917l.188-.049a5.708,5.708,0,0,0,1.475-.61l.167-.1,1.473,1.473,1.763-1.763L22.581,27.4l.1-.167a5.687,5.687,0,0,0,.61-1.475l.048-.187h2.084V23.073H23.338Zm-5.548,5.354a3.92,3.92,0,1,1,3.919-3.919,3.92,3.92,0,0,1-3.919,3.919Zm-1.4-14.866a1.652,1.652,0,1,0-1.652-1.652A1.652,1.652,0,0,0,16.344,13.373Zm0-2.646a.994.994,0,1,1-.994.994A.994.994,0,0,1,16.344,10.727Zm-.494.994a.494.494,0,1,1,.494.494.494.494,0,0,1-.494-.494ZM20.3,12.9v-.894l-1.829-.035a2.14,2.14,0,0,1-4.253,0H12.6a.314.314,0,0,0-.259.105.361.361,0,0,0-.107.258v1.719H9.7a2.2,2.2,0,0,0-2.2,2.2V18.08a2.14,2.14,0,0,1,0,4.254v1.351a.364.364,0,0,0,.363.363h1.7V22.573h2.2a6.194,6.194,0,0,1,.516-1.247l-1.555-1.555,2.47-2.47,1.555,1.555a5.686,5.686,0,0,1,1.248-.525V16.14h3.494v2.2a6.2,6.2,0,0,1,1.247.516L22.291,17.3l2.47,2.47-1.555,1.555a6.191,6.191,0,0,1,.516,1.247h2.2v1.475h2.092a.364.364,0,0,0,.363-.363v-8.03H23.049A2.753,2.753,0,0,1,20.3,12.9ZM9.812,17.775A1.385,1.385,0,1,1,11.2,16.39,1.385,1.385,0,0,1,9.812,17.775Zm20.175-4.509v1.889H23.049a2.248,2.248,0,0,1-2.213-1.889Z" transform="translate(909.516 -19362.559)" fill="#fff"/>
  </g>
</svg>
