<svg id="Group_16865" data-name="Group 16865" xmlns="http://www.w3.org/2000/svg" width="20.424" height="20.424" viewBox="0 0 20.424 20.424">
  <path id="Path_17325" data-name="Path 17325" d="M12.34,0a1.708,1.708,0,0,0-1.7,1.7V7.238a5.411,5.411,0,0,1,3.4-.273V1.7A1.708,1.708,0,0,0,12.34,0ZM7.659,2.553a1.708,1.708,0,0,0-1.7,1.7v6.806H4.68V6.806a1.7,1.7,0,0,0-3.4,0v4.254a1.277,1.277,0,0,0,0,2.553H7.391a5.476,5.476,0,0,1-.155-1.272c0-.168.016-.333.032-.5.011-.121.029-.24.047-.358.016-.1.033-.2.054-.3A5.546,5.546,0,0,1,9.361,8V4.255A1.708,1.708,0,0,0,7.659,2.553Zm5.106,5.1a4.682,4.682,0,1,0,2,8.91l3.485,3.485a1.276,1.276,0,0,0,1.805-1.805l-3.364-3.364a4.676,4.676,0,0,0-3.923-7.226Zm0,.852a3.83,3.83,0,0,1,3.068,6.12.426.426,0,0,0-.037.042,3.825,3.825,0,0,1-1.161,1,.425.425,0,0,0-.064.044,3.83,3.83,0,1,1-1.806-7.21Zm0,.851a2.979,2.979,0,1,0,2.978,2.981A2.986,2.986,0,0,0,12.765,9.36Z" fill="#fff"/>
</svg>
