<svg xmlns="http://www.w3.org/2000/svg" width="40.155" height="40.155" viewBox="0 0 40.155 40.155">
  <g id="Group_19935" data-name="Group 19935" transform="translate(-14.691 -815.764)">
    <path id="Color" d="M8,0H32.155a8,8,0,0,1,8,8V32.155a8,8,0,0,1-8,8H8a8,8,0,0,1-8-8V8A8,8,0,0,1,8,0Z" transform="translate(14.691 815.764)" fill="#069"/>
    <g id="noun-structural-engineering-7023077" transform="translate(15.946 818.645)">
      <path id="Path_17668" data-name="Path 17668" d="M28.6,26.82H10.682a.253.253,0,0,0-.25.25v.6a.253.253,0,0,0,.25.25H28.6a.253.253,0,0,0,.25-.25v-.6a.253.253,0,0,0-.25-.25ZM17.7,14.961V10.644L15.451,9.39v7.848a.96.96,0,0,1,.326-.566,1.117,1.117,0,0,1,.728-.267h1.018v-.877a1,1,0,0,1,.177-.566Zm2-.465h-1.08V10.374h0a.46.46,0,0,0-.237-.4L15.212,8.2a.459.459,0,0,0-.417-.016l-1.039.439V7.681l5.95-2.306v9.119Zm3.174,1.912V6.743L20.629,5.488v9.007H20.7a1.087,1.087,0,0,1,.743.293,1.009,1.009,0,0,1,.324.737V16.4h1.018c.034,0,.066,0,.1,0Zm.043.982v4.46a.463.463,0,1,0,.926,0V19.279a7.951,7.951,0,0,1,2.528,2.548A7.866,7.866,0,0,1,27.549,25.9H11.738a7.87,7.87,0,0,1,1.173-4.068,7.96,7.96,0,0,1,2.3-2.4.51.51,0,0,0,.068-.045l.16-.1v2.571a.463.463,0,1,0,.926,0V17.387s.006-.012.017-.02a.189.189,0,0,1,.124-.039h1.018v5.8a.463.463,0,1,0,.926,0v-7.6a.084.084,0,0,1,.022-.054l.022-.02a.169.169,0,0,1,.1-.031H20.7a.161.161,0,0,1,.111.04.092.092,0,0,1,.031.065v7.6a.463.463,0,1,0,.926,0v-5.8h1.018a.187.187,0,0,1,.124.039l.012.012,0,.01ZM10.825,25.5H7.253v1.263H9.547a1.179,1.179,0,0,1,1.135-.87h.131c0-.131,0-.263.012-.392ZM9.15,24.577h1.773a8.782,8.782,0,0,1,1.2-3.235,8.891,8.891,0,0,1,2.4-2.561V9.3l-1.016.429a.53.53,0,0,1-.077.033L9.15,11.574Z" transform="translate(0)" fill="#fff" fill-rule="evenodd"/>
    </g>
  </g>
</svg>
