<svg xmlns="http://www.w3.org/2000/svg" width="40.155" height="40.155" viewBox="0 0 40.155 40.155">
  <g id="Group_19944" data-name="Group 19944" transform="translate(-317.691 -950.764)">
    <g id="Group_19931" data-name="Group 19931" transform="translate(303 842.365)">
      <path id="Color" d="M8,0H32.155a8,8,0,0,1,8,8V32.155a8,8,0,0,1-8,8H8a8,8,0,0,1-8-8V8A8,8,0,0,1,8,0Z" transform="translate(14.691 108.398)" fill="#069"/>
    </g>
    <path id="Path_17854" data-name="Path 17854" d="M16.562,12.451a.468.468,0,0,1,.252.111.215.215,0,0,1,.027.024l1.108,1.108a.465.465,0,0,1,.135.283.459.459,0,0,1-.074.3l-.52.8.024.048,7.448-2-.7-2.6a.293.293,0,0,1,.4-.343,1.372,1.372,0,0,0,.413.1,1.279,1.279,0,0,0,.432-.042,1.327,1.327,0,0,0,.8-.618l.008-.013a1.323,1.323,0,0,0-.493-1.8l-.013-.008a1.333,1.333,0,0,0-.992-.125,1.313,1.313,0,0,0-.712.475.3.3,0,0,1-.411.056.285.285,0,0,1-.106-.156l-.7-2.6-2.116.568c.016.024.031.045.048.069A1.9,1.9,0,0,1,20.9,8.116a1.91,1.91,0,0,1-2.61.7l-.016-.011A1.9,1.9,0,0,1,17.4,7.656a1.926,1.926,0,0,1-.061-.623.8.8,0,0,1,.008-.085l-2.116.568,1.321,4.933Zm-2.8,10.171V25.3H16.45a.293.293,0,0,1,.231.472,1.307,1.307,0,0,0-.2.382,1.336,1.336,0,0,0-.072.43,1.323,1.323,0,1,0,2.646,0,1.349,1.349,0,0,0-.069-.43,1.333,1.333,0,0,0-.194-.366.295.295,0,0,1,.22-.49H21.7V23.108l-.08.03a1.91,1.91,0,1,1,0-3.614c.027.008.053.019.08.03V17.362H19.019v.491a.461.461,0,0,1-.106.294.45.45,0,0,1-.265.161l-.934.2c-.031.093-.066.186-.1.276s-.08.18-.122.271l.52.8a.459.459,0,0,1,.074.3.465.465,0,0,1-.135.283l-1.108,1.108a.465.465,0,0,1-.283.135.459.459,0,0,1-.3-.074l-.8-.52c-.088.045-.178.085-.271.122s-.183.072-.276.1l-.2.934a.467.467,0,0,1-.161.265.475.475,0,0,1-.294.106H13.76Zm-5.848-5.26H5.237v2.689a.28.28,0,0,1-.061.178.3.3,0,0,1-.411.053,1.241,1.241,0,0,0-.382-.2,1.335,1.335,0,0,0-.43-.069,1.323,1.323,0,1,0,0,2.646,1.349,1.349,0,0,0,.43-.069,1.333,1.333,0,0,0,.366-.194.295.295,0,0,1,.49.22V25.3H7.43c-.011-.027-.019-.053-.03-.08a1.91,1.91,0,1,1,3.614,0c-.008.027-.019.053-.03.08h2.191V22.623h-.491a.464.464,0,0,1-.294-.1.45.45,0,0,1-.161-.265l-.2-.934c-.093-.031-.186-.066-.276-.1s-.18-.08-.271-.122l-.8.52a.459.459,0,0,1-.3.074.465.465,0,0,1-.283-.135L8.989,20.446a.465.465,0,0,1-.135-.283.459.459,0,0,1,.074-.3l.52-.8c-.042-.088-.085-.178-.122-.271s-.072-.183-.1-.276l-.934-.2a.467.467,0,0,1-.265-.161.475.475,0,0,1-.106-.294v-.491Zm-2.676-.587H7.913v-.491a.467.467,0,0,1,.106-.294.45.45,0,0,1,.265-.161l.934-.2c.031-.093.066-.186.1-.276s.08-.18.122-.271l-.52-.8a.459.459,0,0,1-.074-.3.483.483,0,0,1,.111-.257.215.215,0,0,1,.024-.027l1.108-1.108a.473.473,0,0,1,.283-.135.459.459,0,0,1,.3.074l.8.52c.088-.042.178-.085.271-.122s.183-.072.276-.1l.2-.934a.477.477,0,0,1,.135-.241.191.191,0,0,1,.027-.024.466.466,0,0,1,.294-.1h.491V8.84H10.483a.293.293,0,0,1-.231-.472,1.307,1.307,0,0,0,.2-.382,1.335,1.335,0,0,0,.069-.43,1.323,1.323,0,1,0-2.646,0,1.349,1.349,0,0,0,.069.43,1.333,1.333,0,0,0,.194.366.295.295,0,0,1-.22.49H5.232v2.191l.08-.03a1.91,1.91,0,1,1,0,3.614c-.027-.008-.053-.019-.08-.03v2.191Zm10.007-1.48a2.512,2.512,0,1,1-1.775-.734A2.5,2.5,0,0,1,15.244,15.295Zm-1.775-1.321a3.1,3.1,0,1,1-2.188.907A3.084,3.084,0,0,1,13.469,13.974Zm.9-.867a.3.3,0,0,0,.2.22,3.526,3.526,0,0,1,.387.138,3.273,3.273,0,0,1,.36.172.292.292,0,0,0,.308-.008l.862-.56.976.976-.56.862a.3.3,0,0,0-.011.3,3.429,3.429,0,0,1,.175.369,3.628,3.628,0,0,1,.133.377.291.291,0,0,0,.222.215l1,.215v1.379l-1,.215a.3.3,0,0,0-.22.2,3.526,3.526,0,0,1-.138.387,3.274,3.274,0,0,1-.172.36.292.292,0,0,0,.008.308l.56.862-.976.976-.862-.56a.3.3,0,0,0-.3-.011,3.429,3.429,0,0,1-.369.175,3.629,3.629,0,0,1-.377.133.291.291,0,0,0-.215.222l-.215,1H12.775l-.215-1a.3.3,0,0,0-.2-.22,3.525,3.525,0,0,1-.387-.138,3.273,3.273,0,0,1-.36-.172.292.292,0,0,0-.308.008l-.862.56L9.463,20.1l.56-.862a.3.3,0,0,0,.011-.3,3.428,3.428,0,0,1-.175-.369,3.628,3.628,0,0,1-.133-.377.291.291,0,0,0-.222-.215l-1-.215V16.379l1-.215a.3.3,0,0,0,.22-.2,3.527,3.527,0,0,1,.138-.387,3.274,3.274,0,0,1,.172-.36.292.292,0,0,0-.008-.308l-.56-.862.976-.976.862.56a.3.3,0,0,0,.3.011,3.428,3.428,0,0,1,.369-.175,3.629,3.629,0,0,1,.377-.133.291.291,0,0,0,.215-.222l.215-1h1.379Z" transform="translate(323.207 954.857)" fill="#fff" fill-rule="evenodd"/>
  </g>
</svg>
