<svg xmlns="http://www.w3.org/2000/svg" width="40.155" height="40.155" viewBox="0 0 40.155 40.155">
  <g id="Group_19943" data-name="Group 19943" transform="translate(-317.691 -888.572)">
    <rect id="Color" width="40.155" height="40.155" rx="8" transform="translate(317.691 888.572)" fill="#069"/>
    <path id="Path_17853" data-name="Path 17853" d="M22.382,2.881a8.392,8.392,0,1,1-8.392,8.392,8.392,8.392,0,0,1,8.392-8.392ZM12.128,21.027l2.885,5.1a.517.517,0,0,1-.194.7l-.981.555a.517.517,0,0,1-.7-.194l-2.885-5.1a.517.517,0,0,1,.194-.7l.981-.555a.517.517,0,0,1,.7.195Zm8.6,1.218a.615.615,0,0,0,.768-.441.65.65,0,0,0-.443-.769,19.185,19.185,0,0,1-3.019-.895,2.359,2.359,0,0,0-2.676.147l-2.036,1.179,1.735,3.066.033-.019a.406.406,0,0,1,.308-.04l4.831,1.293a2.022,2.022,0,0,0,1.687-.249l6.631-4.083a.7.7,0,0,0,.257-.669.639.639,0,0,0-.332-.525c-.333-.169-.917-.115-1.829.416l-3.67,2.138a2.726,2.726,0,0,1-.928.339,8.376,8.376,0,0,1-3.114-.51c-.262-.075-.528-.151-.787-.22a.409.409,0,0,1,.211-.79c.789.212,1.573.466,2.374.632Zm-9.257-.454a.35.35,0,1,0,.4.3.35.35,0,0,0-.4-.3Zm16.278-6.782-3.41-3.41a.358.358,0,0,0-.506,0l-1.122,1.122a.358.358,0,0,0,0,.506l3.41,3.41,1.627-1.627Zm-5.469-3.014.828-.828-3.4-3.4-.334-.9-1.518-.95-.828.828.95,1.518.9.334,3.4,3.4ZM19.52,13.142a1.815,1.815,0,0,0-2.41,2.245L18.4,14.1l.914.245.245.914-1.29,1.29a1.815,1.815,0,0,0,2.245-2.41l1.277-1.277a1.194,1.194,0,0,1,.027-.164l-.925-.925L19.52,13.142Zm4.447-2.461L25.244,9.4a1.815,1.815,0,0,0,2.41-2.245l-1.29,1.29L25.451,8.2l-.245-.914L26.5,6a1.815,1.815,0,0,0-2.245,2.41L22.878,9.784l.925.925A1.144,1.144,0,0,1,23.967,10.681Z" transform="translate(317.506 893.955)" fill="#fff" fill-rule="evenodd"/>
  </g>
</svg>
